<svg xmlns="http://www.w3.org/2000/svg" width="492.4" height="109.9" viewBox="0 0 492.4 109.9"><path d="M13.8 16H4.9l-2 5.6H0L8.1.3h2.5l8.1 21.3h-2.8zm-8-2.3H13L9.4 3.8zm15.8 7.9V.3h7a8.5 8.5 0 0 1 5.2 1.4A5.2 5.2 0 0 1 35.6 6a4.1 4.1 0 0 1-.9 2.6 5.2 5.2 0 0 1-2.3 1.8 4.7 4.7 0 0 1 2.7 1.8 5.2 5.2 0 0 1 1 3.3 5.8 5.8 0 0 1-1.8 4.5 7.8 7.8 0 0 1-5.3 1.6zm2.8-12.2h4.3a4.4 4.4 0 0 0 2.9-.9 3.1 3.1 0 0 0 1.1-2.6 2.9 2.9 0 0 0-1-2.5 5.2 5.2 0 0 0-3.1-.8h-4.2zm0 2.2v7.7h4.7a4.5 4.5 0 0 0 3.1-1 3.8 3.8 0 0 0 1.1-2.8q0-3.9-4.2-3.9zM56 14.8a8.3 8.3 0 0 1-2.5 5.3 8.4 8.4 0 0 1-5.6 1.8 7.6 7.6 0 0 1-6.1-2.7 11 11 0 0 1-2.3-7.3v-2a12.1 12.1 0 0 1 1.1-5.2 7.9 7.9 0 0 1 3-3.5A8.4 8.4 0 0 1 48.1 0a7.7 7.7 0 0 1 5.5 1.9A8.7 8.7 0 0 1 56 7.1h-2.9a5.6 5.6 0 0 0-1.6-3.7 5 5 0 0 0-3.4-1.1 5 5 0 0 0-4.2 2 9.2 9.2 0 0 0-1.5 5.7v2a9.7 9.7 0 0 0 1.4 5.5 4.7 4.7 0 0 0 4.1 2.1 5.7 5.7 0 0 0 3.6-1.1 5.6 5.6 0 0 0 1.6-3.7zm3.8 6.8V.3h6a9.6 9.6 0 0 1 4.9 1.2A8.6 8.6 0 0 1 74 5a11.1 11.1 0 0 1 1.2 5.2v1.4a11.2 11.2 0 0 1-1.2 5.3 7.9 7.9 0 0 1-3.3 3.5 10 10 0 0 1-5 1.2zm2.8-19v16.7h3a6.5 6.5 0 0 0 5-2 8.6 8.6 0 0 0 1.8-5.8v-1.2a9 9 0 0 0-1.7-5.7 6 6 0 0 0-4.8-2zm28.9 9.2h-9.2v7.5H93v2.3H79.4V.3h13.4v2.3H82.3v6.9h9.2zm16.7.4h-8.9v9.4h-2.8V.3h13.2v2.3H99.3v7.3h8.9zm20.6 6.6a6.4 6.4 0 0 1-3 2.3 12.6 12.6 0 0 1-4.6.8 9 9 0 0 1-4.6-1.2 8.1 8.1 0 0 1-3.1-3.5 12.1 12.1 0 0 1-1.1-5.2v-1.9c0-3.2.7-5.7 2.2-7.5a8 8 0 0 1 6.3-2.6 8.5 8.5 0 0 1 5.4 1.7 7.7 7.7 0 0 1 2.5 4.8H126c-.6-2.8-2.2-4.2-5.1-4.2a4.9 4.9 0 0 0-4.2 2 9.2 9.2 0 0 0-1.5 5.7v1.8a9 9 0 0 0 1.6 5.7 5.4 5.4 0 0 0 4.5 2.1 7.7 7.7 0 0 0 2.7-.4 4.3 4.3 0 0 0 2-1.1v-4.8h-4.9V11h7.7zm21 2.8H147v-9.8h-10.7v9.8h-2.8V.3h2.8v9.2H147V.3h2.8zm8 0H155V.3h2.8zM171.9.3h2.8v15.1a6.5 6.5 0 0 1-1.8 4.8 7.1 7.1 0 0 1-4.9 1.7 6.7 6.7 0 0 1-4.9-1.6 5.9 5.9 0 0 1-1.8-4.6h2.8a3.9 3.9 0 0 0 1 2.9 4.4 4.4 0 0 0 5.7-.1 4.3 4.3 0 0 0 1.1-3.1zm13 11.4l-2.6 2.7v7.2h-2.8V.3h2.8v10.5L191.8.3h3.4l-8.4 9.4 9.1 11.9h-3.4zm16.2 7.6h10.1v2.3h-12.9V.3h2.8zm17-19l6.9 17.4 7-17.4h3.6v21.3h-2.8v-8.3l.3-9-7 17.3H224l-7-17.2.3 8.9v8.3h-2.9V.3zM257 21.6h-2.8L243.4 5.2v16.4h-2.8V.3h2.8l10.8 16.5V.3h2.8zm21.4-10a13.5 13.5 0 0 1-1.1 5.5 8.2 8.2 0 0 1-3 3.6 8.4 8.4 0 0 1-4.5 1.2 8.1 8.1 0 0 1-4.4-1.2 9.2 9.2 0 0 1-3.1-3.6 14.3 14.3 0 0 1-1.1-5.3v-1.5a12.7 12.7 0 0 1 1.1-5.4 7.7 7.7 0 0 1 3-3.6 7.7 7.7 0 0 1 4.5-1.3 8.4 8.4 0 0 1 4.5 1.2 8.8 8.8 0 0 1 3 3.6 13.5 13.5 0 0 1 1.1 5.5zm-2.8-1.3a9.9 9.9 0 0 0-1.5-5.9 5.4 5.4 0 0 0-4.3-2 5 5 0 0 0-4.2 2 10.4 10.4 0 0 0-1.6 5.7v1.5a9.1 9.1 0 0 0 1.6 5.8 4.9 4.9 0 0 0 4.2 2.1 5 5 0 0 0 4.2-2 9.9 9.9 0 0 0 1.6-5.7zm9.8 3v8.3h-2.8V.3h7.8a7.8 7.8 0 0 1 5.5 1.8 6 6 0 0 1 2 4.7 5.9 5.9 0 0 1-1.9 4.8 8.5 8.5 0 0 1-5.6 1.7zm0-2.3h5a5.2 5.2 0 0 0 3.5-1.1 3.9 3.9 0 0 0 1.2-3.1 3.9 3.9 0 0 0-1.2-3 4.5 4.5 0 0 0-3.3-1.2h-5.2zm32.4.6a14.4 14.4 0 0 1-1 5.4 8.6 8.6 0 0 1-2.8 3.4l3.8 3-1.9 1.8-4.5-3.6a7.8 7.8 0 0 1-2.2.3 8.4 8.4 0 0 1-4.5-1.2 8.2 8.2 0 0 1-3-3.6 12.5 12.5 0 0 1-1.1-5.3v-1.5a12.7 12.7 0 0 1 1.1-5.4 7.7 7.7 0 0 1 3-3.6 7.7 7.7 0 0 1 4.5-1.3 8.4 8.4 0 0 1 4.5 1.2 8.8 8.8 0 0 1 3 3.6 13.5 13.5 0 0 1 1.1 5.5zm-2.8-1.3a9.6 9.6 0 0 0-1.5-5.8 5.4 5.4 0 0 0-8.5-.1 10.4 10.4 0 0 0-1.6 5.7v1.5a9.1 9.1 0 0 0 1.6 5.8 4.9 4.9 0 0 0 4.2 2.1 5 5 0 0 0 4.2-2 9.9 9.9 0 0 0 1.6-5.7zm14.9 2.7h-5v8.6h-2.8V.3h7a8.5 8.5 0 0 1 5.6 1.6 5.9 5.9 0 0 1 1.9 4.8 5.4 5.4 0 0 1-1.1 3.5 6.4 6.4 0 0 1-2.9 2.2l5 9v.2h-3.1zm-5-2.3h4.3a5.3 5.3 0 0 0 3.4-1.1 3.7 3.7 0 0 0 1.2-2.9 3.8 3.8 0 0 0-1.2-3 5 5 0 0 0-3.4-1.1h-4.3zm21.9 1.4a12 12 0 0 1-5.2-2.6 4.8 4.8 0 0 1-1.7-3.7 5.3 5.3 0 0 1 2-4.2 8.2 8.2 0 0 1 5.3-1.6 10.1 10.1 0 0 1 3.9.8 7.8 7.8 0 0 1 2.7 2.4 6.3 6.3 0 0 1 .9 3.3h-2.8a3.7 3.7 0 0 0-1.3-3.1 5 5 0 0 0-3.4-1.1 5.4 5.4 0 0 0-3.3.9 3.3 3.3 0 0 0-1.1 2.6 2.6 2.6 0 0 0 1.1 2.2 10.9 10.9 0 0 0 3.7 1.6 17.3 17.3 0 0 1 4.2 1.7 6.4 6.4 0 0 1 2.2 2.1 5.1 5.1 0 0 1 .7 2.8 4.7 4.7 0 0 1-2 4.1 8.1 8.1 0 0 1-5.4 1.6 11.5 11.5 0 0 1-4.1-.8 7.6 7.6 0 0 1-2.9-2.4 5.2 5.2 0 0 1-1-3.3h2.8a4 4 0 0 0 1.4 3.1 6.3 6.3 0 0 0 3.8 1.1 5.5 5.5 0 0 0 3.4-.9 2.9 2.9 0 0 0 1.2-2.5 2.8 2.8 0 0 0-1.1-2.4 12 12 0 0 0-4-1.7zm26.3-9.5h-6.9v19h-2.8v-19h-6.8V.3h16.5zM391.2.3v14.5a6.6 6.6 0 0 1-1.9 4.9 7.5 7.5 0 0 1-5.1 2.2h-.7a7.9 7.9 0 0 1-5.6-1.9 6.7 6.7 0 0 1-2.1-5.2V.3h2.8v14.4a4.9 4.9 0 1 0 9.8 0V.3zm11.5 17.6L408.8.3h3.1L404 21.6h-2.5L393.6.3h3.1zm16.6-3l.4 2.8.6-2.5L424.6.3h2.3l4.1 14.9.6 2.5.5-2.8L435.4.3h2.8L433 21.6h-2.5l-4.4-15.5-.3-1.7-.4 1.7-4.5 15.5h-2.6L413.2.3h2.8zm29-6.4l5.1-8.2h3.3L450 10.9l6.9 10.7h-3.4l-5.2-8.3-5.3 8.3h-3.3l6.9-10.7L439.8.3h3.3zm18.3 2.5L472.2.3h3.2L468 13.7v7.9h-2.8v-7.9L457.9.3h3.2zm13.6 8.3h12.2v2.3h-15.5v-2.1l11.7-16.9h-11.5V.3H492v2zM10.4 65.6a5.7 5.7 0 0 1-.4-1.4 5.4 5.4 0 0 1-4 1.7 5.6 5.6 0 0 1-3.9-1.4 4.1 4.1 0 0 1-1.5-3.3 4.4 4.4 0 0 1 1.9-3.9 8.8 8.8 0 0 1 5.3-1.4h2V55a2.4 2.4 0 0 0-.6-1.7c-.3-.5-.9-.7-1.8-.7a2.5 2.5 0 0 0-1.6.5 1.8 1.8 0 0 0-.6 1.4H.9a4 4 0 0 1 .9-2.5 6.5 6.5 0 0 1 2.4-1.9 9.5 9.5 0 0 1 3.5-.6 7.2 7.2 0 0 1 4.6 1.4 5.1 5.1 0 0 1 1.7 4.2v6.8a8 8 0 0 0 .7 3.5v.2zm-3.5-2.9a3.4 3.4 0 0 0 1.7-.5 2.5 2.5 0 0 0 1.2-1.1v-2.7H8.2c-2.1 0-3.2.7-3.4 2.2v.2a1.5 1.5 0 0 0 .6 1.3 1.8 1.8 0 0 0 1.5.6zm24.7-4.9a9.7 9.7 0 0 1-1.7 6 5.4 5.4 0 0 1-4.5 2.1 5 5 0 0 1-4.1-2l-.2 1.7h-3.8V43.1h4.2v8.1a4.8 4.8 0 0 1 3.9-1.7 5.4 5.4 0 0 1 4.5 2.1 9.5 9.5 0 0 1 1.7 6zm-4.3-.3a6.6 6.6 0 0 0-.7-3.5 2.7 2.7 0 0 0-2.3-1.1 2.8 2.8 0 0 0-2.8 1.7v6.2a2.9 2.9 0 0 0 2.8 1.7 2.6 2.6 0 0 0 2.7-2 11.5 11.5 0 0 0 .3-3zm13.4 5a2.4 2.4 0 0 0 1.9-.7 2.1 2.1 0 0 0 .8-1.7h4a5.3 5.3 0 0 1-.9 3 6.1 6.1 0 0 1-2.4 2.1 8.8 8.8 0 0 1-3.3.7 6.7 6.7 0 0 1-5.3-2.2 8.4 8.4 0 0 1-2-5.9v-.3a8.3 8.3 0 0 1 1.9-5.8 6.7 6.7 0 0 1 5.4-2.2 6.4 6.4 0 0 1 4.8 1.7 6.2 6.2 0 0 1 1.8 4.5h-4a2.6 2.6 0 0 0-.8-2 2.1 2.1 0 0 0-1.9-.8 2.3 2.3 0 0 0-2.2 1.1 6 6 0 0 0-.8 3.5v.4a6.2 6.2 0 0 0 .8 3.5 2.5 2.5 0 0 0 2.2 1.1zm8.4-4.9a9.4 9.4 0 0 1 1.7-5.9 5.2 5.2 0 0 1 4.5-2.2 4.8 4.8 0 0 1 3.9 1.7v-8.1h4.2v22.5h-3.8l-.2-1.7a5.1 5.1 0 0 1-4.1 2 5.2 5.2 0 0 1-4.5-2.2 10 10 0 0 1-1.7-6.1zm4.3.3a6.4 6.4 0 0 0 .7 3.4 2.7 2.7 0 0 0 2.3 1.2 3 3 0 0 0 2.8-1.7v-6.2a3 3 0 0 0-2.8-1.7c-2 0-3 1.7-3 5zm20.6 8a7.9 7.9 0 0 1-5.7-2.1 7.7 7.7 0 0 1-2.2-5.7v-.4a9.7 9.7 0 0 1 .9-4.3 6.7 6.7 0 0 1 2.6-2.9 7.6 7.6 0 0 1 3.9-1 6.6 6.6 0 0 1 5.1 2 8.1 8.1 0 0 1 1.9 5.8v1.8H70.4a3.5 3.5 0 0 0 1.2 2.4 3.5 3.5 0 0 0 2.6 1 4.7 4.7 0 0 0 3.9-1.8l2 2.3a5.8 5.8 0 0 1-2.5 2.1 8.6 8.6 0 0 1-3.6.8zm-.5-13a3 3 0 0 0-2.1.8 5.2 5.2 0 0 0-1 2.5h5.9v-.4a2.8 2.8 0 0 0-.7-2.1 2.5 2.5 0 0 0-2.1-.8zM84 65.6V52.9h-2.3v-3.1H84v-1.4a5.1 5.1 0 0 1 1.6-4.1 5.7 5.7 0 0 1 4.2-1.5l2.2.3v3.3h-1.3c-1.6 0-2.4.7-2.4 2.2v1.3h3.1V53h-3.1v12.6zm8.7-8a9 9 0 0 1 1.7-5.9 5.5 5.5 0 0 1 4.7-2.2 4.8 4.8 0 0 1 4 1.8l.2-1.5h3.8v15.3a6.9 6.9 0 0 1-.9 3.6 5.6 5.6 0 0 1-2.7 2.3 8.2 8.2 0 0 1-4 .8 8.3 8.3 0 0 1-3.4-.7 5.2 5.2 0 0 1-2.5-1.8l1.9-2.5a4.8 4.8 0 0 0 3.8 1.7 3.8 3.8 0 0 0 2.7-.9 3.3 3.3 0 0 0 .9-2.5v-.9a5.1 5.1 0 0 1-3.9 1.7 5.5 5.5 0 0 1-4.6-2.2 9.3 9.3 0 0 1-1.7-6zm4.2.3a5.9 5.9 0 0 0 .9 3.4 2.6 2.6 0 0 0 2.3 1.2 3 3 0 0 0 2.8-1.5v-6.6a2.9 2.9 0 0 0-2.7-1.5 2.5 2.5 0 0 0-2.4 1.3 6.1 6.1 0 0 0-.9 3.7zm17.6-6.4a5 5 0 0 1 4.2-2c3.5 0 5.2 2 5.3 6v10.1h-4.3v-10a2.8 2.8 0 0 0-.6-2 2.1 2.1 0 0 0-1.9-.7 3.1 3.1 0 0 0-2.7 1.4v11.3h-4.2V43.1h4.2zm12.6-5.8a1.9 1.9 0 0 1 .7-1.6 2.7 2.7 0 0 1 3.4 0 1.9 1.9 0 0 1 .7 1.6 1.8 1.8 0 0 1-.7 1.5 2.4 2.4 0 0 1-3.4 0 1.8 1.8 0 0 1-.7-1.5zm4.5 19.9h-4.2V49.8h4.2zm8-15.8v16.7a5.6 5.6 0 0 1-1.4 4 5.2 5.2 0 0 1-4 1.5 7.1 7.1 0 0 1-2.1-.3v-3.3h1.3c1.3 0 1.9-.6 1.9-2V49.8zm-4.6-4.1a2.1 2.1 0 0 1 .6-1.6 2.6 2.6 0 0 1 1.8-.6 2.4 2.4 0 0 1 1.7.6 2.1 2.1 0 0 1 .6 1.6 2 2 0 0 1-.6 1.5 2.4 2.4 0 0 1-3.4 0 1.8 1.8 0 0 1-.7-1.5zm13.6 13.6l-1.5 1.5v4.8h-4.2V43.1h4.2v12.5l.8-1.1 4.1-4.7h5.1l-5.8 6.6 6.3 9.2h-4.9zm14.8 6.3h-4.3V43.1h4.3zm7.4-15.8v1.7a6 6 0 0 1 4.6-2 4.3 4.3 0 0 1 4.2 2.4 5.5 5.5 0 0 1 4.8-2.4 4.8 4.8 0 0 1 3.8 1.5 7.1 7.1 0 0 1 1.2 4.5v10.1h-4.2V55.5a3.7 3.7 0 0 0-.5-2 2.5 2.5 0 0 0-1.9-.6 2.6 2.6 0 0 0-2.6 1.8v10.9H176V55.5a2.8 2.8 0 0 0-.6-2 2.2 2.2 0 0 0-1.8-.6 2.7 2.7 0 0 0-2.6 1.5v11.2h-4.3V49.8zm25.9 0v1.8a5.7 5.7 0 0 1 4.6-2.1A4.4 4.4 0 0 1 205 51a6.6 6.6 0 0 1 1.3 4.4v10.2H202V55.5a2.8 2.8 0 0 0-.5-2 2.8 2.8 0 0 0-2-.6 2.9 2.9 0 0 0-2.7 1.5v11.2h-4.2V49.8zm12.2 7.7a9.9 9.9 0 0 1 .9-4.2 7 7 0 0 1 2.6-2.8 7.7 7.7 0 0 1 4-1 7.1 7.1 0 0 1 5.2 1.9 7.9 7.9 0 0 1 2.3 5.4v1a8.6 8.6 0 0 1-2 5.9 7.1 7.1 0 0 1-5.5 2.2 6.7 6.7 0 0 1-5.4-2.2 8.4 8.4 0 0 1-2.1-6zm4.3.3a5.9 5.9 0 0 0 .8 3.5 2.9 2.9 0 0 0 2.4 1.2 2.6 2.6 0 0 0 2.4-1.2 6.2 6.2 0 0 0 .9-3.8 5.7 5.7 0 0 0-.9-3.4 2.7 2.7 0 0 0-2.4-1.2 2.9 2.9 0 0 0-2.4 1.2 6.2 6.2 0 0 0-.8 3.7zm27.6 0a9.6 9.6 0 0 1-1.7 5.9 5.2 5.2 0 0 1-4.5 2.2 4.7 4.7 0 0 1-3.8-1.7v7.5h-4.3V49.8h4v1.5a5 5 0 0 1 4-1.8 5.5 5.5 0 0 1 4.6 2.1 10.7 10.7 0 0 1 1.6 6zm-4.2-.3a6.6 6.6 0 0 0-.8-3.4 2.6 2.6 0 0 0-2.3-1.2 2.7 2.7 0 0 0-2.7 1.5v6.5a2.7 2.7 0 0 0 2.7 1.6c2 0 3.1-1.7 3.1-5zm6.1 0a9.8 9.8 0 0 1 1.7-5.9 5.5 5.5 0 0 1 4.6-2.1 4.7 4.7 0 0 1 4 1.9l.3-1.6h3.7v21.9h-4.2v-7.5a5.1 5.1 0 0 1-3.9 1.7 5.5 5.5 0 0 1-4.5-2.2 10.2 10.2 0 0 1-1.7-6.2zm4.3.3a5.7 5.7 0 0 0 .8 3.5 2.5 2.5 0 0 0 2.2 1.2 2.9 2.9 0 0 0 2.8-1.6v-6.5a2.9 2.9 0 0 0-2.7-1.5 2.6 2.6 0 0 0-2.3 1.2 6.2 6.2 0 0 0-.8 3.7zm22.2-4.1h-1.5a3.1 3.1 0 0 0-3.1 1.6v10.3h-4.3V49.8h4l.2 1.9a3.8 3.8 0 0 1 3.5-2.2 3 3 0 0 1 1.3.2zm10.7 7.5a1.4 1.4 0 0 0-.8-1.2 8.1 8.1 0 0 0-2.5-.8c-3.8-.8-5.6-2.4-5.6-4.8a4.1 4.1 0 0 1 1.7-3.5 6.8 6.8 0 0 1 4.6-1.4 7.2 7.2 0 0 1 4.8 1.4 4.5 4.5 0 0 1 1.8 3.7h-4.2a2 2 0 0 0-.6-1.5 2.4 2.4 0 0 0-1.8-.6 2.3 2.3 0 0 0-1.7.5 1.4 1.4 0 0 0-.6 1.2 1.4 1.4 0 0 0 .7 1.1 6 6 0 0 0 2.2.8 13.1 13.1 0 0 1 2.7.7c2.2.8 3.4 2.2 3.4 4.3a4.3 4.3 0 0 1-1.9 3.5 8.5 8.5 0 0 1-4.8 1.3 7.8 7.8 0 0 1-3.5-.7 5.6 5.6 0 0 1-2.5-2 5 5 0 0 1-.8-2.6h4a2.1 2.1 0 0 0 .8 1.7 3.3 3.3 0 0 0 2.1.6 3 3 0 0 0 1.8-.5 1.5 1.5 0 0 0 .7-1.2zm11.8-15.3v3.9h2.8v3.1h-2.8v7.9a1.7 1.7 0 0 0 .4 1.2c.2.3.6.4 1.3.4h1.2v3.2a7.3 7.3 0 0 1-2.5.4c-3 0-4.5-1.5-4.6-4.5v-8.6h-2.3v-3.1h2.3v-3.9zM306.3 64a5.1 5.1 0 0 1-4.3 1.9 5 5 0 0 1-3.9-1.5 6 6 0 0 1-1.4-4.3V49.8h4.2V60c0 1.7.8 2.5 2.3 2.5a3 3 0 0 0 2.9-1.5V49.8h4.3v15.8h-4zm13.2-3.6l3-10.6h4.4l-5.4 15.8h-4l-5.3-15.8h4.4zm23-.5l2.1-10.1h4.1l-4.1 15.8h-3.5l-3-10-3 10h-3.5l-4.1-15.8h4.1l2.1 10 2.9-10h3zm14.3-5.4l2.7-4.7h4.5l-4.5 7.7 4.7 8.1h-4.6l-2.8-5-2.8 5h-4.6l4.7-8.1-4.5-7.7h4.6zm15.1 5.1l3-9.8h4.5L373 68.1l-.3.8A4.8 4.8 0 0 1 368 72a6.3 6.3 0 0 1-1.9-.3v-3.2h.7a4.2 4.2 0 0 0 1.8-.3 3.3 3.3 0 0 0 .9-1.3l.5-1.3-5.6-15.8h4.6zm14 2.6h7.8v3.4h-13.2V63l7.5-9.8h-7.3v-3.4h12.7v2.5zM10.3 109.6H7.5v-18l-5.4 2v-2.5l7.7-2.9h.5zm21.9 0h-14v-1.9l7.4-8.2a16.7 16.7 0 0 0 2.2-3.1 4.8 4.8 0 0 0 .7-2.4 3.7 3.7 0 0 0-1.1-2.7 3.4 3.4 0 0 0-2.7-1.1 4.1 4.1 0 0 0-3.1 1.2 4.4 4.4 0 0 0-1.1 3.2h-2.7a6.2 6.2 0 0 1 1.9-4.8 6.8 6.8 0 0 1 5-1.8 6.4 6.4 0 0 1 4.7 1.6 5.1 5.1 0 0 1 1.8 4.1c0 2.1-1.4 4.6-4 7.5l-5.7 6.2h10.7zm6.8-12h2a4 4 0 0 0 3-1 3.3 3.3 0 0 0 1.1-2.6c0-2.5-1.2-3.8-3.7-3.8a4.1 4.1 0 0 0-2.8 1 3.7 3.7 0 0 0-1.1 2.7h-2.7a5.2 5.2 0 0 1 1.9-4.2 6.8 6.8 0 0 1 4.7-1.7 6.4 6.4 0 0 1 4.7 1.6 5.9 5.9 0 0 1 1.7 4.4 4.4 4.4 0 0 1-.9 2.7 5.9 5.9 0 0 1-2.4 2 5.6 5.6 0 0 1 2.7 1.8 5.5 5.5 0 0 1 .9 3.2 5.8 5.8 0 0 1-1.8 4.5 7.3 7.3 0 0 1-4.9 1.7 7.2 7.2 0 0 1-4.9-1.6 5.6 5.6 0 0 1-1.9-4.3h2.8a3.6 3.6 0 0 0 1 2.7 4.9 4.9 0 0 0 3 1 4.5 4.5 0 0 0 3-1 4 4 0 0 0 1-3 3.6 3.6 0 0 0-1.1-2.8 5.4 5.4 0 0 0-3.3-1.1h-2zm24.3 4.8h2.9v2.3h-2.9v4.9h-2.7v-4.9h-9.7v-1.6l9.5-14.8h2.9zm-9.4 0h6.7V92l-.4.6zm16-3.5L71 88.3h10.9v2.5h-8.6l-.6 5.8a6.8 6.8 0 0 1 3.5-.9 5.6 5.6 0 0 1 4.6 1.9 8.4 8.4 0 0 1 0 10.4 7.5 7.5 0 0 1-9.6.3 5.9 5.9 0 0 1-2-4.3h2.5a4.9 4.9 0 0 0 1.3 2.8 4.3 4.3 0 0 0 2.8.9 3.5 3.5 0 0 0 3-1.3 5.5 5.5 0 0 0 1.1-3.6 4.9 4.9 0 0 0-1.2-3.4 3.9 3.9 0 0 0-3.1-1.3 4.7 4.7 0 0 0-2.8.8l-.7.6zm26.2-10.6v2.3h-.5a7 7 0 0 0-5 1.8 8.6 8.6 0 0 0-2.2 5.2 6 6 0 0 1 4.6-2 5.6 5.6 0 0 1 4.5 2 7.6 7.6 0 0 1 1.6 5.1 7.5 7.5 0 0 1-1.8 5.2 6 6 0 0 1-4.8 2 5.9 5.9 0 0 1-4.9-2.4 8.8 8.8 0 0 1-1.9-6v-1c0-4 .8-7 2.5-9a9.1 9.1 0 0 1 7.5-3.2zm-3.5 9.6a5 5 0 0 0-2.6.8 4.6 4.6 0 0 0-1.6 2.1v1a6.6 6.6 0 0 0 1.2 4.2 3.6 3.6 0 0 0 2.9 1.7 3.4 3.4 0 0 0 2.9-1.4 5.6 5.6 0 0 0 1.1-3.5 5.7 5.7 0 0 0-1.1-3.6 3.3 3.3 0 0 0-2.8-1.3zm23.5-8.1l-8.8 19.8h-2.9l8.8-19.1h-11.5v-2.2h14.4zm16 4.1a5.4 5.4 0 0 1-.8 2.8 6 6 0 0 1-2.3 1.9 6.1 6.1 0 0 1 2.6 2.1 5.3 5.3 0 0 1 1 3.2 5.5 5.5 0 0 1-1.9 4.4 7.4 7.4 0 0 1-4.9 1.6 7.1 7.1 0 0 1-4.9-1.7 5.4 5.4 0 0 1-1.9-4.3 5.8 5.8 0 0 1 3.6-5.3 5.1 5.1 0 0 1-2.2-1.9 4.9 4.9 0 0 1-.9-2.8 5.4 5.4 0 0 1 1.8-4.3 6.1 6.1 0 0 1 4.5-1.6 6.5 6.5 0 0 1 4.6 1.6 5.6 5.6 0 0 1 1.7 4.3zm-2.2 9.9a3.8 3.8 0 0 0-4.1-4 3.8 3.8 0 0 0-4 4 3.6 3.6 0 0 0 1 2.8 4.6 4.6 0 0 0 6 0 3.8 3.8 0 0 0 1.1-2.8zm-4.1-13.6a3.3 3.3 0 0 0-3.5 3.7 3.6 3.6 0 0 0 .9 2.6 3.4 3.4 0 0 0 2.6 1 3.4 3.4 0 0 0 3.6-3.6 3.6 3.6 0 0 0-1-2.7 3.8 3.8 0 0 0-2.6-1zm20.6 10a7.9 7.9 0 0 1-2 1.7 5.8 5.8 0 0 1-2.6.6 5.5 5.5 0 0 1-3.2-.9 6.3 6.3 0 0 1-2.2-2.6 10.5 10.5 0 0 1-.7-3.6 10.1 10.1 0 0 1 .8-3.9 6.5 6.5 0 0 1 2.3-2.6 6.8 6.8 0 0 1 3.5-.9 5.9 5.9 0 0 1 5 2.4 10.1 10.1 0 0 1 1.8 6.4v.8c0 4.1-.8 7.2-2.5 9.1s-4.1 2.9-7.4 2.9h-.5v-2.3h.6a7.3 7.3 0 0 0 5.1-1.7 7.6 7.6 0 0 0 2-5.4zm-4.2 0a3.8 3.8 0 0 0 2.5-.8 5 5 0 0 0 1.7-2.1v-1a7.4 7.4 0 0 0-1.2-4.4 3.3 3.3 0 0 0-2.9-1.6 3.6 3.6 0 0 0-2.9 1.3 7 7 0 0 0 0 7.2 3.1 3.1 0 0 0 2.8 1.4zm24 .3c0 3.2-.5 5.5-1.6 7.1a5.9 5.9 0 0 1-5.1 2.3 5.6 5.6 0 0 1-5-2.3c-1.1-1.5-1.7-3.7-1.7-6.7v-3.6c0-3.2.5-5.5 1.6-7a5.9 5.9 0 0 1 5.1-2.3c2.3 0 4 .7 5 2.2s1.7 3.7 1.7 6.8zm-2.7-3.7c0-2.3-.3-4-1-5a3.1 3.1 0 0 0-3-1.6 3.4 3.4 0 0 0-3.1 1.6 9.7 9.7 0 0 0-.9 4.8v4.3a9.8 9.8 0 0 0 1 5.1 3.2 3.2 0 0 0 3 1.7 3.3 3.3 0 0 0 3-1.6 9.7 9.7 0 0 0 1-4.9z"/></svg>