<svg xmlns="http://www.w3.org/2000/svg" width="492.4" height="109.9" viewBox="0 0 492.4 109.9"><title>roboto</title><g id="Layer_2" data-name="Layer 2"><g id="Layer_1-2" data-name="Layer 1"><path d="M13.8,16H4.9l-2,5.6H0L8.1.3h2.5l8.1,21.3H15.9Zm-8-2.3H13L9.4,3.8Z"/><path d="M21.6,21.6V.3h7a8.5,8.5,0,0,1,5.2,1.4A5.2,5.2,0,0,1,35.6,6a4.1,4.1,0,0,1-.9,2.6,5.2,5.2,0,0,1-2.3,1.8,4.7,4.7,0,0,1,2.7,1.8,5.2,5.2,0,0,1,1,3.3A5.8,5.8,0,0,1,34.3,20,7.8,7.8,0,0,1,29,21.6ZM24.4,9.4h4.3a4.4,4.4,0,0,0,2.9-.9,3.1,3.1,0,0,0,1.1-2.6,2.9,2.9,0,0,0-1-2.5,5.2,5.2,0,0,0-3.1-.8H24.4Zm0,2.2v7.7h4.7a4.5,4.5,0,0,0,3.1-1,3.8,3.8,0,0,0,1.1-2.8q0-3.9-4.2-3.9Z"/><path d="M56,14.8a8.3,8.3,0,0,1-2.5,5.3,8.4,8.4,0,0,1-5.6,1.8,7.6,7.6,0,0,1-6.1-2.7,11,11,0,0,1-2.3-7.3v-2a12.1,12.1,0,0,1,1.1-5.2,7.9,7.9,0,0,1,3-3.5A8.4,8.4,0,0,1,48.1,0a7.7,7.7,0,0,1,5.5,1.9A8.7,8.7,0,0,1,56,7.1H53.1a5.6,5.6,0,0,0-1.6-3.7,5,5,0,0,0-3.4-1.1,5,5,0,0,0-4.2,2A9.2,9.2,0,0,0,42.4,10v2a9.7,9.7,0,0,0,1.4,5.5,4.7,4.7,0,0,0,4.1,2.1,5.7,5.7,0,0,0,3.6-1.1,5.6,5.6,0,0,0,1.6-3.7Z"/><path d="M59.8,21.6V.3h6a9.6,9.6,0,0,1,4.9,1.2A8.6,8.6,0,0,1,74,5a11.1,11.1,0,0,1,1.2,5.2v1.4A11.2,11.2,0,0,1,74,16.9a7.9,7.9,0,0,1-3.3,3.5,10,10,0,0,1-5,1.2Zm2.8-19V19.3h3a6.5,6.5,0,0,0,5-2,8.6,8.6,0,0,0,1.8-5.8V10.3a9,9,0,0,0-1.7-5.7,6,6,0,0,0-4.8-2Z"/><path d="M91.5,11.8H82.3v7.5H93v2.3H79.4V.3H92.8V2.6H82.3V9.5h9.2Z"/><path d="M108.2,12.2H99.3v9.4H96.5V.3h13.2V2.6H99.3V9.9h8.9Z"/><path d="M128.8,18.8a6.4,6.4,0,0,1-3,2.3,12.6,12.6,0,0,1-4.6.8,9,9,0,0,1-4.6-1.2,8.1,8.1,0,0,1-3.1-3.5,12.1,12.1,0,0,1-1.1-5.2V10.1c0-3.2.7-5.7,2.2-7.5A8,8,0,0,1,120.9,0a8.5,8.5,0,0,1,5.4,1.7,7.7,7.7,0,0,1,2.5,4.8H126c-.6-2.8-2.2-4.2-5.1-4.2a4.9,4.9,0,0,0-4.2,2,9.2,9.2,0,0,0-1.5,5.7v1.8a9,9,0,0,0,1.6,5.7,5.4,5.4,0,0,0,4.5,2.1,7.7,7.7,0,0,0,2.7-.4,4.3,4.3,0,0,0,2-1.1V13.3h-4.9V11h7.7Z"/><path d="M149.8,21.6H147V11.8H136.3v9.8h-2.8V.3h2.8V9.5H147V.3h2.8Z"/><path d="M157.8,21.6H155V.3h2.8Z"/><path d="M171.9.3h2.8V15.4a6.5,6.5,0,0,1-1.8,4.8,7.1,7.1,0,0,1-4.9,1.7,6.7,6.7,0,0,1-4.9-1.6,5.9,5.9,0,0,1-1.8-4.6h2.8a3.9,3.9,0,0,0,1,2.9,4.4,4.4,0,0,0,5.7-.1,4.3,4.3,0,0,0,1.1-3.1Z"/><path d="M184.9,11.7l-2.6,2.7v7.2h-2.8V.3h2.8V10.8L191.8.3h3.4l-8.4,9.4,9.1,11.9h-3.4Z"/><path d="M201.1,19.3h10.1v2.3H198.3V.3h2.8Z"/><path d="M218.1.3,225,17.7,232,.3h3.6V21.6h-2.8V13.3l.3-9-7,17.3H224L217,4.4l.3,8.9v8.3h-2.9V.3Z"/><path d="M257,21.6h-2.8L243.4,5.2V21.6h-2.8V.3h2.8l10.8,16.5V.3H257Z"/><path d="M278.4,11.6a13.5,13.5,0,0,1-1.1,5.5,8.2,8.2,0,0,1-3,3.6,8.4,8.4,0,0,1-4.5,1.2,8.1,8.1,0,0,1-4.4-1.2,9.2,9.2,0,0,1-3.1-3.6,14.3,14.3,0,0,1-1.1-5.3V10.3a12.7,12.7,0,0,1,1.1-5.4,7.7,7.7,0,0,1,3-3.6A7.7,7.7,0,0,1,269.8,0a8.4,8.4,0,0,1,4.5,1.2,8.8,8.8,0,0,1,3,3.6,13.5,13.5,0,0,1,1.1,5.5Zm-2.8-1.3a9.9,9.9,0,0,0-1.5-5.9,5.4,5.4,0,0,0-4.3-2,5,5,0,0,0-4.2,2,10.4,10.4,0,0,0-1.6,5.7v1.5a9.1,9.1,0,0,0,1.6,5.8,4.9,4.9,0,0,0,4.2,2.1,5,5,0,0,0,4.2-2,9.9,9.9,0,0,0,1.6-5.7Z"/><path d="M285.4,13.3v8.3h-2.8V.3h7.8a7.8,7.8,0,0,1,5.5,1.8,6,6,0,0,1,2,4.7,5.9,5.9,0,0,1-1.9,4.8,8.5,8.5,0,0,1-5.6,1.7Zm0-2.3h5a5.2,5.2,0,0,0,3.5-1.1,3.9,3.9,0,0,0,1.2-3.1,3.9,3.9,0,0,0-1.2-3,4.5,4.5,0,0,0-3.3-1.2h-5.2Z"/><path d="M317.8,11.6a14.4,14.4,0,0,1-1,5.4,8.6,8.6,0,0,1-2.8,3.4l3.8,3-1.9,1.8-4.5-3.6a7.8,7.8,0,0,1-2.2.3,8.4,8.4,0,0,1-4.5-1.2,8.2,8.2,0,0,1-3-3.6,12.5,12.5,0,0,1-1.1-5.3V10.3a12.7,12.7,0,0,1,1.1-5.4,7.7,7.7,0,0,1,3-3.6A7.7,7.7,0,0,1,309.2,0a8.4,8.4,0,0,1,4.5,1.2,8.8,8.8,0,0,1,3,3.6,13.5,13.5,0,0,1,1.1,5.5ZM315,10.3a9.6,9.6,0,0,0-1.5-5.8,5.4,5.4,0,0,0-8.5-.1,10.4,10.4,0,0,0-1.6,5.7v1.5a9.1,9.1,0,0,0,1.6,5.8,4.9,4.9,0,0,0,4.2,2.1,5,5,0,0,0,4.2-2,9.9,9.9,0,0,0,1.6-5.7Z"/><path d="M329.9,13h-5v8.6h-2.8V.3h7a8.5,8.5,0,0,1,5.6,1.6,5.9,5.9,0,0,1,1.9,4.8,5.4,5.4,0,0,1-1.1,3.5,6.4,6.4,0,0,1-2.9,2.2l5,9v.2h-3.1Zm-5-2.3h4.3a5.3,5.3,0,0,0,3.4-1.1,3.7,3.7,0,0,0,1.2-2.9,3.8,3.8,0,0,0-1.2-3,5,5,0,0,0-3.4-1.1h-4.3Z"/><path d="M346.8,12.1a12,12,0,0,1-5.2-2.6,4.8,4.8,0,0,1-1.7-3.7,5.3,5.3,0,0,1,2-4.2A8.2,8.2,0,0,1,347.2,0a10.1,10.1,0,0,1,3.9.8,7.8,7.8,0,0,1,2.7,2.4,6.3,6.3,0,0,1,.9,3.3h-2.8a3.7,3.7,0,0,0-1.3-3.1,5,5,0,0,0-3.4-1.1,5.4,5.4,0,0,0-3.3.9,3.3,3.3,0,0,0-1.1,2.6A2.6,2.6,0,0,0,343.9,8a10.9,10.9,0,0,0,3.7,1.6,17.3,17.3,0,0,1,4.2,1.7,6.4,6.4,0,0,1,2.2,2.1,5.1,5.1,0,0,1,.7,2.8,4.7,4.7,0,0,1-2,4.1,8.1,8.1,0,0,1-5.4,1.6,11.5,11.5,0,0,1-4.1-.8,7.6,7.6,0,0,1-2.9-2.4,5.2,5.2,0,0,1-1-3.3h2.8a4,4,0,0,0,1.4,3.1,6.3,6.3,0,0,0,3.8,1.1,5.5,5.5,0,0,0,3.4-.9,2.9,2.9,0,0,0,1.2-2.5,2.8,2.8,0,0,0-1.1-2.4A12,12,0,0,0,346.8,12.1Z"/><path d="M373.1,2.6h-6.9v19h-2.8V2.6h-6.8V.3h16.5Z"/><path d="M391.2.3V14.8a6.6,6.6,0,0,1-1.9,4.9,7.5,7.5,0,0,1-5.1,2.2h-.7a7.9,7.9,0,0,1-5.6-1.9,6.7,6.7,0,0,1-2.1-5.2V.3h2.8V14.7a4.9,4.9,0,1,0,9.8,0V.3Z"/><path d="M402.7,17.9,408.8.3h3.1L404,21.6h-2.5L393.6.3h3.1Z"/><path d="M419.3,14.9l.4,2.8.6-2.5L424.6.3h2.3L431,15.2l.6,2.5.5-2.8L435.4.3h2.8L433,21.6h-2.5L426.1,6.1l-.3-1.7-.4,1.7-4.5,15.5h-2.6L413.2.3H416Z"/><path d="M448.3,8.5,453.4.3h3.3L450,10.9l6.9,10.7h-3.4l-5.2-8.3L443,21.6h-3.3l6.9-10.7L439.8.3h3.3Z"/><path d="M466.6,11,472.2.3h3.2L468,13.7v7.9h-2.8V13.7L457.9.3h3.2Z"/><path d="M480.2,19.3h12.2v2.3H476.9V19.5L488.6,2.6H477.1V.3H492v2Z"/><path d="M10.4,65.6a5.7,5.7,0,0,1-.4-1.4,5.4,5.4,0,0,1-4,1.7,5.6,5.6,0,0,1-3.9-1.4A4.1,4.1,0,0,1,.6,61.2a4.4,4.4,0,0,1,1.9-3.9,8.8,8.8,0,0,1,5.3-1.4h2V55a2.4,2.4,0,0,0-.6-1.7c-.3-.5-.9-.7-1.8-.7a2.5,2.5,0,0,0-1.6.5,1.8,1.8,0,0,0-.6,1.4H.9A4,4,0,0,1,1.8,52a6.5,6.5,0,0,1,2.4-1.9,9.5,9.5,0,0,1,3.5-.6,7.2,7.2,0,0,1,4.6,1.4A5.1,5.1,0,0,1,14,55.1v6.8a8,8,0,0,0,.7,3.5v.2ZM6.9,62.7a3.4,3.4,0,0,0,1.7-.5,2.5,2.5,0,0,0,1.2-1.1V58.4H8.2c-2.1,0-3.2.7-3.4,2.2v.2a1.5,1.5,0,0,0,.6,1.3A1.8,1.8,0,0,0,6.9,62.7Z"/><path d="M31.6,57.8a9.7,9.7,0,0,1-1.7,6,5.4,5.4,0,0,1-4.5,2.1,5,5,0,0,1-4.1-2l-.2,1.7H17.3V43.1h4.2v8.1a4.8,4.8,0,0,1,3.9-1.7,5.4,5.4,0,0,1,4.5,2.1,9.5,9.5,0,0,1,1.7,6Zm-4.3-.3a6.6,6.6,0,0,0-.7-3.5,2.7,2.7,0,0,0-2.3-1.1,2.8,2.8,0,0,0-2.8,1.7v6.2a2.9,2.9,0,0,0,2.8,1.7,2.6,2.6,0,0,0,2.7-2A11.5,11.5,0,0,0,27.3,57.5Z"/><path d="M40.7,62.5a2.4,2.4,0,0,0,1.9-.7,2.1,2.1,0,0,0,.8-1.7h4a5.3,5.3,0,0,1-.9,3,6.1,6.1,0,0,1-2.4,2.1,8.8,8.8,0,0,1-3.3.7,6.7,6.7,0,0,1-5.3-2.2,8.4,8.4,0,0,1-2-5.9v-.3a8.3,8.3,0,0,1,1.9-5.8,6.7,6.7,0,0,1,5.4-2.2,6.4,6.4,0,0,1,4.8,1.7,6.2,6.2,0,0,1,1.8,4.5h-4a2.6,2.6,0,0,0-.8-2,2.1,2.1,0,0,0-1.9-.8A2.3,2.3,0,0,0,38.5,54a6,6,0,0,0-.8,3.5v.4a6.2,6.2,0,0,0,.8,3.5A2.5,2.5,0,0,0,40.7,62.5Z"/><path d="M49.1,57.6a9.4,9.4,0,0,1,1.7-5.9,5.2,5.2,0,0,1,4.5-2.2,4.8,4.8,0,0,1,3.9,1.7V43.1h4.2V65.6H59.6l-.2-1.7a5.1,5.1,0,0,1-4.1,2,5.2,5.2,0,0,1-4.5-2.2A10,10,0,0,1,49.1,57.6Zm4.3.3a6.4,6.4,0,0,0,.7,3.4,2.7,2.7,0,0,0,2.3,1.2,3,3,0,0,0,2.8-1.7V54.6a3,3,0,0,0-2.8-1.7C54.4,52.9,53.4,54.6,53.4,57.9Z"/><path d="M74,65.9a7.9,7.9,0,0,1-5.7-2.1,7.7,7.7,0,0,1-2.2-5.7v-.4a9.7,9.7,0,0,1,.9-4.3,6.7,6.7,0,0,1,2.6-2.9,7.6,7.6,0,0,1,3.9-1,6.6,6.6,0,0,1,5.1,2,8.1,8.1,0,0,1,1.9,5.8v1.8H70.4a3.5,3.5,0,0,0,1.2,2.4,3.5,3.5,0,0,0,2.6,1,4.7,4.7,0,0,0,3.9-1.8l2,2.3a5.8,5.8,0,0,1-2.5,2.1A8.6,8.6,0,0,1,74,65.9Zm-.5-13a3,3,0,0,0-2.1.8,5.2,5.2,0,0,0-1,2.5h5.9v-.4a2.8,2.8,0,0,0-.7-2.1A2.5,2.5,0,0,0,73.5,52.9Z"/><path d="M84,65.6V52.9H81.7V49.8H84V48.4a5.1,5.1,0,0,1,1.6-4.1,5.7,5.7,0,0,1,4.2-1.5l2.2.3v3.3H90.7c-1.6,0-2.4.7-2.4,2.2v1.3h3.1v3.1H88.3V65.6Z"/><path d="M92.7,57.6a9,9,0,0,1,1.7-5.9,5.5,5.5,0,0,1,4.7-2.2,4.8,4.8,0,0,1,4,1.8l.2-1.5h3.8V65.1a6.9,6.9,0,0,1-.9,3.6,5.6,5.6,0,0,1-2.7,2.3,8.2,8.2,0,0,1-4,.8,8.3,8.3,0,0,1-3.4-.7,5.2,5.2,0,0,1-2.5-1.8l1.9-2.5a4.8,4.8,0,0,0,3.8,1.7,3.8,3.8,0,0,0,2.7-.9,3.3,3.3,0,0,0,.9-2.5v-.9A5.1,5.1,0,0,1,99,65.9a5.5,5.5,0,0,1-4.6-2.2,9.3,9.3,0,0,1-1.7-6Zm4.2.3a5.9,5.9,0,0,0,.9,3.4,2.6,2.6,0,0,0,2.3,1.2,3,3,0,0,0,2.8-1.5V54.4a2.9,2.9,0,0,0-2.7-1.5,2.5,2.5,0,0,0-2.4,1.3A6.1,6.1,0,0,0,96.9,57.9Z"/><path d="M114.5,51.5a5,5,0,0,1,4.2-2c3.5,0,5.2,2,5.3,6V65.6h-4.3v-10a2.8,2.8,0,0,0-.6-2,2.1,2.1,0,0,0-1.9-.7,3.1,3.1,0,0,0-2.7,1.4V65.6h-4.2V43.1h4.2Z"/><path d="M127.1,45.7a1.9,1.9,0,0,1,.7-1.6,2.7,2.7,0,0,1,3.4,0,1.9,1.9,0,0,1,.7,1.6,1.8,1.8,0,0,1-.7,1.5,2.4,2.4,0,0,1-3.4,0A1.8,1.8,0,0,1,127.1,45.7Zm4.5,19.9h-4.2V49.8h4.2Z"/><path d="M139.6,49.8V66.5a5.6,5.6,0,0,1-1.4,4,5.2,5.2,0,0,1-4,1.5,7.1,7.1,0,0,1-2.1-.3V68.4h1.3c1.3,0,1.9-.6,1.9-2V49.8ZM135,45.7a2.1,2.1,0,0,1,.6-1.6,2.6,2.6,0,0,1,1.8-.6,2.4,2.4,0,0,1,1.7.6,2.1,2.1,0,0,1,.6,1.6,2,2,0,0,1-.6,1.5,2.4,2.4,0,0,1-3.4,0A1.8,1.8,0,0,1,135,45.7Z"/><path d="M148.6,59.3l-1.5,1.5v4.8h-4.2V43.1h4.2V55.6l.8-1.1,4.1-4.7h5.1l-5.8,6.6,6.3,9.2h-4.9Z"/><path d="M163.4,65.6h-4.3V43.1h4.3Z"/><path d="M170.8,49.8v1.7a6,6,0,0,1,4.6-2,4.3,4.3,0,0,1,4.2,2.4,5.5,5.5,0,0,1,4.8-2.4,4.8,4.8,0,0,1,3.8,1.5,7.1,7.1,0,0,1,1.2,4.5V65.6h-4.2V55.5a3.7,3.7,0,0,0-.5-2,2.5,2.5,0,0,0-1.9-.6,2.6,2.6,0,0,0-2.6,1.8V65.6h-4.2V55.5a2.8,2.8,0,0,0-.6-2,2.2,2.2,0,0,0-1.8-.6,2.7,2.7,0,0,0-2.6,1.5V65.6h-4.3V49.8Z"/><path d="M196.7,49.8v1.8a5.7,5.7,0,0,1,4.6-2.1,4.4,4.4,0,0,1,3.7,1.5,6.6,6.6,0,0,1,1.3,4.4V65.6h-4.3V55.5a2.8,2.8,0,0,0-.5-2,2.8,2.8,0,0,0-2-.6,2.9,2.9,0,0,0-2.7,1.5V65.6h-4.2V49.8Z"/><path d="M208.9,57.5a9.9,9.9,0,0,1,.9-4.2,7,7,0,0,1,2.6-2.8,7.7,7.7,0,0,1,4-1,7.1,7.1,0,0,1,5.2,1.9,7.9,7.9,0,0,1,2.3,5.4v1a8.6,8.6,0,0,1-2,5.9,7.1,7.1,0,0,1-5.5,2.2,6.7,6.7,0,0,1-5.4-2.2,8.4,8.4,0,0,1-2.1-6Zm4.3.3a5.9,5.9,0,0,0,.8,3.5,2.9,2.9,0,0,0,2.4,1.2,2.6,2.6,0,0,0,2.4-1.2,6.2,6.2,0,0,0,.9-3.8,5.7,5.7,0,0,0-.9-3.4,2.7,2.7,0,0,0-2.4-1.2,2.9,2.9,0,0,0-2.4,1.2A6.2,6.2,0,0,0,213.2,57.8Z"/><path d="M240.8,57.8a9.6,9.6,0,0,1-1.7,5.9,5.2,5.2,0,0,1-4.5,2.2,4.7,4.7,0,0,1-3.8-1.7v7.5h-4.3V49.8h4v1.5a5,5,0,0,1,4-1.8,5.5,5.5,0,0,1,4.6,2.1,10.7,10.7,0,0,1,1.6,6Zm-4.2-.3a6.6,6.6,0,0,0-.8-3.4,2.6,2.6,0,0,0-2.3-1.2,2.7,2.7,0,0,0-2.7,1.5v6.5a2.7,2.7,0,0,0,2.7,1.6C235.5,62.5,236.6,60.8,236.6,57.5Z"/><path d="M242.7,57.5a9.8,9.8,0,0,1,1.7-5.9,5.5,5.5,0,0,1,4.6-2.1,4.7,4.7,0,0,1,4,1.9l.3-1.6H257V71.7h-4.2V64.2a5.1,5.1,0,0,1-3.9,1.7,5.5,5.5,0,0,1-4.5-2.2A10.2,10.2,0,0,1,242.7,57.5Zm4.3.3a5.7,5.7,0,0,0,.8,3.5,2.5,2.5,0,0,0,2.2,1.2,2.9,2.9,0,0,0,2.8-1.6V54.4a2.9,2.9,0,0,0-2.7-1.5,2.6,2.6,0,0,0-2.3,1.2A6.2,6.2,0,0,0,247,57.8Z"/><path d="M269.2,53.7h-1.5a3.1,3.1,0,0,0-3.1,1.6V65.6h-4.3V49.8h4l.2,1.9a3.8,3.8,0,0,1,3.5-2.2,3,3,0,0,1,1.3.2Z"/><path d="M279.9,61.2a1.4,1.4,0,0,0-.8-1.2,8.1,8.1,0,0,0-2.5-.8c-3.8-.8-5.6-2.4-5.6-4.8a4.1,4.1,0,0,1,1.7-3.5,6.8,6.8,0,0,1,4.6-1.4,7.2,7.2,0,0,1,4.8,1.4,4.5,4.5,0,0,1,1.8,3.7h-4.2a2,2,0,0,0-.6-1.5,2.4,2.4,0,0,0-1.8-.6,2.3,2.3,0,0,0-1.7.5,1.4,1.4,0,0,0-.6,1.2,1.4,1.4,0,0,0,.7,1.1,6,6,0,0,0,2.2.8,13.1,13.1,0,0,1,2.7.7c2.2.8,3.4,2.2,3.4,4.3a4.3,4.3,0,0,1-1.9,3.5,8.5,8.5,0,0,1-4.8,1.3,7.8,7.8,0,0,1-3.5-.7,5.6,5.6,0,0,1-2.5-2,5,5,0,0,1-.8-2.6h4a2.1,2.1,0,0,0,.8,1.7,3.3,3.3,0,0,0,2.1.6,3,3,0,0,0,1.8-.5A1.5,1.5,0,0,0,279.9,61.2Z"/><path d="M291.7,45.9v3.9h2.8v3.1h-2.8v7.9a1.7,1.7,0,0,0,.4,1.2c.2.3.6.4,1.3.4h1.2v3.2a7.3,7.3,0,0,1-2.5.4c-3,0-4.5-1.5-4.6-4.5V52.9h-2.3V49.8h2.3V45.9Z"/><path d="M306.3,64a5.1,5.1,0,0,1-4.3,1.9,5,5,0,0,1-3.9-1.5,6,6,0,0,1-1.4-4.3V49.8h4.2V60c0,1.7.8,2.5,2.3,2.5a3,3,0,0,0,2.9-1.5V49.8h4.3V65.6h-4Z"/><path d="M319.5,60.4l3-10.6h4.4l-5.4,15.8h-4l-5.3-15.8h4.4Z"/><path d="M342.5,59.9l2.1-10.1h4.1l-4.1,15.8h-3.5l-3-10-3,10h-3.5l-4.1-15.8h4.1l2.1,10,2.9-10h3Z"/><path d="M356.8,54.5l2.7-4.7H364l-4.5,7.7,4.7,8.1h-4.6l-2.8-5-2.8,5h-4.6l4.7-8.1-4.5-7.7h4.6Z"/><path d="M371.9,59.6l3-9.8h4.5L373,68.1l-.3.8A4.8,4.8,0,0,1,368,72a6.3,6.3,0,0,1-1.9-.3V68.5h.7a4.2,4.2,0,0,0,1.8-.3,3.3,3.3,0,0,0,.9-1.3l.5-1.3-5.6-15.8H369Z"/><path d="M385.9,62.2h7.8v3.4H380.5V63l7.5-9.8h-7.3V49.8h12.7v2.5Z"/><path d="M10.3,109.6H7.5v-18l-5.4,2V91.1l7.7-2.9h.5Z"/><path d="M32.2,109.6h-14v-1.9l7.4-8.2a16.7,16.7,0,0,0,2.2-3.1,4.8,4.8,0,0,0,.7-2.4,3.7,3.7,0,0,0-1.1-2.7,3.4,3.4,0,0,0-2.7-1.1,4.1,4.1,0,0,0-3.1,1.2,4.4,4.4,0,0,0-1.1,3.2H17.8a6.2,6.2,0,0,1,1.9-4.8,6.8,6.8,0,0,1,5-1.8,6.4,6.4,0,0,1,4.7,1.6,5.1,5.1,0,0,1,1.8,4.1c0,2.1-1.4,4.6-4,7.5l-5.7,6.2H32.2Z"/><path d="M39,97.6h2a4,4,0,0,0,3-1A3.3,3.3,0,0,0,45.1,94c0-2.5-1.2-3.8-3.7-3.8a4.1,4.1,0,0,0-2.8,1,3.7,3.7,0,0,0-1.1,2.7H34.8a5.2,5.2,0,0,1,1.9-4.2A6.8,6.8,0,0,1,41.4,88a6.4,6.4,0,0,1,4.7,1.6A5.9,5.9,0,0,1,47.8,94a4.4,4.4,0,0,1-.9,2.7,5.9,5.9,0,0,1-2.4,2,5.6,5.6,0,0,1,2.7,1.8,5.5,5.5,0,0,1,.9,3.2,5.8,5.8,0,0,1-1.8,4.5,7.3,7.3,0,0,1-4.9,1.7,7.2,7.2,0,0,1-4.9-1.6,5.6,5.6,0,0,1-1.9-4.3h2.8a3.6,3.6,0,0,0,1,2.7,4.9,4.9,0,0,0,3,1,4.5,4.5,0,0,0,3-1,4,4,0,0,0,1-3,3.6,3.6,0,0,0-1.1-2.8A5.4,5.4,0,0,0,41,99.8H39Z"/><path d="M63.3,102.4h2.9v2.3H63.3v4.9H60.6v-4.9H50.9v-1.6l9.5-14.8h2.9Zm-9.4,0h6.7V92l-.4.6Z"/><path d="M69.9,98.9,71,88.3H81.9v2.5H73.3l-.6,5.8a6.8,6.8,0,0,1,3.5-.9,5.6,5.6,0,0,1,4.6,1.9,8.4,8.4,0,0,1,0,10.4,7.5,7.5,0,0,1-9.6.3,5.9,5.9,0,0,1-2-4.3h2.5a4.9,4.9,0,0,0,1.3,2.8,4.3,4.3,0,0,0,2.8.9,3.5,3.5,0,0,0,3-1.3,5.5,5.5,0,0,0,1.1-3.6,4.9,4.9,0,0,0-1.2-3.4,3.9,3.9,0,0,0-3.1-1.3,4.7,4.7,0,0,0-2.8.8l-.7.6Z"/><path d="M96.1,88.3v2.3h-.5a7,7,0,0,0-5,1.8,8.6,8.6,0,0,0-2.2,5.2,6,6,0,0,1,4.6-2,5.6,5.6,0,0,1,4.5,2,7.6,7.6,0,0,1,1.6,5.1,7.5,7.5,0,0,1-1.8,5.2,6,6,0,0,1-4.8,2,5.9,5.9,0,0,1-4.9-2.4,8.8,8.8,0,0,1-1.9-6v-1c0-4,.8-7,2.5-9a9.1,9.1,0,0,1,7.5-3.2Zm-3.5,9.6a5,5,0,0,0-2.6.8,4.6,4.6,0,0,0-1.6,2.1v1a6.6,6.6,0,0,0,1.2,4.2,3.6,3.6,0,0,0,2.9,1.7,3.4,3.4,0,0,0,2.9-1.4,5.6,5.6,0,0,0,1.1-3.5,5.7,5.7,0,0,0-1.1-3.6A3.3,3.3,0,0,0,92.6,97.9Z"/><path d="M116.1,89.8l-8.8,19.8h-2.9l8.8-19.1H101.7V88.3h14.4Z"/><path d="M132.1,93.9a5.4,5.4,0,0,1-.8,2.8,6,6,0,0,1-2.3,1.9,6.1,6.1,0,0,1,2.6,2.1,5.3,5.3,0,0,1,1,3.2,5.5,5.5,0,0,1-1.9,4.4,7.4,7.4,0,0,1-4.9,1.6,7.1,7.1,0,0,1-4.9-1.7,5.4,5.4,0,0,1-1.9-4.3,5.8,5.8,0,0,1,3.6-5.3,5.1,5.1,0,0,1-2.2-1.9,4.9,4.9,0,0,1-.9-2.8,5.4,5.4,0,0,1,1.8-4.3,6.1,6.1,0,0,1,4.5-1.6,6.5,6.5,0,0,1,4.6,1.6A5.6,5.6,0,0,1,132.1,93.9Zm-2.2,9.9a3.8,3.8,0,0,0-4.1-4,3.8,3.8,0,0,0-4,4,3.6,3.6,0,0,0,1,2.8,4.6,4.6,0,0,0,6,0A3.8,3.8,0,0,0,129.9,103.8Zm-4.1-13.6a3.3,3.3,0,0,0-3.5,3.7,3.6,3.6,0,0,0,.9,2.6,3.4,3.4,0,0,0,2.6,1,3.4,3.4,0,0,0,3.6-3.6,3.6,3.6,0,0,0-1-2.7A3.8,3.8,0,0,0,125.8,90.2Z"/><path d="M146.4,100.2a7.9,7.9,0,0,1-2,1.7,5.8,5.8,0,0,1-2.6.6,5.5,5.5,0,0,1-3.2-.9,6.3,6.3,0,0,1-2.2-2.6,10.5,10.5,0,0,1-.7-3.6,10.1,10.1,0,0,1,.8-3.9,6.5,6.5,0,0,1,2.3-2.6,6.8,6.8,0,0,1,3.5-.9,5.9,5.9,0,0,1,5,2.4,10.1,10.1,0,0,1,1.8,6.4v.8c0,4.1-.8,7.2-2.5,9.1s-4.1,2.9-7.4,2.9h-.5v-2.3h.6a7.3,7.3,0,0,0,5.1-1.7A7.6,7.6,0,0,0,146.4,100.2Zm-4.2,0a3.8,3.8,0,0,0,2.5-.8,5,5,0,0,0,1.7-2.1v-1a7.4,7.4,0,0,0-1.2-4.4,3.3,3.3,0,0,0-2.9-1.6,3.6,3.6,0,0,0-2.9,1.3,7,7,0,0,0,0,7.2A3.1,3.1,0,0,0,142.2,100.2Z"/><path d="M166.2,100.5c0,3.2-.5,5.5-1.6,7.1a5.9,5.9,0,0,1-5.1,2.3,5.6,5.6,0,0,1-5-2.3c-1.1-1.5-1.7-3.7-1.7-6.7V97.3c0-3.2.5-5.5,1.6-7a5.9,5.9,0,0,1,5.1-2.3c2.3,0,4,.7,5,2.2s1.7,3.7,1.7,6.8Zm-2.7-3.7c0-2.3-.3-4-1-5a3.1,3.1,0,0,0-3-1.6,3.4,3.4,0,0,0-3.1,1.6,9.7,9.7,0,0,0-.9,4.8v4.3a9.8,9.8,0,0,0,1,5.1,3.2,3.2,0,0,0,3,1.7,3.3,3.3,0,0,0,3-1.6,9.7,9.7,0,0,0,1-4.9Z"/></g></g></svg>