<svg xmlns="http://www.w3.org/2000/svg" width="379.1" height="131" viewBox="0 0 379.1 131"><title>new-logo</title><g id="Layer_2" data-name="Layer 2"><g id="Layer_1-2" data-name="Layer 1"><path d="M1.3,72.3,11,82.9a5,5,0,0,0,4.6,1.5c29-6.1,140.6-36.9,171.3-82.1a1.4,1.4,0,0,0-2-2C118.4,50,33.2,61.5,4.5,64.1A4.9,4.9,0,0,0,1.3,72.3Z" fill="#005789"/><path d="M135.7,60.5c12.5-8.1,23.6-17.1,31.5-26.6a1.4,1.4,0,0,0-1.8-2.2C126.6,57,63.2,80.4,26.2,88.7a4.9,4.9,0,0,0-2.5,8.1l7.4,8.1a4.9,4.9,0,0,0,5.1,1.4c12.7-4.2,62.1-21.4,99.5-45.8" fill="#5f6369"/><path d="M42.9,117.8l10.5,11.6a5,5,0,0,0,6.1,1c10.4-6.1,42.2-25.8,71.5-55.1a1.4,1.4,0,0,0-1.7-2.3,637.6,637.6,0,0,1-84.4,36.9A4.8,4.8,0,0,0,42.9,117.8Z" fill="#005789"/><path d="M180.7,58.1a22.9,22.9,0,0,1,6.5-2.4,31.3,31.3,0,0,1,6.6-.8c4.6,0,8.1,1,10.4,3s3.6,5.2,3.6,9.5V91.8h-5.5l-1.6-5h-.2a16.1,16.1,0,0,1-5.3,4.5,16.9,16.9,0,0,1-6.8,1.2c-3.6,0-6.4-1-8.4-2.9s-3-4.6-3-8.2a9.5,9.5,0,0,1,4.2-8.4c2.7-1.9,7-3,12.7-3.1l6.2-.2v-2a7.4,7.4,0,0,0-1.6-5.2,6.9,6.9,0,0,0-5-1.7,19.1,19.1,0,0,0-5.4.8,41.9,41.9,0,0,0-4.9,2l-2.5-5.5m10.1,28.5a9.3,9.3,0,0,0,6.7-2.4,8.3,8.3,0,0,0,2.6-6.5V74.5l-4.7.2c-3.6.1-6.3.8-7.9,1.8a5.5,5.5,0,0,0-2.5,5,4.9,4.9,0,0,0,1.5,3.8A6.5,6.5,0,0,0,190.8,86.6Z" fill="#005789"/><path d="M249.1,91.8h-7.7V69.5c0-2.8-.6-4.9-1.6-6.2a5.8,5.8,0,0,0-4.9-2.1c-3,0-5.2,1-6.6,2.9s-2.1,5.2-2.1,9.7v18h-7.7V55.6h6.1l1,4.7h.4a10.7,10.7,0,0,1,4.4-4,14.6,14.6,0,0,1,6.3-1.4q8.4,0,11.1,5.7h.5a11,11,0,0,1,4.6-4.2,14.1,14.1,0,0,1,6.7-1.5c4.3,0,7.4,1.1,9.4,3.3s3,5.5,3,10V91.8h-7.7V69.5c0-2.8-.6-4.9-1.6-6.2a5.8,5.8,0,0,0-4.9-2.1c-3,0-5.2.9-6.6,2.8s-2.1,4.7-2.1,8.6Z" fill="#005789"/><path d="M297.4,92.5c-5.5,0-9.7-1.6-12.5-4.8s-4.3-7.8-4.3-13.8,1.5-10.8,4.5-14.1,7.3-4.9,12.9-4.9A24.3,24.3,0,0,1,308.3,57L306,63.2a25.5,25.5,0,0,0-8.1-1.9c-6.2,0-9.4,4.2-9.4,12.5,0,4.1.8,7.2,2.4,9.2a8.1,8.1,0,0,0,6.8,3.1,20,20,0,0,0,9.8-2.6v6.7a18.5,18.5,0,0,1-4.4,1.8A31,31,0,0,1,297.4,92.5Z" fill="#005789"/><path d="M331.8,92.5c-5.6,0-10-1.7-13.2-4.9s-4.8-7.9-4.8-13.6,1.5-10.6,4.5-14,7-5.1,12.1-5.1,8.6,1.5,11.4,4.4,4.1,6.9,4.1,12v4.1H321.8c.1,3.6,1,6.3,2.8,8.2a10.3,10.3,0,0,0,7.6,2.8,29.1,29.1,0,0,0,6-.6,34.3,34.3,0,0,0,5.9-2V90a19.1,19.1,0,0,1-5.7,1.9A32.3,32.3,0,0,1,331.8,92.5Zm-1.4-31.8a7.8,7.8,0,0,0-5.9,2.4,11.5,11.5,0,0,0-2.6,6.8h16.5c-.1-3-.8-5.3-2.2-6.8A7.3,7.3,0,0,0,330.4,60.7Z" fill="#005789"/><path d="M379.1,81.5a9.6,9.6,0,0,1-3.9,8.2c-2.6,1.8-6.3,2.8-11.1,2.8s-8.7-.7-11.6-2.2V83.6a27.9,27.9,0,0,0,11.9,3c4.7,0,7.1-1.4,7.1-4.3a3.6,3.6,0,0,0-.8-2.3,8.3,8.3,0,0,0-2.6-1.9,36.2,36.2,0,0,0-5-2.2c-4.2-1.7-7-3.3-8.5-4.9a8.8,8.8,0,0,1-2.2-6.3,8.2,8.2,0,0,1,3.8-7.2c2.5-1.7,5.9-2.6,10.2-2.6a29.6,29.6,0,0,1,12.1,2.6L376,63.3a27.1,27.1,0,0,0-9.9-2.4c-4.1,0-6.1,1.1-6.1,3.4a3.4,3.4,0,0,0,1.6,2.9,37.3,37.3,0,0,0,6.9,3.3,28.9,28.9,0,0,1,6.6,3.2,9.4,9.4,0,0,1,3,3.3A10.6,10.6,0,0,1,379.1,81.5Z" fill="#005789"/><path d="M180.1,110.4l-1-2.6h-3.4l-1,2.6h-1L177,102h.8l3.3,8.4Zm-1.3-3.5-1-2.6a8.3,8.3,0,0,1-.4-1.2,5.6,5.6,0,0,1-.4,1.2l-1,2.6Z" fill="#5f6369"/><path d="M186.2,108.7a1.5,1.5,0,0,1-.7,1.4,3,3,0,0,1-1.8.5,4.5,4.5,0,0,1-1.9-.4v-.9l.9.3,1,.2a2.1,2.1,0,0,0,1.2-.3.8.8,0,0,0,.4-.7.9.9,0,0,0-.3-.6l-1.3-.6a6.4,6.4,0,0,1-1.2-.6,1.7,1.7,0,0,1-.6-.6,1.4,1.4,0,0,1-.2-.7,1.3,1.3,0,0,1,.7-1.2,2.6,2.6,0,0,1,1.7-.5,4.9,4.9,0,0,1,2,.5l-.4.7a5.9,5.9,0,0,0-1.7-.4l-1,.2c-.2.2-.4.4-.4.6s.1.3.2.5l.4.3,1.1.5a3.5,3.5,0,0,1,1.5.8A1.3,1.3,0,0,1,186.2,108.7Z" fill="#5f6369"/><path d="M191.8,108.7a1.5,1.5,0,0,1-.7,1.4,3,3,0,0,1-1.8.5,4.5,4.5,0,0,1-1.9-.4v-.9a3.2,3.2,0,0,0,.9.3l1,.2a2.1,2.1,0,0,0,1.2-.3.7.7,0,0,0,.4-.7.9.9,0,0,0-.3-.6,4,4,0,0,0-1.3-.6l-1.2-.6-.6-.6a1.4,1.4,0,0,1-.2-.7,1.5,1.5,0,0,1,.7-1.2,2.9,2.9,0,0,1,1.7-.5,4.9,4.9,0,0,1,2,.5l-.4.7a5.9,5.9,0,0,0-1.7-.4l-1,.2c-.2.2-.4.4-.4.6s.1.3.2.5l.4.3,1.1.5a3.5,3.5,0,0,1,1.5.8A1.3,1.3,0,0,1,191.8,108.7Z" fill="#5f6369"/><path d="M198.6,107.3a3.6,3.6,0,0,1-.8,2.4,2.8,2.8,0,0,1-2.2.9,4.2,4.2,0,0,1-1.5-.4,4,4,0,0,1-1-1.2,4.3,4.3,0,0,1-.3-1.7,3.6,3.6,0,0,1,.7-2.4,2.9,2.9,0,0,1,2.2-.9,2.6,2.6,0,0,1,2.1.9A3.6,3.6,0,0,1,198.6,107.3Zm-4.8,0a3,3,0,0,0,.4,1.8,1.7,1.7,0,0,0,1.5.7,1.5,1.5,0,0,0,1.4-.7,3.5,3.5,0,0,0,0-3.6,1.8,1.8,0,0,0-1.5-.7,1.9,1.9,0,0,0-1.4.7A3,3,0,0,0,193.8,107.3Z" fill="#5f6369"/><path d="M202.3,110.6a2.6,2.6,0,0,1-2.1-.9,3.3,3.3,0,0,1-.8-2.4,3.6,3.6,0,0,1,.8-2.4,2.6,2.6,0,0,1,2.1-.9h.9l.7.3-.2.8-.7-.2h-.7c-1.3,0-1.9.8-1.9,2.4a2.4,2.4,0,0,0,.5,1.8,1.5,1.5,0,0,0,1.3.6,5.1,5.1,0,0,0,1.7-.3v.8A2.9,2.9,0,0,1,202.3,110.6Z" fill="#5f6369"/><path d="M205.3,102.4c0-.2,0-.3.1-.4l.4-.2a.7.7,0,0,1,.6.6.6.6,0,0,1-.2.5l-.4.2-.4-.2C205.3,102.8,205.3,102.7,205.3,102.4Zm1,8h-.9v-6.2h.9Z" fill="#5f6369"/><path d="M212.2,110.4l-.2-.8h0l-1,.8-1.1.2a2.1,2.1,0,0,1-1.5-.5,1.6,1.6,0,0,1-.5-1.4c0-1.3,1-1.9,3-2H212v-.4a1.6,1.6,0,0,0-.3-1.1,1.8,1.8,0,0,0-1.1-.4,4.1,4.1,0,0,0-1.7.5l-.3-.7,1-.4,1.1-.2a2.9,2.9,0,0,1,1.7.5,2.6,2.6,0,0,1,.5,1.7v4.2Zm-2.2-.6a2,2,0,0,0,1.4-.5,1.6,1.6,0,0,0,.5-1.4v-.5H211a3,3,0,0,0-1.6.3,1.1,1.1,0,0,0-.5,1,1,1,0,0,0,.3.8A1.1,1.1,0,0,0,210,109.8Z" fill="#5f6369"/><path d="M216.9,109.8h.9v.7h-1c-1.3,0-1.9-.7-1.9-2v-3.7H214v-.5l.9-.4.4-1.3h.6v1.5h1.8v.7h-1.8v3.7a1.2,1.2,0,0,0,.3.9A.8.8,0,0,0,216.9,109.8Z" fill="#5f6369"/><path d="M218.9,102.4a.5.5,0,0,1,.2-.4l.4-.2.4.2a.5.5,0,0,1,.2.4.6.6,0,0,1-.2.5l-.4.2-.4-.2A.6.6,0,0,1,218.9,102.4Zm1.1,8h-1v-6.2h1Z" fill="#5f6369"/><path d="M227,107.3a3.6,3.6,0,0,1-.8,2.4,2.8,2.8,0,0,1-2.2.9,4.2,4.2,0,0,1-1.5-.4,4,4,0,0,1-1-1.2,4.3,4.3,0,0,1-.3-1.7,3.6,3.6,0,0,1,.7-2.4,2.9,2.9,0,0,1,2.2-.9,2.6,2.6,0,0,1,2.1.9A3.6,3.6,0,0,1,227,107.3Zm-4.8,0a3,3,0,0,0,.4,1.8,1.7,1.7,0,0,0,1.5.7,1.5,1.5,0,0,0,1.4-.7,3.5,3.5,0,0,0,0-3.6,1.8,1.8,0,0,0-1.5-.7,1.9,1.9,0,0,0-1.4.7A3,3,0,0,0,222.2,107.3Z" fill="#5f6369"/><path d="M232.5,110.4v-4a2.1,2.1,0,0,0-.4-1.2,1.6,1.6,0,0,0-1.1-.4,1.7,1.7,0,0,0-1.4.6,2.5,2.5,0,0,0-.5,1.7v3.3h-.9v-6.2h.7l.2.8h0a2.7,2.7,0,0,1,.8-.7l1.2-.3a2.1,2.1,0,0,1,1.7.6,2.2,2.2,0,0,1,.6,1.7v4.1Z" fill="#5f6369"/><path d="M242.3,110.4l-2.9-7.4h0c0,.6.1,1.3.1,2.1v5.3h-.9v-8.3H240l2.7,6.9h0l2.7-6.9h1.5v8.3h-1V105a14.1,14.1,0,0,1,.1-2h-.1l-2.8,7.4Z" fill="#5f6369"/><path d="M252.7,110.4l-.2-.8h-.1l-.9.8-1.2.2a2,2,0,0,1-1.4-.5,1.7,1.7,0,0,1-.6-1.4c0-1.3,1.1-1.9,3.1-2h1.1v-.4a1.6,1.6,0,0,0-.4-1.1,1.3,1.3,0,0,0-1-.4,4.9,4.9,0,0,0-1.8.5l-.3-.7,1.1-.4,1.1-.2a2.3,2.3,0,0,1,1.6.5,2.2,2.2,0,0,1,.6,1.7v4.2Zm-2.2-.6a2,2,0,0,0,1.4-.5,1.6,1.6,0,0,0,.5-1.4v-.5h-.9a3.7,3.7,0,0,0-1.7.3,1.4,1.4,0,0,0-.5,1,1,1,0,0,0,.3.8A1.4,1.4,0,0,0,250.5,109.8Z" fill="#5f6369"/><path d="M259.2,110.4v-4a1.4,1.4,0,0,0-1.5-1.6,1.7,1.7,0,0,0-1.4.6,2.5,2.5,0,0,0-.5,1.7v3.3h-.9v-6.2h.8v.8h.1c.1-.3.4-.5.8-.7a2.1,2.1,0,0,1,1.2-.3,2.4,2.4,0,0,1,1.7.6,2.6,2.6,0,0,1,.5,1.7v4.1Z" fill="#5f6369"/><path d="M265.7,110.4l-.2-.8h0l-.9.8-1.2.2a2.5,2.5,0,0,1-1.5-.5,2,2,0,0,1-.5-1.4c0-1.3,1-1.9,3-2h1.1v-.4a1.6,1.6,0,0,0-.3-1.1,1.5,1.5,0,0,0-1-.4,4.1,4.1,0,0,0-1.8.5l-.3-.7,1-.4,1.1-.2a2.6,2.6,0,0,1,1.7.5,2.2,2.2,0,0,1,.5,1.7v4.2Zm-2.1-.6a2.2,2.2,0,0,0,1.4-.5,2,2,0,0,0,.5-1.4v-.5h-1a3.2,3.2,0,0,0-1.6.3,1.4,1.4,0,0,0-.5,1,1,1,0,0,0,.3.8A1.2,1.2,0,0,0,263.6,109.8Z" fill="#5f6369"/><path d="M273.6,104.2v.6h-1.2l.3.5a1.9,1.9,0,0,1,.1.8,1.7,1.7,0,0,1-.6,1.4,2.6,2.6,0,0,1-1.8.6h-.5a.9.9,0,0,0-.6.8.5.5,0,0,0,.2.4h1.9a2.3,2.3,0,0,1,1.5.5,1.4,1.4,0,0,1,.6,1.2,1.7,1.7,0,0,1-.9,1.6,3.8,3.8,0,0,1-2.4.6,3.3,3.3,0,0,1-1.9-.5,1.4,1.4,0,0,1-.7-1.3,1.3,1.3,0,0,1,.4-1,1.6,1.6,0,0,1,1-.5c-.1-.1-.3-.2-.4-.4a.8.8,0,0,1-.2-.5,1.1,1.1,0,0,1,.2-.6c.2-.2.3-.4.6-.5a2.7,2.7,0,0,1-.8-.7,2,2,0,0,1-.3-1.1,2.1,2.1,0,0,1,.6-1.6,2.4,2.4,0,0,1,1.8-.6l.9.2Zm-5.1,7.3a1,1,0,0,0,.5.8c.2.2.7.2,1.2.2a4.2,4.2,0,0,0,1.8-.3,1.2,1.2,0,0,0,.6-1,.8.8,0,0,0-.4-.7,2.9,2.9,0,0,0-1.2-.2h-1.1a1.5,1.5,0,0,0-1,.3A1.3,1.3,0,0,0,268.5,111.5Zm.5-5.3a1.8,1.8,0,0,0,.4,1,1.8,1.8,0,0,0,1.1.3c.9,0,1.4-.4,1.4-1.3a1.3,1.3,0,0,0-1.5-1.5,1.8,1.8,0,0,0-1,.4A1.6,1.6,0,0,0,269,106.2Z" fill="#5f6369"/><path d="M277.5,110.6a2.8,2.8,0,0,1-2.2-.9,3.4,3.4,0,0,1-.8-2.3,3.7,3.7,0,0,1,.7-2.5,2.6,2.6,0,0,1,2.1-.9,2.3,2.3,0,0,1,1.8.8,2.8,2.8,0,0,1,.7,2.1v.6h-4.3a2.9,2.9,0,0,0,.5,1.7,2.5,2.5,0,0,0,1.5.5,4.5,4.5,0,0,0,2-.4v.9l-.9.3Zm-.3-5.8a1.7,1.7,0,0,0-1.2.5,2.9,2.9,0,0,0-.5,1.4h3.3a2,2,0,0,0-.4-1.4A1.7,1.7,0,0,0,277.2,104.8Z" fill="#5f6369"/><path d="M289,110.4v-4a2.1,2.1,0,0,0-.3-1.2,1.5,1.5,0,0,0-1-.4,1.4,1.4,0,0,0-1.3.6,2.1,2.1,0,0,0-.5,1.5v3.5H285v-4a2.1,2.1,0,0,0-.3-1.2,1.8,1.8,0,0,0-1-.4,1.7,1.7,0,0,0-1.4.6,3.2,3.2,0,0,0-.4,1.7v3.3H281v-6.2h.7l.2.8h0a2.7,2.7,0,0,1,.8-.7,2,2,0,0,1,1.1-.3,1.8,1.8,0,0,1,1.9,1.1h.1a2,2,0,0,1,.8-.8,2.7,2.7,0,0,1,1.2-.3,2,2,0,0,1,1.6.6,2.2,2.2,0,0,1,.5,1.7v4.1Z" fill="#5f6369"/><path d="M294.1,110.6a2.8,2.8,0,0,1-2.2-.9,3.4,3.4,0,0,1-.8-2.3,3.7,3.7,0,0,1,.7-2.5,2.5,2.5,0,0,1,2-.9,2.4,2.4,0,0,1,1.9.8,2.8,2.8,0,0,1,.7,2.1v.6h-4.3a2.9,2.9,0,0,0,.5,1.7,2.5,2.5,0,0,0,1.5.5,4.5,4.5,0,0,0,2-.4v.9l-.9.3Zm-.3-5.8a1.7,1.7,0,0,0-1.2.5,2.9,2.9,0,0,0-.5,1.4h3.3a2,2,0,0,0-.4-1.4A1.7,1.7,0,0,0,293.8,104.8Z" fill="#5f6369"/><path d="M302.1,110.4v-4a2.1,2.1,0,0,0-.3-1.2,1.8,1.8,0,0,0-1.1-.4,1.8,1.8,0,0,0-1.5.6,2.5,2.5,0,0,0-.4,1.7v3.3h-1v-6.2h.8v.8h.1a1.9,1.9,0,0,1,.8-.7,2.1,2.1,0,0,1,1.2-.3,2.4,2.4,0,0,1,1.7.6,2.2,2.2,0,0,1,.6,1.7v4.1Z" fill="#5f6369"/><path d="M306.8,109.8h.9v.7h-1c-1.2,0-1.8-.7-1.8-2v-3.7h-1v-.5l1-.4.4-1.3h.5v1.5h1.8v.7h-1.8v3.7a1.2,1.2,0,0,0,.3.9A.9.9,0,0,0,306.8,109.8Z" fill="#5f6369"/><path d="M311.6,108.3a3.3,3.3,0,0,1,.4-1.4,7.3,7.3,0,0,1,1.5-1.1l-.7-.8-.3-.6a1.5,1.5,0,0,1-.1-.7,1.6,1.6,0,0,1,.6-1.3,2.5,2.5,0,0,1,1.5-.5,2.1,2.1,0,0,1,1.5.5,1.5,1.5,0,0,1,.5,1.3,2.7,2.7,0,0,1-.3,1.2,4.9,4.9,0,0,1-1.3,1l2.3,2.3a2.6,2.6,0,0,0,.5-.9l.3-1h1a6.5,6.5,0,0,1-1.2,2.5l1.7,1.6h-1.3l-1-1a5.5,5.5,0,0,1-1.4.9,4.1,4.1,0,0,1-1.6.3,2.9,2.9,0,0,1-1.9-.6A2.6,2.6,0,0,1,311.6,108.3Zm2.6,1.4a3,3,0,0,0,2.3-.9l-2.5-2.4-.9.6-.4.6c0,.2-.1.4-.1.6a1.4,1.4,0,0,0,.5,1.1A1.5,1.5,0,0,0,314.2,109.7Zm-.8-6a1.2,1.2,0,0,0,.2.8,2.3,2.3,0,0,0,.7.8,2.1,2.1,0,0,0,1-.8,1.1,1.1,0,0,0,.3-.8.9.9,0,0,0-.3-.7,1.2,1.2,0,0,0-1.6,0A.9.9,0,0,0,313.4,103.7Z" fill="#5f6369"/><path d="M327.4,102.8a2.7,2.7,0,0,0-2.2.9,3.4,3.4,0,0,0-.8,2.5,3.5,3.5,0,0,0,.8,2.6,2.7,2.7,0,0,0,2.2.9l2-.3v.8a4.8,4.8,0,0,1-2.2.4,3.7,3.7,0,0,1-2.9-1.2,4.9,4.9,0,0,1-1-3.2,5.1,5.1,0,0,1,.5-2.2,2.9,2.9,0,0,1,1.4-1.5,4,4,0,0,1,2.2-.6,5.6,5.6,0,0,1,2.3.5l-.4.9A4.9,4.9,0,0,0,327.4,102.8Z" fill="#5f6369"/><path d="M336,107.3a3.6,3.6,0,0,1-.8,2.4,2.6,2.6,0,0,1-2.1.9,3.3,3.3,0,0,1-1.5-.4,2.9,2.9,0,0,1-1-1.2,3.1,3.1,0,0,1-.4-1.7,3.6,3.6,0,0,1,.8-2.4,2.9,2.9,0,0,1,4.2,0A3.6,3.6,0,0,1,336,107.3Zm-4.8,0a3,3,0,0,0,.5,1.8,1.7,1.7,0,0,0,2.8,0,3.5,3.5,0,0,0,0-3.6,1.7,1.7,0,0,0-2.8,0A3,3,0,0,0,331.2,107.3Z" fill="#5f6369"/><path d="M341.5,110.4v-4a2.1,2.1,0,0,0-.3-1.2,1.8,1.8,0,0,0-1.1-.4,1.8,1.8,0,0,0-1.5.6,2.5,2.5,0,0,0-.4,1.7v3.3h-1v-6.2h.8v.8h.1a2.7,2.7,0,0,1,.8-.7,2.7,2.7,0,0,1,1.2-.3,2.4,2.4,0,0,1,1.7.6,2.2,2.2,0,0,1,.6,1.7v4.1Z" fill="#5f6369"/><path d="M348.3,108.7a1.7,1.7,0,0,1-.7,1.4,3.2,3.2,0,0,1-1.8.5,5,5,0,0,1-2-.4v-.9a2.9,2.9,0,0,0,1,.3l1,.2a1.6,1.6,0,0,0,1.1-.3.7.7,0,0,0,.4-.7.9.9,0,0,0-.3-.6,3.3,3.3,0,0,0-1.2-.6l-1.3-.6-.5-.6a.8.8,0,0,1-.2-.7,1.4,1.4,0,0,1,.6-1.2,2.9,2.9,0,0,1,1.7-.5,4.6,4.6,0,0,1,2,.5l-.3.7a6.8,6.8,0,0,0-1.7-.4l-1.1.2a.9.9,0,0,0-.3.6.9.9,0,0,0,.1.5l.4.3,1.1.5a3.4,3.4,0,0,1,1.6.8A1.8,1.8,0,0,1,348.3,108.7Z" fill="#5f6369"/><path d="M350.5,104.2v4a2.1,2.1,0,0,0,.3,1.2,1.6,1.6,0,0,0,1.1.4,1.9,1.9,0,0,0,1.5-.6,2.5,2.5,0,0,0,.4-1.7v-3.3h1v6.2H354l-.2-.8h0a2.7,2.7,0,0,1-.8.7,2.7,2.7,0,0,1-1.2.3,2.1,2.1,0,0,1-2.3-2.3v-4.1Z" fill="#5f6369"/><path d="M357.5,110.4h-1v-8.9h1Z" fill="#5f6369"/><path d="M361.6,109.8h.8v.7h-1c-1.2,0-1.8-.7-1.8-2v-3.7h-.9v-.5l.9-.4.4-1.3h.5v1.5h1.9v.7h-1.9v3.7a1.2,1.2,0,0,0,.3.9A1,1,0,0,0,361.6,109.8Z" fill="#5f6369"/><path d="M363.6,102.4c0-.2,0-.3.2-.4a.5.5,0,0,1,.4-.2l.4.2c.1.1.1.2.1.4s0,.4-.1.5l-.4.2-.4-.2C363.6,102.8,363.6,102.7,363.6,102.4Zm1,8h-.9v-6.2h.9Z" fill="#5f6369"/><path d="M371,110.4v-4a2.1,2.1,0,0,0-.4-1.2,1.6,1.6,0,0,0-1.1-.4,1.6,1.6,0,0,0-1.4.6,2.5,2.5,0,0,0-.5,1.7v3.3h-1v-6.2h.8l.2.8h0a2.7,2.7,0,0,1,.8-.7,2.7,2.7,0,0,1,1.2-.3,2.1,2.1,0,0,1,1.7.6,2.2,2.2,0,0,1,.6,1.7v4.1Z" fill="#5f6369"/><path d="M379,104.2v.6h-1.1a.8.8,0,0,1,.2.5,1.9,1.9,0,0,1,.2.8,1.5,1.5,0,0,1-.7,1.4,2.4,2.4,0,0,1-1.7.6h-.5a.9.9,0,0,0-.6.8c0,.2,0,.3.2.4h1.8a2.5,2.5,0,0,1,1.6.5,1.3,1.3,0,0,1,.5,1.2,1.6,1.6,0,0,1-.8,1.6,4.3,4.3,0,0,1-2.4.6,3.7,3.7,0,0,1-2-.5,1.5,1.5,0,0,1-.6-1.3,1.7,1.7,0,0,1,.3-1,1.9,1.9,0,0,1,1.1-.5.8.8,0,0,1-.4-.4.8.8,0,0,1-.2-.5,1.1,1.1,0,0,1,.2-.6,1,1,0,0,1,.6-.5,1.9,1.9,0,0,1-.8-.7,2,2,0,0,1-.3-1.1,2.1,2.1,0,0,1,.6-1.6,2.4,2.4,0,0,1,1.7-.6l.9.2Zm-5,7.3a.9.9,0,0,0,.4.8,2.4,2.4,0,0,0,1.3.2,3.4,3.4,0,0,0,1.7-.3,1.2,1.2,0,0,0,.6-1,.8.8,0,0,0-.3-.7,2.9,2.9,0,0,0-1.2-.2h-1.1a1.3,1.3,0,0,0-1,.3A1,1,0,0,0,374,111.5Zm.5-5.3a1.3,1.3,0,0,0,.4,1,1.5,1.5,0,0,0,1,.3c1,0,1.4-.4,1.4-1.3s-.4-1.5-1.4-1.5a1.5,1.5,0,0,0-1,.4A1.2,1.2,0,0,0,374.5,106.2Z" fill="#5f6369"/></g></g></svg>