<svg xmlns="http://www.w3.org/2000/svg" width="477.3" height="84.8" viewBox="0 0 477.3 84.8"><path fill="#999" stroke="#999" stroke-width=".66" d="M5.7 67h471.6"/><path fill="#160967" stroke="#160967" d="M39.4 79.8L186.5.5H.8l38.6 79.3z"/><path fill="#b3b3b3" d="M30.7 22.8c0 1.3 0 2.5.1 3.5h-1.9l-.2-1.8a4.3 4.3 0 0 1-3.6 2.2c-2.3 0-3.5-2.1-3.5-4.3s2.5-5.5 6.9-5.5v-.3c0-1.2-.2-3.4-2.6-3.4a4.6 4.6 0 0 0-3 1.1l-.5-1.8a6 6 0 0 1 3.8-1.3c3.6 0 4.5 3.1 4.5 6.1zm-2.1-4c-2.3-.1-4.9.5-4.9 3.3s.9 2.6 1.9 2.6a3 3 0 0 0 2.9-2.5 2.5 2.5 0 0 0 .1-.8zm15-3.2c0-1.6 0-2.8-.1-4.1h1.9v2.4h.1a3.9 3.9 0 0 1 3.6-2.7c1.6 0 2.8 1.2 3.3 3a6.4 6.4 0 0 1 1.4-2 3.6 3.6 0 0 1 2.5-1c1.6 0 3.8 1.3 3.8 6.4v8.7h-2V18c0-2.9-.9-4.6-2.5-4.6a3 3 0 0 0-2.6 2.4 6.1 6.1 0 0 0-.1 1.4v9.1h-2v-8.8c0-2.4-.8-4.1-2.4-4.1s-2.3 1.4-2.6 2.7a5.9 5.9 0 0 0-.2 1.3v8.9h-2.1zm37.9 10.2a5.7 5.7 0 0 1-3.3.9c-3.5 0-5.8-3-5.8-7.6s2.5-7.9 6.3-7.9a5.6 5.6 0 0 1 2.9.8l-.5 2.1a3.8 3.8 0 0 0-2.4-.7c-2.7 0-4.1 2.5-4.1 5.6s1.7 5.5 4 5.5a5.4 5.4 0 0 0 2.6-.7zm13.2-6.4c0 3.6 1.8 5.1 3.9 5.1a6.3 6.3 0 0 0 3.2-.7l.4 1.9a7.9 7.9 0 0 1-3.9.9c-3.5 0-5.7-3-5.7-7.4s2.1-8 5.5-8 4.8 4.2 4.8 7c0 .5-.1.9-.1 1.2zm6.1-1.9c.1-1.7-.5-4.4-2.9-4.4s-3 2.5-3.2 4.4zm14 6.1a5 5 0 0 0 2.8 1.1 2 2 0 0 0 2.2-2.2c0-1.3-.6-2-2.1-2.8s-3.1-2.4-3.1-4.1 1.5-4.4 4-4.4a4.4 4.4 0 0 1 2.8.9l-.5 2a3.5 3.5 0 0 0-2.3-.9 1.9 1.9 0 0 0-2 2c0 1.3.7 1.8 2.2 2.6s3.1 2.2 3.1 4.4a4.1 4.1 0 0 1-4.3 4.5 5 5 0 0 1-3.3-1.1z"/><path fill="#006" d="M89.1 82.5l1.7-7.8h1l-.7 3.2h4.2l.6-3.2H97l-1.7 7.8h-1l.8-3.7H91l-.8 3.7zm13.2-1.9h.9a2.2 2.2 0 0 1-.9 1.3 2.9 2.9 0 0 1-1.8.7 2 2 0 0 1-1.1-.3 1.4 1.4 0 0 1-.8-.9 2.8 2.8 0 0 1-.3-1.3 3.9 3.9 0 0 1 .4-1.8 4.7 4.7 0 0 1 1.1-1.3 2.8 2.8 0 0 1 1.5-.4 2.1 2.1 0 0 1 1.6.6 2.3 2.3 0 0 1 .7 1.8c0 .2-.1.5-.1.8h-4.2v.3a1.7 1.7 0 0 0 .3 1.2 1.4 1.4 0 0 0 .9.5 1.3 1.3 0 0 0 1-.4 2.4 2.4 0 0 0 .8-.8zm-2.9-1.4h3.2V79a2.1 2.1 0 0 0-.3-1.2 1.7 1.7 0 0 0-1-.3 1.5 1.5 0 0 0-1.1.4 3.2 3.2 0 0 0-.8 1.3zm5.8 3.3l1.7-7.8h1l-1.7 7.8zm3.2 2.2l1.6-7.9h.9v.8a2.8 2.8 0 0 1 .9-.7l.8-.2a1.6 1.6 0 0 1 1.3.6 2.4 2.4 0 0 1 .6 1.7 4.1 4.1 0 0 1-.3 1.6 6.3 6.3 0 0 1-.7 1.2l-.9.7-.9.2a1.8 1.8 0 0 1-1.6-1.1l-.6 3.1zm1.9-4.5a2.2 2.2 0 0 0 .1.9 1 1 0 0 0 .4.5 1.1 1.1 0 0 0 .7.3 1.6 1.6 0 0 0 1.4-1 4.1 4.1 0 0 0 .5-1.9 1.6 1.6 0 0 0-.3-1.1 1.1 1.1 0 0 0-.9-.4l-.7.2a1.7 1.7 0 0 0-.6.6 3.9 3.9 0 0 0-.4.9 4.4 4.4 0 0 0-.2 1zm5.7 2.3l1.2-5.7h1l-1.2 5.7zm1.5-6.7l.2-1.1h1l-.3 1.1zm2.1 6.7l1.2-5.7h.9l-.2 1a3.8 3.8 0 0 1 1.1-.8 1.7 1.7 0 0 1 1-.3 1.4 1.4 0 0 1 1.1.4 1.2 1.2 0 0 1 .4 1 8.4 8.4 0 0 1-.2 1l-.7 3.4h-1l.8-3.6a2.5 2.5 0 0 0 .1-.8.4.4 0 0 0-.2-.4l-.6-.2a2.1 2.1 0 0 0-1.3.5 3.7 3.7 0 0 0-.9 1.9l-.5 2.6zm7.1.8v-.2h.9a2 2 0 0 0 .1.5l.3.3h.7a1.7 1.7 0 0 0 1.3-.4 4.9 4.9 0 0 0 .4-1.4v-.4a2.1 2.1 0 0 1-1.6.7 1.8 1.8 0 0 1-1.4-.6 2.4 2.4 0 0 1-.6-1.8 3.9 3.9 0 0 1 .4-1.8 6.5 6.5 0 0 1 1.1-1.2 2.4 2.4 0 0 1 1.3-.4 2 2 0 0 1 1.8 1.1l.2-1h.9l-1.2 5.5a5.3 5.3 0 0 1-.5 1.5 1.8 1.8 0 0 1-.8.7 2.8 2.8 0 0 1-1.3.3 2.2 2.2 0 0 1-1.2-.2 1.3 1.3 0 0 1-.7-.5 1.1 1.1 0 0 1-.3-.8zM128 80a2.2 2.2 0 0 0 .1.9 1 1 0 0 0 .5.6c.1.2.4.2.6.2l1-.3a2.6 2.6 0 0 0 .7-1 3.9 3.9 0 0 0 .3-1.4 1.5 1.5 0 0 0-.4-1.1 1 1 0 0 0-.9-.4l-.7.2-.6.6a1.9 1.9 0 0 0-.5.9 2.8 2.8 0 0 0-.1.8zm14.1 2.5a2 2 0 0 0-.1-.7l-.9.7-1 .2a1.7 1.7 0 0 1-1.3-.5 1.7 1.7 0 0 1-.5-1.2 1.9 1.9 0 0 1 .2-.8 1.7 1.7 0 0 1 .6-.6 1.2 1.2 0 0 1 .9-.3h1.2l1.3-.2a2 2 0 0 0 .1-.7c0-.2 0-.4-.2-.5a1.5 1.5 0 0 0-1-.3 1.7 1.7 0 0 0-1 .3l-.6.7h-.9a2.5 2.5 0 0 1 .9-1.3 3.1 3.1 0 0 1 1.7-.5 2.5 2.5 0 0 1 1.6.5 1.1 1.1 0 0 1 .5 1 3.8 3.8 0 0 1-.1 1l-.3 1.5a5.2 5.2 0 0 0-.2 1.1 2.3 2.3 0 0 0 .1.7zm.3-2.9l-.4.2h-.8l-1.2.2c-.3 0-.4.2-.6.3a1.3 1.3 0 0 0-.1.6 1.1 1.1 0 0 0 .2.6 1.2 1.2 0 0 0 .9.3l.9-.2a2.7 2.7 0 0 0 .7-.8 3.3 3.3 0 0 0 .4-1.2zm3.8 2.6a1.9 1.9 0 0 1-.7-1.6h1a1.5 1.5 0 0 0 .1.7.8.8 0 0 0 .5.5l.8.2.9-.2a.8.8 0 0 0 .4-.7l-.2-.4-1-.6-1-.4-.5-.6a1.4 1.4 0 0 1-.2-.7 1.6 1.6 0 0 1 .5-1.1 2.5 2.5 0 0 1 1.5-.5 2.6 2.6 0 0 1 1.7.5 2.6 2.6 0 0 1 .6 1.3h-1a.8.8 0 0 0-.4-.8 1.2 1.2 0 0 0-.9-.3c-.4 0-.6 0-.8.2a.5.5 0 0 0-.3.5c0 .2.1.3.2.5l.9.4 1.4.8a1.2 1.2 0 0 1 .4 1 1.5 1.5 0 0 1-.2.9 2.4 2.4 0 0 1-.8.6 2.9 2.9 0 0 1-2.9-.2zm6.6 0a1.9 1.9 0 0 1-.7-1.6h1a1.5 1.5 0 0 0 .1.7.8.8 0 0 0 .5.5l.8.2.9-.2a.8.8 0 0 0 .4-.7l-.2-.4-1-.6-1-.4-.5-.6a1.4 1.4 0 0 1-.2-.7 1.6 1.6 0 0 1 .5-1.1 2.5 2.5 0 0 1 1.5-.5 2.6 2.6 0 0 1 1.7.5 2.6 2.6 0 0 1 .6 1.3h-1a.8.8 0 0 0-.4-.8 1.2 1.2 0 0 0-.9-.3c-.4 0-.6 0-.8.2a.5.5 0 0 0-.3.5c0 .2.1.3.2.5l.9.4 1.4.8a1.2 1.2 0 0 1 .4 1 1.5 1.5 0 0 1-.2.9 2.4 2.4 0 0 1-.8.6 2.9 2.9 0 0 1-2.9-.2zm6-1.8a3.9 3.9 0 0 1 1-2.8 2.6 2.6 0 0 1 2.1-.9 1.9 1.9 0 0 1 1.6.7 2.1 2.1 0 0 1 .7 1.7 5.3 5.3 0 0 1-.4 1.8 3 3 0 0 1-1.2 1.3 2.7 2.7 0 0 1-1.5.5 2.7 2.7 0 0 1-1.2-.3 2 2 0 0 1-.8-.8 2.7 2.7 0 0 1-.3-1.2zm.9-.1a2.1 2.1 0 0 0 .4 1.2 1.3 1.3 0 0 0 1 .4h.6l.6-.4.5-.6a1.4 1.4 0 0 0 .2-.7 2 2 0 0 0 .2-1 1.6 1.6 0 0 0-.4-1.2 1.2 1.2 0 0 0-1-.4 1.2 1.2 0 0 0-.8.2 1.9 1.9 0 0 0-.7.6 3 3 0 0 0-.4 1 4.4 4.4 0 0 0-.2.9zm10.1.2h.9a2.8 2.8 0 0 1-1 1.5 2.4 2.4 0 0 1-1.5.6 1.8 1.8 0 0 1-1.5-.6 2.4 2.4 0 0 1-.6-1.7 6.3 6.3 0 0 1 .3-1.9 2.8 2.8 0 0 1 1.1-1.3 3 3 0 0 1 1.6-.5 2 2 0 0 1 1.4.5 1.8 1.8 0 0 1 .6 1.4h-1a1.2 1.2 0 0 0-.3-.9 1.1 1.1 0 0 0-.8-.3 1.3 1.3 0 0 0-1 .4 2.3 2.3 0 0 0-.7 1.1 3.9 3.9 0 0 0-.2 1.5 1.5 1.5 0 0 0 .3 1 .9.9 0 0 0 .8.4 1.6 1.6 0 0 0 .9-.3 4.1 4.1 0 0 0 .7-.9zm2.6 2l1.2-5.7h1l-1.2 5.7zm1.4-6.7l.3-1.1h.9l-.2 1.1zm6.1 6.7c0-.2-.1-.4-.1-.7l-1 .7-1 .2a1.7 1.7 0 0 1-1.2-.5 1.3 1.3 0 0 1-.5-1.2 1.9 1.9 0 0 1 .2-.8.9.9 0 0 1 .6-.6 1.2 1.2 0 0 1 .9-.3h1.2l1.3-.2a2 2 0 0 0 .1-.7.8.8 0 0 0-.2-.5 1.8 1.8 0 0 0-2 0 1.3 1.3 0 0 0-.6.7h-1a2.7 2.7 0 0 1 1-1.3 2.8 2.8 0 0 1 1.6-.5 2.9 2.9 0 0 1 1.7.5 1.4 1.4 0 0 1 .5 1c0 .3-.1.6-.1 1l-.4 1.5a4.5 4.5 0 0 0-.1 1.1 2.3 2.3 0 0 0 .1.7zm.3-2.9l-.5.2h-.7l-1.2.2a.9.9 0 0 0-.6.3 1.4 1.4 0 0 0-.2.6.7.7 0 0 0 .3.6 1.1 1.1 0 0 0 .8.3l1-.2a2.7 2.7 0 0 0 .7-.8 6.8 6.8 0 0 0 .4-1.2zm4.7 2.2h.6l-.2.8h-.7a1.2 1.2 0 0 1-.9-.3.5.5 0 0 1-.3-.5 5.1 5.1 0 0 1 .2-.9l.7-3.3h-.8l.2-.8h.7l.3-1.4 1.1-.6-.4 2h1l-.2.8h-.9l-.7 3.1a3.2 3.2 0 0 0-.1.8c0 .1 0 .2.1.2zm2.4.7l1.2-5.7h1l-1.2 5.7zm1.4-6.7l.3-1.1h.9l-.2 1.1zm2.4 4.6a4.3 4.3 0 0 1 .9-2.8 2.9 2.9 0 0 1 2.2-.9 1.9 1.9 0 0 1 1.6.7 2.4 2.4 0 0 1 .7 1.7 5.3 5.3 0 0 1-.4 1.8 3 3 0 0 1-1.2 1.3 3 3 0 0 1-1.5.5 2.1 2.1 0 0 1-1.2-.3 2.4 2.4 0 0 1-.9-.8 5 5 0 0 1-.2-1.2zm.9-.1a2.1 2.1 0 0 0 .4 1.2 1.3 1.3 0 0 0 1 .4h.6l.6-.4a2.1 2.1 0 0 0 .4-.6.9.9 0 0 0 .3-.7 4.4 4.4 0 0 0 .2-1 1.6 1.6 0 0 0-.4-1.2 1.3 1.3 0 0 0-1-.4 1.1 1.1 0 0 0-.8.2 1.3 1.3 0 0 0-.7.6 3 3 0 0 0-.4 1 4.4 4.4 0 0 0-.2.9zm6.1 2.2l1.2-5.7h.9l-.2 1a3.8 3.8 0 0 1 1.1-.8 1.7 1.7 0 0 1 1-.3 1.4 1.4 0 0 1 1.1.4 1.2 1.2 0 0 1 .4 1 8.4 8.4 0 0 1-.2 1l-.7 3.4h-1l.8-3.6a2.5 2.5 0 0 0 .1-.8.4.4 0 0 0-.2-.4l-.6-.2a2.1 2.1 0 0 0-1.3.5 3.7 3.7 0 0 0-.9 1.9l-.5 2.6zm8-.3a1.9 1.9 0 0 1-.7-1.6h1a1.5 1.5 0 0 0 .1.7 1.2 1.2 0 0 0 .5.5l.8.2 1-.2a.9.9 0 0 0 .3-.7l-.2-.4a2.1 2.1 0 0 0-1-.6l-1-.4-.5-.6a1.4 1.4 0 0 1-.2-.7 1.6 1.6 0 0 1 .5-1.1 2.8 2.8 0 0 1 3.2 0 1.6 1.6 0 0 1 .6 1.3h-1a1 1 0 0 0-.3-.8 1.7 1.7 0 0 0-1-.3c-.4 0-.6 0-.8.2a.5.5 0 0 0-.3.5c0 .2.1.3.3.5l.8.4a5.1 5.1 0 0 1 1.4.8 1.2 1.2 0 0 1 .5 1 1.6 1.6 0 0 1-.3.9 1.7 1.7 0 0 1-.8.6 2.5 2.5 0 0 1-1.3.3 2.8 2.8 0 0 1-1.6-.5zm14.2-1.6h.9a2.2 2.2 0 0 1-.9 1.3 2.9 2.9 0 0 1-1.8.7 2 2 0 0 1-1.1-.3 1.4 1.4 0 0 1-.8-.9 2.8 2.8 0 0 1-.3-1.3 3.9 3.9 0 0 1 .4-1.8 4.7 4.7 0 0 1 1.1-1.3 2.8 2.8 0 0 1 1.5-.4 2.5 2.5 0 0 1 1.7.6 2.6 2.6 0 0 1 .6 1.8c0 .2-.1.5-.1.8h-4.2v.3a1.7 1.7 0 0 0 .3 1.2 1.4 1.4 0 0 0 .9.5 1.3 1.3 0 0 0 1-.4 2.4 2.4 0 0 0 .8-.8zm-2.9-1.4h3.2V79a2.1 2.1 0 0 0-.3-1.2 1.7 1.7 0 0 0-1-.3 1.5 1.5 0 0 0-1.1.4 3.2 3.2 0 0 0-.8 1.3zm5.5 3.3l2.5-2.8-1.4-2.9h1l.5 1 .5 1.1 1.7-2.1h1.1l-2.4 2.9 1.5 2.8h-1.1l-.6-1.1a3.6 3.6 0 0 0-.4-.9l-1.7 2zm10.9-2h1a2.8 2.8 0 0 1-1 1.5 2.5 2.5 0 0 1-1.6.6 2 2 0 0 1-1.5-.6 2.4 2.4 0 0 1-.6-1.7 6.5 6.5 0 0 1 .4-1.9 2.8 2.8 0 0 1 1.1-1.3 2.8 2.8 0 0 1 1.6-.5 2.2 2.2 0 0 1 1.4.5 1.7 1.7 0 0 1 .5 1.4h-.9a1.2 1.2 0 0 0-.3-.9 1.1 1.1 0 0 0-.8-.3 1.5 1.5 0 0 0-1.1.4 2.3 2.3 0 0 0-.6 1.1 4 4 0 0 0-.3 1.5 1.5 1.5 0 0 0 .3 1 1 1 0 0 0 .8.4 1.2 1.2 0 0 0 .9-.3 2.6 2.6 0 0 0 .7-.9zm6.9.1h.9a2.2 2.2 0 0 1-.9 1.3 2.9 2.9 0 0 1-1.8.7 2 2 0 0 1-1.1-.3 1.8 1.8 0 0 1-.8-.9 2.8 2.8 0 0 1-.3-1.3 3.9 3.9 0 0 1 .4-1.8 4.7 4.7 0 0 1 1.1-1.3 2.8 2.8 0 0 1 1.5-.4 2.4 2.4 0 0 1 1.7.6 2.6 2.6 0 0 1 .6 1.8 2.5 2.5 0 0 1-.1.8h-4.2v.3a1.7 1.7 0 0 0 .3 1.2 1.4 1.4 0 0 0 .9.5 1.3 1.3 0 0 0 1-.4 1.8 1.8 0 0 0 .8-.8zm-2.8-1.4h3.2V79a2.1 2.1 0 0 0-.4-1.2 1.4 1.4 0 0 0-.9-.3 1.7 1.7 0 0 0-1.2.4 2.3 2.3 0 0 0-.7 1.3zm10 1.4h.9a2.2 2.2 0 0 1-.9 1.3 2.8 2.8 0 0 1-1.7.7 2.1 2.1 0 0 1-1.2-.3 1.8 1.8 0 0 1-.8-.9 2.8 2.8 0 0 1-.3-1.3 5.8 5.8 0 0 1 .4-1.8 3.7 3.7 0 0 1 1.2-1.3 2.4 2.4 0 0 1 1.5-.4 2.3 2.3 0 0 1 1.6.6 2.6 2.6 0 0 1 .6 1.8 2.5 2.5 0 0 1-.1.8h-4.2v.3c0 .6.1 1 .4 1.2a1.1 1.1 0 0 0 .9.5 1.2 1.2 0 0 0 .9-.4 1.8 1.8 0 0 0 .8-.8zm-2.8-1.4h3.2V79a1.6 1.6 0 0 0-.4-1.2 1.2 1.2 0 0 0-.9-.3 1.9 1.9 0 0 0-1.2.4 2.3 2.3 0 0 0-.7 1.3zm9.7 2.5a2.8 2.8 0 0 1-1.8 1 1.6 1.6 0 0 1-1.3-.6 2.4 2.4 0 0 1-.6-1.8 4.1 4.1 0 0 1 .5-1.9 4.5 4.5 0 0 1 1-1.3 3.8 3.8 0 0 1 1.3-.4 1.6 1.6 0 0 1 1.6 1l.7-3h.9l-1.6 7.8h-.9zm-2.7-1.6a2.8 2.8 0 0 0 .1 1l.4.6.7.2a1.5 1.5 0 0 0 1.2-.7 3.5 3.5 0 0 0 .7-2.3 1.5 1.5 0 0 0-.3-1 1.2 1.2 0 0 0-.9-.4l-.7.2a2.3 2.3 0 0 0-.5.5 2.6 2.6 0 0 0-.5.9 5.8 5.8 0 0 0-.2 1zm10.2 2.4l1.2-5.7h1l-.2 1 .9-.9 1-.2a1.6 1.6 0 0 1 .9.3 1 1 0 0 1 .4.8 3.2 3.2 0 0 1 .9-.8 2.3 2.3 0 0 1 1.1-.3 1.5 1.5 0 0 1 1 .3 1.3 1.3 0 0 1 .4 1c0 .2-.1.5-.1.9l-.8 3.6h-1l.8-3.7a2.3 2.3 0 0 0 .1-.7.5.5 0 0 0-.2-.4l-.5-.2a1.6 1.6 0 0 0-.9.3 1.6 1.6 0 0 0-.7.7 5 5 0 0 0-.4 1.3l-.6 2.7h-1l.9-3.8v-.6c0-.2 0-.3-.1-.4l-.5-.2-.9.3a1.6 1.6 0 0 0-.7.7 8.9 8.9 0 0 0-.5 1.3l-.5 2.7zm14.5-1.9h.9a2.2 2.2 0 0 1-.9 1.3 2.9 2.9 0 0 1-1.8.7 2 2 0 0 1-1.1-.3 2 2 0 0 1-.9-.9 5.1 5.1 0 0 1-.2-1.3 3.9 3.9 0 0 1 .4-1.8 4.7 4.7 0 0 1 1.1-1.3 2.8 2.8 0 0 1 1.5-.4 2.1 2.1 0 0 1 1.6.6 2.7 2.7 0 0 1 .7 1.8c0 .2-.1.5-.1.8h-4.2v.3a1.7 1.7 0 0 0 .3 1.2 1.4 1.4 0 0 0 .9.5 1.3 1.3 0 0 0 1-.4 2.4 2.4 0 0 0 .8-.8zm-2.9-1.4h3.2V79a2.1 2.1 0 0 0-.3-1.2 1.7 1.7 0 0 0-1-.3 1.5 1.5 0 0 0-1.1.4 3.2 3.2 0 0 0-.8 1.3zm5.9 3.3l1.2-5.7h1l-.2 1a3.8 3.8 0 0 1 .9-.9l1-.2a1.4 1.4 0 0 1 1.3 1.1 3.2 3.2 0 0 1 .9-.8 1.9 1.9 0 0 1 1-.3 1.6 1.6 0 0 1 1.1.3 1.3 1.3 0 0 1 .4 1 5.1 5.1 0 0 1-.2.9l-.7 3.6h-1l.8-3.7a2.3 2.3 0 0 0 .1-.7.5.5 0 0 0-.2-.4l-.5-.2a1.6 1.6 0 0 0-.9.3 1.6 1.6 0 0 0-.7.7 5 5 0 0 0-.4 1.3l-.6 2.7h-1l.8-3.8a1.8 1.8 0 0 0 .1-.6c0-.2 0-.3-.2-.4a.5.5 0 0 0-.4-.2l-.9.3a1.6 1.6 0 0 0-.7.7 3.9 3.9 0 0 0-.5 1.3l-.5 2.7zm10.3 0l1.6-7.8h1l-.6 2.8.8-.6.8-.2a1.8 1.8 0 0 1 1.3.6 2.9 2.9 0 0 1 .5 1.7 5.9 5.9 0 0 1-.2 1.4 3.9 3.9 0 0 1-.6 1.1l-.6.7a1.5 1.5 0 0 1-.7.3l-.6.2a1.7 1.7 0 0 1-1-.3 2.2 2.2 0 0 1-.7-.9l-.2 1zm1.6-3.4a6.5 6.5 0 0 0-.2 1.1v.2a1.8 1.8 0 0 0 .3 1.1 1.3 1.3 0 0 0 .9.4 1.8 1.8 0 0 0 .9-.4 3.5 3.5 0 0 0 .7-1.1 7.8 7.8 0 0 0 .2-1.4 1.6 1.6 0 0 0-.3-1.1.9.9 0 0 0-.8-.4 1.3 1.3 0 0 0-1 .4 3.5 3.5 0 0 0-.7 1.2zm9.8 1.5h.9a2.2 2.2 0 0 1-.9 1.3 2.9 2.9 0 0 1-1.8.7l-1.2-.3a2.4 2.4 0 0 1-.8-.9 5.1 5.1 0 0 1-.2-1.3 3.9 3.9 0 0 1 .4-1.8A4.7 4.7 0 0 1 299 77a2.8 2.8 0 0 1 1.5-.4 2.1 2.1 0 0 1 1.6.6 2.6 2.6 0 0 1 .6 1.8v.8h-4.2v.3a1.7 1.7 0 0 0 .3 1.2 1.4 1.4 0 0 0 .9.5 1.3 1.3 0 0 0 1-.4 2.4 2.4 0 0 0 .8-.8zm-2.9-1.4h3.2V79a2.1 2.1 0 0 0-.3-1.2 1.7 1.7 0 0 0-1-.3 1.5 1.5 0 0 0-1.1.4 3.2 3.2 0 0 0-.8 1.3zm5.9 3.3l1.2-5.7h.9l-.3 1.2a4.5 4.5 0 0 1 .9-1 1.3 1.3 0 0 1 .8-.3l.8.2-.4.9-.6-.2a1.7 1.7 0 0 0-1.1.6 5.5 5.5 0 0 0-.8 2l-.5 2.3zm13.1-1.9h.9a2.2 2.2 0 0 1-.9 1.3 2.8 2.8 0 0 1-1.7.7 2.1 2.1 0 0 1-1.2-.3 1.8 1.8 0 0 1-.8-.9 2.8 2.8 0 0 1-.3-1.3 3.9 3.9 0 0 1 .4-1.8 3.7 3.7 0 0 1 1.2-1.3 2.3 2.3 0 0 1 1.4-.4 2.4 2.4 0 0 1 1.7.6 2.6 2.6 0 0 1 .6 1.8 2.5 2.5 0 0 1-.1.8h-4.2v.3c0 .6.1 1 .4 1.2a1.1 1.1 0 0 0 .9.5 1.2 1.2 0 0 0 .9-.4 1.8 1.8 0 0 0 .8-.8zm-2.8-1.4h3.2V79a2.1 2.1 0 0 0-.4-1.2 1.2 1.2 0 0 0-.9-.3 1.9 1.9 0 0 0-1.2.4 2.3 2.3 0 0 0-.7 1.3zm5.4 3.3l2.5-2.8-1.4-2.9h1.1l.5 1c.1.4.3.8.4 1.1l1.7-2.1h1.2l-2.4 2.9 1.4 2.8h-1.1l-.5-1.1a3.6 3.6 0 0 1-.4-.9l-1.7 2zm6.6 2.2l1.6-7.9h.9l-.2.8.9-.7.9-.2a1.6 1.6 0 0 1 1.3.6 2.4 2.4 0 0 1 .6 1.7 4.1 4.1 0 0 1-.3 1.6 3.6 3.6 0 0 1-.8 1.2 2.7 2.7 0 0 1-.8.7l-.9.2a1.8 1.8 0 0 1-1.6-1.1l-.7 3.1zm1.9-4.5a2.2 2.2 0 0 0 .1.9 1 1 0 0 0 .4.5 1.1 1.1 0 0 0 .7.3c.6 0 1-.4 1.4-1a4.1 4.1 0 0 0 .5-1.9 1.6 1.6 0 0 0-.3-1.1 1.2 1.2 0 0 0-.9-.4l-.7.2a1.7 1.7 0 0 0-.6.6 1.9 1.9 0 0 0-.4.9 2 2 0 0 0-.2 1zm9.9.4h1a3.1 3.1 0 0 1-1 1.3 2.6 2.6 0 0 1-1.7.7l-1.2-.3a2.4 2.4 0 0 1-.8-.9 2.8 2.8 0 0 1-.3-1.3 4.1 4.1 0 0 1 .5-1.8 3.5 3.5 0 0 1 1.1-1.3 2.6 2.6 0 0 1 1.5-.4 2.1 2.1 0 0 1 1.6.6 2.6 2.6 0 0 1 .6 1.8 2.5 2.5 0 0 1-.1.8h-4.2v.3c0 .6.1 1 .4 1.2a1.1 1.1 0 0 0 .9.5 1.4 1.4 0 0 0 1-.4 2.2 2.2 0 0 0 .7-.8zm-2.8-1.4h3.2V79a1.6 1.6 0 0 0-.4-1.2 1.2 1.2 0 0 0-.9-.3 1.5 1.5 0 0 0-1.1.4 2.4 2.4 0 0 0-.8 1.3zm9.8 1.3h1a3 3 0 0 1-1.1 1.5 2.2 2.2 0 0 1-3 0 2.4 2.4 0 0 1-.6-1.7 4.3 4.3 0 0 1 .4-1.9 2.7 2.7 0 0 1 1-1.3 3 3 0 0 1 1.6-.5 2.5 2.5 0 0 1 1.5.5 2.2 2.2 0 0 1 .5 1.4h-.9a1.9 1.9 0 0 0-.4-.9 1 1 0 0 0-.8-.3 1.3 1.3 0 0 0-1 .4 2.3 2.3 0 0 0-.7 1.1 7.7 7.7 0 0 0-.2 1.5 1.5 1.5 0 0 0 .3 1 .9.9 0 0 0 .8.4 1.6 1.6 0 0 0 .9-.3 4.1 4.1 0 0 0 .7-.9zm4.4 1.3h.5v.8h-.7a1.2 1.2 0 0 1-.9-.3.5.5 0 0 1-.3-.5 5.1 5.1 0 0 1 .2-.9l.6-3.3h-.7v-.8h.8l.3-1.4 1.1-.6-.4 2h.9v.8h-1l-.6 3.1-.2.8v.2zm6.4.7a1.5 1.5 0 0 1-.1-.7l-1 .7-1 .2a1.9 1.9 0 0 1-1.3-.5 1.7 1.7 0 0 1-.5-1.2 1.9 1.9 0 0 1 .2-.8 1.7 1.7 0 0 1 .6-.6 1.6 1.6 0 0 1 .9-.3h1.2l1.4-.2c0-.3.1-.5.1-.7a.5.5 0 0 0-.3-.5 1.3 1.3 0 0 0-1-.3 1.7 1.7 0 0 0-1 .3 1.8 1.8 0 0 0-.5.7h-1a2.5 2.5 0 0 1 .9-1.3 3.1 3.1 0 0 1 3.4 0 1.3 1.3 0 0 1 .4 1 3.8 3.8 0 0 1-.1 1l-.3 1.5a5.2 5.2 0 0 0-.2 1.1 5.6 5.6 0 0 1 .1.7zm.2-2.9l-.4.2h-.8l-1.2.2a.9.9 0 0 0-.5.3.7.7 0 0 0-.2.6.7.7 0 0 0 .3.6 1 1 0 0 0 .8.3l.9-.2a2.7 2.7 0 0 0 .7-.8 3.3 3.3 0 0 0 .4-1.2zm4.7 2.2h.6l-.2.8h-.6a1.7 1.7 0 0 1-1-.3.8.8 0 0 1-.2-.5 3.4 3.4 0 0 1 .1-.9l.7-3.3h-.7v-.8h.8l.3-1.4 1.1-.6-.4 2h.9v.8h-1l-.7 3.1a5.4 5.4 0 0 1-.1.8c0 .1 0 .2.1.2zm2.5.7l1.2-5.7h.9l-1.2 5.7zm1.4-6.7l.2-1.1h1l-.2 1.1zm2.3 4.6a3.9 3.9 0 0 1 1-2.8 2.6 2.6 0 0 1 2.1-.9 2.2 2.2 0 0 1 1.7.7 2.4 2.4 0 0 1 .6 1.7 3.7 3.7 0 0 1-.4 1.8 2.8 2.8 0 0 1-1.1 1.3 3 3 0 0 1-1.6.5 2.7 2.7 0 0 1-1.2-.3 3 3 0 0 1-.8-.8 2.7 2.7 0 0 1-.3-1.2zm1-.1a1.6 1.6 0 0 0 .4 1.2 1 1 0 0 0 .9.4h.7l.5-.4.5-.6.3-.7a3.8 3.8 0 0 0 .1-1 1.6 1.6 0 0 0-.4-1.2 1 1 0 0 0-.9-.4 1.5 1.5 0 0 0-.9.2 1.7 1.7 0 0 0-.6.6 3.1 3.1 0 0 0-.5 1 3.8 3.8 0 0 0-.1.9zm6 2.2l1.2-5.7h.9l-.2 1a5.9 5.9 0 0 1 1.1-.8 1.9 1.9 0 0 1 1-.3 1.2 1.2 0 0 1 1.1.4 1.2 1.2 0 0 1 .4 1 4.6 4.6 0 0 1-.1 1l-.8 3.4h-1l.8-3.6a3.1 3.1 0 0 0 .2-.8.8.8 0 0 0-.2-.4l-.6-.2a2.4 2.4 0 0 0-1.4.5 3.7 3.7 0 0 0-.8 1.9l-.6 2.6zm8-.3a1.6 1.6 0 0 1-.6-1.6h.9a1.4 1.4 0 0 0 .2.7.7.7 0 0 0 .4.5l.8.2 1-.2a.9.9 0 0 0 .3-.7.4.4 0 0 0-.2-.4 1.7 1.7 0 0 0-.9-.6l-1-.4-.6-.6a1.5 1.5 0 0 1-.1-.7 1.3 1.3 0 0 1 .5-1.1 2.1 2.1 0 0 1 1.5-.5 2.3 2.3 0 0 1 1.6.5 1.6 1.6 0 0 1 .6 1.3h-.9a1 1 0 0 0-.4-.8 1.5 1.5 0 0 0-1-.3 1.1 1.1 0 0 0-.8.2.8.8 0 0 0-.2.5.6.6 0 0 0 .2.5l.8.4a3.1 3.1 0 0 1 1.4.8 1 1 0 0 1 .5 1 1.6 1.6 0 0 1-.3.9 1.4 1.4 0 0 1-.7.6 2.8 2.8 0 0 1-1.3.3 3.1 3.1 0 0 1-1.7-.5zm6.1.3l.3-1.1h1.1l-.3 1.1z"/><path stroke="#000" stroke-width=".29" d="M136.2 47.2h1l2.9 10.9H139l-.9-3.8h-2.7l-.9 3.8h-1.1zm.5 1.4l-1.1 4.8h2.3zm4.6 7.9a3.2 3.2 0 0 0 2 .9 2.1 2.1 0 0 0 1.2-.4 1.4 1.4 0 0 0 .5-1 .9.9 0 0 0-.3-.7 4 4 0 0 0-1.3-.6 4.8 4.8 0 0 1-1.6-.8 1.7 1.7 0 0 1-.5-1.2 2.1 2.1 0 0 1 .7-1.6 2.5 2.5 0 0 1 1.7-.6 3.5 3.5 0 0 1 1.8.6v1.1a2.5 2.5 0 0 0-1.8-.8 1.3 1.3 0 0 0-1 .4.9.9 0 0 0-.4.8.7.7 0 0 0 .4.7l1.2.6c1.4.4 2 1.1 2 2.1a2 2 0 0 1-.7 1.6 2.9 2.9 0 0 1-1.9.7 4.4 4.4 0 0 1-2-.7zm6.3 0a3.2 3.2 0 0 0 2 .9 2.1 2.1 0 0 0 1.2-.4 1.4 1.4 0 0 0 .5-1 .9.9 0 0 0-.3-.7 4 4 0 0 0-1.3-.6 4.8 4.8 0 0 1-1.6-.8 1.7 1.7 0 0 1-.5-1.2 2.1 2.1 0 0 1 .7-1.6 2.5 2.5 0 0 1 1.7-.6 3.8 3.8 0 0 1 1.8.6v1.1a2.7 2.7 0 0 0-1.8-.8 1.3 1.3 0 0 0-1 .4.9.9 0 0 0-.4.8.7.7 0 0 0 .4.7 3.3 3.3 0 0 0 1.2.6c1.3.4 2 1.1 2 2.1a2 2 0 0 1-.7 1.6 2.9 2.9 0 0 1-1.9.7 4.4 4.4 0 0 1-2-.7zm9.1-6a2.4 2.4 0 0 1 1.9 1.1 4.7 4.7 0 0 1 .8 2.8 5.8 5.8 0 0 1-.3 1.9 3 3 0 0 1-1 1.4 2 2 0 0 1-1.5.6 2.4 2.4 0 0 1-2-1.1 6.1 6.1 0 0 1-.7-2.8 5.1 5.1 0 0 1 .5-2.2 2.1 2.1 0 0 1 1.1-1.3 1.9 1.9 0 0 1 1.2-.4zm0 .9a1.6 1.6 0 0 0-1.4.8 5 5 0 0 0-.4 2.3 4 4 0 0 0 .4 2 1.5 1.5 0 0 0 1.3.9 1.6 1.6 0 0 0 1.3-.8 4.5 4.5 0 0 0 .5-2.2 3.4 3.4 0 0 0-.5-2.2 1.4 1.4 0 0 0-1.2-.8zm9 6.4a3.7 3.7 0 0 1-1.6.5 2.5 2.5 0 0 1-2.1-1.1 4 4 0 0 1-.8-2.7 4.2 4.2 0 0 1 .8-2.8 2.6 2.6 0 0 1 2.2-1.2 3 3 0 0 1 1.5.5v1.1a2.1 2.1 0 0 0-1.5-.7 1.8 1.8 0 0 0-1.5.9 3.5 3.5 0 0 0-.6 2.1 3.7 3.7 0 0 0 .6 2.1 1.6 1.6 0 0 0 1.5.9 2.5 2.5 0 0 0 1.5-.7zm2.4-10.4c.4 0 .5.3.5.9s-.1.9-.5.9-.6-.3-.6-.9.2-.9.6-.9zm-.5 3.3h1v7.4h-1zm3.5.5a3.7 3.7 0 0 1 1.9-.7 2.2 2.2 0 0 1 1.7.7 2.8 2.8 0 0 1 .6 1.8v3.9c0 .3.1.5.4.5h.3v.8l-.7.2c-.6 0-1-.4-1-1.2a2.4 2.4 0 0 1-.8.9 1.6 1.6 0 0 1-.9.3 1.5 1.5 0 0 1-1.4-.7 2.1 2.1 0 0 1-.6-1.6 2 2 0 0 1 .7-1.6 6.6 6.6 0 0 1 3-.9V53a1.5 1.5 0 0 0-.4-1.1 1.3 1.3 0 0 0-.9-.4 3 3 0 0 0-1.9.9zm3.2 3.1a5.5 5.5 0 0 0-2.3.6 1.6 1.6 0 0 0-.5 1.1 1.8 1.8 0 0 0 .4 1 1.3 1.3 0 0 0 .9.4 1.4 1.4 0 0 0 1.1-.6 2.4 2.4 0 0 0 .4-1.5zm3.8-5.8h.9v2.2h1.3v.9H179v5.1a.8.8 0 0 0 .2.5.6.6 0 0 0 .5.2.9.9 0 0 0 .6-.3v1l-.9.2a1.3 1.3 0 0 1-1-.4 1.5 1.5 0 0 1-.3-1v-5.3h-1v-.9h1zm4.6-1.1q.6 0 .6.9t-.6.9c-.4 0-.5-.3-.5-.9s.1-.9.5-.9zm-.5 3.3h1v7.4h-1zm5.8-.2a2.4 2.4 0 0 1 1.9 1.1 4.7 4.7 0 0 1 .8 2.8 5.8 5.8 0 0 1-.3 1.9 3 3 0 0 1-1 1.4 2 2 0 0 1-1.5.6 2.4 2.4 0 0 1-2-1.1 5.5 5.5 0 0 1-.2-5 2.1 2.1 0 0 1 1.1-1.3 1.9 1.9 0 0 1 1.2-.4zm0 .9a1.6 1.6 0 0 0-1.4.8 5 5 0 0 0-.4 2.3 4 4 0 0 0 .4 2 1.5 1.5 0 0 0 1.3.9 1.6 1.6 0 0 0 1.3-.8 4.5 4.5 0 0 0 .5-2.2 4.2 4.2 0 0 0-.5-2.2 1.4 1.4 0 0 0-1.2-.8zm4.8-.7h.8v1a3.6 3.6 0 0 1 .8-.9 2.3 2.3 0 0 1 1.1-.3 1.6 1.6 0 0 1 1.4.7 2.9 2.9 0 0 1 .5 1.7v5.2h-1v-5.2a1.8 1.8 0 0 0-.3-1.1 1.2 1.2 0 0 0-.8-.4 1.3 1.3 0 0 0-1.2.7 2.5 2.5 0 0 0-.5 1.5v4.5h-.9zm12.7-3.5l2.2 6 2.2-6h1.3v10.9h-.9v-9.7c-.2.7-.5 1.5-.8 2.3l-1.8 4.9-1.5-4.1c-.3-.8-.7-1.8-1.1-3 .1 2.3.1 3.6.1 3.9v5.7h-.9V47.2zm8.4 4a3.7 3.7 0 0 1 1.9-.7 2.2 2.2 0 0 1 1.7.7 2.8 2.8 0 0 1 .6 1.8v3.9c0 .3.1.5.4.5h.4v.8l-.8.2c-.6 0-.9-.4-1-1.2a2.4 2.4 0 0 1-.8.9 1.6 1.6 0 0 1-.9.3 1.5 1.5 0 0 1-1.4-.7 2.1 2.1 0 0 1-.6-1.6 2 2 0 0 1 .7-1.6 6.6 6.6 0 0 1 3-.9V53a2 2 0 0 0-.3-1.1 1.8 1.8 0 0 0-1-.4 3 3 0 0 0-1.9.9zm3.2 3.1a6 6 0 0 0-2.3.6 1.5 1.5 0 0 0-.4 1.1 1.7 1.7 0 0 0 .3 1 1.3 1.3 0 0 0 .9.4 1.4 1.4 0 0 0 1.1-.6 2.4 2.4 0 0 0 .4-1.5zm3.6-3.6h.8v1a2.4 2.4 0 0 1 .8-.9 1.9 1.9 0 0 1 1-.3 1.5 1.5 0 0 1 1.4.7 2.3 2.3 0 0 1 .5 1.7v5.2h-.9v-5.2a1.8 1.8 0 0 0-.3-1.1 1.2 1.2 0 0 0-2 .3 2 2 0 0 0-.5 1.5v4.5h-.9zm7.2.5a3.7 3.7 0 0 1 1.9-.7 2.2 2.2 0 0 1 1.7.7 2.8 2.8 0 0 1 .6 1.8v3.9c0 .3.1.5.4.5h.4v.8l-.8.2q-.9 0-.9-1.2a3.8 3.8 0 0 1-.9.9 1.4 1.4 0 0 1-.9.3 1.6 1.6 0 0 1-1.4-.7 2.1 2.1 0 0 1-.6-1.6 2 2 0 0 1 .7-1.6 6.7 6.7 0 0 1 3.1-.9V53a2.1 2.1 0 0 0-.4-1.1 1.8 1.8 0 0 0-1-.4 3.2 3.2 0 0 0-1.9.9zm3.3 3.1a5 5 0 0 0-2.3.6 1.3 1.3 0 0 0-.5 1.1 1.7 1.7 0 0 0 .3 1 1.8 1.8 0 0 0 .9.4 1.3 1.3 0 0 0 1.1-.6 2.5 2.5 0 0 0 .5-1.5zm7.8-3.6h.6v7.8a3.6 3.6 0 0 1-.7 2.4 2.7 2.7 0 0 1-1.9.8 3 3 0 0 1-2-.8v-1.2a2.6 2.6 0 0 0 2 1.1 1.4 1.4 0 0 0 1.2-.6 2.5 2.5 0 0 0 .5-1.7v-1.6a2.4 2.4 0 0 1-.8.9 1.6 1.6 0 0 1-.9.3 2.2 2.2 0 0 1-1.8-1.1 4.4 4.4 0 0 1-.7-2.6 4 4 0 0 1 .8-2.7 2.1 2.1 0 0 1 1.8-1.2l.9.2a2.3 2.3 0 0 1 .7.7zm-.3 1.6a1.3 1.3 0 0 0-.7-.6.8.8 0 0 0-.7-.2 1.4 1.4 0 0 0-1.3.8 3.3 3.3 0 0 0-.6 2.1 4.2 4.2 0 0 0 .5 2 1.4 1.4 0 0 0 1.2.8 1.4 1.4 0 0 0 1.2-.6 3.1 3.1 0 0 0 .4-1.7zm7.9 5a3.9 3.9 0 0 1-2.2 1 2.3 2.3 0 0 1-2-1.1 4.1 4.1 0 0 1-.8-2.8 4.9 4.9 0 0 1 .8-2.8 2.4 2.4 0 0 1 2-1.1 2 2 0 0 1 1.7.9 3.2 3.2 0 0 1 .7 2.2v.5h-4.3v.4a3.1 3.1 0 0 0 .6 2.1 1.7 1.7 0 0 0 1.3.8 2.8 2.8 0 0 0 2.2-1.3zm-.8-4a1.8 1.8 0 0 0-.4-1.4 1.4 1.4 0 0 0-1-.5 1.8 1.8 0 0 0-1.1.5 3 3 0 0 0-.7 1.4zm7.2-1.6a2.2 2.2 0 0 1 .7-.9 1.7 1.7 0 0 1 1-.3 1.4 1.4 0 0 1 1.2.6 2.5 2.5 0 0 1 .5 1.5v5.5h-1v-5.5a2 2 0 0 0-.2-.9.9.9 0 0 0-.7-.3 1.2 1.2 0 0 0-1 .6 2.3 2.3 0 0 0-.4 1.4v4.7h-1v-5.5c0-.4 0-.7-.2-.9a.8.8 0 0 0-.7-.3 1.2 1.2 0 0 0-1 .6 2.4 2.4 0 0 0-.4 1.5v4.6h-1v-7.4h.9v.9a2.7 2.7 0 0 1 .7-.8 1.6 1.6 0 0 1 .9-.3 1.7 1.7 0 0 1 1 .3 1.5 1.5 0 0 1 .7.9zm10.4 5.6a3.4 3.4 0 0 1-2.2 1 2.4 2.4 0 0 1-2-1.1 4.7 4.7 0 0 1-.8-2.8 4.9 4.9 0 0 1 .8-2.8 2.8 2.8 0 0 1 2.1-1.1 2 2 0 0 1 1.7.9 3.8 3.8 0 0 1 .7 2.2v.5h-4.3v.4a3.1 3.1 0 0 0 .6 2.1 1.7 1.7 0 0 0 1.3.8 2.8 2.8 0 0 0 2.1-1.3zm-.7-4a1.8 1.8 0 0 0-.5-1.4 1.2 1.2 0 0 0-.9-.5 1.6 1.6 0 0 0-1.1.5 2.3 2.3 0 0 0-.7 1.4zm3-2.6h.9v1a3.8 3.8 0 0 1 .9-.9 1.7 1.7 0 0 1 1-.3 1.5 1.5 0 0 1 1.4.7 2.9 2.9 0 0 1 .5 1.7v5.2h-.9v-5.2a1.8 1.8 0 0 0-.4-1.1 1.2 1.2 0 0 0-.8-.4 1.3 1.3 0 0 0-1.2.7 2.5 2.5 0 0 0-.5 1.5v4.5h-.9zm7.4-2.2h.9v2.2h1.3v.9H274v5.1a.7.7 0 0 0 .1.5l.5.2.7-.3v1l-1 .2a1 1 0 0 1-.9-.4 1.2 1.2 0 0 1-.4-1v-5.3h-.9v-.9h.9zm4.9 11.6h-.6a6.4 6.4 0 0 0 .6-1.8l-.5-.4a.9.9 0 0 1-.1-.5 1.5 1.5 0 0 1 .2-.8c.2-.3.3-.4.5-.4a.7.7 0 0 1 .5.4 1.9 1.9 0 0 1 .2.8 5.9 5.9 0 0 1-.2 1.3zm12.4-2.5a4.4 4.4 0 0 1-2 .7 2.9 2.9 0 0 1-1.9-.8 4.3 4.3 0 0 1-1.1-2 9.2 9.2 0 0 1-.4-2.9 8.2 8.2 0 0 1 .9-4 3 3 0 0 1 2.6-1.5 3.8 3.8 0 0 1 1.9.6V49a3.2 3.2 0 0 0-1.9-1 2.3 2.3 0 0 0-1.8 1.3 8 8 0 0 0-.7 3.5 7.2 7.2 0 0 0 .7 3.2 1.9 1.9 0 0 0 1.8 1.3 2.9 2.9 0 0 0 1.9-1zm4.3-7.1a2.3 2.3 0 0 1 1.9 1.1 4.1 4.1 0 0 1 .8 2.8 5.8 5.8 0 0 1-.3 1.9 2.8 2.8 0 0 1-.9 1.4 2.4 2.4 0 0 1-1.5.6 2.3 2.3 0 0 1-2-1.1 6.1 6.1 0 0 1-.3-5 2.5 2.5 0 0 1 1.1-1.3 2.4 2.4 0 0 1 1.2-.4zm.1.9a1.6 1.6 0 0 0-1.4.8 4.9 4.9 0 0 0-.5 2.3 3.9 3.9 0 0 0 .5 2 1.4 1.4 0 0 0 1.3.9 1.7 1.7 0 0 0 1.3-.8 4.5 4.5 0 0 0 .5-2.2 4.2 4.2 0 0 0-.5-2.2 1.7 1.7 0 0 0-1.2-.8zm4.7-.7h.9v1a2.4 2.4 0 0 1 .8-.9 1.7 1.7 0 0 1 1-.3 1.5 1.5 0 0 1 1.4.7 2.9 2.9 0 0 1 .5 1.7v5.2h-.9v-5.2a1.8 1.8 0 0 0-.3-1.1 1.5 1.5 0 0 0-.9-.4 1.3 1.3 0 0 0-1.1.7 2 2 0 0 0-.5 1.5v4.5h-1zm6.8 5.8a3.2 3.2 0 0 0 2 .9 2.1 2.1 0 0 0 1.2-.4 1.4 1.4 0 0 0 .5-1 .8.8 0 0 0-.4-.7 3.3 3.3 0 0 0-1.2-.6 4 4 0 0 1-1.6-.8 1.7 1.7 0 0 1-.5-1.2 2.1 2.1 0 0 1 .7-1.6 2.4 2.4 0 0 1 1.7-.6 3.8 3.8 0 0 1 1.8.6v1.1a2.9 2.9 0 0 0-1.8-.8 1.2 1.2 0 0 0-1 .4 1 1 0 0 0-.5.8.8.8 0 0 0 .4.7l1.2.6q2.1.6 2.1 2.1a2 2 0 0 1-.7 1.6 3.2 3.2 0 0 1-1.9.7 4.4 4.4 0 0 1-2-.7zm10.3-5.8h1v7.4h-1v-1a2.4 2.4 0 0 1-.8.9 1.9 1.9 0 0 1-1 .3 1.8 1.8 0 0 1-1.5-.7 2.9 2.9 0 0 1-.5-1.7v-5.2h1v5.2a1.6 1.6 0 0 0 .3 1.1 1.3 1.3 0 0 0 .9.4 1.3 1.3 0 0 0 1.2-.7 2.9 2.9 0 0 0 .4-1.7zm3.4-3.5h.9v10.9h-.9zm3.6 1.3h.9v2.2h1.3v.9h-1.3v5.1a.7.7 0 0 0 .1.5l.5.2.7-.3v1l-1 .2a1 1 0 0 1-.9-.4 1.2 1.2 0 0 1-.4-1v-5.3h-.9v-.9h.9zm4.6-1.1c.3 0 .5.3.5.9s-.2.9-.6.9-.5-.3-.5-.9.2-.9.6-.9zm-.5 3.3h.9v7.4h-.9zm3.3 0h.8v1a3.6 3.6 0 0 1 .8-.9 2.3 2.3 0 0 1 1.1-.3 1.6 1.6 0 0 1 1.4.7 2.9 2.9 0 0 1 .5 1.7v5.2h-1v-5.2a1.8 1.8 0 0 0-.3-1.1 1.2 1.2 0 0 0-.8-.4 1.3 1.3 0 0 0-1.2.7 2.5 2.5 0 0 0-.5 1.5v4.5h-.8zm11.2 0h.7v7.8a3.6 3.6 0 0 1-.8 2.4 2.5 2.5 0 0 1-1.8.8 3.1 3.1 0 0 1-2.1-.8v-1.2a2.7 2.7 0 0 0 2 1.1 1.6 1.6 0 0 0 1.3-.6 3.1 3.1 0 0 0 .5-1.7v-1.6l-.8.9a1.7 1.7 0 0 1-1 .3 2.2 2.2 0 0 1-1.8-1.1 5.3 5.3 0 0 1-.7-2.6 4.6 4.6 0 0 1 .8-2.7 2.3 2.3 0 0 1 1.9-1.2l.9.2a4.6 4.6 0 0 1 .7.7zm-.2 1.6l-.7-.6a1 1 0 0 0-.7-.2 1.5 1.5 0 0 0-1.4.8 4.1 4.1 0 0 0-.5 2.1 3.3 3.3 0 0 0 .5 2 1.4 1.4 0 0 0 1.2.8 1.4 1.4 0 0 0 1.1-.6 3.1 3.1 0 0 0 .5-1.7zm9.4-.9l-.2-.3a4.9 4.9 0 0 1-.5-1.8 2.1 2.1 0 0 1 .6-1.6 2 2 0 0 1 1.5-.6l1.2.2v1.1a1.7 1.7 0 0 0-1.1-.4 1.2 1.2 0 0 0-.9.3 1.8 1.8 0 0 0-.4 1 4.1 4.1 0 0 0 .5 1.6l2.1 4.2a11.5 11.5 0 0 0 .3-2.6v-.6h.9a9.7 9.7 0 0 1-.7 4.1l1.1 2.1h-1.1l-.5-1.1a2.9 2.9 0 0 1-2.2 1.3 2.3 2.3 0 0 1-2-1 3.4 3.4 0 0 1-.8-2.3 4.1 4.1 0 0 1 .5-1.9 6.7 6.7 0 0 1 1.7-1.7zm.3.7a7.1 7.1 0 0 0-1.2 1.3 3.3 3.3 0 0 0-.3 1.5 2.7 2.7 0 0 0 .5 1.8 1.7 1.7 0 0 0 1.3.7 2.1 2.1 0 0 0 1.8-1.2zm10.2-4.9h5.1v1h-4V52h3.8v.9H363v4.3h4v.9h-5.1zm6.5 3.5h1l1.7 6.2 1.6-6.2h1l-2.2 7.4h-.9zm7.5.5a3.4 3.4 0 0 1 1.9-.7 2 2 0 0 1 1.6.7 2.8 2.8 0 0 1 .6 1.8v3.9c0 .3.1.5.4.5h.4v.8l-.7.2c-.7 0-1-.4-1-1.2a3.6 3.6 0 0 1-.8.9 1.7 1.7 0 0 1-1 .3 1.7 1.7 0 0 1-1.4-.7 2.1 2.1 0 0 1-.6-1.6 2.4 2.4 0 0 1 .7-1.6 6.7 6.7 0 0 1 3.1-.9V53a1.5 1.5 0 0 0-.4-1.1 1.8 1.8 0 0 0-1-.4 3 3 0 0 0-1.8.9zm3.2 3.1a5.5 5.5 0 0 0-2.3.6 1.6 1.6 0 0 0-.5 1.1 1.7 1.7 0 0 0 .3 1 1.8 1.8 0 0 0 .9.4 1.1 1.1 0 0 0 1.1-.6 2.5 2.5 0 0 0 .5-1.5zm3.5-7.1h.9v10.9h-.9zm7 3.5h.9v7.4h-.9v-1a2.6 2.6 0 0 1-.9.9 1.7 1.7 0 0 1-1 .3 1.6 1.6 0 0 1-1.4-.7 2.9 2.9 0 0 1-.5-1.7v-5.2h.9v5.2a1.6 1.6 0 0 0 .3 1.1 1.3 1.3 0 0 0 .9.4 1.3 1.3 0 0 0 1.2-.7 2.9 2.9 0 0 0 .5-1.7zm3.6.5a3.4 3.4 0 0 1 1.9-.7 2.4 2.4 0 0 1 1.7.7 3.5 3.5 0 0 1 .5 1.8v3.9c0 .3.1.5.4.5h.4v.8l-.7.2c-.7 0-1-.4-1-1.2a3.6 3.6 0 0 1-.8.9 1.7 1.7 0 0 1-1 .3 1.7 1.7 0 0 1-1.4-.7 2.1 2.1 0 0 1-.6-1.6 2.4 2.4 0 0 1 .7-1.6 6.7 6.7 0 0 1 3.1-.9V53a1.5 1.5 0 0 0-.4-1.1 1.8 1.8 0 0 0-1-.4 3 3 0 0 0-1.8.9zm3.2 3.1a5.5 5.5 0 0 0-2.3.6 1.6 1.6 0 0 0-.5 1.1 1.3 1.3 0 0 0 .4 1 1.2 1.2 0 0 0 .8.4 1.1 1.1 0 0 0 1.1-.6 2.5 2.5 0 0 0 .5-1.5zm3.8-5.8h.9v2.2h1.3v.9h-1.3v5.1a.7.7 0 0 0 .1.5l.5.2.7-.3v1l-1 .2a1 1 0 0 1-.9-.4 1.2 1.2 0 0 1-.4-1v-5.3h-.9v-.9h.9zm4.6-1.1c.3 0 .5.3.5.9s-.2.9-.5.9-.6-.3-.6-.9.2-.9.6-.9zm-.5 3.3h.9v7.4h-.9zm5.7-.2a2.3 2.3 0 0 1 1.9 1.1 4.1 4.1 0 0 1 .8 2.8 5.8 5.8 0 0 1-.3 1.9 2.8 2.8 0 0 1-.9 1.4 2.4 2.4 0 0 1-1.5.6 2.3 2.3 0 0 1-2-1.1 6.1 6.1 0 0 1-.3-5 2.5 2.5 0 0 1 1.1-1.3 2.4 2.4 0 0 1 1.2-.4zm.1.9a1.6 1.6 0 0 0-1.4.8 4.9 4.9 0 0 0-.5 2.3 3.9 3.9 0 0 0 .5 2 1.4 1.4 0 0 0 1.3.9 1.7 1.7 0 0 0 1.3-.8 4.5 4.5 0 0 0 .5-2.2 4.2 4.2 0 0 0-.5-2.2 1.7 1.7 0 0 0-1.2-.8zm4.7-.7h.9v1a2.4 2.4 0 0 1 .8-.9 1.7 1.7 0 0 1 1-.3 1.5 1.5 0 0 1 1.4.7 2.9 2.9 0 0 1 .5 1.7v5.2h-.9v-5.2a1.8 1.8 0 0 0-.3-1.1 1.5 1.5 0 0 0-.9-.4 1.5 1.5 0 0 0-1.2.7 2.4 2.4 0 0 0-.4 1.5v4.5h-1zm10.9 5.3a5 5 0 0 0 1.3.9l1 .3a2 2 0 0 0 1.5-.6 2.1 2.1 0 0 0 .6-1.6 1.6 1.6 0 0 0-.4-1.2 6.4 6.4 0 0 0-1.6-1c-1.6-.6-2.4-1.5-2.4-2.8a2.9 2.9 0 0 1 .9-2.1 2.8 2.8 0 0 1 2-.8 3.5 3.5 0 0 1 2 .7v1.5a3.5 3.5 0 0 0-1.1-.9l-.9-.3a1.6 1.6 0 0 0-1.3.6 2.1 2.1 0 0 0-.5 1.3 1.3 1.3 0 0 0 .5 1.2 4.5 4.5 0 0 0 1.6.9l1.2.6a2.4 2.4 0 0 1 .8.9 3.2 3.2 0 0 1 .3 1.4 2.9 2.9 0 0 1-1 2.3 2.6 2.6 0 0 1-2.1 1 4.2 4.2 0 0 1-2.4-.9zm12.2 1.3a3.9 3.9 0 0 1-2.2 1 2.4 2.4 0 0 1-2-1.1 4.7 4.7 0 0 1-.8-2.8 4.9 4.9 0 0 1 .8-2.8 2.4 2.4 0 0 1 2-1.1 2.1 2.1 0 0 1 1.8.9 3.8 3.8 0 0 1 .6 2.2v.5h-4.2v.4a3.8 3.8 0 0 0 .5 2.1 1.9 1.9 0 0 0 1.4.8 2.8 2.8 0 0 0 2.1-1.3zm-.7-4a2.3 2.3 0 0 0-.5-1.4 1.2 1.2 0 0 0-2 0 1.9 1.9 0 0 0-.7 1.4zm4-1.5a2.6 2.6 0 0 1 .7-1 1.6 1.6 0 0 1 .9-.3l.7.2v.9l-.7-.2a1.5 1.5 0 0 0-1.2.7 2.9 2.9 0 0 0-.4 1.6v4.4h-1v-7.4h.9zm4.1-1.1h1l1.7 6.2 1.6-6.2h1l-2.2 7.4h-.9zm7.4-3.3c.4 0 .5.3.5.9s-.1.9-.5.9-.5-.3-.5-.9.1-.9.5-.9zm-.5 3.3h1v7.4h-1zm7.5 7.1a3.7 3.7 0 0 1-1.6.5 2.5 2.5 0 0 1-2.1-1.1 4.6 4.6 0 0 1-.8-2.7 4.9 4.9 0 0 1 .8-2.8 2.6 2.6 0 0 1 2.2-1.2 3 3 0 0 1 1.5.5v1.1a2.1 2.1 0 0 0-1.4-.7 1.8 1.8 0 0 0-1.5.9 3.5 3.5 0 0 0-.6 2.1 3.6 3.6 0 0 0 .5 2.1 1.8 1.8 0 0 0 1.5.9 2.5 2.5 0 0 0 1.5-.7zm6.6-.5a3.6 3.6 0 0 1-2.2 1 2.4 2.4 0 0 1-2-1.1 4.7 4.7 0 0 1-.8-2.8 4.9 4.9 0 0 1 .8-2.8 2.6 2.6 0 0 1 2-1.1 2.1 2.1 0 0 1 1.8.9 3.8 3.8 0 0 1 .6 2.2v.5h-4.2v.4a3.1 3.1 0 0 0 .6 2.1 1.6 1.6 0 0 0 1.3.8 2.8 2.8 0 0 0 2.1-1.3zm-.7-4a1.8 1.8 0 0 0-.5-1.4 1.4 1.4 0 0 0-1-.5 1.6 1.6 0 0 0-1 .5 2.3 2.3 0 0 0-.7 1.4zm2.7 3.2a3 3 0 0 0 2 .9 2.8 2.8 0 0 0 1.2-.4 1.3 1.3 0 0 0 .4-1 .9.9 0 0 0-.3-.7 3.3 3.3 0 0 0-1.2-.6 3.4 3.4 0 0 1-1.6-.8 1.3 1.3 0 0 1-.5-1.2 2.5 2.5 0 0 1 .6-1.6 2.7 2.7 0 0 1 1.7-.6 3.8 3.8 0 0 1 1.9.6v1.1a2.9 2.9 0 0 0-1.8-.8 1.5 1.5 0 0 0-1.1.4 1.2 1.2 0 0 0-.4.8.7.7 0 0 0 .4.7 4.4 4.4 0 0 0 1.2.6q2.1.6 2.1 2.1a2.1 2.1 0 0 1-.8 1.6 2.9 2.9 0 0 1-1.8.7 4 4 0 0 1-2-.7z"/></svg>