<svg xmlns="http://www.w3.org/2000/svg" width="477.3" height="84.8" viewBox="0 0 477.3 84.8"><title>old-logo</title><g id="Layer_2" data-name="Layer 2"><g id="Layer_1-2" data-name="Layer 1"><line x1="5.7" y1="67" x2="477.3" y2="67" fill="#999" stroke="#999" stroke-width="0.66"/><polygon points="39.4 79.8 186.5 0.5 0.8 0.5 39.4 79.8" fill="#160967" stroke="#160967"/><path d="M30.7,22.8c0,1.3,0,2.5.1,3.5H28.9l-.2-1.8h0a4.3,4.3,0,0,1-3.6,2.2c-2.3,0-3.5-2.1-3.5-4.3s2.5-5.5,6.9-5.5v-.3c0-1.2-.2-3.4-2.6-3.4a4.6,4.6,0,0,0-3,1.1l-.5-1.8a6,6,0,0,1,3.8-1.3c3.6,0,4.5,3.1,4.5,6.1Zm-2.1-4c-2.3-.1-4.9.5-4.9,3.3s.9,2.6,1.9,2.6a3,3,0,0,0,2.9-2.5,2.5,2.5,0,0,0,.1-.8Z" fill="#b3b3b3"/><path d="M43.6,15.6c0-1.6,0-2.8-.1-4.1h1.9v2.4h.1a3.9,3.9,0,0,1,3.6-2.7c1.6,0,2.8,1.2,3.3,3h0a6.4,6.4,0,0,1,1.4-2,3.6,3.6,0,0,1,2.5-1c1.6,0,3.8,1.3,3.8,6.4v8.7h-2V18c0-2.9-.9-4.6-2.5-4.6a3,3,0,0,0-2.6,2.4,6.1,6.1,0,0,0-.1,1.4v9.1H50.9V17.5c0-2.4-.8-4.1-2.4-4.1s-2.3,1.4-2.6,2.7a5.9,5.9,0,0,0-.2,1.3v8.9H43.6Z" fill="#b3b3b3"/><path d="M81.5,25.8a5.7,5.7,0,0,1-3.3.9c-3.5,0-5.8-3-5.8-7.6s2.5-7.9,6.3-7.9a5.6,5.6,0,0,1,2.9.8l-.5,2.1a3.8,3.8,0,0,0-2.4-.7c-2.7,0-4.1,2.5-4.1,5.6s1.7,5.5,4,5.5a5.4,5.4,0,0,0,2.6-.7Z" fill="#b3b3b3"/><path d="M94.7,19.4c0,3.6,1.8,5.1,3.9,5.1a6.3,6.3,0,0,0,3.2-.7l.4,1.9a7.9,7.9,0,0,1-3.9.9c-3.5,0-5.7-3-5.7-7.4s2.1-8,5.5-8,4.8,4.2,4.8,7c0,.5-.1.9-.1,1.2Zm6.1-1.9c.1-1.7-.5-4.4-2.9-4.4s-3,2.5-3.2,4.4Z" fill="#b3b3b3"/><path d="M114.8,23.6a5,5,0,0,0,2.8,1.1,2,2,0,0,0,2.2-2.2c0-1.3-.6-2-2.1-2.8s-3.1-2.4-3.1-4.1,1.5-4.4,4-4.4a4.4,4.4,0,0,1,2.8.9l-.5,2a3.5,3.5,0,0,0-2.3-.9,1.9,1.9,0,0,0-2,2c0,1.3.7,1.8,2.2,2.6s3.1,2.2,3.1,4.4a4.1,4.1,0,0,1-4.3,4.5,5,5,0,0,1-3.3-1.1Z" fill="#b3b3b3"/><path d="M89.1,82.5l1.7-7.8h1l-.7,3.2h4.2l.6-3.2H97l-1.7,7.8h-1l.8-3.7H91l-.8,3.7Z" fill="#006"/><path d="M102.3,80.6h.9a2.2,2.2,0,0,1-.9,1.3,2.9,2.9,0,0,1-1.8.7,2,2,0,0,1-1.1-.3,1.4,1.4,0,0,1-.8-.9,2.8,2.8,0,0,1-.3-1.3,3.9,3.9,0,0,1,.4-1.8,4.7,4.7,0,0,1,1.1-1.3,2.8,2.8,0,0,1,1.5-.4,2.1,2.1,0,0,1,1.6.6,2.3,2.3,0,0,1,.7,1.8c0,.2-.1.5-.1.8H99.3v.3a1.7,1.7,0,0,0,.3,1.2,1.4,1.4,0,0,0,.9.5,1.3,1.3,0,0,0,1-.4A2.4,2.4,0,0,0,102.3,80.6Zm-2.9-1.4h3.2V79a2.1,2.1,0,0,0-.3-1.2,1.7,1.7,0,0,0-1-.3,1.5,1.5,0,0,0-1.1.4A3.2,3.2,0,0,0,99.4,79.2Z" fill="#006"/><path d="M105.2,82.5l1.7-7.8h1l-1.7,7.8Z" fill="#006"/><path d="M108.4,84.7l1.6-7.9h.9v.8a2.8,2.8,0,0,1,.9-.7l.8-.2a1.6,1.6,0,0,1,1.3.6,2.4,2.4,0,0,1,.6,1.7,4.1,4.1,0,0,1-.3,1.6,6.3,6.3,0,0,1-.7,1.2l-.9.7-.9.2a1.8,1.8,0,0,1-1.6-1.1l-.6,3.1Zm1.9-4.5a2.2,2.2,0,0,0,.1.9,1,1,0,0,0,.4.5,1.1,1.1,0,0,0,.7.3,1.6,1.6,0,0,0,1.4-1,4.1,4.1,0,0,0,.5-1.9,1.6,1.6,0,0,0-.3-1.1,1.1,1.1,0,0,0-.9-.4l-.7.2a1.7,1.7,0,0,0-.6.6,3.9,3.9,0,0,0-.4.9A4.4,4.4,0,0,0,110.3,80.2Z" fill="#006"/><path d="M116,82.5l1.2-5.7h1L117,82.5Zm1.5-6.7.2-1.1h1l-.3,1.1Z" fill="#006"/><path d="M119.6,82.5l1.2-5.7h.9l-.2,1a3.8,3.8,0,0,1,1.1-.8,1.7,1.7,0,0,1,1-.3,1.4,1.4,0,0,1,1.1.4,1.2,1.2,0,0,1,.4,1,8.4,8.4,0,0,1-.2,1l-.7,3.4h-1l.8-3.6a2.5,2.5,0,0,0,.1-.8.4.4,0,0,0-.2-.4l-.6-.2a2.1,2.1,0,0,0-1.3.5,3.7,3.7,0,0,0-.9,1.9l-.5,2.6Z" fill="#006"/><path d="M126.7,83.3v-.2h.9a2,2,0,0,0,.1.5l.3.3h.7a1.7,1.7,0,0,0,1.3-.4,4.9,4.9,0,0,0,.4-1.4v-.4a2.1,2.1,0,0,1-1.6.7,1.8,1.8,0,0,1-1.4-.6,2.4,2.4,0,0,1-.6-1.8,3.9,3.9,0,0,1,.4-1.8,6.5,6.5,0,0,1,1.1-1.2,2.4,2.4,0,0,1,1.3-.4,2,2,0,0,1,1.8,1.1l.2-1h.9l-1.2,5.5a5.3,5.3,0,0,1-.5,1.5,1.8,1.8,0,0,1-.8.7,2.8,2.8,0,0,1-1.3.3,2.2,2.2,0,0,1-1.2-.2,1.3,1.3,0,0,1-.7-.5,1.1,1.1,0,0,1-.3-.8ZM128,80a2.2,2.2,0,0,0,.1.9,1,1,0,0,0,.5.6c.1.2.4.2.6.2l1-.3a2.6,2.6,0,0,0,.7-1,3.9,3.9,0,0,0,.3-1.4,1.5,1.5,0,0,0-.4-1.1,1,1,0,0,0-.9-.4l-.7.2-.6.6a1.9,1.9,0,0,0-.5.9A2.8,2.8,0,0,0,128,80Z" fill="#006"/><path d="M142.1,82.5a2,2,0,0,0-.1-.7l-.9.7-1,.2a1.7,1.7,0,0,1-1.3-.5,1.7,1.7,0,0,1-.5-1.2,1.9,1.9,0,0,1,.2-.8,1.7,1.7,0,0,1,.6-.6,1.2,1.2,0,0,1,.9-.3h1.2l1.3-.2a2,2,0,0,0,.1-.7c0-.2,0-.4-.2-.5a1.5,1.5,0,0,0-1-.3,1.7,1.7,0,0,0-1,.3l-.6.7h-.9a2.5,2.5,0,0,1,.9-1.3,3.1,3.1,0,0,1,1.7-.5,2.5,2.5,0,0,1,1.6.5,1.1,1.1,0,0,1,.5,1,3.8,3.8,0,0,1-.1,1l-.3,1.5a5.2,5.2,0,0,0-.2,1.1,2.3,2.3,0,0,0,.1.7Zm.3-2.9-.4.2h-.8l-1.2.2c-.3,0-.4.2-.6.3a1.3,1.3,0,0,0-.1.6,1.1,1.1,0,0,0,.2.6,1.2,1.2,0,0,0,.9.3l.9-.2a2.7,2.7,0,0,0,.7-.8A3.3,3.3,0,0,0,142.4,79.6Z" fill="#006"/><path d="M146.2,82.2a1.9,1.9,0,0,1-.7-1.6h1a1.5,1.5,0,0,0,.1.7.8.8,0,0,0,.5.5l.8.2.9-.2a.8.8,0,0,0,.4-.7l-.2-.4-1-.6-1-.4-.5-.6a1.4,1.4,0,0,1-.2-.7,1.6,1.6,0,0,1,.5-1.1,2.5,2.5,0,0,1,1.5-.5,2.6,2.6,0,0,1,1.7.5,2.6,2.6,0,0,1,.6,1.3h-1a.8.8,0,0,0-.4-.8,1.2,1.2,0,0,0-.9-.3c-.4,0-.6,0-.8.2a.5.5,0,0,0-.3.5c0,.2.1.3.2.5l.9.4,1.4.8a1.2,1.2,0,0,1,.4,1,1.5,1.5,0,0,1-.2.9,2.4,2.4,0,0,1-.8.6,2.9,2.9,0,0,1-2.9-.2Z" fill="#006"/><path d="M152.8,82.2a1.9,1.9,0,0,1-.7-1.6h1a1.5,1.5,0,0,0,.1.7.8.8,0,0,0,.5.5l.8.2.9-.2a.8.8,0,0,0,.4-.7l-.2-.4-1-.6-1-.4-.5-.6a1.4,1.4,0,0,1-.2-.7,1.6,1.6,0,0,1,.5-1.1,2.5,2.5,0,0,1,1.5-.5,2.6,2.6,0,0,1,1.7.5,2.6,2.6,0,0,1,.6,1.3h-1a.8.8,0,0,0-.4-.8,1.2,1.2,0,0,0-.9-.3c-.4,0-.6,0-.8.2a.5.5,0,0,0-.3.5c0,.2.1.3.2.5l.9.4,1.4.8a1.2,1.2,0,0,1,.4,1,1.5,1.5,0,0,1-.2.9,2.4,2.4,0,0,1-.8.6,2.9,2.9,0,0,1-2.9-.2Z" fill="#006"/><path d="M158.8,80.4a3.9,3.9,0,0,1,1-2.8,2.6,2.6,0,0,1,2.1-.9,1.9,1.9,0,0,1,1.6.7,2.1,2.1,0,0,1,.7,1.7,5.3,5.3,0,0,1-.4,1.8,3,3,0,0,1-1.2,1.3,2.7,2.7,0,0,1-1.5.5,2.7,2.7,0,0,1-1.2-.3,2,2,0,0,1-.8-.8A2.7,2.7,0,0,1,158.8,80.4Zm.9-.1a2.1,2.1,0,0,0,.4,1.2,1.3,1.3,0,0,0,1,.4h.6l.6-.4.5-.6a1.4,1.4,0,0,0,.2-.7,2,2,0,0,0,.2-1,1.6,1.6,0,0,0-.4-1.2,1.2,1.2,0,0,0-1-.4,1.2,1.2,0,0,0-.8.2,1.9,1.9,0,0,0-.7.6,3,3,0,0,0-.4,1A4.4,4.4,0,0,0,159.7,80.3Z" fill="#006"/><path d="M169.8,80.5h.9a2.8,2.8,0,0,1-1,1.5,2.4,2.4,0,0,1-1.5.6,1.8,1.8,0,0,1-1.5-.6,2.4,2.4,0,0,1-.6-1.7,6.3,6.3,0,0,1,.3-1.9,2.8,2.8,0,0,1,1.1-1.3,3,3,0,0,1,1.6-.5,2,2,0,0,1,1.4.5,1.8,1.8,0,0,1,.6,1.4h-1a1.2,1.2,0,0,0-.3-.9,1.1,1.1,0,0,0-.8-.3,1.3,1.3,0,0,0-1,.4,2.3,2.3,0,0,0-.7,1.1,3.9,3.9,0,0,0-.2,1.5,1.5,1.5,0,0,0,.3,1,.9.9,0,0,0,.8.4,1.6,1.6,0,0,0,.9-.3A4.1,4.1,0,0,0,169.8,80.5Z" fill="#006"/><path d="M172.4,82.5l1.2-5.7h1l-1.2,5.7Zm1.4-6.7.3-1.1h.9l-.2,1.1Z" fill="#006"/><path d="M179.9,82.5c0-.2-.1-.4-.1-.7l-1,.7-1,.2a1.7,1.7,0,0,1-1.2-.5,1.3,1.3,0,0,1-.5-1.2,1.9,1.9,0,0,1,.2-.8.9.9,0,0,1,.6-.6,1.2,1.2,0,0,1,.9-.3H179l1.3-.2a2,2,0,0,0,.1-.7.8.8,0,0,0-.2-.5,1.8,1.8,0,0,0-2,0,1.3,1.3,0,0,0-.6.7h-1a2.7,2.7,0,0,1,1-1.3,2.8,2.8,0,0,1,1.6-.5,2.9,2.9,0,0,1,1.7.5,1.4,1.4,0,0,1,.5,1c0,.3-.1.6-.1,1l-.4,1.5a4.5,4.5,0,0,0-.1,1.1,2.3,2.3,0,0,0,.1.7Zm.3-2.9-.5.2H179l-1.2.2a.9.9,0,0,0-.6.3,1.4,1.4,0,0,0-.2.6.7.7,0,0,0,.3.6,1.1,1.1,0,0,0,.8.3l1-.2a2.7,2.7,0,0,0,.7-.8A6.8,6.8,0,0,0,180.2,79.6Z" fill="#006"/><path d="M184.9,81.8h.6l-.2.8h-.7a1.2,1.2,0,0,1-.9-.3.5.5,0,0,1-.3-.5,5.1,5.1,0,0,1,.2-.9l.7-3.3h-.8l.2-.8h.7l.3-1.4,1.1-.6-.4,2h1l-.2.8h-.9l-.7,3.1a3.2,3.2,0,0,0-.1.8c0,.1,0,.2.1.2Z" fill="#006"/><path d="M187.3,82.5l1.2-5.7h1l-1.2,5.7Zm1.4-6.7.3-1.1h.9l-.2,1.1Z" fill="#006"/><path d="M191.1,80.4a4.3,4.3,0,0,1,.9-2.8,2.9,2.9,0,0,1,2.2-.9,1.9,1.9,0,0,1,1.6.7,2.4,2.4,0,0,1,.7,1.7,5.3,5.3,0,0,1-.4,1.8,3,3,0,0,1-1.2,1.3,3,3,0,0,1-1.5.5,2.1,2.1,0,0,1-1.2-.3,2.4,2.4,0,0,1-.9-.8A5,5,0,0,1,191.1,80.4Zm.9-.1a2.1,2.1,0,0,0,.4,1.2,1.3,1.3,0,0,0,1,.4h.6l.6-.4a2.1,2.1,0,0,0,.4-.6.9.9,0,0,0,.3-.7,4.4,4.4,0,0,0,.2-1,1.6,1.6,0,0,0-.4-1.2,1.3,1.3,0,0,0-1-.4,1.1,1.1,0,0,0-.8.2,1.3,1.3,0,0,0-.7.6,3,3,0,0,0-.4,1A4.4,4.4,0,0,0,192,80.3Z" fill="#006"/><path d="M198.1,82.5l1.2-5.7h.9l-.2,1a3.8,3.8,0,0,1,1.1-.8,1.7,1.7,0,0,1,1-.3,1.4,1.4,0,0,1,1.1.4,1.2,1.2,0,0,1,.4,1,8.4,8.4,0,0,1-.2,1l-.7,3.4h-1l.8-3.6a2.5,2.5,0,0,0,.1-.8.4.4,0,0,0-.2-.4l-.6-.2a2.1,2.1,0,0,0-1.3.5,3.7,3.7,0,0,0-.9,1.9l-.5,2.6Z" fill="#006"/><path d="M206.1,82.2a1.9,1.9,0,0,1-.7-1.6h1a1.5,1.5,0,0,0,.1.7,1.2,1.2,0,0,0,.5.5l.8.2,1-.2a.9.9,0,0,0,.3-.7l-.2-.4a2.1,2.1,0,0,0-1-.6l-1-.4-.5-.6a1.4,1.4,0,0,1-.2-.7,1.6,1.6,0,0,1,.5-1.1,2.8,2.8,0,0,1,3.2,0,1.6,1.6,0,0,1,.6,1.3h-1a1,1,0,0,0-.3-.8,1.7,1.7,0,0,0-1-.3c-.4,0-.6,0-.8.2a.5.5,0,0,0-.3.5c0,.2.1.3.3.5l.8.4a5.1,5.1,0,0,1,1.4.8,1.2,1.2,0,0,1,.5,1,1.6,1.6,0,0,1-.3.9,1.7,1.7,0,0,1-.8.6,2.5,2.5,0,0,1-1.3.3,2.8,2.8,0,0,1-1.6-.5Z" fill="#006"/><path d="M220.3,80.6h.9a2.2,2.2,0,0,1-.9,1.3,2.9,2.9,0,0,1-1.8.7,2,2,0,0,1-1.1-.3,1.4,1.4,0,0,1-.8-.9,2.8,2.8,0,0,1-.3-1.3,3.9,3.9,0,0,1,.4-1.8,4.7,4.7,0,0,1,1.1-1.3,2.8,2.8,0,0,1,1.5-.4,2.5,2.5,0,0,1,1.7.6,2.6,2.6,0,0,1,.6,1.8c0,.2-.1.5-.1.8h-4.2v.3a1.7,1.7,0,0,0,.3,1.2,1.4,1.4,0,0,0,.9.5,1.3,1.3,0,0,0,1-.4A2.4,2.4,0,0,0,220.3,80.6Zm-2.9-1.4h3.2V79a2.1,2.1,0,0,0-.3-1.2,1.7,1.7,0,0,0-1-.3,1.5,1.5,0,0,0-1.1.4A3.2,3.2,0,0,0,217.4,79.2Z" fill="#006"/><path d="M222.9,82.5l2.5-2.8L224,76.8h1l.5,1,.5,1.1,1.7-2.1h1.1l-2.4,2.9,1.5,2.8h-1.1l-.6-1.1a3.6,3.6,0,0,0-.4-.9l-1.7,2Z" fill="#006"/><path d="M233.8,80.5h1a2.8,2.8,0,0,1-1,1.5,2.5,2.5,0,0,1-1.6.6,2,2,0,0,1-1.5-.6,2.4,2.4,0,0,1-.6-1.7,6.5,6.5,0,0,1,.4-1.9,2.8,2.8,0,0,1,1.1-1.3,2.8,2.8,0,0,1,1.6-.5,2.2,2.2,0,0,1,1.4.5,1.7,1.7,0,0,1,.5,1.4h-.9a1.2,1.2,0,0,0-.3-.9,1.1,1.1,0,0,0-.8-.3,1.5,1.5,0,0,0-1.1.4,2.3,2.3,0,0,0-.6,1.1,4,4,0,0,0-.3,1.5,1.5,1.5,0,0,0,.3,1,1,1,0,0,0,.8.4,1.2,1.2,0,0,0,.9-.3A2.6,2.6,0,0,0,233.8,80.5Z" fill="#006"/><path d="M240.7,80.6h.9a2.2,2.2,0,0,1-.9,1.3,2.9,2.9,0,0,1-1.8.7,2,2,0,0,1-1.1-.3,1.8,1.8,0,0,1-.8-.9,2.8,2.8,0,0,1-.3-1.3,3.9,3.9,0,0,1,.4-1.8,4.7,4.7,0,0,1,1.1-1.3,2.8,2.8,0,0,1,1.5-.4,2.4,2.4,0,0,1,1.7.6,2.6,2.6,0,0,1,.6,1.8,2.5,2.5,0,0,1-.1.8h-4.2v.3a1.7,1.7,0,0,0,.3,1.2,1.4,1.4,0,0,0,.9.5,1.3,1.3,0,0,0,1-.4A1.8,1.8,0,0,0,240.7,80.6Zm-2.8-1.4h3.2V79a2.1,2.1,0,0,0-.4-1.2,1.4,1.4,0,0,0-.9-.3,1.7,1.7,0,0,0-1.2.4A2.3,2.3,0,0,0,237.9,79.2Z" fill="#006"/><path d="M247.9,80.6h.9a2.2,2.2,0,0,1-.9,1.3,2.8,2.8,0,0,1-1.7.7,2.1,2.1,0,0,1-1.2-.3,1.8,1.8,0,0,1-.8-.9,2.8,2.8,0,0,1-.3-1.3,5.8,5.8,0,0,1,.4-1.8,3.7,3.7,0,0,1,1.2-1.3,2.4,2.4,0,0,1,1.5-.4,2.3,2.3,0,0,1,1.6.6,2.6,2.6,0,0,1,.6,1.8,2.5,2.5,0,0,1-.1.8h-4.2v.3c0,.6.1,1,.4,1.2a1.1,1.1,0,0,0,.9.5,1.2,1.2,0,0,0,.9-.4A1.8,1.8,0,0,0,247.9,80.6Zm-2.8-1.4h3.2V79a1.6,1.6,0,0,0-.4-1.2,1.2,1.2,0,0,0-.9-.3,1.9,1.9,0,0,0-1.2.4A2.3,2.3,0,0,0,245.1,79.2Z" fill="#006"/><path d="M254.8,81.7a2.8,2.8,0,0,1-1.8,1,1.6,1.6,0,0,1-1.3-.6,2.4,2.4,0,0,1-.6-1.8,4.1,4.1,0,0,1,.5-1.9,4.5,4.5,0,0,1,1-1.3,3.8,3.8,0,0,1,1.3-.4,1.6,1.6,0,0,1,1.6,1l.7-3h.9l-1.6,7.8h-.9Zm-2.7-1.6a2.8,2.8,0,0,0,.1,1l.4.6.7.2a1.5,1.5,0,0,0,1.2-.7,3.5,3.5,0,0,0,.7-2.3,1.5,1.5,0,0,0-.3-1,1.2,1.2,0,0,0-.9-.4l-.7.2a2.3,2.3,0,0,0-.5.5,2.6,2.6,0,0,0-.5.9A5.8,5.8,0,0,0,252.1,80.1Z" fill="#006"/><path d="M262.3,82.5l1.2-5.7h1l-.2,1,.9-.9,1-.2a1.6,1.6,0,0,1,.9.3,1,1,0,0,1,.4.8,3.2,3.2,0,0,1,.9-.8,2.3,2.3,0,0,1,1.1-.3,1.5,1.5,0,0,1,1,.3,1.3,1.3,0,0,1,.4,1c0,.2-.1.5-.1.9l-.8,3.6h-1l.8-3.7a2.3,2.3,0,0,0,.1-.7.5.5,0,0,0-.2-.4l-.5-.2a1.6,1.6,0,0,0-.9.3,1.6,1.6,0,0,0-.7.7,5,5,0,0,0-.4,1.3l-.6,2.7h-1l.9-3.8v-.6c0-.2,0-.3-.1-.4l-.5-.2-.9.3a1.6,1.6,0,0,0-.7.7,8.9,8.9,0,0,0-.5,1.3l-.5,2.7Z" fill="#006"/><path d="M276.8,80.6h.9a2.2,2.2,0,0,1-.9,1.3,2.9,2.9,0,0,1-1.8.7,2,2,0,0,1-1.1-.3,2,2,0,0,1-.9-.9,5.1,5.1,0,0,1-.2-1.3,3.9,3.9,0,0,1,.4-1.8,4.7,4.7,0,0,1,1.1-1.3,2.8,2.8,0,0,1,1.5-.4,2.1,2.1,0,0,1,1.6.6,2.7,2.7,0,0,1,.7,1.8c0,.2-.1.5-.1.8h-4.2v.3a1.7,1.7,0,0,0,.3,1.2,1.4,1.4,0,0,0,.9.5,1.3,1.3,0,0,0,1-.4A2.4,2.4,0,0,0,276.8,80.6Zm-2.9-1.4h3.2V79a2.1,2.1,0,0,0-.3-1.2,1.7,1.7,0,0,0-1-.3,1.5,1.5,0,0,0-1.1.4A3.2,3.2,0,0,0,273.9,79.2Z" fill="#006"/><path d="M279.8,82.5l1.2-5.7h1l-.2,1a3.8,3.8,0,0,1,.9-.9l1-.2a1.4,1.4,0,0,1,1.3,1.1,3.2,3.2,0,0,1,.9-.8,1.9,1.9,0,0,1,1-.3,1.6,1.6,0,0,1,1.1.3,1.3,1.3,0,0,1,.4,1,5.1,5.1,0,0,1-.2.9l-.7,3.6h-1l.8-3.7a2.3,2.3,0,0,0,.1-.7.5.5,0,0,0-.2-.4l-.5-.2a1.6,1.6,0,0,0-.9.3,1.6,1.6,0,0,0-.7.7,5,5,0,0,0-.4,1.3l-.6,2.7h-1l.8-3.8a1.8,1.8,0,0,0,.1-.6c0-.2,0-.3-.2-.4a.5.5,0,0,0-.4-.2l-.9.3a1.6,1.6,0,0,0-.7.7,3.9,3.9,0,0,0-.5,1.3l-.5,2.7Z" fill="#006"/><path d="M290.1,82.5l1.6-7.8h1l-.6,2.8.8-.6.8-.2a1.8,1.8,0,0,1,1.3.6,2.9,2.9,0,0,1,.5,1.7,5.9,5.9,0,0,1-.2,1.4,3.9,3.9,0,0,1-.6,1.1l-.6.7a1.5,1.5,0,0,1-.7.3l-.6.2a1.7,1.7,0,0,1-1-.3,2.2,2.2,0,0,1-.7-.9l-.2,1Zm1.6-3.4a6.5,6.5,0,0,0-.2,1.1v.2a1.8,1.8,0,0,0,.3,1.1,1.3,1.3,0,0,0,.9.4,1.8,1.8,0,0,0,.9-.4,3.5,3.5,0,0,0,.7-1.1,7.8,7.8,0,0,0,.2-1.4,1.6,1.6,0,0,0-.3-1.1.9.9,0,0,0-.8-.4,1.3,1.3,0,0,0-1,.4,3.5,3.5,0,0,0-.7,1.2Z" fill="#006"/><path d="M301.5,80.6h.9a2.2,2.2,0,0,1-.9,1.3,2.9,2.9,0,0,1-1.8.7l-1.2-.3a2.4,2.4,0,0,1-.8-.9,5.1,5.1,0,0,1-.2-1.3,3.9,3.9,0,0,1,.4-1.8,4.7,4.7,0,0,1,1.1-1.3,2.8,2.8,0,0,1,1.5-.4,2.1,2.1,0,0,1,1.6.6,2.6,2.6,0,0,1,.6,1.8v.8h-4.2v.3a1.7,1.7,0,0,0,.3,1.2,1.4,1.4,0,0,0,.9.5,1.3,1.3,0,0,0,1-.4A2.4,2.4,0,0,0,301.5,80.6Zm-2.9-1.4h3.2V79a2.1,2.1,0,0,0-.3-1.2,1.7,1.7,0,0,0-1-.3,1.5,1.5,0,0,0-1.1.4A3.2,3.2,0,0,0,298.6,79.2Z" fill="#006"/><path d="M304.5,82.5l1.2-5.7h.9l-.3,1.2a4.5,4.5,0,0,1,.9-1,1.3,1.3,0,0,1,.8-.3l.8.2-.4.9-.6-.2a1.7,1.7,0,0,0-1.1.6,5.5,5.5,0,0,0-.8,2l-.5,2.3Z" fill="#006"/><path d="M317.6,80.6h.9a2.2,2.2,0,0,1-.9,1.3,2.8,2.8,0,0,1-1.7.7,2.1,2.1,0,0,1-1.2-.3,1.8,1.8,0,0,1-.8-.9,2.8,2.8,0,0,1-.3-1.3,3.9,3.9,0,0,1,.4-1.8,3.7,3.7,0,0,1,1.2-1.3,2.3,2.3,0,0,1,1.4-.4,2.4,2.4,0,0,1,1.7.6,2.6,2.6,0,0,1,.6,1.8,2.5,2.5,0,0,1-.1.8h-4.2v.3c0,.6.1,1,.4,1.2a1.1,1.1,0,0,0,.9.5,1.2,1.2,0,0,0,.9-.4A1.8,1.8,0,0,0,317.6,80.6Zm-2.8-1.4H318V79a2.1,2.1,0,0,0-.4-1.2,1.2,1.2,0,0,0-.9-.3,1.9,1.9,0,0,0-1.2.4A2.3,2.3,0,0,0,314.8,79.2Z" fill="#006"/><path d="M320.2,82.5l2.5-2.8-1.4-2.9h1.1l.5,1c.1.4.3.8.4,1.1l1.7-2.1h1.2l-2.4,2.9,1.4,2.8h-1.1l-.5-1.1a3.6,3.6,0,0,1-.4-.9l-1.7,2Z" fill="#006"/><path d="M326.8,84.7l1.6-7.9h.9l-.2.8.9-.7.9-.2a1.6,1.6,0,0,1,1.3.6,2.4,2.4,0,0,1,.6,1.7,4.1,4.1,0,0,1-.3,1.6,3.6,3.6,0,0,1-.8,1.2,2.7,2.7,0,0,1-.8.7l-.9.2a1.8,1.8,0,0,1-1.6-1.1l-.7,3.1Zm1.9-4.5a2.2,2.2,0,0,0,.1.9,1,1,0,0,0,.4.5,1.1,1.1,0,0,0,.7.3c.6,0,1-.4,1.4-1a4.1,4.1,0,0,0,.5-1.9,1.6,1.6,0,0,0-.3-1.1,1.2,1.2,0,0,0-.9-.4l-.7.2a1.7,1.7,0,0,0-.6.6,1.9,1.9,0,0,0-.4.9A2,2,0,0,0,328.7,80.2Z" fill="#006"/><path d="M338.6,80.6h1a3.1,3.1,0,0,1-1,1.3,2.6,2.6,0,0,1-1.7.7l-1.2-.3a2.4,2.4,0,0,1-.8-.9,2.8,2.8,0,0,1-.3-1.3,4.1,4.1,0,0,1,.5-1.8,3.5,3.5,0,0,1,1.1-1.3,2.6,2.6,0,0,1,1.5-.4,2.1,2.1,0,0,1,1.6.6,2.6,2.6,0,0,1,.6,1.8,2.5,2.5,0,0,1-.1.8h-4.2v.3c0,.6.1,1,.4,1.2a1.1,1.1,0,0,0,.9.5,1.4,1.4,0,0,0,1-.4A2.2,2.2,0,0,0,338.6,80.6Zm-2.8-1.4H339V79a1.6,1.6,0,0,0-.4-1.2,1.2,1.2,0,0,0-.9-.3,1.5,1.5,0,0,0-1.1.4A2.4,2.4,0,0,0,335.8,79.2Z" fill="#006"/><path d="M345.6,80.5h1a3,3,0,0,1-1.1,1.5,2.2,2.2,0,0,1-3,0,2.4,2.4,0,0,1-.6-1.7,4.3,4.3,0,0,1,.4-1.9,2.7,2.7,0,0,1,1-1.3,3,3,0,0,1,1.6-.5,2.5,2.5,0,0,1,1.5.5,2.2,2.2,0,0,1,.5,1.4H346a1.9,1.9,0,0,0-.4-.9,1,1,0,0,0-.8-.3,1.3,1.3,0,0,0-1,.4,2.3,2.3,0,0,0-.7,1.1,7.7,7.7,0,0,0-.2,1.5,1.5,1.5,0,0,0,.3,1,.9.9,0,0,0,.8.4,1.6,1.6,0,0,0,.9-.3A4.1,4.1,0,0,0,345.6,80.5Z" fill="#006"/><path d="M350,81.8h.5v.8h-.7a1.2,1.2,0,0,1-.9-.3.5.5,0,0,1-.3-.5,5.1,5.1,0,0,1,.2-.9l.6-3.3h-.7v-.8h.8l.3-1.4,1.1-.6-.4,2h.9v.8h-1l-.6,3.1-.2.8v.2Z" fill="#006"/><path d="M356.4,82.5a1.5,1.5,0,0,1-.1-.7l-1,.7-1,.2a1.9,1.9,0,0,1-1.3-.5,1.7,1.7,0,0,1-.5-1.2,1.9,1.9,0,0,1,.2-.8,1.7,1.7,0,0,1,.6-.6,1.6,1.6,0,0,1,.9-.3h1.2l1.4-.2c0-.3.1-.5.1-.7a.5.5,0,0,0-.3-.5,1.3,1.3,0,0,0-1-.3,1.7,1.7,0,0,0-1,.3,1.8,1.8,0,0,0-.5.7h-1a2.5,2.5,0,0,1,.9-1.3,3.1,3.1,0,0,1,3.4,0,1.3,1.3,0,0,1,.4,1,3.8,3.8,0,0,1-.1,1l-.3,1.5a5.2,5.2,0,0,0-.2,1.1,5.6,5.6,0,0,1,.1.7Zm.2-2.9-.4.2h-.8l-1.2.2a.9.9,0,0,0-.5.3.7.7,0,0,0-.2.6.7.7,0,0,0,.3.6,1,1,0,0,0,.8.3l.9-.2a2.7,2.7,0,0,0,.7-.8A3.3,3.3,0,0,0,356.6,79.6Z" fill="#006"/><path d="M361.3,81.8h.6l-.2.8h-.6a1.7,1.7,0,0,1-1-.3.8.8,0,0,1-.2-.5,3.4,3.4,0,0,1,.1-.9l.7-3.3H360v-.8h.8l.3-1.4,1.1-.6-.4,2h.9v.8h-1l-.7,3.1a5.4,5.4,0,0,1-.1.8c0,.1,0,.2.1.2Z" fill="#006"/><path d="M363.8,82.5l1.2-5.7h.9l-1.2,5.7Zm1.4-6.7.2-1.1h1l-.2,1.1Z" fill="#006"/><path d="M367.5,80.4a3.9,3.9,0,0,1,1-2.8,2.6,2.6,0,0,1,2.1-.9,2.2,2.2,0,0,1,1.7.7,2.4,2.4,0,0,1,.6,1.7,3.7,3.7,0,0,1-.4,1.8,2.8,2.8,0,0,1-1.1,1.3,3,3,0,0,1-1.6.5,2.7,2.7,0,0,1-1.2-.3,3,3,0,0,1-.8-.8A2.7,2.7,0,0,1,367.5,80.4Zm1-.1a1.6,1.6,0,0,0,.4,1.2,1,1,0,0,0,.9.4h.7l.5-.4.5-.6.3-.7a3.8,3.8,0,0,0,.1-1,1.6,1.6,0,0,0-.4-1.2,1,1,0,0,0-.9-.4,1.5,1.5,0,0,0-.9.2,1.7,1.7,0,0,0-.6.6,3.1,3.1,0,0,0-.5,1A3.8,3.8,0,0,0,368.5,80.3Z" fill="#006"/><path d="M374.5,82.5l1.2-5.7h.9l-.2,1a5.9,5.9,0,0,1,1.1-.8,1.9,1.9,0,0,1,1-.3,1.2,1.2,0,0,1,1.1.4,1.2,1.2,0,0,1,.4,1,4.6,4.6,0,0,1-.1,1l-.8,3.4h-1l.8-3.6a3.1,3.1,0,0,0,.2-.8.8.8,0,0,0-.2-.4l-.6-.2a2.4,2.4,0,0,0-1.4.5,3.7,3.7,0,0,0-.8,1.9l-.6,2.6Z" fill="#006"/><path d="M382.5,82.2a1.6,1.6,0,0,1-.6-1.6h.9a1.4,1.4,0,0,0,.2.7.7.7,0,0,0,.4.5l.8.2,1-.2a.9.9,0,0,0,.3-.7.4.4,0,0,0-.2-.4,1.7,1.7,0,0,0-.9-.6l-1-.4-.6-.6a1.5,1.5,0,0,1-.1-.7,1.3,1.3,0,0,1,.5-1.1,2.1,2.1,0,0,1,1.5-.5,2.3,2.3,0,0,1,1.6.5,1.6,1.6,0,0,1,.6,1.3H386a1,1,0,0,0-.4-.8,1.5,1.5,0,0,0-1-.3,1.1,1.1,0,0,0-.8.2.8.8,0,0,0-.2.5.6.6,0,0,0,.2.5l.8.4a3.1,3.1,0,0,1,1.4.8,1,1,0,0,1,.5,1,1.6,1.6,0,0,1-.3.9,1.4,1.4,0,0,1-.7.6,2.8,2.8,0,0,1-1.3.3,3.1,3.1,0,0,1-1.7-.5Z" fill="#006"/><path d="M388.6,82.5l.3-1.1H390l-.3,1.1Z" fill="#006"/><path d="M136.2,47.2h1l2.9,10.9H139l-.9-3.8h-2.7l-.9,3.8h-1.1Zm.5,1.4-1.1,4.8h2.3Z" stroke="#000" stroke-width="0.29"/><path d="M141.3,56.5a3.2,3.2,0,0,0,2,.9,2.1,2.1,0,0,0,1.2-.4,1.4,1.4,0,0,0,.5-1,.9.9,0,0,0-.3-.7,4,4,0,0,0-1.3-.6,4.8,4.8,0,0,1-1.6-.8,1.7,1.7,0,0,1-.5-1.2,2.1,2.1,0,0,1,.7-1.6,2.5,2.5,0,0,1,1.7-.6,3.5,3.5,0,0,1,1.8.6v1.1a2.5,2.5,0,0,0-1.8-.8,1.3,1.3,0,0,0-1,.4.9.9,0,0,0-.4.8.7.7,0,0,0,.4.7l1.2.6c1.4.4,2,1.1,2,2.1a2,2,0,0,1-.7,1.6,2.9,2.9,0,0,1-1.9.7,4.4,4.4,0,0,1-2-.7Z" stroke="#000" stroke-width="0.29"/><path d="M147.6,56.5a3.2,3.2,0,0,0,2,.9,2.1,2.1,0,0,0,1.2-.4,1.4,1.4,0,0,0,.5-1,.9.9,0,0,0-.3-.7,4,4,0,0,0-1.3-.6,4.8,4.8,0,0,1-1.6-.8,1.7,1.7,0,0,1-.5-1.2,2.1,2.1,0,0,1,.7-1.6,2.5,2.5,0,0,1,1.7-.6,3.8,3.8,0,0,1,1.8.6v1.1a2.7,2.7,0,0,0-1.8-.8,1.3,1.3,0,0,0-1,.4.9.9,0,0,0-.4.8.7.7,0,0,0,.4.7,3.3,3.3,0,0,0,1.2.6c1.3.4,2,1.1,2,2.1a2,2,0,0,1-.7,1.6,2.9,2.9,0,0,1-1.9.7,4.4,4.4,0,0,1-2-.7Z" stroke="#000" stroke-width="0.29"/><path d="M156.7,50.5a2.4,2.4,0,0,1,1.9,1.1,4.7,4.7,0,0,1,.8,2.8,5.8,5.8,0,0,1-.3,1.9,3,3,0,0,1-1,1.4,2,2,0,0,1-1.5.6,2.4,2.4,0,0,1-2-1.1,6.1,6.1,0,0,1-.7-2.8,5.1,5.1,0,0,1,.5-2.2,2.1,2.1,0,0,1,1.1-1.3A1.9,1.9,0,0,1,156.7,50.5Zm0,.9a1.6,1.6,0,0,0-1.4.8,5,5,0,0,0-.4,2.3,4,4,0,0,0,.4,2,1.5,1.5,0,0,0,1.3.9,1.6,1.6,0,0,0,1.3-.8,4.5,4.5,0,0,0,.5-2.2,3.4,3.4,0,0,0-.5-2.2A1.4,1.4,0,0,0,156.7,51.4Z" stroke="#000" stroke-width="0.29"/><path d="M165.7,57.8a3.7,3.7,0,0,1-1.6.5,2.5,2.5,0,0,1-2.1-1.1,4,4,0,0,1-.8-2.7,4.2,4.2,0,0,1,.8-2.8,2.6,2.6,0,0,1,2.2-1.2,3,3,0,0,1,1.5.5v1.1a2.1,2.1,0,0,0-1.5-.7,1.8,1.8,0,0,0-1.5.9,3.5,3.5,0,0,0-.6,2.1,3.7,3.7,0,0,0,.6,2.1,1.6,1.6,0,0,0,1.5.9,2.5,2.5,0,0,0,1.5-.7Z" stroke="#000" stroke-width="0.29"/><path d="M168.1,47.4c.4,0,.5.3.5.9s-.1.9-.5.9-.6-.3-.6-.9S167.7,47.4,168.1,47.4Zm-.5,3.3h1v7.4h-1Z" stroke="#000" stroke-width="0.29"/><path d="M171.1,51.2a3.7,3.7,0,0,1,1.9-.7,2.2,2.2,0,0,1,1.7.7,2.8,2.8,0,0,1,.6,1.8v3.9c0,.3.1.5.4.5h.3v.8l-.7.2c-.6,0-1-.4-1-1.2a2.4,2.4,0,0,1-.8.9,1.6,1.6,0,0,1-.9.3,1.5,1.5,0,0,1-1.4-.7,2.1,2.1,0,0,1-.6-1.6,2,2,0,0,1,.7-1.6,6.6,6.6,0,0,1,3-.9v-.6a1.5,1.5,0,0,0-.4-1.1,1.3,1.3,0,0,0-.9-.4,3,3,0,0,0-1.9.9Zm3.2,3.1a5.5,5.5,0,0,0-2.3.6,1.6,1.6,0,0,0-.5,1.1,1.8,1.8,0,0,0,.4,1,1.3,1.3,0,0,0,.9.4,1.4,1.4,0,0,0,1.1-.6,2.4,2.4,0,0,0,.4-1.5Z" stroke="#000" stroke-width="0.29"/><path d="M178.1,48.5h.9v2.2h1.3v.9H179v5.1a.8.8,0,0,0,.2.5.6.6,0,0,0,.5.2.9.9,0,0,0,.6-.3v1l-.9.2a1.3,1.3,0,0,1-1-.4,1.5,1.5,0,0,1-.3-1V51.6h-1v-.9h1Z" stroke="#000" stroke-width="0.29"/><path d="M182.7,47.4q.6,0,.6.9t-.6.9c-.4,0-.5-.3-.5-.9S182.3,47.4,182.7,47.4Zm-.5,3.3h1v7.4h-1Z" stroke="#000" stroke-width="0.29"/><path d="M188,50.5a2.4,2.4,0,0,1,1.9,1.1,4.7,4.7,0,0,1,.8,2.8,5.8,5.8,0,0,1-.3,1.9,3,3,0,0,1-1,1.4,2,2,0,0,1-1.5.6,2.4,2.4,0,0,1-2-1.1,5.5,5.5,0,0,1-.2-5,2.1,2.1,0,0,1,1.1-1.3A1.9,1.9,0,0,1,188,50.5Zm0,.9a1.6,1.6,0,0,0-1.4.8,5,5,0,0,0-.4,2.3,4,4,0,0,0,.4,2,1.5,1.5,0,0,0,1.3.9,1.6,1.6,0,0,0,1.3-.8,4.5,4.5,0,0,0,.5-2.2,4.2,4.2,0,0,0-.5-2.2A1.4,1.4,0,0,0,188,51.4Z" stroke="#000" stroke-width="0.29"/><path d="M192.8,50.7h.8v1a3.6,3.6,0,0,1,.8-.9,2.3,2.3,0,0,1,1.1-.3,1.6,1.6,0,0,1,1.4.7,2.9,2.9,0,0,1,.5,1.7v5.2h-1V52.9a1.8,1.8,0,0,0-.3-1.1,1.2,1.2,0,0,0-.8-.4,1.3,1.3,0,0,0-1.2.7,2.5,2.5,0,0,0-.5,1.5v4.5h-.9Z" stroke="#000" stroke-width="0.29"/><path d="M205.5,47.2l2.2,6,2.2-6h1.3V58.1h-.9V48.4c-.2.7-.5,1.5-.8,2.3l-1.8,4.9-1.5-4.1c-.3-.8-.7-1.8-1.1-3,.1,2.3.1,3.6.1,3.9v5.7h-.9V47.2Z" stroke="#000" stroke-width="0.29"/><path d="M213.9,51.2a3.7,3.7,0,0,1,1.9-.7,2.2,2.2,0,0,1,1.7.7,2.8,2.8,0,0,1,.6,1.8v3.9c0,.3.1.5.4.5h.4v.8l-.8.2c-.6,0-.9-.4-1-1.2a2.4,2.4,0,0,1-.8.9,1.6,1.6,0,0,1-.9.3,1.5,1.5,0,0,1-1.4-.7,2.1,2.1,0,0,1-.6-1.6,2,2,0,0,1,.7-1.6,6.6,6.6,0,0,1,3-.9v-.6a2,2,0,0,0-.3-1.1,1.8,1.8,0,0,0-1-.4,3,3,0,0,0-1.9.9Zm3.2,3.1a6,6,0,0,0-2.3.6,1.5,1.5,0,0,0-.4,1.1,1.7,1.7,0,0,0,.3,1,1.3,1.3,0,0,0,.9.4,1.4,1.4,0,0,0,1.1-.6,2.4,2.4,0,0,0,.4-1.5Z" stroke="#000" stroke-width="0.29"/><path d="M220.7,50.7h.8v1a2.4,2.4,0,0,1,.8-.9,1.9,1.9,0,0,1,1-.3,1.5,1.5,0,0,1,1.4.7,2.3,2.3,0,0,1,.5,1.7v5.2h-.9V52.9a1.8,1.8,0,0,0-.3-1.1,1.2,1.2,0,0,0-2,.3,2,2,0,0,0-.5,1.5v4.5h-.9Z" stroke="#000" stroke-width="0.29"/><path d="M227.9,51.2a3.7,3.7,0,0,1,1.9-.7,2.2,2.2,0,0,1,1.7.7,2.8,2.8,0,0,1,.6,1.8v3.9c0,.3.1.5.4.5h.4v.8l-.8.2q-.9,0-.9-1.2a3.8,3.8,0,0,1-.9.9,1.4,1.4,0,0,1-.9.3,1.6,1.6,0,0,1-1.4-.7,2.1,2.1,0,0,1-.6-1.6,2,2,0,0,1,.7-1.6,6.7,6.7,0,0,1,3.1-.9v-.6a2.1,2.1,0,0,0-.4-1.1,1.8,1.8,0,0,0-1-.4,3.2,3.2,0,0,0-1.9.9Zm3.3,3.1a5,5,0,0,0-2.3.6,1.3,1.3,0,0,0-.5,1.1,1.7,1.7,0,0,0,.3,1,1.8,1.8,0,0,0,.9.4,1.3,1.3,0,0,0,1.1-.6,2.5,2.5,0,0,0,.5-1.5Z" stroke="#000" stroke-width="0.29"/><path d="M239,50.7h.6v7.8a3.6,3.6,0,0,1-.7,2.4,2.7,2.7,0,0,1-1.9.8,3,3,0,0,1-2-.8V59.7a2.6,2.6,0,0,0,2,1.1,1.4,1.4,0,0,0,1.2-.6,2.5,2.5,0,0,0,.5-1.7V56.9a2.4,2.4,0,0,1-.8.9,1.6,1.6,0,0,1-.9.3,2.2,2.2,0,0,1-1.8-1.1,4.4,4.4,0,0,1-.7-2.6,4,4,0,0,1,.8-2.7,2.1,2.1,0,0,1,1.8-1.2l.9.2a2.3,2.3,0,0,1,.7.7Zm-.3,1.6a1.3,1.3,0,0,0-.7-.6.8.8,0,0,0-.7-.2,1.4,1.4,0,0,0-1.3.8,3.3,3.3,0,0,0-.6,2.1,4.2,4.2,0,0,0,.5,2,1.4,1.4,0,0,0,1.2.8,1.4,1.4,0,0,0,1.2-.6,3.1,3.1,0,0,0,.4-1.7Z" stroke="#000" stroke-width="0.29"/><path d="M246.6,57.3a3.9,3.9,0,0,1-2.2,1,2.3,2.3,0,0,1-2-1.1,4.1,4.1,0,0,1-.8-2.8,4.9,4.9,0,0,1,.8-2.8,2.4,2.4,0,0,1,2-1.1,2,2,0,0,1,1.7.9,3.2,3.2,0,0,1,.7,2.2v.5h-4.3v.4a3.1,3.1,0,0,0,.6,2.1,1.7,1.7,0,0,0,1.3.8,2.8,2.8,0,0,0,2.2-1.3Zm-.8-4a1.8,1.8,0,0,0-.4-1.4,1.4,1.4,0,0,0-1-.5,1.8,1.8,0,0,0-1.1.5,3,3,0,0,0-.7,1.4Z" stroke="#000" stroke-width="0.29"/><path d="M253,51.7a2.2,2.2,0,0,1,.7-.9,1.7,1.7,0,0,1,1-.3,1.4,1.4,0,0,1,1.2.6,2.5,2.5,0,0,1,.5,1.5v5.5h-1V52.6a2,2,0,0,0-.2-.9.9.9,0,0,0-.7-.3,1.2,1.2,0,0,0-1,.6,2.3,2.3,0,0,0-.4,1.4v4.7h-1V52.6c0-.4,0-.7-.2-.9a.8.8,0,0,0-.7-.3,1.2,1.2,0,0,0-1,.6,2.4,2.4,0,0,0-.4,1.5v4.6h-1V50.7h.9v.9a2.7,2.7,0,0,1,.7-.8,1.6,1.6,0,0,1,.9-.3,1.7,1.7,0,0,1,1,.3A1.5,1.5,0,0,1,253,51.7Z" stroke="#000" stroke-width="0.29"/><path d="M263.4,57.3a3.4,3.4,0,0,1-2.2,1,2.4,2.4,0,0,1-2-1.1,4.7,4.7,0,0,1-.8-2.8,4.9,4.9,0,0,1,.8-2.8,2.8,2.8,0,0,1,2.1-1.1,2,2,0,0,1,1.7.9,3.8,3.8,0,0,1,.7,2.2v.5h-4.3v.4a3.1,3.1,0,0,0,.6,2.1,1.7,1.7,0,0,0,1.3.8,2.8,2.8,0,0,0,2.1-1.3Zm-.7-4a1.8,1.8,0,0,0-.5-1.4,1.2,1.2,0,0,0-.9-.5,1.6,1.6,0,0,0-1.1.5,2.3,2.3,0,0,0-.7,1.4Z" stroke="#000" stroke-width="0.29"/><path d="M265.7,50.7h.9v1a3.8,3.8,0,0,1,.9-.9,1.7,1.7,0,0,1,1-.3,1.5,1.5,0,0,1,1.4.7,2.9,2.9,0,0,1,.5,1.7v5.2h-.9V52.9a1.8,1.8,0,0,0-.4-1.1,1.2,1.2,0,0,0-.8-.4,1.3,1.3,0,0,0-1.2.7,2.5,2.5,0,0,0-.5,1.5v4.5h-.9Z" stroke="#000" stroke-width="0.29"/><path d="M273.1,48.5h.9v2.2h1.3v.9H274v5.1a.7.7,0,0,0,.1.5l.5.2.7-.3v1l-1,.2a1,1,0,0,1-.9-.4,1.2,1.2,0,0,1-.4-1V51.6h-.9v-.9h.9Z" stroke="#000" stroke-width="0.29"/><path d="M278,60.1h-.6a6.4,6.4,0,0,0,.6-1.8l-.5-.4a.9.9,0,0,1-.1-.5,1.5,1.5,0,0,1,.2-.8c.2-.3.3-.4.5-.4a.7.7,0,0,1,.5.4,1.9,1.9,0,0,1,.2.8,5.9,5.9,0,0,1-.2,1.3Z" stroke="#000" stroke-width="0.29"/><path d="M290.4,57.6a4.4,4.4,0,0,1-2,.7,2.9,2.9,0,0,1-1.9-.8,4.3,4.3,0,0,1-1.1-2,9.2,9.2,0,0,1-.4-2.9,8.2,8.2,0,0,1,.9-4,3,3,0,0,1,2.6-1.5,3.8,3.8,0,0,1,1.9.6V49a3.2,3.2,0,0,0-1.9-1,2.3,2.3,0,0,0-1.8,1.3,8,8,0,0,0-.7,3.5,7.2,7.2,0,0,0,.7,3.2,1.9,1.9,0,0,0,1.8,1.3,2.9,2.9,0,0,0,1.9-1Z" stroke="#000" stroke-width="0.29"/><path d="M294.7,50.5a2.3,2.3,0,0,1,1.9,1.1,4.1,4.1,0,0,1,.8,2.8,5.8,5.8,0,0,1-.3,1.9,2.8,2.8,0,0,1-.9,1.4,2.4,2.4,0,0,1-1.5.6,2.3,2.3,0,0,1-2-1.1,6.1,6.1,0,0,1-.3-5,2.5,2.5,0,0,1,1.1-1.3A2.4,2.4,0,0,1,294.7,50.5Zm.1.9a1.6,1.6,0,0,0-1.4.8,4.9,4.9,0,0,0-.5,2.3,3.9,3.9,0,0,0,.5,2,1.4,1.4,0,0,0,1.3.9,1.7,1.7,0,0,0,1.3-.8,4.5,4.5,0,0,0,.5-2.2,4.2,4.2,0,0,0-.5-2.2A1.7,1.7,0,0,0,294.8,51.4Z" stroke="#000" stroke-width="0.29"/><path d="M299.5,50.7h.9v1a2.4,2.4,0,0,1,.8-.9,1.7,1.7,0,0,1,1-.3,1.5,1.5,0,0,1,1.4.7,2.9,2.9,0,0,1,.5,1.7v5.2h-.9V52.9a1.8,1.8,0,0,0-.3-1.1,1.5,1.5,0,0,0-.9-.4,1.3,1.3,0,0,0-1.1.7,2,2,0,0,0-.5,1.5v4.5h-1Z" stroke="#000" stroke-width="0.29"/><path d="M306.3,56.5a3.2,3.2,0,0,0,2,.9,2.1,2.1,0,0,0,1.2-.4,1.4,1.4,0,0,0,.5-1,.8.8,0,0,0-.4-.7,3.3,3.3,0,0,0-1.2-.6,4,4,0,0,1-1.6-.8,1.7,1.7,0,0,1-.5-1.2,2.1,2.1,0,0,1,.7-1.6,2.4,2.4,0,0,1,1.7-.6,3.8,3.8,0,0,1,1.8.6v1.1a2.9,2.9,0,0,0-1.8-.8,1.2,1.2,0,0,0-1,.4,1,1,0,0,0-.5.8.8.8,0,0,0,.4.7l1.2.6q2.1.6,2.1,2.1a2,2,0,0,1-.7,1.6,3.2,3.2,0,0,1-1.9.7,4.4,4.4,0,0,1-2-.7Z" stroke="#000" stroke-width="0.29"/><path d="M316.6,50.7h1v7.4h-1v-1a2.4,2.4,0,0,1-.8.9,1.9,1.9,0,0,1-1,.3,1.8,1.8,0,0,1-1.5-.7,2.9,2.9,0,0,1-.5-1.7V50.7h1v5.2a1.6,1.6,0,0,0,.3,1.1,1.3,1.3,0,0,0,.9.4,1.3,1.3,0,0,0,1.2-.7,2.9,2.9,0,0,0,.4-1.7Z" stroke="#000" stroke-width="0.29"/><path d="M320,47.2h.9V58.1H320Z" stroke="#000" stroke-width="0.29"/><path d="M323.6,48.5h.9v2.2h1.3v.9h-1.3v5.1a.7.7,0,0,0,.1.5l.5.2.7-.3v1l-1,.2a1,1,0,0,1-.9-.4,1.2,1.2,0,0,1-.4-1V51.6h-.9v-.9h.9Z" stroke="#000" stroke-width="0.29"/><path d="M328.2,47.4c.3,0,.5.3.5.9s-.2.9-.6.9-.5-.3-.5-.9S327.8,47.4,328.2,47.4Zm-.5,3.3h.9v7.4h-.9Z" stroke="#000" stroke-width="0.29"/><path d="M331,50.7h.8v1a3.6,3.6,0,0,1,.8-.9,2.3,2.3,0,0,1,1.1-.3,1.6,1.6,0,0,1,1.4.7,2.9,2.9,0,0,1,.5,1.7v5.2h-1V52.9a1.8,1.8,0,0,0-.3-1.1,1.2,1.2,0,0,0-.8-.4,1.3,1.3,0,0,0-1.2.7,2.5,2.5,0,0,0-.5,1.5v4.5H331Z" stroke="#000" stroke-width="0.29"/><path d="M342.2,50.7h.7v7.8a3.6,3.6,0,0,1-.8,2.4,2.5,2.5,0,0,1-1.8.8,3.1,3.1,0,0,1-2.1-.8V59.7a2.7,2.7,0,0,0,2,1.1,1.6,1.6,0,0,0,1.3-.6,3.1,3.1,0,0,0,.5-1.7V56.9l-.8.9a1.7,1.7,0,0,1-1,.3,2.2,2.2,0,0,1-1.8-1.1,5.3,5.3,0,0,1-.7-2.6,4.6,4.6,0,0,1,.8-2.7,2.3,2.3,0,0,1,1.9-1.2l.9.2a4.6,4.6,0,0,1,.7.7Zm-.2,1.6-.7-.6a1,1,0,0,0-.7-.2,1.5,1.5,0,0,0-1.4.8,4.1,4.1,0,0,0-.5,2.1,3.3,3.3,0,0,0,.5,2,1.4,1.4,0,0,0,1.2.8,1.4,1.4,0,0,0,1.1-.6,3.1,3.1,0,0,0,.5-1.7Z" stroke="#000" stroke-width="0.29"/><path d="M351.4,51.4l-.2-.3a4.9,4.9,0,0,1-.5-1.8,2.1,2.1,0,0,1,.6-1.6,2,2,0,0,1,1.5-.6l1.2.2v1.1a1.7,1.7,0,0,0-1.1-.4,1.2,1.2,0,0,0-.9.3,1.8,1.8,0,0,0-.4,1,4.1,4.1,0,0,0,.5,1.6l2.1,4.2a11.5,11.5,0,0,0,.3-2.6v-.6h.9a9.7,9.7,0,0,1-.7,4.1l1.1,2.1h-1.1l-.5-1.1a2.9,2.9,0,0,1-2.2,1.3,2.3,2.3,0,0,1-2-1,3.4,3.4,0,0,1-.8-2.3,4.1,4.1,0,0,1,.5-1.9A6.7,6.7,0,0,1,351.4,51.4Zm.3.7a7.1,7.1,0,0,0-1.2,1.3,3.3,3.3,0,0,0-.3,1.5,2.7,2.7,0,0,0,.5,1.8,1.7,1.7,0,0,0,1.3.7,2.1,2.1,0,0,0,1.8-1.2Z" stroke="#000" stroke-width="0.29"/><path d="M361.9,47.2H367v1h-4V52h3.8v.9H363v4.3h4v.9h-5.1Z" stroke="#000" stroke-width="0.29"/><path d="M368.4,50.7h1l1.7,6.2,1.6-6.2h1l-2.2,7.4h-.9Z" stroke="#000" stroke-width="0.29"/><path d="M375.9,51.2a3.4,3.4,0,0,1,1.9-.7,2,2,0,0,1,1.6.7A2.8,2.8,0,0,1,380,53v3.9c0,.3.1.5.4.5h.4v.8l-.7.2c-.7,0-1-.4-1-1.2a3.6,3.6,0,0,1-.8.9,1.7,1.7,0,0,1-1,.3,1.7,1.7,0,0,1-1.4-.7,2.1,2.1,0,0,1-.6-1.6,2.4,2.4,0,0,1,.7-1.6,6.7,6.7,0,0,1,3.1-.9v-.6a1.5,1.5,0,0,0-.4-1.1,1.8,1.8,0,0,0-1-.4,3,3,0,0,0-1.8.9Zm3.2,3.1a5.5,5.5,0,0,0-2.3.6,1.6,1.6,0,0,0-.5,1.1,1.7,1.7,0,0,0,.3,1,1.8,1.8,0,0,0,.9.4,1.1,1.1,0,0,0,1.1-.6,2.5,2.5,0,0,0,.5-1.5Z" stroke="#000" stroke-width="0.29"/><path d="M382.6,47.2h.9V58.1h-.9Z" stroke="#000" stroke-width="0.29"/><path d="M389.6,50.7h.9v7.4h-.9v-1a2.6,2.6,0,0,1-.9.9,1.7,1.7,0,0,1-1,.3,1.6,1.6,0,0,1-1.4-.7,2.9,2.9,0,0,1-.5-1.7V50.7h.9v5.2A1.6,1.6,0,0,0,387,57a1.3,1.3,0,0,0,.9.4,1.3,1.3,0,0,0,1.2-.7,2.9,2.9,0,0,0,.5-1.7Z" stroke="#000" stroke-width="0.29"/><path d="M393.2,51.2a3.4,3.4,0,0,1,1.9-.7,2.4,2.4,0,0,1,1.7.7,3.5,3.5,0,0,1,.5,1.8v3.9c0,.3.1.5.4.5h.4v.8l-.7.2c-.7,0-1-.4-1-1.2a3.6,3.6,0,0,1-.8.9,1.7,1.7,0,0,1-1,.3,1.7,1.7,0,0,1-1.4-.7,2.1,2.1,0,0,1-.6-1.6,2.4,2.4,0,0,1,.7-1.6,6.7,6.7,0,0,1,3.1-.9v-.6a1.5,1.5,0,0,0-.4-1.1,1.8,1.8,0,0,0-1-.4,3,3,0,0,0-1.8.9Zm3.2,3.1a5.5,5.5,0,0,0-2.3.6,1.6,1.6,0,0,0-.5,1.1,1.3,1.3,0,0,0,.4,1,1.2,1.2,0,0,0,.8.4,1.1,1.1,0,0,0,1.1-.6,2.5,2.5,0,0,0,.5-1.5Z" stroke="#000" stroke-width="0.29"/><path d="M400.2,48.5h.9v2.2h1.3v.9h-1.3v5.1a.7.7,0,0,0,.1.5l.5.2.7-.3v1l-1,.2a1,1,0,0,1-.9-.4,1.2,1.2,0,0,1-.4-1V51.6h-.9v-.9h.9Z" stroke="#000" stroke-width="0.29"/><path d="M404.8,47.4c.3,0,.5.3.5.9s-.2.9-.5.9-.6-.3-.6-.9S404.4,47.4,404.8,47.4Zm-.5,3.3h.9v7.4h-.9Z" stroke="#000" stroke-width="0.29"/><path d="M410,50.5a2.3,2.3,0,0,1,1.9,1.1,4.1,4.1,0,0,1,.8,2.8,5.8,5.8,0,0,1-.3,1.9,2.8,2.8,0,0,1-.9,1.4,2.4,2.4,0,0,1-1.5.6,2.3,2.3,0,0,1-2-1.1,6.1,6.1,0,0,1-.3-5,2.5,2.5,0,0,1,1.1-1.3A2.4,2.4,0,0,1,410,50.5Zm.1.9a1.6,1.6,0,0,0-1.4.8,4.9,4.9,0,0,0-.5,2.3,3.9,3.9,0,0,0,.5,2,1.4,1.4,0,0,0,1.3.9,1.7,1.7,0,0,0,1.3-.8,4.5,4.5,0,0,0,.5-2.2,4.2,4.2,0,0,0-.5-2.2A1.7,1.7,0,0,0,410.1,51.4Z" stroke="#000" stroke-width="0.29"/><path d="M414.8,50.7h.9v1a2.4,2.4,0,0,1,.8-.9,1.7,1.7,0,0,1,1-.3,1.5,1.5,0,0,1,1.4.7,2.9,2.9,0,0,1,.5,1.7v5.2h-.9V52.9a1.8,1.8,0,0,0-.3-1.1,1.5,1.5,0,0,0-.9-.4,1.5,1.5,0,0,0-1.2.7,2.4,2.4,0,0,0-.4,1.5v4.5h-1Z" stroke="#000" stroke-width="0.29"/><path d="M425.7,56a5,5,0,0,0,1.3.9l1,.3a2,2,0,0,0,1.5-.6,2.1,2.1,0,0,0,.6-1.6,1.6,1.6,0,0,0-.4-1.2,6.4,6.4,0,0,0-1.6-1c-1.6-.6-2.4-1.5-2.4-2.8a2.9,2.9,0,0,1,.9-2.1,2.8,2.8,0,0,1,2-.8,3.5,3.5,0,0,1,2,.7v1.5a3.5,3.5,0,0,0-1.1-.9l-.9-.3a1.6,1.6,0,0,0-1.3.6,2.1,2.1,0,0,0-.5,1.3,1.3,1.3,0,0,0,.5,1.2,4.5,4.5,0,0,0,1.6.9l1.2.6a2.4,2.4,0,0,1,.8.9,3.2,3.2,0,0,1,.3,1.4,2.9,2.9,0,0,1-1,2.3,2.6,2.6,0,0,1-2.1,1,4.2,4.2,0,0,1-2.4-.9Z" stroke="#000" stroke-width="0.29"/><path d="M437.9,57.3a3.9,3.9,0,0,1-2.2,1,2.4,2.4,0,0,1-2-1.1,4.7,4.7,0,0,1-.8-2.8,4.9,4.9,0,0,1,.8-2.8,2.4,2.4,0,0,1,2-1.1,2.1,2.1,0,0,1,1.8.9,3.8,3.8,0,0,1,.6,2.2v.5h-4.2v.4a3.8,3.8,0,0,0,.5,2.1,1.9,1.9,0,0,0,1.4.8,2.8,2.8,0,0,0,2.1-1.3Zm-.7-4a2.3,2.3,0,0,0-.5-1.4,1.2,1.2,0,0,0-2,0,1.9,1.9,0,0,0-.7,1.4Z" stroke="#000" stroke-width="0.29"/><path d="M441.2,51.8a2.6,2.6,0,0,1,.7-1,1.6,1.6,0,0,1,.9-.3l.7.2v.9l-.7-.2a1.5,1.5,0,0,0-1.2.7,2.9,2.9,0,0,0-.4,1.6v4.4h-1V50.7h.9Z" stroke="#000" stroke-width="0.29"/><path d="M445.3,50.7h1l1.7,6.2,1.6-6.2h1l-2.2,7.4h-.9Z" stroke="#000" stroke-width="0.29"/><path d="M452.7,47.4c.4,0,.5.3.5.9s-.1.9-.5.9-.5-.3-.5-.9S452.3,47.4,452.7,47.4Zm-.5,3.3h1v7.4h-1Z" stroke="#000" stroke-width="0.29"/><path d="M459.7,57.8a3.7,3.7,0,0,1-1.6.5,2.5,2.5,0,0,1-2.1-1.1,4.6,4.6,0,0,1-.8-2.7,4.9,4.9,0,0,1,.8-2.8,2.6,2.6,0,0,1,2.2-1.2,3,3,0,0,1,1.5.5v1.1a2.1,2.1,0,0,0-1.4-.7,1.8,1.8,0,0,0-1.5.9,3.5,3.5,0,0,0-.6,2.1,3.6,3.6,0,0,0,.5,2.1,1.8,1.8,0,0,0,1.5.9,2.5,2.5,0,0,0,1.5-.7Z" stroke="#000" stroke-width="0.29"/><path d="M466.3,57.3a3.6,3.6,0,0,1-2.2,1,2.4,2.4,0,0,1-2-1.1,4.7,4.7,0,0,1-.8-2.8,4.9,4.9,0,0,1,.8-2.8,2.6,2.6,0,0,1,2-1.1,2.1,2.1,0,0,1,1.8.9,3.8,3.8,0,0,1,.6,2.2v.5h-4.2v.4a3.1,3.1,0,0,0,.6,2.1,1.6,1.6,0,0,0,1.3.8,2.8,2.8,0,0,0,2.1-1.3Zm-.7-4a1.8,1.8,0,0,0-.5-1.4,1.4,1.4,0,0,0-1-.5,1.6,1.6,0,0,0-1,.5,2.3,2.3,0,0,0-.7,1.4Z" stroke="#000" stroke-width="0.29"/><path d="M468.3,56.5a3,3,0,0,0,2,.9,2.8,2.8,0,0,0,1.2-.4,1.3,1.3,0,0,0,.4-1,.9.9,0,0,0-.3-.7,3.3,3.3,0,0,0-1.2-.6,3.4,3.4,0,0,1-1.6-.8,1.3,1.3,0,0,1-.5-1.2,2.5,2.5,0,0,1,.6-1.6,2.7,2.7,0,0,1,1.7-.6,3.8,3.8,0,0,1,1.9.6v1.1a2.9,2.9,0,0,0-1.8-.8,1.5,1.5,0,0,0-1.1.4,1.2,1.2,0,0,0-.4.8.7.7,0,0,0,.4.7,4.4,4.4,0,0,0,1.2.6q2.1.6,2.1,2.1a2.1,2.1,0,0,1-.8,1.6,2.9,2.9,0,0,1-1.8.7,4,4,0,0,1-2-.7Z" stroke="#000" stroke-width="0.29"/></g></g></svg>