<svg xmlns="http://www.w3.org/2000/svg" width="488.9" height="110" viewBox="0 0 488.9 110"><path d="M16.4 21.7l-2.7-6.8H5.2l-2.7 6.8H0L8.5.2h2.1L19 21.7zm-3.4-9l-2.5-6.6a18.9 18.9 0 0 1-1-3.1c-.2.9-.6 1.9-1 3.1L6 12.7zM21.9.3H28a11.8 11.8 0 0 1 6.1 1.3 4.5 4.5 0 0 1 1.9 4 4.9 4.9 0 0 1-1 3.2 6.1 6.1 0 0 1-3.1 1.6q4.8.9 4.8 5.1a5.3 5.3 0 0 1-1.9 4.5 8.1 8.1 0 0 1-5.4 1.6h-7.5zm2.5 9.2h4.1a7.2 7.2 0 0 0 3.8-.8 3.2 3.2 0 0 0 1.1-2.8 2.9 2.9 0 0 0-1.2-2.6 8.7 8.7 0 0 0-4.1-.8h-3.7zm0 2.1v8h4.5a6.3 6.3 0 0 0 3.9-1 3.9 3.9 0 0 0 1.3-3.1 3.5 3.5 0 0 0-1.4-3 7.2 7.2 0 0 0-4-.9zm26.1-9.3a6.9 6.9 0 0 0-5.6 2.3 9.8 9.8 0 0 0-2 6.4c0 2.8.6 5 2 6.5s3.1 2.3 5.6 2.3a20.5 20.5 0 0 0 5.1-.8v2.2a17.3 17.3 0 0 1-5.5.8c-3.2 0-5.6-.9-7.3-2.8a12.2 12.2 0 0 1-2.6-8.2 12.1 12.1 0 0 1 1.3-5.8A9.2 9.2 0 0 1 45 1.4 11 11 0 0 1 50.5 0a12.2 12.2 0 0 1 5.9 1.3l-1 2.1a11.2 11.2 0 0 0-4.9-1.1zm26.8 8.5c0 3.6-.9 6.3-2.9 8.1s-4.6 2.8-8.2 2.8h-6V.3h6.6a10.9 10.9 0 0 1 7.8 2.8c1.8 1.8 2.7 4.4 2.7 7.7zm-2.6.1q0-4.2-2.1-6.3t-6.3-2.1h-3.6v17.1h3.1c2.9 0 5.2-.7 6.6-2.2a8.7 8.7 0 0 0 2.3-6.5zM94 21.7H82.1V.3H94v2.2h-9.4v6.9h8.8v2.2h-8.8v7.9H94zm7.2 0h-2.4V.3h11.9v2.2h-9.5v7.9h8.9v2.2h-8.9zm22.4-11.2h7.3v10.4a14 14 0 0 1-3.4.8 25.4 25.4 0 0 1-4.1.3c-3.2 0-5.8-.9-7.6-2.9s-2.7-4.6-2.7-8.1a12.1 12.1 0 0 1 1.4-5.8 8.2 8.2 0 0 1 3.8-3.8 12.5 12.5 0 0 1 5.9-1.4 15.3 15.3 0 0 1 6.4 1.3l-1 2.2a14.4 14.4 0 0 0-5.5-1.2c-2.7 0-4.7.7-6.2 2.3a9.1 9.1 0 0 0-2.1 6.4q0 4.4 2.1 6.6c1.4 1.5 3.4 2.2 6.2 2.2a15.4 15.4 0 0 0 4.3-.5v-6.6h-4.8zm28.7 11.2h-2.5v-10h-11.3v10h-2.4V.3h2.4v9.1h11.3V.3h2.5zm5.9 0V.3h2.5v21.4zm5.2 5.7a6.7 6.7 0 0 1-2.2-.4v-2.1l2.2.2a2.6 2.6 0 0 0 2.2-.8 4 4 0 0 0 .8-2.6V.3h2.5v21.2a5.8 5.8 0 0 1-1.5 4.3 4.8 4.8 0 0 1-4 1.6zm26.6-5.7h-2.9l-7.8-10.3-2.3 1.9v8.4h-2.5V.3h2.5v10.6L186.7.3h3l-8.6 9.3zm2.9 0V.3h2.5v19.2h9.5v2.2zm25.1 0l-7.3-18.9h-.1c.1 1.5.2 3.3.2 5.3v13.6h-2.3V.3h3.7L219 18h.1L226 .3h3.7v21.4h-2.5V7.9c0-1.5.1-3.3.2-5.1h-.1L220 21.7zm34.3 0h-2.9L237.7 3.8h-.1c.2 2.1.2 4 .2 5.8v12.1h-2.3V.3h2.9L250 18.2h.1c0-.2 0-1.1-.1-2.5s-.1-2.5-.1-3.1V.3h2.4zM276.7 11c0 3.4-.8 6.1-2.6 8.1a9.2 9.2 0 0 1-7.2 2.9c-3.2 0-5.6-.9-7.3-2.9S257 14.5 257 11s.9-6.2 2.6-8.1a9.4 9.4 0 0 1 7.3-2.9 9.2 9.2 0 0 1 7.2 2.9c1.8 2 2.6 4.7 2.6 8.1zm-17 0q0 4.4 1.8 6.6a6.6 6.6 0 0 0 5.4 2.2 6.5 6.5 0 0 0 5.4-2.2q1.8-2.2 1.8-6.6c0-2.9-.6-5.1-1.8-6.5a6.5 6.5 0 0 0-5.4-2.3 6.8 6.8 0 0 0-5.4 2.3c-1.2 1.5-1.8 3.6-1.8 6.5zm35.4-4.4a6.1 6.1 0 0 1-2.3 5 10.3 10.3 0 0 1-6.3 1.7H284v8.4h-2.5V.3h5.5q8.1 0 8.1 6.3zM284 11.2h2.2a8.5 8.5 0 0 0 4.8-1.1 3.8 3.8 0 0 0 1.5-3.4 3.9 3.9 0 0 0-1.4-3.2 7.2 7.2 0 0 0-4.3-1H284zm34.1-.2a12.9 12.9 0 0 1-1.6 6.8 7.9 7.9 0 0 1-4.7 3.7l5.1 5.3h-3.6l-4.2-4.8h-.8c-3.2 0-5.6-.9-7.3-2.9s-2.6-4.6-2.6-8.1.9-6.2 2.6-8.1a9.4 9.4 0 0 1 7.3-2.9 9.2 9.2 0 0 1 7.2 2.9 12.1 12.1 0 0 1 2.6 8.1zm-17 0q0 4.4 1.8 6.6a6.5 6.5 0 0 0 5.4 2.2 6.6 6.6 0 0 0 5.4-2.2q1.8-2.2 1.8-6.6c0-2.9-.6-5.1-1.8-6.5a7.5 7.5 0 0 0-10.8 0c-1.2 1.5-1.8 3.6-1.8 6.5zm24.3 1.8v8.9h-2.5V.3h5.8c2.7 0 4.6.5 5.9 1.5a5.7 5.7 0 0 1 1.8 4.6c0 2.8-1.4 4.7-4.3 5.7l5.9 9.6h-3l-5.2-8.9zm0-2.1h3.4a6.4 6.4 0 0 0 3.8-1 3.8 3.8 0 0 0 1.3-3.2 3.3 3.3 0 0 0-1.3-3 6.2 6.2 0 0 0-4-1h-3.2zm28.1 5.3a5.1 5.1 0 0 1-2.1 4.4 8.4 8.4 0 0 1-5.5 1.6 13.3 13.3 0 0 1-5.9-1v-2.4a14 14 0 0 0 2.9.9 15.5 15.5 0 0 0 3.1.3 6.3 6.3 0 0 0 3.7-.9 3.2 3.2 0 0 0 1.3-2.6 3 3 0 0 0-.5-1.8 4.1 4.1 0 0 0-1.5-1.4 18.6 18.6 0 0 0-3.2-1.3 9.8 9.8 0 0 1-4.2-2.6 5.2 5.2 0 0 1-1.3-3.8 4.7 4.7 0 0 1 1.9-3.9 7.4 7.4 0 0 1 4.9-1.5 13.7 13.7 0 0 1 5.8 1.2l-.7 2.2a12.5 12.5 0 0 0-5.2-1.1 4.9 4.9 0 0 0-3.1.8 3 3 0 0 0-1.1 2.4 3.4 3.4 0 0 0 .4 1.8 4.4 4.4 0 0 0 1.4 1.3 18.7 18.7 0 0 0 3 1.3 11.8 11.8 0 0 1 4.6 2.6 4.8 4.8 0 0 1 1.3 3.5zm10.9 5.7H362V2.5h-6.8V.3h16v2.2h-6.8zM390.6.3v13.9a7.4 7.4 0 0 1-2.2 5.7 8.5 8.5 0 0 1-6.1 2.1 8.1 8.1 0 0 1-6-2.1 7.8 7.8 0 0 1-2.1-5.8V.3h2.5v14a5.3 5.3 0 0 0 1.5 4.1c.9 1 2.4 1.4 4.3 1.4a5.3 5.3 0 0 0 4.1-1.4 5.4 5.4 0 0 0 1.5-4.1V.3zm17.9 0h2.7l-7.8 21.4H401L393.3.3h2.7l4.9 13.9a46.1 46.1 0 0 1 1.3 4.6 41.9 41.9 0 0 1 1.4-4.7zm24.3 21.4h-2.5L426 7.4l-.7-2.4c-.2-1-.4-1.5-.4-1.7a25.3 25.3 0 0 1-1 4.2l-4.2 14.2h-2.5L411.6.3h2.6l3.4 13.3c.4 1.8.8 3.5 1 5a33.7 33.7 0 0 1 1.2-5.3l3.8-13h2.6l4.1 13.2a49.7 49.7 0 0 1 1.1 5.1c.2-1.4.6-3.1 1.1-5.1L435.9.3h2.6zm23.3 0h-2.8l-5.8-9.4-5.8 9.4H439l7.1-11.1L439.5.3h2.8l5.3 8.5 5.3-8.5h2.7L449 10.5zm8.5-10.7L470.3.3h2.7l-7.1 13.1v8.3h-2.6v-8.1L456.2.3h2.7zm24.3 10.7h-14.7v-1.9l11.4-17.2h-11.1V.3h14.1v2l-11.4 17.2h11.7zm-476.2 44l-.8-2.2h-.1a7.1 7.1 0 0 1-2.4 2 8.7 8.7 0 0 1-3.1.5 5.1 5.1 0 0 1-3.7-1.3 5.3 5.3 0 0 1-1.3-3.9A4.3 4.3 0 0 1 3.1 57a10.7 10.7 0 0 1 5.5-1.4h2.8v-.7a2.2 2.2 0 0 0-2.5-2.5 11.2 11.2 0 0 0-4.6 1.2l-1.5-3A13.2 13.2 0 0 1 9 49a7.8 7.8 0 0 1 5.1 1.5 5.1 5.1 0 0 1 1.8 4.3v10.9zm-1.3-7.5H9.7a5.4 5.4 0 0 0-2.9.7 2.3 2.3 0 0 0-1 2c0 1.2.8 1.9 2.2 1.9a3.5 3.5 0 0 0 2.5-.9 3.2 3.2 0 0 0 .9-2.4zm18.1-9.1a5.3 5.3 0 0 1 4.6 2.2 10.4 10.4 0 0 1 1.6 6.2c0 2.7-.5 4.8-1.7 6.3a5.3 5.3 0 0 1-4.6 2.2 5.4 5.4 0 0 1-4.5-2.1h-.3l-.7 1.8h-3.5V43h4.5v5.3a22.8 22.8 0 0 1-.2 3.2h.2a5.2 5.2 0 0 1 4.6-2.4zm-1.4 3.5a2.8 2.8 0 0 0-2.4 1.1 5.5 5.5 0 0 0-.8 3.3v.5a7.2 7.2 0 0 0 .8 3.8 2.8 2.8 0 0 0 2.5 1.1 2.5 2.5 0 0 0 2.2-1.3 6.9 6.9 0 0 0 .8-3.6 7.3 7.3 0 0 0-.8-3.7 2.7 2.7 0 0 0-2.3-1.2zm18 13.4c-5.1 0-7.7-2.8-7.7-8.4 0-2.7.7-4.9 2.1-6.3a7.8 7.8 0 0 1 6-2.2 10.5 10.5 0 0 1 5 1.1l-1.3 3.4-1.9-.7-1.8-.2c-2.4 0-3.5 1.6-3.5 4.9s1.1 4.8 3.5 4.8a8.5 8.5 0 0 0 2.3-.3A9.1 9.1 0 0 0 51 61v3.8a6.2 6.2 0 0 1-2.2 1zM60 66a5.2 5.2 0 0 1-4.5-2.2 10.4 10.4 0 0 1-1.7-6.2 10.5 10.5 0 0 1 1.7-6.3 5.4 5.4 0 0 1 4.6-2.2 5.2 5.2 0 0 1 4.7 2.4h.2a22.6 22.6 0 0 1-.4-3.3V43h4.5v22.7h-3.4l-.9-2.1h-.2A5 5 0 0 1 60 66zm1.6-3.5a3.2 3.2 0 0 0 2.5-1 6.6 6.6 0 0 0 .9-3.4v-.5a6.4 6.4 0 0 0-.9-3.8 3 3 0 0 0-2.6-1.1 2.5 2.5 0 0 0-2.3 1.3 6 6 0 0 0-.8 3.6 6.2 6.2 0 0 0 .8 3.7 2.6 2.6 0 0 0 2.4 1.2zM81.2 66a8.4 8.4 0 0 1-6.2-2.2 8 8 0 0 1-2.2-6.1 9 9 0 0 1 2.1-6.4 7 7 0 0 1 5.6-2.2c2.4 0 4.2.6 5.4 1.9a7.7 7.7 0 0 1 2 5.5v2.2H77.3a4.5 4.5 0 0 0 1.1 2.9 4.1 4.1 0 0 0 3 1.1 12.7 12.7 0 0 0 2.8-.3 11.9 11.9 0 0 0 2.8-1v3.5a7.9 7.9 0 0 1-2.6.8 13.9 13.9 0 0 1-3.2.3zm-.6-13.8a3 3 0 0 0-2.3.9 4.7 4.7 0 0 0-.9 2.6h6.3a3.6 3.6 0 0 0-.9-2.6 2.8 2.8 0 0 0-2.2-.9zm19.9.5h-3.8v13h-4.5v-13h-2.4v-2.1l2.4-1.2v-1.2a5.3 5.3 0 0 1 1.4-4.1c.9-.9 2.4-1.3 4.4-1.3a10.7 10.7 0 0 1 4.1.7l-1.1 3.3a8.5 8.5 0 0 0-2.5-.5 1.6 1.6 0 0 0-1.4.6 2.3 2.3 0 0 0-.4 1.4v1.1h3.8zm16.8-3.3v2.2l-2.5.7a4.1 4.1 0 0 1 .7 2.5 5.1 5.1 0 0 1-1.8 4.1 8.8 8.8 0 0 1-5.1 1.4h-1.5a1.5 1.5 0 0 0-.7 1.2c0 .6.8 1 2.5 1h2.7a6.1 6.1 0 0 1 4.1 1.1 4.1 4.1 0 0 1 1.5 3.4 5.2 5.2 0 0 1-2.4 4.5 13.1 13.1 0 0 1-6.9 1.5 9.3 9.3 0 0 1-5.2-1.2 3.8 3.8 0 0 1-1.8-3.3 3.7 3.7 0 0 1 .9-2.5 5.7 5.7 0 0 1 2.7-1.4 2.3 2.3 0 0 1-1.2-1 1.9 1.9 0 0 1-.5-1.4 2.5 2.5 0 0 1 .5-1.5 7.4 7.4 0 0 1 1.6-1.2 4.6 4.6 0 0 1-2.1-1.8 5.7 5.7 0 0 1-.7-2.9 5.4 5.4 0 0 1 1.7-4.2 8 8 0 0 1 5-1.4h1.6l1.2.2zM104.7 68a1.6 1.6 0 0 0 .9 1.5 5.5 5.5 0 0 0 2.5.5 9.2 9.2 0 0 0 3.7-.6c1-.5 1.4-1.1 1.4-1.8a1.3 1.3 0 0 0-.8-1.3 7.2 7.2 0 0 0-2.5-.4h-2.3a3.7 3.7 0 0 0-2.1.6 1.9 1.9 0 0 0-.8 1.5zm1.6-13.3a2.8 2.8 0 0 0 .7 2.1 1.9 1.9 0 0 0 1.8.8 1.9 1.9 0 0 0 1.8-.8 3.3 3.3 0 0 0 .6-2.1c0-1.9-.8-2.9-2.4-2.9s-2.5 1-2.5 2.9zm28.8 11h-4.4v-9.5q0-3.6-2.7-3.6a3.2 3.2 0 0 0-2.7 1.3 8.4 8.4 0 0 0-.8 4.1v7.7H120V43h4.5v4.6c0 .4 0 1.2-.1 2.5v1.4h.2a5.2 5.2 0 0 1 4.8-2.4 6 6 0 0 1 4.4 1.5 6.5 6.5 0 0 1 1.4 4.5zm4.5-20.6q0-2.1 2.4-2.1t2.4 2.1a2.4 2.4 0 0 1-.6 1.7 3 3 0 0 1-1.8.5c-1.6 0-2.4-.7-2.4-2.2zm4.6 20.6h-4.5V49.4h4.5zm3.4 7.2a12.6 12.6 0 0 1-3-.3v-3.5l2.1.2a2.2 2.2 0 0 0 1.7-.6 3.1 3.1 0 0 0 .5-1.9V49.4h4.5v18.1a4.9 4.9 0 0 1-1.6 4 5.6 5.6 0 0 1-4.2 1.4zm1.1-27.8q0-2.1 2.4-2.1c1.6 0 2.5.7 2.5 2.1a2.4 2.4 0 0 1-.6 1.7 3.6 3.6 0 0 1-1.9.5c-1.6 0-2.4-.7-2.4-2.2zm13.6 11.7l2-2.5 4.6-4.9h5l-6.5 7.1 6.9 9.2h-5.2l-4.7-6.6-1.9 1.5v5.1H158V43h4.5v10.1l-.2 3.7zm18.8 8.9h-4.5V43h4.5zm19.3 0H196v-9.5a4.9 4.9 0 0 0-.6-2.7 2.2 2.2 0 0 0-1.9-.9 2.9 2.9 0 0 0-2.5 1.3 8.2 8.2 0 0 0-.8 4.1v7.7h-4.4V49.4h3.4l.6 2.1h.2a4.7 4.7 0 0 1 1.9-1.8 6.8 6.8 0 0 1 2.9-.6c2.4 0 4.1.8 5 2.4h.4a3.7 3.7 0 0 1 1.9-1.8 6.8 6.8 0 0 1 2.9-.6 5.6 5.6 0 0 1 4.2 1.4 6.5 6.5 0 0 1 1.4 4.6v10.6h-4.5v-9.5a6.2 6.2 0 0 0-.5-2.7 2.2 2.2 0 0 0-1.9-.9 2.9 2.9 0 0 0-2.5 1.2 7 7 0 0 0-.8 3.7zm29.9 0h-4.5v-9.5a4.9 4.9 0 0 0-.6-2.7 2.3 2.3 0 0 0-2-.9 3.2 3.2 0 0 0-2.7 1.3c-.6.8-.8 2.2-.8 4.1v7.7h-4.5V49.4h3.4l.6 2.1h.3a4.4 4.4 0 0 1 2-1.8 7.3 7.3 0 0 1 3-.6 5.8 5.8 0 0 1 4.3 1.5 6.1 6.1 0 0 1 1.5 4.5zm19.5-8.2a8.9 8.9 0 0 1-2.1 6.3 7.7 7.7 0 0 1-5.9 2.2 8.2 8.2 0 0 1-4.2-1 6.6 6.6 0 0 1-2.7-3 9.3 9.3 0 0 1-1-4.5 8.8 8.8 0 0 1 2.1-6.2 7.7 7.7 0 0 1 5.9-2.2 7.8 7.8 0 0 1 4.1 1 7.1 7.1 0 0 1 2.8 2.9 9.3 9.3 0 0 1 1 4.5zm-11.3 0a6.4 6.4 0 0 0 .8 3.7 2.9 2.9 0 0 0 2.6 1.2 2.8 2.8 0 0 0 2.5-1.2 7 7 0 0 0 .8-3.7 6.9 6.9 0 0 0-.8-3.6 2.9 2.9 0 0 0-2.6-1.2 3 3 0 0 0-2.6 1.2 7 7 0 0 0-.7 3.6zm23.9 8.5a5.4 5.4 0 0 1-4.5-2.1h-.2c.1 1.4.2 2.2.2 2.4v6.6h-4.4V49.4h3.6l.6 2.1h.2a5.8 5.8 0 0 1 9.2-.2 10.4 10.4 0 0 1 1.6 6.2 12.7 12.7 0 0 1-.7 4.6 6.6 6.6 0 0 1-2.2 2.9 5.7 5.7 0 0 1-3.4 1zm-1.3-13.4a2.8 2.8 0 0 0-2.4 1.1 5.5 5.5 0 0 0-.8 3.3v.5a7.2 7.2 0 0 0 .8 3.8 3 3 0 0 0 2.5 1.1c2 0 3-1.6 3-4.9a8.7 8.7 0 0 0-.7-3.7 2.6 2.6 0 0 0-2.4-1.2zM277.6 66a5.2 5.2 0 0 1-4.5-2.2 10.4 10.4 0 0 1-1.7-6.2 10.5 10.5 0 0 1 1.7-6.3 5.4 5.4 0 0 1 4.6-2.2 7.6 7.6 0 0 1 2.7.5 4.6 4.6 0 0 1 2 1.9h.2l.4-2.1h3.7v23.5h-4.5v-6.8c0-.6.1-1.4.2-2.5h-.2a4.1 4.1 0 0 1-1.9 1.8 5.7 5.7 0 0 1-2.7.6zm1.6-3.5a3.2 3.2 0 0 0 2.5-.9 6.6 6.6 0 0 0 .9-3.4v-.6a6.4 6.4 0 0 0-.9-3.8 3 3 0 0 0-2.6-1.1c-2.1 0-3.1 1.6-3.1 4.9a6.2 6.2 0 0 0 .8 3.7 2.6 2.6 0 0 0 2.4 1.2zm21.3-13.4h1.5l-.3 4.2-1.3-.2a4.7 4.7 0 0 0-3.3 1.1 4.1 4.1 0 0 0-1.2 3.1v8.3h-4.5V49.4h3.4l.6 2.7h.3a6 6 0 0 1 2-2.2 4.8 4.8 0 0 1 2.8-.8zm15.9 11.8a4.6 4.6 0 0 1-1.7 3.8c-1.2.9-2.9 1.3-5.3 1.3l-3-.2-2.4-.7v-3.7l2.8 1a17 17 0 0 0 2.8.4c1.6 0 2.4-.5 2.4-1.4a1.2 1.2 0 0 0-.3-.9 3.5 3.5 0 0 0-1.1-.7l-2.1-1a10 10 0 0 1-2.8-1.5 3.7 3.7 0 0 1-1.3-1.5 4.8 4.8 0 0 1-.4-2.2 3.9 3.9 0 0 1 1.7-3.3 8.1 8.1 0 0 1 4.8-1.2 12.5 12.5 0 0 1 5.7 1.3l-1.3 3.2-2.3-.9a7.8 7.8 0 0 0-2.2-.3c-1.3 0-2 .3-2 1a1.5 1.5 0 0 0 .7 1.1 15.4 15.4 0 0 0 2.8 1.3 14.3 14.3 0 0 1 2.8 1.4 4.8 4.8 0 0 1 1.3 1.6 4.6 4.6 0 0 1 .4 2.1zm10.4 1.6a11.1 11.1 0 0 0 2.8-.5v3.3a10 10 0 0 1-4.1.7c-1.8 0-3.1-.4-3.9-1.3a6.1 6.1 0 0 1-1.2-4.1v-7.9h-2.1v-1.9l2.4-1.5 1.3-3.4h2.9v3.5h4.5v3.3h-4.5v7.9a1.6 1.6 0 0 0 .5 1.4 2 2 0 0 0 1.4.5zm17.7 3.2l-.6-2.1h-.2a4.6 4.6 0 0 1-2.1 1.8 6.7 6.7 0 0 1-3 .6 5.8 5.8 0 0 1-4.3-1.5 6.1 6.1 0 0 1-1.5-4.5V49.4h4.5v9.5a4.9 4.9 0 0 0 .6 2.7 2.3 2.3 0 0 0 2 .9 2.8 2.8 0 0 0 2.7-1.3 7.1 7.1 0 0 0 .9-4.1v-7.7h4.4v16.3zm12 0l-6.2-16.3h4.6l3.2 9.3a15.1 15.1 0 0 1 .7 3.3h.1a11.6 11.6 0 0 1 .6-3.3l3.2-9.3h4.6l-6.2 16.3zm26.6 0l-1.2-5.7-1.7-7.2h-.1l-3 12.9h-4.8l-4.7-16.3h4.5l1.9 7.2q.5 1.9.9 5.4h.1a22 22 0 0 1 .5-3.5l.2-1.3 2-7.8h5l1.9 7.8a8.4 8.4 0 0 0 .2 1 6.9 6.9 0 0 0 .2 1.3c.1.5.1.9.2 1.4a4.9 4.9 0 0 1 .1 1.1h.1a25.3 25.3 0 0 1 .5-2.9c.2-1.2.4-2.1.5-2.5l1.9-7.2h4.4L388 65.7zm15.6-8.3l-5.3-8h5.1l3.1 5.2 3.3-5.2h5l-5.3 8 5.6 8.3h-5.1l-3.5-5.6-3.4 5.6h-5.1zm11.6-8h4.9l3.1 9.2a10.8 10.8 0 0 1 .5 2.8h.1a12.7 12.7 0 0 1 .6-2.8l3.1-9.2h4.8l-7 18.4a8.1 8.1 0 0 1-2.7 3.9 7.1 7.1 0 0 1-4.1 1.2 9 9 0 0 1-2.3-.2v-3.6a5.5 5.5 0 0 0 1.8.2 3.1 3.1 0 0 0 2.1-.7 4.3 4.3 0 0 0 1.3-2.2l.3-.8zm30.8 16.3h-12.9v-2.6l7.6-10.3h-7.2v-3.4h12.2v2.9l-7.3 10h7.6zm-430.6 44H8.1V94.5c0-1.3 0-2.5.1-3.6l-.7.6A43.6 43.6 0 0 1 4 94.4l-1.2-1.7 5.6-4.4h2.1zm22.2 0H18.6v-2.1l5.6-5.6a37.1 37.1 0 0 0 3.4-3.7 10.5 10.5 0 0 0 1.3-2.2 8.5 8.5 0 0 0 .4-2.3 3.7 3.7 0 0 0-1.1-2.7 3.8 3.8 0 0 0-2.9-1 10.9 10.9 0 0 0-2.5.4 10.8 10.8 0 0 0-2.6 1.6l-1.3-1.6a9.6 9.6 0 0 1 6.4-2.5 6.4 6.4 0 0 1 4.7 1.6 5.1 5.1 0 0 1 1.8 4.1 7.5 7.5 0 0 1-1.2 4 21.3 21.3 0 0 1-4.3 5.1l-4.6 4.6h11zM49 93.4a5 5 0 0 1-1.1 3.3 5.9 5.9 0 0 1-3.3 1.8 5.8 5.8 0 0 1 3.8 1.6 5.2 5.2 0 0 1 1.3 3.5 5.5 5.5 0 0 1-2.2 4.7c-1.4 1.1-3.4 1.6-6 1.6l-3.1-.2a12.2 12.2 0 0 1-2.7-.9v-2.3a14.2 14.2 0 0 0 2.9 1 17.7 17.7 0 0 0 3 .4c3.7 0 5.5-1.5 5.5-4.4s-2-3.9-6.1-3.9h-2.1v-2h2.2a6 6 0 0 0 3.9-1.1 3.4 3.4 0 0 0 1.5-3 3.1 3.1 0 0 0-1.1-2.5 4.4 4.4 0 0 0-2.9-.9 8.4 8.4 0 0 0-2.7.4 10.4 10.4 0 0 0-2.8 1.4l-1.2-1.6a9.8 9.8 0 0 1 3-1.7 11.3 11.3 0 0 1 3.6-.6 7.4 7.4 0 0 1 4.9 1.5 4.8 4.8 0 0 1 1.7 3.9zm19 11.4h-3.2v4.9h-2.3v-4.9H52v-2.1l10.2-14.5h2.6v14.4H68zm-5.5-2.2v-7.1c0-1.4 0-3 .1-4.7h-.1c-.5.9-.9 1.7-1.3 2.3l-6.7 9.5zm14.2-5.9a7.8 7.8 0 0 1 5.3 1.6 6 6 0 0 1 2 4.6 6.6 6.6 0 0 1-2.1 5.2A8.5 8.5 0 0 1 76 110a11.6 11.6 0 0 1-5.5-1.1v-2.4a8.2 8.2 0 0 0 2.5 1.1l3 .3a6.3 6.3 0 0 0 4.1-1.2 4.5 4.5 0 0 0 1.4-3.5c0-3-1.9-4.5-5.5-4.5a21.1 21.1 0 0 0-3.7.5l-1.3-.9.8-10h10.7v2.3h-8.6l-.5 6.4a18.4 18.4 0 0 1 3.3-.3zm10.7 3.9c0-4.2.8-7.4 2.5-9.4a8.5 8.5 0 0 1 7.2-3.2 8.8 8.8 0 0 1 2.6.3v2.1a9.5 9.5 0 0 0-2.6-.4 6.2 6.2 0 0 0-5.2 2.2c-1.2 1.4-1.9 3.7-2 6.7h.2c1-1.7 2.7-2.5 5.1-2.5a6.1 6.1 0 0 1 4.5 1.7 6.9 6.9 0 0 1 1.7 4.8 6.9 6.9 0 0 1-1.9 5.2 6.3 6.3 0 0 1-4.9 1.9 6 6 0 0 1-5.2-2.5 10.7 10.7 0 0 1-2-6.9zm7.2 7.4a4.1 4.1 0 0 0 3.2-1.3 5.6 5.6 0 0 0 1.2-3.8 5.1 5.1 0 0 0-1.1-3.4 4.1 4.1 0 0 0-3.2-1.2 4.8 4.8 0 0 0-2.4.6 4.3 4.3 0 0 0-1.8 1.5 3.3 3.3 0 0 0-.6 1.9 6.4 6.4 0 0 0 .6 2.8 4.9 4.9 0 0 0 1.6 2.1 4.6 4.6 0 0 0 2.5.8zm12.4 1.7l8.9-19.1h-11.7v-2.3h14.2v2l-8.7 19.4zM128.5 88a7.5 7.5 0 0 1 4.7 1.4 4.7 4.7 0 0 1 1.7 3.8 4.8 4.8 0 0 1-1 2.8 8.8 8.8 0 0 1-3.1 2.4 11.3 11.3 0 0 1 3.7 2.6 5.2 5.2 0 0 1 1.1 3.2 5.2 5.2 0 0 1-1.9 4.2 7.3 7.3 0 0 1-5.1 1.6 8.4 8.4 0 0 1-5.3-1.5 5.2 5.2 0 0 1-1.8-4.2q0-3.7 4.5-5.7a8.2 8.2 0 0 1-2.9-2.5 5.3 5.3 0 0 1-.9-3 4.7 4.7 0 0 1 1.7-3.7 7.4 7.4 0 0 1 4.6-1.4zm-4.6 16.3a3.5 3.5 0 0 0 1.2 2.8 5.7 5.7 0 0 0 3.4 1 5 5 0 0 0 3.4-1.1 3.3 3.3 0 0 0 1.3-2.8 3.3 3.3 0 0 0-1.2-2.5 11.8 11.8 0 0 0-4-2.2 10.3 10.3 0 0 0-3.1 2.1 3.9 3.9 0 0 0-1 2.7zm4.6-14.3a4.4 4.4 0 0 0-2.9.9 2.8 2.8 0 0 0-1 2.3 3.6 3.6 0 0 0 .8 2.3 9.8 9.8 0 0 0 3.2 2 8.2 8.2 0 0 0 3-1.9 3.6 3.6 0 0 0 .9-2.4 2.8 2.8 0 0 0-1.1-2.3 4.4 4.4 0 0 0-2.9-.9zm24.1 7.5c0 8.3-3.2 12.5-9.7 12.5a10.1 10.1 0 0 1-2.7-.3v-2.1a7.7 7.7 0 0 0 2.7.4 6.4 6.4 0 0 0 5.3-2.2c1.2-1.4 1.8-3.6 1.9-6.6h-.1a5.5 5.5 0 0 1-2.2 1.8 6 6 0 0 1-3 .7 6.1 6.1 0 0 1-4.5-1.7 6.6 6.6 0 0 1-1.6-4.8 7.1 7.1 0 0 1 1.8-5.2 6.6 6.6 0 0 1 4.9-2 6.6 6.6 0 0 1 3.8 1.1 7.8 7.8 0 0 1 2.6 3.3 15.2 15.2 0 0 1 .8 5.1zm-7.2-7.4a4 4 0 0 0-3.2 1.4 5.3 5.3 0 0 0-1.1 3.7 4.8 4.8 0 0 0 1 3.3 4.1 4.1 0 0 0 3.2 1.2 7 7 0 0 0 2.5-.5 5 5 0 0 0 1.7-1.5 3.1 3.1 0 0 0 .7-2 6.7 6.7 0 0 0-.6-2.8 4.8 4.8 0 0 0-1.7-2 4.1 4.1 0 0 0-2.5-.8zm24.5 8.9c0 3.7-.6 6.5-1.8 8.3a5.8 5.8 0 0 1-5.3 2.7 5.9 5.9 0 0 1-5.3-2.8c-1.2-1.8-1.8-4.6-1.8-8.2s.6-6.5 1.8-8.3a5.8 5.8 0 0 1 5.3-2.7 5.9 5.9 0 0 1 5.3 2.8c1.2 1.9 1.8 4.6 1.8 8.2zm-11.7 0a16.1 16.1 0 0 0 1.1 6.8 4 4 0 0 0 7 0 16.5 16.5 0 0 0 1.1-6.8 15.6 15.6 0 0 0-1.1-6.7 3.6 3.6 0 0 0-3.5-2.2 3.6 3.6 0 0 0-3.5 2.1 16.1 16.1 0 0 0-1.1 6.8z"/></svg>