<svg xmlns="http://www.w3.org/2000/svg" width="488.9" height="110" viewBox="0 0 488.9 110"><title>open-sans</title><g id="Layer_2" data-name="Layer 2"><g id="Layer_1-2" data-name="Layer 1"><path d="M16.4,21.7l-2.7-6.8H5.2L2.5,21.7H0L8.5.2h2.1L19,21.7Zm-3.4-9L10.5,6.1A18.9,18.9,0,0,1,9.5,3c-.2.9-.6,1.9-1,3.1L6,12.7Z"/><path d="M21.9.3H28a11.8,11.8,0,0,1,6.1,1.3,4.5,4.5,0,0,1,1.9,4,4.9,4.9,0,0,1-1,3.2,6.1,6.1,0,0,1-3.1,1.6h0q4.8.9,4.8,5.1a5.3,5.3,0,0,1-1.9,4.5,8.1,8.1,0,0,1-5.4,1.6H21.9Zm2.5,9.2h4.1a7.2,7.2,0,0,0,3.8-.8,3.2,3.2,0,0,0,1.1-2.8,2.9,2.9,0,0,0-1.2-2.6,8.7,8.7,0,0,0-4.1-.8H24.4Zm0,2.1v8h4.5a6.3,6.3,0,0,0,3.9-1,3.9,3.9,0,0,0,1.3-3.1,3.5,3.5,0,0,0-1.4-3,7.2,7.2,0,0,0-4-.9Z"/><path d="M50.5,2.3a6.9,6.9,0,0,0-5.6,2.3,9.8,9.8,0,0,0-2,6.4c0,2.8.6,5,2,6.5s3.1,2.3,5.6,2.3a20.5,20.5,0,0,0,5.1-.8v2.2a17.3,17.3,0,0,1-5.5.8c-3.2,0-5.6-.9-7.3-2.8A12.2,12.2,0,0,1,40.2,11a12.1,12.1,0,0,1,1.3-5.8A9.2,9.2,0,0,1,45,1.4,11,11,0,0,1,50.5,0a12.2,12.2,0,0,1,5.9,1.3l-1,2.1A11.2,11.2,0,0,0,50.5,2.3Z"/><path d="M77.3,10.8c0,3.6-.9,6.3-2.9,8.1s-4.6,2.8-8.2,2.8h-6V.3h6.6a10.9,10.9,0,0,1,7.8,2.8C76.4,4.9,77.3,7.5,77.3,10.8Zm-2.6.1q0-4.2-2.1-6.3T66.3,2.5H62.7V19.6h3.1c2.9,0,5.2-.7,6.6-2.2A8.7,8.7,0,0,0,74.7,10.9Z"/><path d="M94,21.7H82.1V.3H94V2.5H84.6V9.4h8.8v2.2H84.6v7.9H94Z"/><path d="M101.2,21.7H98.8V.3h11.9V2.5h-9.5v7.9h8.9v2.2h-8.9Z"/><path d="M123.6,10.5h7.3V20.9a14,14,0,0,1-3.4.8,25.4,25.4,0,0,1-4.1.3c-3.2,0-5.8-.9-7.6-2.9s-2.7-4.6-2.7-8.1a12.1,12.1,0,0,1,1.4-5.8,8.2,8.2,0,0,1,3.8-3.8A12.5,12.5,0,0,1,124.2,0a15.3,15.3,0,0,1,6.4,1.3l-1,2.2a14.4,14.4,0,0,0-5.5-1.2c-2.7,0-4.7.7-6.2,2.3a9.1,9.1,0,0,0-2.1,6.4q0,4.4,2.1,6.6c1.4,1.5,3.4,2.2,6.2,2.2a15.4,15.4,0,0,0,4.3-.5V12.7h-4.8Z"/><path d="M152.3,21.7h-2.5v-10H138.5v10h-2.4V.3h2.4V9.4h11.3V.3h2.5Z"/><path d="M158.2,21.7V.3h2.5V21.7Z"/><path d="M163.4,27.4a6.7,6.7,0,0,1-2.2-.4V24.9l2.2.2a2.6,2.6,0,0,0,2.2-.8,4,4,0,0,0,.8-2.6V.3h2.5V21.5a5.8,5.8,0,0,1-1.5,4.3A4.8,4.8,0,0,1,163.4,27.4Z"/><path d="M190,21.7h-2.9l-7.8-10.3L177,13.3v8.4h-2.5V.3H177V10.9L186.7.3h3l-8.6,9.3Z"/><path d="M192.9,21.7V.3h2.5V19.5h9.5v2.2Z"/><path d="M218,21.7,210.7,2.8h-.1c.1,1.5.2,3.3.2,5.3V21.7h-2.3V.3h3.7L219,18h.1L226,.3h3.7V21.7h-2.5V7.9c0-1.5.1-3.3.2-5.1h-.1L220,21.7Z"/><path d="M252.3,21.7h-2.9L237.7,3.8h-.1c.2,2.1.2,4,.2,5.8V21.7h-2.3V.3h2.9L250,18.2h.1c0-.2,0-1.1-.1-2.5s-.1-2.5-.1-3.1V.3h2.4Z"/><path d="M276.7,11c0,3.4-.8,6.1-2.6,8.1a9.2,9.2,0,0,1-7.2,2.9c-3.2,0-5.6-.9-7.3-2.9S257,14.5,257,11s.9-6.2,2.6-8.1A9.4,9.4,0,0,1,266.9,0a9.2,9.2,0,0,1,7.2,2.9C275.9,4.9,276.7,7.6,276.7,11Zm-17,0q0,4.4,1.8,6.6a6.6,6.6,0,0,0,5.4,2.2,6.5,6.5,0,0,0,5.4-2.2q1.8-2.2,1.8-6.6c0-2.9-.6-5.1-1.8-6.5a6.5,6.5,0,0,0-5.4-2.3,6.8,6.8,0,0,0-5.4,2.3C260.3,6,259.7,8.1,259.7,11Z"/><path d="M295.1,6.6a6.1,6.1,0,0,1-2.3,5,10.3,10.3,0,0,1-6.3,1.7H284v8.4h-2.5V.3H287Q295.1.3,295.1,6.6ZM284,11.2h2.2a8.5,8.5,0,0,0,4.8-1.1,3.8,3.8,0,0,0,1.5-3.4,3.9,3.9,0,0,0-1.4-3.2,7.2,7.2,0,0,0-4.3-1H284Z"/><path d="M318.1,11a12.9,12.9,0,0,1-1.6,6.8,7.9,7.9,0,0,1-4.7,3.7l5.1,5.3h-3.6L309.1,22h-.8c-3.2,0-5.6-.9-7.3-2.9s-2.6-4.6-2.6-8.1.9-6.2,2.6-8.1A9.4,9.4,0,0,1,308.3,0a9.2,9.2,0,0,1,7.2,2.9A12.1,12.1,0,0,1,318.1,11Zm-17,0q0,4.4,1.8,6.6a6.5,6.5,0,0,0,5.4,2.2,6.6,6.6,0,0,0,5.4-2.2q1.8-2.2,1.8-6.6c0-2.9-.6-5.1-1.8-6.5a7.5,7.5,0,0,0-10.8,0C301.7,6,301.1,8.1,301.1,11Z"/><path d="M325.4,12.8v8.9h-2.5V.3h5.8c2.7,0,4.6.5,5.9,1.5a5.7,5.7,0,0,1,1.8,4.6c0,2.8-1.4,4.7-4.3,5.7l5.9,9.6h-3l-5.2-8.9Zm0-2.1h3.4a6.4,6.4,0,0,0,3.8-1,3.8,3.8,0,0,0,1.3-3.2,3.3,3.3,0,0,0-1.3-3,6.2,6.2,0,0,0-4-1h-3.2Z"/><path d="M353.5,16a5.1,5.1,0,0,1-2.1,4.4,8.4,8.4,0,0,1-5.5,1.6,13.3,13.3,0,0,1-5.9-1V18.6a14,14,0,0,0,2.9.9,15.5,15.5,0,0,0,3.1.3,6.3,6.3,0,0,0,3.7-.9,3.2,3.2,0,0,0,1.3-2.6,3,3,0,0,0-.5-1.8,4.1,4.1,0,0,0-1.5-1.4,18.6,18.6,0,0,0-3.2-1.3,9.8,9.8,0,0,1-4.2-2.6,5.2,5.2,0,0,1-1.3-3.8,4.7,4.7,0,0,1,1.9-3.9A7.4,7.4,0,0,1,347.1,0a13.7,13.7,0,0,1,5.8,1.2l-.7,2.2A12.5,12.5,0,0,0,347,2.3a4.9,4.9,0,0,0-3.1.8,3,3,0,0,0-1.1,2.4,3.4,3.4,0,0,0,.4,1.8,4.4,4.4,0,0,0,1.4,1.3,18.7,18.7,0,0,0,3,1.3,11.8,11.8,0,0,1,4.6,2.6A4.8,4.8,0,0,1,353.5,16Z"/><path d="M364.4,21.7H362V2.5h-6.8V.3h16V2.5h-6.8Z"/><path d="M390.6.3V14.2a7.4,7.4,0,0,1-2.2,5.7,8.5,8.5,0,0,1-6.1,2.1,8.1,8.1,0,0,1-6-2.1,7.8,7.8,0,0,1-2.1-5.8V.3h2.5v14a5.3,5.3,0,0,0,1.5,4.1c.9,1,2.4,1.4,4.3,1.4a5.3,5.3,0,0,0,4.1-1.4,5.4,5.4,0,0,0,1.5-4.1V.3Z"/><path d="M408.5.3h2.7l-7.8,21.4H401L393.3.3H396l4.9,13.9a46.1,46.1,0,0,1,1.3,4.6,41.9,41.9,0,0,1,1.4-4.7Z"/><path d="M432.8,21.7h-2.5L426,7.4,425.3,5c-.2-1-.4-1.5-.4-1.7a25.3,25.3,0,0,1-1,4.2l-4.2,14.2h-2.5L411.6.3h2.6l3.4,13.3c.4,1.8.8,3.5,1,5a33.7,33.7,0,0,1,1.2-5.3l3.8-13h2.6l4.1,13.2a49.7,49.7,0,0,1,1.1,5.1c.2-1.4.6-3.1,1.1-5.1L435.9.3h2.6Z"/><path d="M456.1,21.7h-2.8l-5.8-9.4-5.8,9.4H439l7.1-11.1L439.5.3h2.8l5.3,8.5L452.9.3h2.7L449,10.5Z"/><path d="M464.6,11,470.3.3H473l-7.1,13.1v8.3h-2.6V13.6L456.2.3h2.7Z"/><path d="M488.9,21.7H474.2V19.8L485.6,2.6H474.5V.3h14.1v2L477.2,19.5h11.7Z"/><path d="M12.7,65.7l-.8-2.2h-.1a7.1,7.1,0,0,1-2.4,2,8.7,8.7,0,0,1-3.1.5,5.1,5.1,0,0,1-3.7-1.3,5.3,5.3,0,0,1-1.3-3.9A4.3,4.3,0,0,1,3.1,57a10.7,10.7,0,0,1,5.5-1.4h2.8v-.7a2.2,2.2,0,0,0-2.5-2.5,11.2,11.2,0,0,0-4.6,1.2l-1.5-3A13.2,13.2,0,0,1,9,49a7.8,7.8,0,0,1,5.1,1.5,5.1,5.1,0,0,1,1.8,4.3V65.7Zm-1.3-7.5H9.7a5.4,5.4,0,0,0-2.9.7,2.3,2.3,0,0,0-1,2c0,1.2.8,1.9,2.2,1.9a3.5,3.5,0,0,0,2.5-.9,3.2,3.2,0,0,0,.9-2.4Z"/><path d="M29.5,49.1a5.3,5.3,0,0,1,4.6,2.2,10.4,10.4,0,0,1,1.6,6.2c0,2.7-.5,4.8-1.7,6.3A5.3,5.3,0,0,1,29.4,66a5.4,5.4,0,0,1-4.5-2.1h-.3l-.7,1.8H20.4V43h4.5v5.3a22.8,22.8,0,0,1-.2,3.2h.2A5.2,5.2,0,0,1,29.5,49.1Zm-1.4,3.5a2.8,2.8,0,0,0-2.4,1.1,5.5,5.5,0,0,0-.8,3.3v.5a7.2,7.2,0,0,0,.8,3.8,2.8,2.8,0,0,0,2.5,1.1,2.5,2.5,0,0,0,2.2-1.3,6.9,6.9,0,0,0,.8-3.6,7.3,7.3,0,0,0-.8-3.7A2.7,2.7,0,0,0,28.1,52.6Z"/><path d="M46.1,66c-5.1,0-7.7-2.8-7.7-8.4,0-2.7.7-4.9,2.1-6.3a7.8,7.8,0,0,1,6-2.2,10.5,10.5,0,0,1,5,1.1l-1.3,3.4-1.9-.7-1.8-.2c-2.4,0-3.5,1.6-3.5,4.9s1.1,4.8,3.5,4.8a8.5,8.5,0,0,0,2.3-.3A9.1,9.1,0,0,0,51,61v3.8a6.2,6.2,0,0,1-2.2,1Z"/><path d="M60,66a5.2,5.2,0,0,1-4.5-2.2,10.4,10.4,0,0,1-1.7-6.2,10.5,10.5,0,0,1,1.7-6.3,5.4,5.4,0,0,1,4.6-2.2,5.2,5.2,0,0,1,4.7,2.4H65a22.6,22.6,0,0,1-.4-3.3V43h4.5V65.7H65.7l-.9-2.1h-.2A5,5,0,0,1,60,66Zm1.6-3.5a3.2,3.2,0,0,0,2.5-1,6.6,6.6,0,0,0,.9-3.4v-.5a6.4,6.4,0,0,0-.9-3.8,3,3,0,0,0-2.6-1.1A2.5,2.5,0,0,0,59.2,54a6,6,0,0,0-.8,3.6,6.2,6.2,0,0,0,.8,3.7A2.6,2.6,0,0,0,61.6,62.5Z"/><path d="M81.2,66A8.4,8.4,0,0,1,75,63.8a8,8,0,0,1-2.2-6.1,9,9,0,0,1,2.1-6.4,7,7,0,0,1,5.6-2.2c2.4,0,4.2.6,5.4,1.9a7.7,7.7,0,0,1,2,5.5v2.2H77.3a4.5,4.5,0,0,0,1.1,2.9,4.1,4.1,0,0,0,3,1.1,12.7,12.7,0,0,0,2.8-.3,11.9,11.9,0,0,0,2.8-1v3.5a7.9,7.9,0,0,1-2.6.8A13.9,13.9,0,0,1,81.2,66Zm-.6-13.8a3,3,0,0,0-2.3.9,4.7,4.7,0,0,0-.9,2.6h6.3a3.6,3.6,0,0,0-.9-2.6A2.8,2.8,0,0,0,80.6,52.2Z"/><path d="M100.5,52.7H96.7v13H92.2v-13H89.8V50.6l2.4-1.2V48.2a5.3,5.3,0,0,1,1.4-4.1c.9-.9,2.4-1.3,4.4-1.3a10.7,10.7,0,0,1,4.1.7L101,46.8a8.5,8.5,0,0,0-2.5-.5,1.6,1.6,0,0,0-1.4.6,2.3,2.3,0,0,0-.4,1.4v1.1h3.8Z"/><path d="M117.3,49.4v2.2l-2.5.7a4.1,4.1,0,0,1,.7,2.5,5.1,5.1,0,0,1-1.8,4.1,8.8,8.8,0,0,1-5.1,1.4h-1.5a1.5,1.5,0,0,0-.7,1.2c0,.6.8,1,2.5,1h2.7a6.1,6.1,0,0,1,4.1,1.1,4.1,4.1,0,0,1,1.5,3.4,5.2,5.2,0,0,1-2.4,4.5,13.1,13.1,0,0,1-6.9,1.5,9.3,9.3,0,0,1-5.2-1.2,3.8,3.8,0,0,1-1.8-3.3,3.7,3.7,0,0,1,.9-2.5,5.7,5.7,0,0,1,2.7-1.4,2.3,2.3,0,0,1-1.2-1,1.9,1.9,0,0,1-.5-1.4,2.5,2.5,0,0,1,.5-1.5,7.4,7.4,0,0,1,1.6-1.2,4.6,4.6,0,0,1-2.1-1.8,5.7,5.7,0,0,1-.7-2.9,5.4,5.4,0,0,1,1.7-4.2,8,8,0,0,1,5-1.4h1.6l1.2.2ZM104.7,68a1.6,1.6,0,0,0,.9,1.5,5.5,5.5,0,0,0,2.5.5,9.2,9.2,0,0,0,3.7-.6c1-.5,1.4-1.1,1.4-1.8a1.3,1.3,0,0,0-.8-1.3,7.2,7.2,0,0,0-2.5-.4h-2.3a3.7,3.7,0,0,0-2.1.6A1.9,1.9,0,0,0,104.7,68Zm1.6-13.3a2.8,2.8,0,0,0,.7,2.1,1.9,1.9,0,0,0,1.8.8,1.9,1.9,0,0,0,1.8-.8,3.3,3.3,0,0,0,.6-2.1c0-1.9-.8-2.9-2.4-2.9S106.3,52.8,106.3,54.7Z"/><path d="M135.1,65.7h-4.4V56.2q0-3.6-2.7-3.6a3.2,3.2,0,0,0-2.7,1.3,8.4,8.4,0,0,0-.8,4.1v7.7H120V43h4.5v4.6c0,.4,0,1.2-.1,2.5v1.4h.2a5.2,5.2,0,0,1,4.8-2.4,6,6,0,0,1,4.4,1.5,6.5,6.5,0,0,1,1.4,4.5Z"/><path d="M139.6,45.1q0-2.1,2.4-2.1t2.4,2.1a2.4,2.4,0,0,1-.6,1.7,3,3,0,0,1-1.8.5C140.4,47.3,139.6,46.6,139.6,45.1Zm4.6,20.6h-4.5V49.4h4.5Z"/><path d="M147.6,72.9a12.6,12.6,0,0,1-3-.3V69.1l2.1.2a2.2,2.2,0,0,0,1.7-.6,3.1,3.1,0,0,0,.5-1.9V49.4h4.5V67.5a4.9,4.9,0,0,1-1.6,4A5.6,5.6,0,0,1,147.6,72.9Zm1.1-27.8q0-2.1,2.4-2.1c1.6,0,2.5.7,2.5,2.1a2.4,2.4,0,0,1-.6,1.7,3.6,3.6,0,0,1-1.9.5C149.5,47.3,148.7,46.6,148.7,45.1Z"/><path d="M162.3,56.8l2-2.5,4.6-4.9h5l-6.5,7.1,6.9,9.2h-5.2l-4.7-6.6-1.9,1.5v5.1H158V43h4.5V53.1l-.2,3.7Z"/><path d="M181.1,65.7h-4.5V43h4.5Z"/><path d="M200.4,65.7H196V56.2a4.9,4.9,0,0,0-.6-2.7,2.2,2.2,0,0,0-1.9-.9,2.9,2.9,0,0,0-2.5,1.3,8.2,8.2,0,0,0-.8,4.1v7.7h-4.4V49.4h3.4l.6,2.1h.2a4.7,4.7,0,0,1,1.9-1.8,6.8,6.8,0,0,1,2.9-.6c2.4,0,4.1.8,5,2.4h.4a3.7,3.7,0,0,1,1.9-1.8,6.8,6.8,0,0,1,2.9-.6,5.6,5.6,0,0,1,4.2,1.4,6.5,6.5,0,0,1,1.4,4.6V65.7h-4.5V56.2a6.2,6.2,0,0,0-.5-2.7,2.2,2.2,0,0,0-1.9-.9,2.9,2.9,0,0,0-2.5,1.2,7,7,0,0,0-.8,3.7Z"/><path d="M230.3,65.7h-4.5V56.2a4.9,4.9,0,0,0-.6-2.7,2.3,2.3,0,0,0-2-.9,3.2,3.2,0,0,0-2.7,1.3c-.6.8-.8,2.2-.8,4.1v7.7h-4.5V49.4h3.4l.6,2.1h.3a4.4,4.4,0,0,1,2-1.8,7.3,7.3,0,0,1,3-.6,5.8,5.8,0,0,1,4.3,1.5,6.1,6.1,0,0,1,1.5,4.5Z"/><path d="M249.8,57.5a8.9,8.9,0,0,1-2.1,6.3,7.7,7.7,0,0,1-5.9,2.2,8.2,8.2,0,0,1-4.2-1,6.6,6.6,0,0,1-2.7-3,9.3,9.3,0,0,1-1-4.5,8.8,8.8,0,0,1,2.1-6.2,7.7,7.7,0,0,1,5.9-2.2,7.8,7.8,0,0,1,4.1,1,7.1,7.1,0,0,1,2.8,2.9A9.3,9.3,0,0,1,249.8,57.5Zm-11.3,0a6.4,6.4,0,0,0,.8,3.7,2.9,2.9,0,0,0,2.6,1.2,2.8,2.8,0,0,0,2.5-1.2,7,7,0,0,0,.8-3.7,6.9,6.9,0,0,0-.8-3.6,2.9,2.9,0,0,0-2.6-1.2,3,3,0,0,0-2.6,1.2A7,7,0,0,0,238.5,57.5Z"/><path d="M262.4,66a5.4,5.4,0,0,1-4.5-2.1h-.2c.1,1.4.2,2.2.2,2.4v6.6h-4.4V49.4h3.6l.6,2.1h.2a5.8,5.8,0,0,1,9.2-.2,10.4,10.4,0,0,1,1.6,6.2,12.7,12.7,0,0,1-.7,4.6,6.6,6.6,0,0,1-2.2,2.9A5.7,5.7,0,0,1,262.4,66Zm-1.3-13.4a2.8,2.8,0,0,0-2.4,1.1,5.5,5.5,0,0,0-.8,3.3v.5a7.2,7.2,0,0,0,.8,3.8,3,3,0,0,0,2.5,1.1c2,0,3-1.6,3-4.9a8.7,8.7,0,0,0-.7-3.7A2.6,2.6,0,0,0,261.1,52.6Z"/><path d="M277.6,66a5.2,5.2,0,0,1-4.5-2.2,10.4,10.4,0,0,1-1.7-6.2,10.5,10.5,0,0,1,1.7-6.3,5.4,5.4,0,0,1,4.6-2.2,7.6,7.6,0,0,1,2.7.5,4.6,4.6,0,0,1,2,1.9h.2l.4-2.1h3.7V72.9h-4.5V66.1c0-.6.1-1.4.2-2.5h-.2a4.1,4.1,0,0,1-1.9,1.8A5.7,5.7,0,0,1,277.6,66Zm1.6-3.5a3.2,3.2,0,0,0,2.5-.9,6.6,6.6,0,0,0,.9-3.4v-.6a6.4,6.4,0,0,0-.9-3.8,3,3,0,0,0-2.6-1.1c-2.1,0-3.1,1.6-3.1,4.9a6.2,6.2,0,0,0,.8,3.7A2.6,2.6,0,0,0,279.2,62.5Z"/><path d="M300.5,49.1H302l-.3,4.2-1.3-.2a4.7,4.7,0,0,0-3.3,1.1,4.1,4.1,0,0,0-1.2,3.1v8.3h-4.5V49.4h3.4l.6,2.7h.3a6,6,0,0,1,2-2.2A4.8,4.8,0,0,1,300.5,49.1Z"/><path d="M316.4,60.9a4.6,4.6,0,0,1-1.7,3.8c-1.2.9-2.9,1.3-5.3,1.3l-3-.2-2.4-.7V61.4l2.8,1a17,17,0,0,0,2.8.4c1.6,0,2.4-.5,2.4-1.4a1.2,1.2,0,0,0-.3-.9,3.5,3.5,0,0,0-1.1-.7l-2.1-1a10,10,0,0,1-2.8-1.5,3.7,3.7,0,0,1-1.3-1.5,4.8,4.8,0,0,1-.4-2.2,3.9,3.9,0,0,1,1.7-3.3,8.1,8.1,0,0,1,4.8-1.2,12.5,12.5,0,0,1,5.7,1.3l-1.3,3.2-2.3-.9a7.8,7.8,0,0,0-2.2-.3c-1.3,0-2,.3-2,1a1.5,1.5,0,0,0,.7,1.1,15.4,15.4,0,0,0,2.8,1.3,14.3,14.3,0,0,1,2.8,1.4,4.8,4.8,0,0,1,1.3,1.6A4.6,4.6,0,0,1,316.4,60.9Z"/><path d="M326.8,62.5a11.1,11.1,0,0,0,2.8-.5v3.3a10,10,0,0,1-4.1.7c-1.8,0-3.1-.4-3.9-1.3a6.1,6.1,0,0,1-1.2-4.1V52.7h-2.1V50.8l2.4-1.5,1.3-3.4h2.9v3.5h4.5v3.3h-4.5v7.9a1.6,1.6,0,0,0,.5,1.4A2,2,0,0,0,326.8,62.5Z"/><path d="M344.5,65.7l-.6-2.1h-.2a4.6,4.6,0,0,1-2.1,1.8,6.7,6.7,0,0,1-3,.6,5.8,5.8,0,0,1-4.3-1.5,6.1,6.1,0,0,1-1.5-4.5V49.4h4.5v9.5a4.9,4.9,0,0,0,.6,2.7,2.3,2.3,0,0,0,2,.9,2.8,2.8,0,0,0,2.7-1.3,7.1,7.1,0,0,0,.9-4.1V49.4h4.4V65.7Z"/><path d="M356.5,65.7l-6.2-16.3h4.6l3.2,9.3a15.1,15.1,0,0,1,.7,3.3h.1a11.6,11.6,0,0,1,.6-3.3l3.2-9.3h4.6l-6.2,16.3Z"/><path d="M383.1,65.7,381.9,60l-1.7-7.2h-.1l-3,12.9h-4.8l-4.7-16.3h4.5l1.9,7.2q.5,1.9.9,5.4h.1a22,22,0,0,1,.5-3.5l.2-1.3,2-7.8h5l1.9,7.8a8.4,8.4,0,0,0,.2,1,6.9,6.9,0,0,0,.2,1.3c.1.5.1.9.2,1.4a4.9,4.9,0,0,1,.1,1.1h.1a25.3,25.3,0,0,1,.5-2.9c.2-1.2.4-2.1.5-2.5l1.9-7.2h4.4L388,65.7Z"/><path d="M398.7,57.4l-5.3-8h5.1l3.1,5.2,3.3-5.2h5l-5.3,8,5.6,8.3h-5.1l-3.5-5.6-3.4,5.6h-5.1Z"/><path d="M410.3,49.4h4.9l3.1,9.2a10.8,10.8,0,0,1,.5,2.8h.1a12.7,12.7,0,0,1,.6-2.8l3.1-9.2h4.8l-7,18.4a8.1,8.1,0,0,1-2.7,3.9,7.1,7.1,0,0,1-4.1,1.2,9,9,0,0,1-2.3-.2V69.1a5.5,5.5,0,0,0,1.8.2,3.1,3.1,0,0,0,2.1-.7,4.3,4.3,0,0,0,1.3-2.2l.3-.8Z"/><path d="M441.1,65.7H428.2V63.1l7.6-10.3h-7.2V49.4h12.2v2.9l-7.3,10h7.6Z"/><path d="M10.5,109.7H8.1V94.5c0-1.3,0-2.5.1-3.6l-.7.6A43.6,43.6,0,0,1,4,94.4L2.8,92.7l5.6-4.4h2.1Z"/><path d="M32.7,109.7H18.6v-2.1l5.6-5.6a37.1,37.1,0,0,0,3.4-3.7,10.5,10.5,0,0,0,1.3-2.2,8.5,8.5,0,0,0,.4-2.3,3.7,3.7,0,0,0-1.1-2.7,3.8,3.8,0,0,0-2.9-1,10.9,10.9,0,0,0-2.5.4,10.8,10.8,0,0,0-2.6,1.6l-1.3-1.6A9.6,9.6,0,0,1,25.3,88,6.4,6.4,0,0,1,30,89.6a5.1,5.1,0,0,1,1.8,4.1,7.5,7.5,0,0,1-1.2,4,21.3,21.3,0,0,1-4.3,5.1l-4.6,4.6h11Z"/><path d="M49,93.4a5,5,0,0,1-1.1,3.3,5.9,5.9,0,0,1-3.3,1.8h0a5.8,5.8,0,0,1,3.8,1.6,5.2,5.2,0,0,1,1.3,3.5,5.5,5.5,0,0,1-2.2,4.7c-1.4,1.1-3.4,1.6-6,1.6l-3.1-.2a12.2,12.2,0,0,1-2.7-.9v-2.3a14.2,14.2,0,0,0,2.9,1,17.7,17.7,0,0,0,3,.4c3.7,0,5.5-1.5,5.5-4.4s-2-3.9-6.1-3.9H38.9V97.6h2.2A6,6,0,0,0,45,96.5a3.4,3.4,0,0,0,1.5-3A3.1,3.1,0,0,0,45.4,91a4.4,4.4,0,0,0-2.9-.9,8.4,8.4,0,0,0-2.7.4A10.4,10.4,0,0,0,37,91.9l-1.2-1.6a9.8,9.8,0,0,1,3-1.7,11.3,11.3,0,0,1,3.6-.6,7.4,7.4,0,0,1,4.9,1.5A4.8,4.8,0,0,1,49,93.4Z"/><path d="M68,104.8H64.8v4.9H62.5v-4.9H52v-2.1L62.2,88.2h2.6v14.4H68Zm-5.5-2.2V95.5c0-1.4,0-3,.1-4.7h-.1c-.5.9-.9,1.7-1.3,2.3l-6.7,9.5Z"/><path d="M76.7,96.7A7.8,7.8,0,0,1,82,98.3a6,6,0,0,1,2,4.6,6.6,6.6,0,0,1-2.1,5.2A8.5,8.5,0,0,1,76,110a11.6,11.6,0,0,1-5.5-1.1v-2.4a8.2,8.2,0,0,0,2.5,1.1l3,.3a6.3,6.3,0,0,0,4.1-1.2,4.5,4.5,0,0,0,1.4-3.5c0-3-1.9-4.5-5.5-4.5a21.1,21.1,0,0,0-3.7.5L71,98.3l.8-10H82.5v2.3H73.9L73.4,97A18.4,18.4,0,0,1,76.7,96.7Z"/><path d="M87.4,100.6c0-4.2.8-7.4,2.5-9.4A8.5,8.5,0,0,1,97.1,88a8.8,8.8,0,0,1,2.6.3v2.1a9.5,9.5,0,0,0-2.6-.4,6.2,6.2,0,0,0-5.2,2.2c-1.2,1.4-1.9,3.7-2,6.7h.2c1-1.7,2.7-2.5,5.1-2.5a6.1,6.1,0,0,1,4.5,1.7,6.9,6.9,0,0,1,1.7,4.8,6.9,6.9,0,0,1-1.9,5.2,6.3,6.3,0,0,1-4.9,1.9,6,6,0,0,1-5.2-2.5A10.7,10.7,0,0,1,87.4,100.6Zm7.2,7.4a4.1,4.1,0,0,0,3.2-1.3,5.6,5.6,0,0,0,1.2-3.8,5.1,5.1,0,0,0-1.1-3.4,4.1,4.1,0,0,0-3.2-1.2,4.8,4.8,0,0,0-2.4.6,4.3,4.3,0,0,0-1.8,1.5,3.3,3.3,0,0,0-.6,1.9,6.4,6.4,0,0,0,.6,2.8,4.9,4.9,0,0,0,1.6,2.1A4.6,4.6,0,0,0,94.6,108Z"/><path d="M107,109.7l8.9-19.1H104.2V88.3h14.2v2l-8.7,19.4Z"/><path d="M128.5,88a7.5,7.5,0,0,1,4.7,1.4,4.7,4.7,0,0,1,1.7,3.8,4.8,4.8,0,0,1-1,2.8,8.8,8.8,0,0,1-3.1,2.4,11.3,11.3,0,0,1,3.7,2.6,5.2,5.2,0,0,1,1.1,3.2,5.2,5.2,0,0,1-1.9,4.2,7.3,7.3,0,0,1-5.1,1.6,8.4,8.4,0,0,1-5.3-1.5,5.2,5.2,0,0,1-1.8-4.2q0-3.7,4.5-5.7a8.2,8.2,0,0,1-2.9-2.5,5.3,5.3,0,0,1-.9-3,4.7,4.7,0,0,1,1.7-3.7A7.4,7.4,0,0,1,128.5,88Zm-4.6,16.3a3.5,3.5,0,0,0,1.2,2.8,5.7,5.7,0,0,0,3.4,1,5,5,0,0,0,3.4-1.1,3.3,3.3,0,0,0,1.3-2.8,3.3,3.3,0,0,0-1.2-2.5,11.8,11.8,0,0,0-4-2.2,10.3,10.3,0,0,0-3.1,2.1A3.9,3.9,0,0,0,123.9,104.3ZM128.5,90a4.4,4.4,0,0,0-2.9.9,2.8,2.8,0,0,0-1,2.3,3.6,3.6,0,0,0,.8,2.3,9.8,9.8,0,0,0,3.2,2,8.2,8.2,0,0,0,3-1.9,3.6,3.6,0,0,0,.9-2.4,2.8,2.8,0,0,0-1.1-2.3A4.4,4.4,0,0,0,128.5,90Z"/><path d="M152.6,97.5c0,8.3-3.2,12.5-9.7,12.5a10.1,10.1,0,0,1-2.7-.3v-2.1a7.7,7.7,0,0,0,2.7.4,6.4,6.4,0,0,0,5.3-2.2c1.2-1.4,1.8-3.6,1.9-6.6H150a5.5,5.5,0,0,1-2.2,1.8,6,6,0,0,1-3,.7,6.1,6.1,0,0,1-4.5-1.7,6.6,6.6,0,0,1-1.6-4.8,7.1,7.1,0,0,1,1.8-5.2,6.6,6.6,0,0,1,4.9-2,6.6,6.6,0,0,1,3.8,1.1,7.8,7.8,0,0,1,2.6,3.3A15.2,15.2,0,0,1,152.6,97.5Zm-7.2-7.4a4,4,0,0,0-3.2,1.4,5.3,5.3,0,0,0-1.1,3.7,4.8,4.8,0,0,0,1,3.3,4.1,4.1,0,0,0,3.2,1.2,7,7,0,0,0,2.5-.5,5,5,0,0,0,1.7-1.5,3.1,3.1,0,0,0,.7-2,6.7,6.7,0,0,0-.6-2.8,4.8,4.8,0,0,0-1.7-2A4.1,4.1,0,0,0,145.4,90.1Z"/><path d="M169.9,99c0,3.7-.6,6.5-1.8,8.3a5.8,5.8,0,0,1-5.3,2.7,5.9,5.9,0,0,1-5.3-2.8c-1.2-1.8-1.8-4.6-1.8-8.2s.6-6.5,1.8-8.3a5.8,5.8,0,0,1,5.3-2.7,5.9,5.9,0,0,1,5.3,2.8C169.3,92.7,169.9,95.4,169.9,99Zm-11.7,0a16.1,16.1,0,0,0,1.1,6.8,4,4,0,0,0,7,0,16.5,16.5,0,0,0,1.1-6.8,15.6,15.6,0,0,0-1.1-6.7,3.6,3.6,0,0,0-3.5-2.2,3.6,3.6,0,0,0-3.5,2.1A16.1,16.1,0,0,0,158.2,99Z"/></g></g></svg>