<svg id="Layer_1" data-name="Layer 1" xmlns="http://www.w3.org/2000/svg" width="470.3" height="328.6" viewBox="0 0 470.3 328.6"><title>quebec-nordiques-logo</title><path d="M460.3,208V318.6H277.5v-12a42.4,42.4,0,0,0-84.7,0v12H10V208C10,89.1,101.1,10,192,10h86.3C369.2,10,460.3,89.1,460.3,208Z" fill="#196fb0"/><path d="M414.6,76.8l-1,1.2C395,100.8,388.8,89.9,366,96.5s-22.5,11.5-37.4,14,1.8-11.2-5.8-13.3-46.7,13.6-77.2,30.3c15.3-21.3,39-30.8,55.5-42.3s36.6-18.2,35-2.8c-1.1,11,43.1-15.1,55.8-28.8A191.7,191.7,0,0,1,414.6,76.8Z" fill="#fff"/><path d="M350.4,26.6c-7.7,10.2-21.1,25.8-33.3,28.3s-47.8-3.9-39.8,7.5-23.5,20.9-31.4,49.1c-3.1-26.8,22.4-46.3,10.3-55-20.5-14.7,34.9-10.1,42.6-19.7,4.2-5.3,8.8-15.4,12.2-23.4A170.7,170.7,0,0,1,350.4,26.6Z" fill="#fff"/><path d="M228.3,130.2c1.9-33.7-5.4-51.3-20.3-61.6s-64.7-15.4-41-23.8c17.9-6.3-19.8-16.9-39.4-21.6A171.7,171.7,0,0,1,176,10.8h0c17.3,12.8,60.5,25,32.8,28.3-26.1,3,10.5,10.3,19.1,22.2S240.2,108.4,228.3,130.2Z" fill="#fff"/><path d="M224.1,134.8s-29.8-37.5-33-25.2c-5.3,20.6-57.4-29-64.3-10-4.8,13.1-54.9,1.2-84.6-4.4A190.4,190.4,0,0,1,68.3,63c17.5,9.5,55.8,28.2,54.7,10.2-1.6-23.4,68.5,44.8,63.2,20.6S216.8,112.2,224.1,134.8Z" fill="#fff"/><path d="M460.3,208V318.6H277.5v-12a42.4,42.4,0,0,0-84.7,0v12H10V208c0-43.6,12.2-81.8,32.2-112.8A190.4,190.4,0,0,1,68.3,63a184.8,184.8,0,0,1,59.3-39.8h0A171.7,171.7,0,0,1,176,10.8h0c5.3-.5,10.6-.8,16-.8h86.3A156.5,156.5,0,0,1,311,13.4a170.7,170.7,0,0,1,39.4,13.2,187.1,187.1,0,0,1,64.2,50.2C442.4,110.4,460.3,155.3,460.3,208Z" fill="none"/><path d="M460.3,208V318.6H277.5v-12a42.4,42.4,0,0,0-84.7,0v12H10V208c0-43.6,12.2-81.8,32.2-112.8A190.4,190.4,0,0,1,68.3,63a184.8,184.8,0,0,1,59.3-39.8h0A171.7,171.7,0,0,1,176,10.8h0c5.3-.5,10.6-.8,16-.8h86.3A156.5,156.5,0,0,1,311,13.4a170.7,170.7,0,0,1,39.4,13.2,187.1,187.1,0,0,1,64.2,50.2C442.4,110.4,460.3,155.3,460.3,208Z" fill="none"/><circle cx="150.9" cy="164.3" r="34" fill="#fff"/><path d="M460.3,208V318.6H277.5v-12a42.4,42.4,0,0,0-84.7,0v12H10V208c0-7.2.3.1,1-6.8l70.6-46.8,62.6,32.5,112.5-59.4L329,173.4,382.4,155l73.4,22.7C458.7,191.8,460.3,192.4,460.3,208Z" fill="#c8132e"/><path d="M460.3,198.9V318.6H277.5v-12a42.4,42.4,0,0,0-84.7,0v12H10V222.4a573.7,573.7,0,0,1,112-10.6c72.9.3,104.9,14.5,173.7,14.4C336.4,226.1,392.4,221.1,460.3,198.9Z" fill="#fff"/><path d="M278.3,26c41.2,0,82.6,18.1,113.7,49.6A178.5,178.5,0,0,1,429.8,133a195,195,0,0,1,14.5,75v94.6h-151a58.3,58.3,0,0,0-116.3,0H26V208a196.8,196.8,0,0,1,14.4-75A180.5,180.5,0,0,1,78.3,75.6C109.4,44.1,150.8,26,192,26h86.3m0-16H192C101.1,10,10,89.1,10,208V318.6H192.8v-12a42.4,42.4,0,0,1,84.7,0v12H460.3V208c0-118.9-91.1-198-182-198Z" fill="#c8132e"/><path d="M278.3,10c90.9,0,182,79.1,182,198V318.6H277.5v-12a42.4,42.4,0,0,0-84.7,0v12H10V208C10,89.1,101.1,10,192,10h86.3m0-10H192C143.9,0,95.7,20.9,59.8,57.4a202.3,202.3,0,0,0-43.4,65.7A221,221,0,0,0,0,208V328.6H202.8v-22a32.4,32.4,0,0,1,64.7,0v22H470.3V208a221,221,0,0,0-16.4-84.9,202.3,202.3,0,0,0-43.4-65.7C374.6,20.9,326.4,0,278.3,0Z" fill="#fff"/><path d="M278.3,10c90.9,0,182,79.1,182,198V318.6H277.5v-12a42.4,42.4,0,0,0-84.7,0v12H10V208C10,89.1,101.1,10,192,10h86.3m0-5H192C145.2,5,98.3,25.4,63.3,60.9A199.4,199.4,0,0,0,21,125,217.2,217.2,0,0,0,5,208V323.6H197.8v-17a37.4,37.4,0,0,1,74.7,0v17H465.3V208a217.2,217.2,0,0,0-16-83A199.4,199.4,0,0,0,407,60.9C372,25.4,325.1,5,278.3,5Z" fill="#196fb0"/><polygon points="307.9 153.2 315.9 170.2 323.9 187.2 307.9 187.2 291.9 187.2 299.9 170.2 307.9 153.2" fill="#fff"/><polygon points="307.9 168.1 317.2 187.8 326.5 207.6 307.9 207.6 289.3 207.6 298.6 187.8 307.9 168.1" fill="#fff"/><polygon points="307.9 187.8 318.4 210.2 328.9 232.6 307.9 232.6 286.9 232.6 297.4 210.2 307.9 187.8" fill="#fff"/><polygon points="353.9 141.3 363 160.9 372.2 180.4 353.9 180.4 335.5 180.4 344.7 160.9 353.9 141.3" fill="#fff"/><polyline points="372.2 197.4 375.2 203.9 353.9 203.9 332.5 203.9 343.2 181.1 353.9 158.4 364.5 181.1 372.2 197.4" fill="#fff"/><polygon points="353.9 181.1 365.9 206.9 378 232.6 353.9 232.6 329.7 232.6 341.8 206.9 353.9 181.1" fill="#fff"/><polygon points="402.2 134.8 411.4 154.4 420.6 173.9 402.2 173.9 383.8 173.9 393 154.4 402.2 134.8" fill="#fff"/><polygon points="402.2 151.9 412.9 174.6 423.6 197.3 402.2 197.3 380.8 197.3 391.5 174.6 402.2 151.9" fill="#fff"/><polygon points="402.2 174.6 414.3 200.3 426.4 226.1 402.2 226.1 378 226.1 390.1 200.3 402.2 174.6" fill="#fff"/></svg>