<svg id="Layer_1" data-name="Layer 1" xmlns="http://www.w3.org/2000/svg" viewBox="0 0 519.02 114.05"><title>font-raleway</title><path d="M8.9.15h1.77l8.84,21.28H17.29l-2.75-6.65H5L2.25,21.43H0Zm5.16,13L9.77,2.61,5.43,13.13Z"/><path d="M38.58,16a5,5,0,0,1-.48,2.2,5.56,5.56,0,0,1-1.29,1.74A5.82,5.82,0,0,1,34.92,21a6.52,6.52,0,0,1-2.31.4h-10V.15H32.82a4.2,4.2,0,0,1,2,.48,5,5,0,0,1,1.53,1.24,5.69,5.69,0,0,1,1,1.74,5.89,5.89,0,0,1,.35,2,5.59,5.59,0,0,1-.81,2.95,5,5,0,0,1-2.25,2,5.31,5.31,0,0,1,2.89,2A5.68,5.68,0,0,1,38.58,16ZM24.67,2V9.83H32a3.29,3.29,0,0,0,1.46-.33,3.68,3.68,0,0,0,1.15-.87,4,4,0,0,0,.75-1.24,4.13,4.13,0,0,0,.27-1.48,4.55,4.55,0,0,0-.26-1.53,3.76,3.76,0,0,0-.72-1.25,3.58,3.58,0,0,0-1.09-.84A3,3,0,0,0,32.16,2ZM36.48,15.59a4.39,4.39,0,0,0-.27-1.52,4,4,0,0,0-1.94-2.19,3.22,3.22,0,0,0-1.45-.34H24.67V19.6h7.94a3.48,3.48,0,0,0,1.51-.33,4,4,0,0,0,1.23-.88,4.14,4.14,0,0,0,.83-1.29A4,4,0,0,0,36.48,15.59Z"/><path d="M41.12,10.64a11.36,11.36,0,0,1,.68-3.82,10.57,10.57,0,0,1,2-3.4A10.1,10.1,0,0,1,46.94,1,9.46,9.46,0,0,1,51.23,0,8.89,8.89,0,0,1,56.1,1.32a7.9,7.9,0,0,1,3,3.36l-1.65,1a6.5,6.5,0,0,0-1.24-1.77,7,7,0,0,0-1.58-1.17,6.67,6.67,0,0,0-1.74-.65,8.33,8.33,0,0,0-1.77-.19,7.11,7.11,0,0,0-3.38.78,7.68,7.68,0,0,0-2.47,2,8.89,8.89,0,0,0-1.52,2.83,10.28,10.28,0,0,0-.51,3.19,9.48,9.48,0,0,0,.62,3.39A9.78,9.78,0,0,0,45.51,17,8.08,8.08,0,0,0,48,19a6.92,6.92,0,0,0,3.16.73A8,8,0,0,0,53,19.5a7.11,7.11,0,0,0,1.83-.72,7.67,7.67,0,0,0,1.63-1.23,6.34,6.34,0,0,0,1.26-1.78l1.74.9a6.49,6.49,0,0,1-1.44,2.11A9.45,9.45,0,0,1,56,20.32a10.28,10.28,0,0,1-2.41,1,10,10,0,0,1-2.5.33,8.52,8.52,0,0,1-4-1,10.53,10.53,0,0,1-3.15-2.5,11.61,11.61,0,0,1-2-3.51A11.33,11.33,0,0,1,41.12,10.64Z"/><path d="M63.09,21.43V.15h7.23A10.94,10.94,0,0,1,74.77,1,9.06,9.06,0,0,1,78,3.27a9.57,9.57,0,0,1,1.91,3.37,12.93,12.93,0,0,1,.65,4.12,12.67,12.67,0,0,1-.72,4.39,9.67,9.67,0,0,1-2.05,3.36,9.18,9.18,0,0,1-3.21,2.16,11,11,0,0,1-4.21.76ZM78.41,10.76a11,11,0,0,0-.54-3.52A7.93,7.93,0,0,0,76.3,4.47a7.08,7.08,0,0,0-2.54-1.82A8.58,8.58,0,0,0,70.32,2H65.19V19.57h5.13a8.49,8.49,0,0,0,3.49-.67A7.09,7.09,0,0,0,76.34,17a8.08,8.08,0,0,0,1.55-2.79A11.15,11.15,0,0,0,78.41,10.76Z"/><path d="M98.82,19.57v1.86H84.53V.15h14V2H86.62V9.68H97v1.77H86.62v8.12Z"/><path d="M102.78,21.43V.15h14V2H104.88V9.83h10v1.74h-10v9.86Z"/><path d="M135.33,18.31a9,9,0,0,1-6.83,3.27,8.54,8.54,0,0,1-4-.93,10.49,10.49,0,0,1-3.15-2.46,11.47,11.47,0,0,1-2.09-3.46,10.87,10.87,0,0,1-.74-4,11.47,11.47,0,0,1,.73-4.08,11,11,0,0,1,2-3.43A10.09,10.09,0,0,1,124.45.88,8.92,8.92,0,0,1,128.38,0a11.34,11.34,0,0,1,2.84.34,8.69,8.69,0,0,1,2.3,1,7.3,7.3,0,0,1,1.74,1.47,9.14,9.14,0,0,1,1.24,1.88l-1.62,1.08a6.89,6.89,0,0,0-2.73-2.91,7.7,7.7,0,0,0-3.8-.93,6.77,6.77,0,0,0-3.2.75,7.75,7.75,0,0,0-2.42,2,9.14,9.14,0,0,0-1.55,2.85,10.3,10.3,0,0,0-.54,3.31,9.56,9.56,0,0,0,.62,3.42A9,9,0,0,0,123,17,8.35,8.35,0,0,0,125.48,19a7.06,7.06,0,0,0,3.17.72,7.53,7.53,0,0,0,3.49-.85,10.33,10.33,0,0,0,3.19-2.71V12.59H130.6V11h6.5V21.43h-1.77Z"/><path d="M158.2.15V21.43h-2.07V11.48H143.51v10h-2.09V.15h2.09V9.62h12.62V.15Z"/><path d="M163.54,21.43V.15h2.09V21.43Z"/><path d="M169.32,18.76a6.5,6.5,0,0,0,1.69.78,7.67,7.67,0,0,0,2.33.33,5,5,0,0,0,2.59-.58,3.72,3.72,0,0,0,1.48-1.73,8.73,8.73,0,0,0,.66-2.8c.1-1.11.15-2.37.15-3.79V.15h2.1V11a39.69,39.69,0,0,1-.22,4.42,9.87,9.87,0,0,1-.95,3.4,5.16,5.16,0,0,1-2.1,2.19,7.52,7.52,0,0,1-3.71.78,8,8,0,0,1-4.62-1.32Z"/><path d="M185.39,21.43V.18h2.09V12.53L199.2.15h2.31L192.82,9.5,202,21.43h-2.31l-8.15-10.7-4,4.17v6.53Z"/><path d="M204.66,21.43V.15h2.1V19.57h12.29v1.86Z"/><path d="M241,21.43V4l-7.77,13.52H232L224.23,4V21.43h-2.1V.15h2.16l8.3,14.57L241,.15h2.13V21.43Z"/><path d="M250.52,4.05V21.43h-2.1V.15H250l14.09,17.71V.18h2.1V21.43H264.4Z"/><path d="M280.13,21.58a9,9,0,0,1-4.06-.91,10.08,10.08,0,0,1-3.16-2.43,11,11,0,0,1-2-3.46,11.43,11.43,0,0,1-.72-4,11.08,11.08,0,0,1,.77-4.08A11.3,11.3,0,0,1,273,3.27,10.24,10.24,0,0,1,276.21.88a9.07,9.07,0,0,1,4-.88,8.8,8.8,0,0,1,4.07.94,10.3,10.3,0,0,1,3.14,2.48,11.43,11.43,0,0,1,2.74,7.4,11.07,11.07,0,0,1-.76,4.08,11.18,11.18,0,0,1-2.1,3.43,10.14,10.14,0,0,1-3.16,2.37A9,9,0,0,1,280.13,21.58Zm-7.88-10.79a9.89,9.89,0,0,0,.57,3.34A9.1,9.1,0,0,0,274.44,17a8,8,0,0,0,2.49,2,7.31,7.31,0,0,0,6.47-.05,8.08,8.08,0,0,0,2.49-2A9.41,9.41,0,0,0,287.46,14a9.77,9.77,0,0,0,.56-3.24,9.67,9.67,0,0,0-.59-3.34,9.11,9.11,0,0,0-1.63-2.83,8.08,8.08,0,0,0-2.49-2,7.33,7.33,0,0,0-6.44,0,7.81,7.81,0,0,0-2.49,2,9.39,9.39,0,0,0-1.58,2.84A10,10,0,0,0,272.25,10.79Z"/><path d="M294.07,21.43V.15h8.81a5.55,5.55,0,0,1,2.54.58,6.66,6.66,0,0,1,2,1.53,7.28,7.28,0,0,1,1.32,2.15,6.48,6.48,0,0,1,.48,2.42,7.27,7.27,0,0,1-.45,2.54,6.84,6.84,0,0,1-1.26,2.14,6.44,6.44,0,0,1-1.93,1.5,5.48,5.48,0,0,1-2.51.57h-6.89v7.85Zm2.1-9.71H303a3.7,3.7,0,0,0,1.7-.4,4.11,4.11,0,0,0,1.3-1.08,5.09,5.09,0,0,0,.84-1.56,5.74,5.74,0,0,0,.3-1.85A5.09,5.09,0,0,0,306.76,5a5,5,0,0,0-.92-1.54,4.26,4.26,0,0,0-1.38-1A3.87,3.87,0,0,0,302.79,2h-6.62Z"/><path d="M327.1,19.54a10,10,0,0,1-2.68,1.5,9.33,9.33,0,0,1-7.19-.39,10.43,10.43,0,0,1-3.17-2.43,10.71,10.71,0,0,1-2-3.44,11.66,11.66,0,0,1-.71-4,11.07,11.07,0,0,1,.76-4.08,11.3,11.3,0,0,1,2.11-3.44A10.24,10.24,0,0,1,317.36.88a9.11,9.11,0,0,1,4-.88,8.76,8.76,0,0,1,4.06.94,10.07,10.07,0,0,1,3.14,2.48,11.52,11.52,0,0,1,2.75,7.4,11.09,11.09,0,0,1-.8,4.17,10.86,10.86,0,0,1-2.2,3.47l2.52,3h-2.07Zm-5.81.15a6.84,6.84,0,0,0,2.48-.43,8.07,8.07,0,0,0,2.1-1.19L323.2,14.9h2.07l1.71,2a9.31,9.31,0,0,0,1.62-2.87,9.81,9.81,0,0,0,0-6.62A9.13,9.13,0,0,0,327,4.62a8.26,8.26,0,0,0-2.49-2,6.74,6.74,0,0,0-3.17-.75,7,7,0,0,0-3.27.76,7.81,7.81,0,0,0-2.49,2A9.35,9.35,0,0,0,314,7.54a9.89,9.89,0,0,0,0,6.59A9.1,9.1,0,0,0,315.59,17a8,8,0,0,0,2.49,2A7,7,0,0,0,321.29,19.69Z"/><path d="M335.16,21.43V.15h9a5.51,5.51,0,0,1,2.53.58,6.66,6.66,0,0,1,2,1.53A7.05,7.05,0,0,1,350,4.41a6.66,6.66,0,0,1,.46,2.42,7.24,7.24,0,0,1-.34,2.24,6.91,6.91,0,0,1-1,1.92,5.79,5.79,0,0,1-1.49,1.43,5.28,5.28,0,0,1-1.94.8l5.21,8.21h-2.37l-5-7.85h-6.3v7.85Zm2.1-9.71h7a3.66,3.66,0,0,0,1.69-.4,4,4,0,0,0,1.3-1.1,5.33,5.33,0,0,0,.84-1.56,5.57,5.57,0,0,0,.3-1.83A5,5,0,0,0,348,5a5.07,5.07,0,0,0-.93-1.54A4.44,4.44,0,0,0,345.7,2.4,3.71,3.71,0,0,0,344,2h-6.78Z"/><path d="M367.18,4.14a6.48,6.48,0,0,0-2.4-1.65,8.76,8.76,0,0,0-3.42-.63,6.38,6.38,0,0,0-4.1,1.06A3.57,3.57,0,0,0,356,5.82a3.18,3.18,0,0,0,.34,1.57,3,3,0,0,0,1.07,1.06,7.26,7.26,0,0,0,1.84.78c.75.22,1.63.44,2.65.66a28.75,28.75,0,0,1,3.07.81,8.87,8.87,0,0,1,2.33,1.13,4.57,4.57,0,0,1,1.47,1.63,5.2,5.2,0,0,1,.5,2.4,5.32,5.32,0,0,1-.56,2.54,5.08,5.08,0,0,1-1.59,1.8,7.1,7.1,0,0,1-2.43,1.07,13,13,0,0,1-3.09.34A12.67,12.67,0,0,1,353,18.52l1.05-1.7A8.24,8.24,0,0,0,355.44,18a9.91,9.91,0,0,0,1.77.95,11.19,11.19,0,0,0,2.08.63,11.77,11.77,0,0,0,2.34.22,7.31,7.31,0,0,0,4-.91A3.07,3.07,0,0,0,367,16.07a3.2,3.2,0,0,0-.41-1.67,3.49,3.49,0,0,0-1.21-1.17,8.61,8.61,0,0,0-2-.85q-1.2-.36-2.79-.72c-1.12-.26-2.1-.53-2.93-.81a7.84,7.84,0,0,1-2.13-1,4.09,4.09,0,0,1-1.31-1.51,4.93,4.93,0,0,1-.43-2.18,6,6,0,0,1,.55-2.62,5.17,5.17,0,0,1,1.58-1.92A7.4,7.4,0,0,1,358.33.4a11.22,11.22,0,0,1,3.06-.4,10.64,10.64,0,0,1,3.79.64,10.23,10.23,0,0,1,3,1.82Z"/><path d="M387.89,2h-7.58V21.43h-2.1V2h-7.59V.15h17.27Z"/><path d="M399.7,19.69a6.63,6.63,0,0,0,3.34-.76,6,6,0,0,0,2.13-2,8.13,8.13,0,0,0,1.11-2.83,16.47,16.47,0,0,0,.31-3.21V.15h2.1V10.88a16.91,16.91,0,0,1-.48,4.09,9.61,9.61,0,0,1-1.54,3.4,7.66,7.66,0,0,1-2.78,2.34,9,9,0,0,1-4.16.87,9,9,0,0,1-4.24-.91,7.79,7.79,0,0,1-2.78-2.42,9.65,9.65,0,0,1-1.49-3.41,17.3,17.3,0,0,1-.45-4V.15h2.06V10.88a16,16,0,0,0,.33,3.27A8.22,8.22,0,0,0,394.29,17a6,6,0,0,0,2.11,2A6.6,6.6,0,0,0,399.7,19.69Z"/><path d="M413.61.15l7.61,18.67L428.8.15H431l-8.87,21.28h-1.83L411.42.15Z"/><path d="M442.05.3h2l3,7.55,3-7.55h2l-3.71,9.08L452.42,19,460.13.15h2.27l-9,21.28h-1.86l-4.46-10.52-4.5,10.52h-1.83l-9-21.28H434L441.72,19l4-9.62Z"/><path d="M465.25.15l7,9.29,7-9.29h2.31l-8.19,10.79,8,10.49H479l-6.75-9-6.74,9h-2.37l7.94-10.49L462.88.15Z"/><path d="M484.46.15l7,11.45,7-11.45h2.28l-8.24,13.37v7.91h-2.1v-8L482.15.15Z"/><path d="M502.12,19.78,516.59,2H502.36V.15H519V1.8L504.73,19.57H519v1.86H502.12Z"/><path d="M5.75,65.73a6.18,6.18,0,0,1-2.17-.37A5,5,0,0,1,.72,62.72a4.7,4.7,0,0,1-.42-2A4.58,4.58,0,0,1,.79,58.6,4.9,4.9,0,0,1,2.19,57a6.89,6.89,0,0,1,2.13-1.08A8.94,8.94,0,0,1,7,55.48,11,11,0,0,1,9,55.65a6.31,6.31,0,0,1,1.62.49v-.72q0-2.73-3.15-2.73A6.91,6.91,0,0,0,5,53.13a11.79,11.79,0,0,0-2.46,1.3l-1.41-3a12.55,12.55,0,0,1,3.24-1.52,12.11,12.11,0,0,1,3.56-.51,8.25,8.25,0,0,1,5.52,1.67,6.14,6.14,0,0,1,2,4.92v4a1.66,1.66,0,0,0,.22,1,1.13,1.13,0,0,0,.8.35v4a8.08,8.08,0,0,1-1.14.2c-.34,0-.65,0-.93,0a3.34,3.34,0,0,1-2-.52,2.34,2.34,0,0,1-.87-1.49l-.09-.72A7.18,7.18,0,0,1,8.83,65,6.86,6.86,0,0,1,5.75,65.73Zm1.41-3.45A4.39,4.39,0,0,0,8.68,62a3.65,3.65,0,0,0,1.21-.71,1.49,1.49,0,0,0,.69-1.14v-1.5a7.72,7.72,0,0,0-1.36-.38,7.61,7.61,0,0,0-1.37-.13,3.68,3.68,0,0,0-2.17.6,1.82,1.82,0,0,0-.85,1.56,1.79,1.79,0,0,0,.65,1.42A2.52,2.52,0,0,0,7.16,62.28Z"/><path d="M28.29,65.73A6.27,6.27,0,0,1,25.15,65,5.57,5.57,0,0,1,23,62.82v2.61H18.85V43.55h4.8v8.72a5.69,5.69,0,0,1,2.08-2.11A6.43,6.43,0,0,1,31.56,50a6.65,6.65,0,0,1,2.16,1.75,8.38,8.38,0,0,1,1.41,2.63,10,10,0,0,1,.51,3.22,9,9,0,0,1-.56,3.19,7.94,7.94,0,0,1-1.54,2.58,7.08,7.08,0,0,1-2.34,1.71A6.93,6.93,0,0,1,28.29,65.73Zm-1.34-4a3.56,3.56,0,0,0,1.52-.32,3.64,3.64,0,0,0,1.19-.85,4,4,0,0,0,.78-1.28,4.37,4.37,0,0,0,.28-1.6A4.82,4.82,0,0,0,30.45,56a4.5,4.5,0,0,0-.73-1.33,3.41,3.41,0,0,0-1.13-.9,3.07,3.07,0,0,0-1.4-.33,3.21,3.21,0,0,0-2.09.78,5.15,5.15,0,0,0-1.45,2v3.3A3.74,3.74,0,0,0,25,61.1,3.51,3.51,0,0,0,27,61.69Z"/><path d="M37.11,57.55a8.56,8.56,0,0,1,.57-3.1,7.72,7.72,0,0,1,1.65-2.61A7.54,7.54,0,0,1,42,50.06a9.18,9.18,0,0,1,3.58-.66,8.54,8.54,0,0,1,4.59,1.15,7.37,7.37,0,0,1,2.78,3L48.26,55a3,3,0,0,0-2.73-1.5A3.23,3.23,0,0,0,43,54.58a4.26,4.26,0,0,0-1,3,5,5,0,0,0,.27,1.69A3.91,3.91,0,0,0,43,60.55a3.44,3.44,0,0,0,1.13.84,3.33,3.33,0,0,0,1.36.3,3.23,3.23,0,0,0,1.65-.44,2.78,2.78,0,0,0,1.11-1.12L53,61.56a7,7,0,0,1-2.77,3,8.68,8.68,0,0,1-4.63,1.17A8.92,8.92,0,0,1,42,65.06a8.16,8.16,0,0,1-2.67-1.8,7.6,7.6,0,0,1-1.66-2.61A8.56,8.56,0,0,1,37.11,57.55Z"/><path d="M61.48,65.73a7.2,7.2,0,0,1-3-.61,6.93,6.93,0,0,1-2.35-1.73A8.1,8.1,0,0,1,54.6,60.8,9.2,9.2,0,0,1,54,57.55a9.91,9.91,0,0,1,.51-3.21A7.85,7.85,0,0,1,56,51.75,6.84,6.84,0,0,1,58.19,50,6.4,6.4,0,0,1,61,49.4a5.88,5.88,0,0,1,3,.77A5.37,5.37,0,0,1,66,52.27V43.55h4.8V60a1.66,1.66,0,0,0,.22,1,1.13,1.13,0,0,0,.8.35v4a9.21,9.21,0,0,1-1.14.2c-.32,0-.62,0-.9,0a3.59,3.59,0,0,1-2-.52,2,2,0,0,1-.9-1.52l-.09-.81A5.35,5.35,0,0,1,64.52,65,6.64,6.64,0,0,1,61.48,65.73Zm1.29-4a3.5,3.5,0,0,0,1.9-.59,3.74,3.74,0,0,0,1.39-1.6V56.2a4.3,4.3,0,0,0-1.45-2,3.42,3.42,0,0,0-2.08-.77,3,3,0,0,0-1.43.35,3.77,3.77,0,0,0-1.12.91,4.06,4.06,0,0,0-.74,1.32A4.9,4.9,0,0,0,59,57.64a4.52,4.52,0,0,0,.28,1.62,4,4,0,0,0,.78,1.29,3.42,3.42,0,0,0,1.2.84A4,4,0,0,0,62.77,61.69Z"/><path d="M82.07,65.73a9.28,9.28,0,0,1-3.55-.64,7.92,7.92,0,0,1-2.67-1.76,7.34,7.34,0,0,1-1.66-2.56,8.25,8.25,0,0,1-.57-3,9.05,9.05,0,0,1,.57-3.22,7.67,7.67,0,0,1,1.64-2.66,7.56,7.56,0,0,1,2.66-1.79,9.18,9.18,0,0,1,3.58-.66,9,9,0,0,1,3.56.66,7.69,7.69,0,0,1,2.64,1.78,7.56,7.56,0,0,1,1.64,2.59,8.67,8.67,0,0,1,.55,3.09c0,.28,0,.55,0,.82a5.94,5.94,0,0,1-.09.71H78.71a3.26,3.26,0,0,0,1.15,2.41,3.68,3.68,0,0,0,2.36.82,4.3,4.3,0,0,0,2-.51,2.54,2.54,0,0,0,1.3-1.37l4.08,1.14a7.38,7.38,0,0,1-2.88,3A8.9,8.9,0,0,1,82.07,65.73Zm3.33-9.65a3.65,3.65,0,0,0-1.08-2.37A3.25,3.25,0,0,0,82,52.84a3.18,3.18,0,0,0-2.32.89,3.66,3.66,0,0,0-1.07,2.35Z"/><path d="M93.52,65.43V54.61h-2V51h2V49.7A8.61,8.61,0,0,1,93.91,47,5.89,5.89,0,0,1,95,45a4.83,4.83,0,0,1,1.74-1.29A5.43,5.43,0,0,1,99,43.25a10.55,10.55,0,0,1,4.11.93l-.87,3.6a6,6,0,0,0-1.06-.35,4.9,4.9,0,0,0-1.1-.13q-1.77,0-1.77,2.22V51H102v3.63H98.31V65.43Z"/><path d="M109.43,65.49a6.39,6.39,0,0,1-2.84-.63,6.74,6.74,0,0,1-2.21-1.71A8,8,0,0,1,103,60.64a9.19,9.19,0,0,1-.51-3.09,9.34,9.34,0,0,1,.54-3.22,8,8,0,0,1,1.5-2.58A7,7,0,0,1,106.8,50a7.07,7.07,0,0,1,3-.62,6.21,6.21,0,0,1,3.14.76A5.85,5.85,0,0,1,115,52.27V49.7h4.17V64.35a7.54,7.54,0,0,1-.68,3.24A7,7,0,0,1,116.66,70a8.47,8.47,0,0,1-2.88,1.55,12,12,0,0,1-3.69.54,10.54,10.54,0,0,1-4.34-.81A9.2,9.2,0,0,1,102.6,69l2.58-2.61a6.27,6.27,0,0,0,2.16,1.57,6.56,6.56,0,0,0,2.75.59,5.58,5.58,0,0,0,1.65-.24,4,4,0,0,0,1.38-.74,3.28,3.28,0,0,0,.95-1.28,5,5,0,0,0,.34-1.91V62.82a4.71,4.71,0,0,1-2.07,2A6.41,6.41,0,0,1,109.43,65.49Zm1.65-3.8a3.35,3.35,0,0,0,2-.62,4.18,4.18,0,0,0,1.35-1.57V56.2a4.33,4.33,0,0,0-1.47-2,3.47,3.47,0,0,0-2.1-.74,3,3,0,0,0-1.42.35,3.54,3.54,0,0,0-1.11.93,4.31,4.31,0,0,0-.72,1.34,5,5,0,0,0-.25,1.58,4.37,4.37,0,0,0,.28,1.6,3.91,3.91,0,0,0,.8,1.28,3.54,3.54,0,0,0,1.18.84A3.76,3.76,0,0,0,111.08,61.69Z"/><path d="M137.67,65.43h-4.8V56.59a3.48,3.48,0,0,0-.6-2.25,2,2,0,0,0-1.64-.72,2.55,2.55,0,0,0-.92.2,3.68,3.68,0,0,0-1,.57,5.08,5.08,0,0,0-.85.88,3.88,3.88,0,0,0-.6,1.14v9h-4.8V43.55h4.8v8.78a6,6,0,0,1,2.29-2.17,6.5,6.5,0,0,1,3.13-.76,5.19,5.19,0,0,1,2.57.55,4.08,4.08,0,0,1,1.5,1.41,5.32,5.32,0,0,1,.7,1.92,12.44,12.44,0,0,1,.18,2.08Z"/><path d="M140.85,47.9V43.55h4.79V47.9Zm0,17.53V49.7h4.79V65.43Z"/><path d="M148.1,71.49a6.9,6.9,0,0,1-2.28-.38A5.94,5.94,0,0,1,143.87,70l2-3.27a2,2,0,0,0,.75.48,2.57,2.57,0,0,0,.87.15,1.54,1.54,0,0,0,1.14-.45,1.62,1.62,0,0,0,.45-1.2v-16h4.8V65.34a6.93,6.93,0,0,1-.44,2.49,5.69,5.69,0,0,1-1.21,2A5.53,5.53,0,0,1,150.39,71,5.81,5.81,0,0,1,148.1,71.49Zm1-23.59V43.55h4.8V47.9Z"/><path d="M167.73,65.43l-4.1-6.32L162,60.85v4.58h-4.8V43.55H162V56.23l5.3-6.53h5.1l-5.67,6.77,6.15,9Z"/><path d="M174.15,43.55h4.79V59.83c0,1.2.51,1.79,1.53,1.79a3.43,3.43,0,0,0,.8-.1,2.89,2.89,0,0,0,.79-.31l.63,3.59a9.32,9.32,0,0,1-2.07.66,10.93,10.93,0,0,1-2.19.24,4.35,4.35,0,0,1-3.17-1.08,4.16,4.16,0,0,1-1.11-3.12Z"/><path d="M209.13,65.43h-4.8V56.59a3.59,3.59,0,0,0-.57-2.26,1.81,1.81,0,0,0-1.47-.71,2.46,2.46,0,0,0-1,.21,3.35,3.35,0,0,0-.92.59,4.68,4.68,0,0,0-.76.88,4.79,4.79,0,0,0-.55,1.11v9h-4.8V56.59a3.59,3.59,0,0,0-.57-2.26,1.81,1.81,0,0,0-1.47-.71,2.9,2.9,0,0,0-1.87.77,4.36,4.36,0,0,0-1.34,2v9h-4.79V49.7h4.31v2.63a5.64,5.64,0,0,1,2.36-2.18,7.57,7.57,0,0,1,3.46-.75,5.54,5.54,0,0,1,1.72.24,4.4,4.4,0,0,1,1.28.65,3.51,3.51,0,0,1,.87,1,4.19,4.19,0,0,1,.48,1.18,6.16,6.16,0,0,1,2.36-2.26,7,7,0,0,1,3.36-.79,4.6,4.6,0,0,1,2.41.55,4,4,0,0,1,1.43,1.44,5.54,5.54,0,0,1,.67,1.93,13.16,13.16,0,0,1,.17,2Z"/><path d="M227.44,65.43h-4.8V56.59a3.52,3.52,0,0,0-.58-2.26,1.9,1.9,0,0,0-1.54-.71,2.66,2.66,0,0,0-1,.21,4.24,4.24,0,0,0-1,.59,4.49,4.49,0,0,0-.86.88,4.2,4.2,0,0,0-.58,1.11v9h-4.8V49.7h4.32v2.63a5.72,5.72,0,0,1,2.46-2.17,8.33,8.33,0,0,1,3.65-.76,4.77,4.77,0,0,1,2.46.55,4,4,0,0,1,1.44,1.44,5.55,5.55,0,0,1,.68,1.93,13.12,13.12,0,0,1,.16,2Z"/><path d="M238.11,65.73a9.18,9.18,0,0,1-3.58-.66,7.78,7.78,0,0,1-2.65-1.78,7.55,7.55,0,0,1-1.64-2.61,9,9,0,0,1,0-6.2,7.55,7.55,0,0,1,1.64-2.61,8,8,0,0,1,2.65-1.8,9.87,9.87,0,0,1,7.15,0,8,8,0,0,1,2.64,1.8A7.7,7.7,0,0,1,246,54.48a8.56,8.56,0,0,1,.57,3.1,8.77,8.77,0,0,1-.55,3.1,7.52,7.52,0,0,1-1.63,2.61,7.82,7.82,0,0,1-2.66,1.78A9.18,9.18,0,0,1,238.11,65.73Zm-3.51-8.15a4.34,4.34,0,0,0,1,3,3.21,3.21,0,0,0,2.52,1.13,3.18,3.18,0,0,0,2.47-1.14,4.07,4.07,0,0,0,.74-1.31,4.94,4.94,0,0,0,.27-1.66,4.34,4.34,0,0,0-1-3,3.18,3.18,0,0,0-2.49-1.13,3.26,3.26,0,0,0-2.5,1.14,4.07,4.07,0,0,0-.74,1.31A4.9,4.9,0,0,0,234.6,57.58Z"/><path d="M258.85,65.73a6.15,6.15,0,0,1-3.11-.75,5.16,5.16,0,0,1-2-2.1v8.94h-4.8V49.7h4.17v2.54a6.19,6.19,0,0,1,2.17-2.09,6.11,6.11,0,0,1,3.1-.75,6.93,6.93,0,0,1,2.93.62,7.23,7.23,0,0,1,2.3,1.73,8.1,8.1,0,0,1,1.53,2.58,9,9,0,0,1,.56,3.19,10.1,10.1,0,0,1-.51,3.27,8.17,8.17,0,0,1-1.41,2.59,6.56,6.56,0,0,1-2.16,1.72A6,6,0,0,1,258.85,65.73Zm-1.62-4a3,3,0,0,0,1.43-.35,3.77,3.77,0,0,0,1.12-.91,4.06,4.06,0,0,0,.74-1.34,5,5,0,0,0,.25-1.6,4.47,4.47,0,0,0-.28-1.61,4.1,4.1,0,0,0-.78-1.27,3.42,3.42,0,0,0-1.2-.84,3.85,3.85,0,0,0-1.52-.3,3.5,3.5,0,0,0-1.9.59,3.77,3.77,0,0,0-1.39,1.57v3.24a5,5,0,0,0,1.45,2A3.22,3.22,0,0,0,257.23,61.69Z"/><path d="M274,65.73a6,6,0,0,1-2.74-.63,6.55,6.55,0,0,1-2.15-1.74,8.11,8.11,0,0,1-1.4-2.6,10,10,0,0,1-.51-3.24,9,9,0,0,1,.55-3.19,8.1,8.1,0,0,1,1.53-2.58A7.16,7.16,0,0,1,271.61,50a6.89,6.89,0,0,1,2.92-.62,6,6,0,0,1,3.1.77,6.59,6.59,0,0,1,2.17,2.1V49.7H284V66.18a1.47,1.47,0,0,0,.27,1,1.38,1.38,0,0,0,1,.31v4.08a13,13,0,0,1-1.35.18q-.72.06-1.29.06a3.74,3.74,0,0,1-1.3-.23,3.41,3.41,0,0,1-1.08-.63,3,3,0,0,1-.74-1,3.05,3.05,0,0,1-.26-1.26V62.88A5.5,5.5,0,0,1,274,65.73Zm1.83-4a3.23,3.23,0,0,0,1.89-.59,5.33,5.33,0,0,0,1.44-1.54V56.23a3.9,3.9,0,0,0-.54-1.08,4.13,4.13,0,0,0-.84-.88,4,4,0,0,0-1-.59,3,3,0,0,0-1.08-.21,3.07,3.07,0,0,0-1.44.35,3.73,3.73,0,0,0-1.14.91,4.28,4.28,0,0,0-.75,1.32,4.66,4.66,0,0,0-.27,1.59,4.17,4.17,0,0,0,1,2.91A3.47,3.47,0,0,0,275.85,61.69Z"/><path d="M297.25,53.8a9.2,9.2,0,0,0-3.15.57,3.84,3.84,0,0,0-2,1.62v9.44h-4.79V49.7h4.4v3.17a6.7,6.7,0,0,1,2.09-2.49,4.85,4.85,0,0,1,2.71-.92H297a1.53,1.53,0,0,1,.3,0Z"/><path d="M305.46,65.73a12.42,12.42,0,0,1-3.95-.64,9,9,0,0,1-3.3-1.88l1.71-2.93a13.63,13.63,0,0,0,2.8,1.52,7.1,7.1,0,0,0,2.62.54,2.65,2.65,0,0,0,1.44-.33,1.06,1.06,0,0,0,.51-.95,1.13,1.13,0,0,0-.64-1,10,10,0,0,0-2.27-.79c-1.06-.3-1.95-.59-2.68-.87a7.53,7.53,0,0,1-1.78-.93,3,3,0,0,1-1-1.17,3.74,3.74,0,0,1-.3-1.56,4.9,4.9,0,0,1,1.8-3.87,6,6,0,0,1,2-1.07,7.75,7.75,0,0,1,2.5-.39,11,11,0,0,1,3.31.48,8.13,8.13,0,0,1,3,1.73l-1.86,2.88a12.67,12.67,0,0,0-2.4-1.35,5.48,5.48,0,0,0-2-.42,2.58,2.58,0,0,0-1.32.32,1.16,1.16,0,0,0,0,2,9.65,9.65,0,0,0,2.17.72,26.76,26.76,0,0,1,2.83.9,7.62,7.62,0,0,1,1.88,1,3.42,3.42,0,0,1,1.05,1.28,4.08,4.08,0,0,1,.33,1.71,4.49,4.49,0,0,1-1.74,3.71A7.38,7.38,0,0,1,305.46,65.73Z"/><path d="M324.41,64.59a19.25,19.25,0,0,1-2.27.78,9.36,9.36,0,0,1-2.56.36,6.16,6.16,0,0,1-1.69-.22,3.8,3.8,0,0,1-1.4-.72,3.37,3.37,0,0,1-.94-1.31,4.94,4.94,0,0,1-.35-1.94V53.32h-2V49.7h2v-5H320v5h3.21v3.62H320v6.57a1.42,1.42,0,0,0,.39,1.12,1.44,1.44,0,0,0,1,.34,3.66,3.66,0,0,0,1.11-.17,6.81,6.81,0,0,0,1-.39Z"/><path d="M331,65.73a4.47,4.47,0,0,1-3.67-1.51,6.86,6.86,0,0,1-1.25-4.45V49.7h4.8v9a3.63,3.63,0,0,0,.57,2.2,1.9,1.9,0,0,0,1.62.77,3.73,3.73,0,0,0,1.86-.51,4.34,4.34,0,0,0,1.58-1.77V49.7h4.8V60a1.74,1.74,0,0,0,.22,1,1.15,1.15,0,0,0,.8.35v4a10.26,10.26,0,0,1-1.17.2c-.32,0-.61,0-.87,0q-2.58,0-2.94-2l-.09-1a6.56,6.56,0,0,1-2.68,2.3A8.49,8.49,0,0,1,331,65.73Z"/><path d="M349.13,65.43,343.56,49.7h4.94L352,61.59l3.48-11.89h4.46l-5.54,15.73Z"/><path d="M381.12,49.7h4.55l-6.5,15.73h-3.93L372.81,59l-2.42,6.47h-3.93L360,49.7h4.53L368.77,61l1.46-4.29-2.78-7h3.83l1.53,4.73,1.5-4.73h3.84l-2.76,7L376.86,61Z"/><path d="M390.53,49.7l2.85,4.43.3.57.3-.57,2.81-4.43h4.92l-5.46,7.88,5.58,7.85h-4.92l-3-4.4-.26-.57-.27.57-3,4.4h-4.92l5.58-7.85-5.46-7.88Z"/><path d="M403.57,67.8a7,7,0,0,0,1.12.3,5.59,5.59,0,0,0,.94.09,1.63,1.63,0,0,0,1.35-.6,6,6,0,0,0,.87-2.16l-6-15.73h4.94l3.66,11.63,3.15-11.63h4.49l-6,18.28A6.24,6.24,0,0,1,406,72.36a7.16,7.16,0,0,1-1.21-.11,6.56,6.56,0,0,1-1.24-.34Z"/><path d="M419.06,62.55l8-9.53h-7.61V49.7H432.1v2.87l-8,9.53h8.18v3.33H419.06Z"/><path d="M11.81,107.57v1.86H1.65v-1.86H5.9V94.74a3.27,3.27,0,0,1-.82.78,10,10,0,0,1-1.29.78,9.63,9.63,0,0,1-1.45.6A4.41,4.41,0,0,1,1,97.14v-2a3.56,3.56,0,0,0,1.51-.39,11.89,11.89,0,0,0,1.56-.89,12.31,12.31,0,0,0,1.24-1,2.59,2.59,0,0,0,.57-.6H8v15.25Z"/><path d="M13.79,109.43a11.92,11.92,0,0,1,.18-2.05,7,7,0,0,1,.7-2,7.63,7.63,0,0,1,1.5-2,10.92,10.92,0,0,1,2.59-1.78c.58-.3,1.19-.6,1.82-.89a11.18,11.18,0,0,0,1.74-1,5.61,5.61,0,0,0,1.3-1.21,2.55,2.55,0,0,0,.51-1.58,2.66,2.66,0,0,0-.26-1.12,3,3,0,0,0-.75-1,3.72,3.72,0,0,0-1.22-.7,5,5,0,0,0-1.73-.28,5.13,5.13,0,0,0-1.77.29A6.38,6.38,0,0,0,17,94.8a6,6,0,0,0-1,.83c-.28.29-.49.52-.63.7l-1.35-1.47c.12-.12.35-.34.69-.65a7.28,7.28,0,0,1,1.33-1A10.53,10.53,0,0,1,18,92.39,7.75,7.75,0,0,1,20.5,92a7.48,7.48,0,0,1,2.46.37,5.44,5.44,0,0,1,1.83,1,4.47,4.47,0,0,1,1.14,1.51,4.23,4.23,0,0,1,.39,1.78,4.06,4.06,0,0,1-.54,2.13,6.09,6.09,0,0,1-1.34,1.56,9.35,9.35,0,0,1-1.69,1.12c-.6.31-1.14.58-1.62.8a19.22,19.22,0,0,0-1.87.94,10.19,10.19,0,0,0-1.64,1.16,6,6,0,0,0-1.18,1.4,3.33,3.33,0,0,0-.46,1.74H26.65v1.86Z"/><path d="M38.37,102.36a5,5,0,0,1,3.16,1.8,5.57,5.57,0,0,1,1.18,3.62,6.1,6.1,0,0,1-.49,2.48,5.43,5.43,0,0,1-1.41,1.91,6.49,6.49,0,0,1-2.19,1.23,8.71,8.71,0,0,1-2.83.44,8.33,8.33,0,0,1-4-.92,6.12,6.12,0,0,1-2.58-2.53l1.41-1.29a4.86,4.86,0,0,0,1.92,2.1,6.17,6.17,0,0,0,3.24.78,5.35,5.35,0,0,0,3.54-1.09,3.92,3.92,0,0,0,1.28-3.14,4.16,4.16,0,0,0-1.34-3.26,5.69,5.69,0,0,0-3.9-1.2h-.75v-1.74h.81A5.25,5.25,0,0,0,39,100.48a3.5,3.5,0,0,0,1.22-2.77,3.64,3.64,0,0,0-.33-1.59A3.21,3.21,0,0,0,39,95a4.1,4.1,0,0,0-1.38-.71A6.27,6.27,0,0,0,35.85,94a5.83,5.83,0,0,0-3,.76,4.89,4.89,0,0,0-2,2.11l-1.32-1.26a4.78,4.78,0,0,1,1-1.42,6.55,6.55,0,0,1,1.5-1.09,8.07,8.07,0,0,1,1.86-.71,8.62,8.62,0,0,1,2.1-.25,7.85,7.85,0,0,1,2.53.39,6.07,6.07,0,0,1,2,1.09,4.91,4.91,0,0,1,1.31,1.69,5.08,5.08,0,0,1,.46,2.19,5.54,5.54,0,0,1-.27,1.73,4.66,4.66,0,0,1-.78,1.46A4.45,4.45,0,0,1,40,101.8,4.3,4.3,0,0,1,38.37,102.36Z"/><path d="M54.76,113.24V107.9h-10v-1.8L55.42,92.32H56.8V106h2.64v1.86H56.8v5.34ZM46.94,106h8V95.52Z"/><path d="M68.76,100.08a7.4,7.4,0,0,1,2.73.49,6.72,6.72,0,0,1,2.2,1.4,6.46,6.46,0,0,1,1.48,2.14,6.8,6.8,0,0,1,.54,2.74,7,7,0,0,1-.58,2.9A6.59,6.59,0,0,1,73.54,112a7.27,7.27,0,0,1-2.35,1.43,8.33,8.33,0,0,1-5,.22,7.25,7.25,0,0,1-1.91-.82,7.77,7.77,0,0,1-1.57-1.29,6.68,6.68,0,0,1-1.15-1.68l1.34-1a6.61,6.61,0,0,0,2.3,2.37,5.94,5.94,0,0,0,3.19.9,5.64,5.64,0,0,0,2.07-.38,5.05,5.05,0,0,0,1.68-1.06A4.87,4.87,0,0,0,73.21,109a5.35,5.35,0,0,0,.41-2.1,5.27,5.27,0,0,0-.39-2,4.68,4.68,0,0,0-1.08-1.57,4.85,4.85,0,0,0-1.62-1,5.52,5.52,0,0,0-2-.36,5.89,5.89,0,0,0-2.65.61,5.15,5.15,0,0,0-2,1.79H62c0-.12.06-.39.14-.81s.19-.92.3-1.5.25-1.23.39-1.94.28-1.42.42-2.14c.34-1.68.71-3.54,1.11-5.6H74.6v1.89H65.85l-1.47,7.64a5.38,5.38,0,0,1,1.91-1.31A6.39,6.39,0,0,1,68.76,100.08Z"/><path d="M93.55,102.42a7,7,0,0,1-.59,2.86,7.24,7.24,0,0,1-1.6,2.32,7.54,7.54,0,0,1-2.4,1.56,8.05,8.05,0,0,1-6,0,6.84,6.84,0,0,1-2.42-1.76,8.17,8.17,0,0,1-1.57-2.8,11.46,11.46,0,0,1-.57-3.73,24.78,24.78,0,0,1,.57-5.65,12.83,12.83,0,0,1,1.6-4A6.84,6.84,0,0,1,83,88.78,6.59,6.59,0,0,1,86.2,88a7,7,0,0,1,3.81,1A6.69,6.69,0,0,1,92.56,92l-1.32,1.2a5.35,5.35,0,0,0-5-3.36,4.64,4.64,0,0,0-2.39.63A5.5,5.5,0,0,0,82,92.24a9.68,9.68,0,0,0-1.2,2.92,16.25,16.25,0,0,0-.43,3.93,5.65,5.65,0,0,1,2.26-2.82,6.52,6.52,0,0,1,3.64-1,7.42,7.42,0,0,1,2.87.56A7.16,7.16,0,0,1,93,99.6,7,7,0,0,1,93.55,102.42Zm-7.5,5.51a5.36,5.36,0,0,0,2.15-.43A5.8,5.8,0,0,0,90,106.31a5.35,5.35,0,0,0,1.2-1.75,5.49,5.49,0,0,0,.43-2.14,5.21,5.21,0,0,0-.45-2.15,5.66,5.66,0,0,0-3-2.93,5.45,5.45,0,0,0-4.29,0,5.77,5.77,0,0,0-1.77,1.18,5.57,5.57,0,0,0-1.2,1.75,5.36,5.36,0,0,0-.43,2.15,5.09,5.09,0,0,0,.45,2.13,5.9,5.9,0,0,0,1.21,1.75,5.66,5.66,0,0,0,1.77,1.2A5.31,5.31,0,0,0,86.05,107.93Z"/><path d="M107.37,93.84H95.89V92H110.6L99.84,113.24H97.5Z"/><path d="M127.18,103.53a5.28,5.28,0,0,1-.6,2.53A6.12,6.12,0,0,1,125,108a7.4,7.4,0,0,1-2.38,1.25,9.41,9.41,0,0,1-2.87.43,8.46,8.46,0,0,1-2.93-.49,7.32,7.32,0,0,1-2.33-1.35,6.12,6.12,0,0,1-1.51-2,5.53,5.53,0,0,1-.54-2.42,4.73,4.73,0,0,1,.38-1.89,5.72,5.72,0,0,1,1-1.55,6.9,6.9,0,0,1,1.36-1.16,7.22,7.22,0,0,1,1.55-.77,7.31,7.31,0,0,1-1.35-.73,5.63,5.63,0,0,1-1.11-1,4.51,4.51,0,0,1-.76-1.26,3.77,3.77,0,0,1-.29-1.46,4.47,4.47,0,0,1,.6-2.33,5.65,5.65,0,0,1,1.54-1.69,7.06,7.06,0,0,1,2.13-1,8.08,8.08,0,0,1,4.77,0,7.26,7.26,0,0,1,2.13,1,5.46,5.46,0,0,1,1.54,1.7,4.47,4.47,0,0,1,.6,2.31,3.77,3.77,0,0,1-.29,1.46,4.83,4.83,0,0,1-.78,1.28,5.5,5.5,0,0,1-1.13,1,7.82,7.82,0,0,1-1.37.73,7.09,7.09,0,0,1,1.65.83,6.58,6.58,0,0,1,1.36,1.21,5.57,5.57,0,0,1,.93,1.56A5.08,5.08,0,0,1,127.18,103.53Zm-2.07-.15a3.74,3.74,0,0,0-.48-1.91,4.52,4.52,0,0,0-1.26-1.39,5.92,5.92,0,0,0-1.74-.87,6.31,6.31,0,0,0-1.89-.3,5.93,5.93,0,0,0-1.91.32,5.88,5.88,0,0,0-1.68.89,4.47,4.47,0,0,0-1.2,1.43,3.88,3.88,0,0,0-.45,1.86,3.64,3.64,0,0,0,.48,1.87,4.58,4.58,0,0,0,1.24,1.39,5.75,5.75,0,0,0,1.71.87,6.23,6.23,0,0,0,1.9.3,6,6,0,0,0,1.91-.31,5.6,5.6,0,0,0,1.69-.9,4.71,4.71,0,0,0,1.22-1.41A3.67,3.67,0,0,0,125.11,103.38Zm-9.92-9.71a2.85,2.85,0,0,0,.42,1.54,3.91,3.91,0,0,0,1.08,1.14,4.93,4.93,0,0,0,1.48.7,5.52,5.52,0,0,0,3.22,0,5,5,0,0,0,1.49-.72A3.92,3.92,0,0,0,124,95.16a2.91,2.91,0,0,0,.42-1.55,3,3,0,0,0-.39-1.52A3.62,3.62,0,0,0,123,91a4.76,4.76,0,0,0-1.49-.7,6.3,6.3,0,0,0-1.74-.24,5.72,5.72,0,0,0-1.69.25,4.8,4.8,0,0,0-1.45.72,3.67,3.67,0,0,0-1,1.16A3.06,3.06,0,0,0,115.19,93.67Z"/><path d="M129.76,99.63a7,7,0,0,1,.58-2.86,7.28,7.28,0,0,1,1.6-2.33,8,8,0,0,1,8.46-1.51,6.86,6.86,0,0,1,2.41,1.75,8.22,8.22,0,0,1,1.57,2.81,11.46,11.46,0,0,1,.57,3.73,24.78,24.78,0,0,1-.57,5.65,12.83,12.83,0,0,1-1.6,4,6.87,6.87,0,0,1-2.49,2.38,6.64,6.64,0,0,1-3.19.78,7,7,0,0,1-3.79-1,6.67,6.67,0,0,1-2.57-2.91l1.32-1.2a5.26,5.26,0,0,0,2,2.44,5.34,5.34,0,0,0,3,.92,4.68,4.68,0,0,0,2.4-.63,5.62,5.62,0,0,0,1.86-1.81,9.47,9.47,0,0,0,1.19-2.91A17.72,17.72,0,0,0,143,103a5.74,5.74,0,0,1-2.29,2.81,6.49,6.49,0,0,1-3.64,1,7.36,7.36,0,0,1-2.86-.55,7.26,7.26,0,0,1-2.33-1.53,7.16,7.16,0,0,1-1.56-2.29A7,7,0,0,1,129.76,99.63Zm7.52-5.51a5.28,5.28,0,0,0-2.14.43,5.7,5.7,0,0,0-3,2.94,5.31,5.31,0,0,0,0,4.28,5.7,5.7,0,0,0,3,2.94,5.29,5.29,0,0,0,2.14.44,5.45,5.45,0,0,0,2.16-.44,5.54,5.54,0,0,0,1.77-1.18,5.79,5.79,0,0,0,1.18-1.76,5.31,5.31,0,0,0,.43-2.14,5.24,5.24,0,0,0-.43-2.11,5.67,5.67,0,0,0-3-3A5.31,5.31,0,0,0,137.28,94.12Z"/><path d="M162.94,100.65a11.16,11.16,0,0,1-.57,3.64,9.09,9.09,0,0,1-1.58,2.88,7.12,7.12,0,0,1-2.38,1.89,6.73,6.73,0,0,1-3,.67,6.66,6.66,0,0,1-3-.67,7.16,7.16,0,0,1-2.39-1.89,9.07,9.07,0,0,1-1.57-2.88,11.91,11.91,0,0,1,0-7.28A9.07,9.07,0,0,1,150,94.13a7.31,7.31,0,0,1,2.39-1.9,6.54,6.54,0,0,1,3-.69,6.61,6.61,0,0,1,3,.69,7.28,7.28,0,0,1,2.38,1.9A9.09,9.09,0,0,1,162.37,97,11.16,11.16,0,0,1,162.94,100.65Zm-2.07,0a10,10,0,0,0-.41-2.94,7.13,7.13,0,0,0-1.12-2.26A5.14,5.14,0,0,0,157.62,94a5,5,0,0,0-4.44,0,5.14,5.14,0,0,0-1.72,1.47,7.15,7.15,0,0,0-1.13,2.26,11,11,0,0,0,0,5.88,7.15,7.15,0,0,0,1.13,2.26,5,5,0,0,0,1.72,1.45,5.09,5.09,0,0,0,4.44,0,5,5,0,0,0,1.72-1.45,7.13,7.13,0,0,0,1.12-2.26A10,10,0,0,0,160.87,100.65Z"/></svg>