<svg id="Layer_1" data-name="Layer 1" xmlns="http://www.w3.org/2000/svg" viewBox="0 0 517.83 115.49"><title>font-fanwood</title><path d="M2.85,20.86.57,21c-.2,0-.32,0-.36-.11a1.15,1.15,0,0,1-.06-.47c0-.24,0-.39.09-.44a1,1,0,0,1,.45-.06h.9q.27,0,4-9L5.91,10,9.08,2.64a3.15,3.15,0,0,1,.52-.79,4.63,4.63,0,0,0,.62-1c.23-.5.43-.76.6-.76a.31.31,0,0,1,.36.27l3.59,10.09q3.4,9.42,3.61,9.42h1q.21,0,.27.09a1,1,0,0,1,.06.43,1.11,1.11,0,0,1-.06.44q-.06.12-.27.12l-2.79-.1-3.44.1q-.27,0-.33-.12a1.15,1.15,0,0,1-.06-.47c0-.24,0-.38.08-.43a.87.87,0,0,1,.43-.06H15s0-.08,0-.22a24.75,24.75,0,0,0-.75-2.54c-.5-1.55-.87-2.66-1.11-3.34a8.46,8.46,0,0,0-.41-1.09.41.41,0,0,0-.28-.07h-6A.72.72,0,0,0,6,12.7a1.05,1.05,0,0,0-.22.4,52.26,52.26,0,0,0-2.43,6.75l0,0h2.3c.17,0,.27,0,.31.09a.78.78,0,0,1,0,.32v.31a1.15,1.15,0,0,1,0,.16.17.17,0,0,1-.06.12.43.43,0,0,1-.28.08Zm9.26-9.14q.27,0,.27-.09a1.05,1.05,0,0,0-.09-.32L9.81,4c-.07-.24-.13-.36-.17-.36s-.11.12-.2.36L6.51,11.21a2,2,0,0,0-.16.44s.13.07.4.07Z"/><path d="M25.39,20.86l-3.21.1a.48.48,0,0,1-.39-.12.81.81,0,0,1-.09-.46c0-.23.05-.38.13-.43a1.11,1.11,0,0,1,.5-.07h1.56c.06,0,.09-.4.09-1.18V9c0-1.71,0-3.34-.08-4.87a11.36,11.36,0,0,0-.16-2.29l-1.83.06a.56.56,0,0,1-.41-.11.69.69,0,0,1-.12-.48.69.69,0,0,1,.1-.46.7.7,0,0,1,.43-.09l3.54.06L29.13.75c2.71,0,4.65.67,5.8,2a4.34,4.34,0,0,1,1,2.93q0,3.07-4.46,4.74a.85.85,0,0,0-.25.11s.11,0,.32.07l.66.12c.24,0,.55.13.93.25a5.93,5.93,0,0,1,1,.41,5.7,5.7,0,0,1,1,.63,4.24,4.24,0,0,1,.85.9,4.8,4.8,0,0,1,.8,2.81q0,5.22-8.48,5.21Zm3.33-10.61,1,0a3.33,3.33,0,0,0,2.18-1,4,4,0,0,0,1.3-3.14,4.54,4.54,0,0,0-.67-2.47A5,5,0,0,0,28,1.56a3.69,3.69,0,0,0-1.23.12c-.08.06-.12,2.36-.12,6.93v1.44c0,.09,0,.15.05.17a1.06,1.06,0,0,0,.34,0Zm-1.86.84c-.16,0-.24.08-.24.25q0,8.54.21,8.54h1.8q5.29,0,5.3-4.38a5.27,5.27,0,0,0-.59-2.64,3.15,3.15,0,0,0-1.73-1.39,13,13,0,0,0-3.74-.38Z"/><path d="M57.28,14.12l.33,0c.29,0,.44.14.44.33s-.16,1.67-.47,4.14c0,.17-.27.4-.72.7a12.72,12.72,0,0,1-1.72.91,13.13,13.13,0,0,1-5.27,1.12,12.13,12.13,0,0,1-5.21-1.13,9.17,9.17,0,0,1-3.88-3.49,11.1,11.1,0,0,1-1.52-6,9.74,9.74,0,0,1,4.36-8.58A11.11,11.11,0,0,1,50.05.3a10,10,0,0,1,6,2l.35.26a.6.6,0,0,0,.15.09s.09,0,.11,0,0-.08,0-.16V1.65a.53.53,0,0,1,.1-.38c.06-.07.21-.1.45-.1a1,1,0,0,1,.52.1.42.42,0,0,1,.16.38l-.13,5.94a.43.43,0,0,1-.11.35,1.22,1.22,0,0,1-.49.07,1.07,1.07,0,0,1-.5-.08.33.33,0,0,1-.13-.31l.13-2.76c0-.23-.32-.59-1-1.11A16.71,16.71,0,0,0,54,2.51a8,8,0,0,0-4.13-1.13,6.64,6.64,0,0,0-6,3.76,11.28,11.28,0,0,0-1.36,5.65,9.94,9.94,0,0,0,.65,3.56,9.56,9.56,0,0,0,1.75,2.94,8.11,8.11,0,0,0,2.62,2,6.6,6.6,0,0,0,2.84.74,12,12,0,0,0,2.24-.18,8.94,8.94,0,0,0,1.6-.43c.44-.17.84-.35,1.2-.53.7-.38,1.06-.65,1.07-.81l.39-3.48C56.9,14.27,57,14.12,57.28,14.12Z"/><path d="M65.1,20.86,61.29,21a.43.43,0,0,1-.35-.11.83.83,0,0,1-.07-.43c0-.22,0-.36.13-.42a.89.89,0,0,1,.47-.1h1.92c.08,0,.15-2.19.23-6.59s.13-7.44.13-9.14a20.38,20.38,0,0,0-.06-2.55l-2.07.06a.54.54,0,0,1-.33-.07.55.55,0,0,1-.09-.38.9.9,0,0,1,.07-.43c0-.09.17-.13.35-.13l2.13,0c.82,0,2-.06,3.44-.18S69.79.37,70.6.37a12.24,12.24,0,0,1,3,.45,11.09,11.09,0,0,1,3.17,1.34,10.28,10.28,0,0,1,2.46,2.12,9.7,9.7,0,0,1,2.18,6.46,10,10,0,0,1-2.46,6.87A10.05,10.05,0,0,1,73,20.78a13.19,13.19,0,0,1-2.36.21ZM66.59,1.5q-.2.08-.2,9.24t0,9.19a9.11,9.11,0,0,0,2,.1,13.61,13.61,0,0,0,3.38-.42,10.74,10.74,0,0,0,2.68-1A6.35,6.35,0,0,0,76.23,17a9.48,9.48,0,0,0,1.12-1.75,8.17,8.17,0,0,0,.56-1.89,15.37,15.37,0,0,0,.25-2.75,9.52,9.52,0,0,0-.28-2.42,10,10,0,0,0-.81-2.09,9.07,9.07,0,0,0-1.32-1.87A10.23,10.23,0,0,0,74,2.72a8.33,8.33,0,0,0-4.76-1.4A13.1,13.1,0,0,0,66.59,1.5Z"/><path d="M87.87,20.86l-3.66.1a.48.48,0,0,1-.39-.12.94.94,0,0,1-.08-.46.57.57,0,0,1,.11-.42.89.89,0,0,1,.48-.08h1.83a7.4,7.4,0,0,0,.12-2.16V14.84L86.16,6c0-1.37,0-2.42-.11-3.14a4,4,0,0,0-.16-1.09H84.48a.63.63,0,0,1-.4-.09C84,1.65,84,1.48,84,1.19s.13-.44.4-.44L85.69.8c.87,0,1.52,0,1.94,0L95.18.75a14.85,14.85,0,0,0,1.67,0A.2.2,0,0,0,97,.51s0-.06,0-.13a1.06,1.06,0,0,1,0-.14.49.49,0,0,1,.06-.13c0-.07.18-.11.39-.11A1,1,0,0,1,98,.08a.38.38,0,0,1,.13.34l-.13,4q0,.21-.12.27a1.1,1.1,0,0,1-.45.06c-.36,0-.53-.15-.53-.45L97,2a19.87,19.87,0,0,0-2.86-.14c-1.9-.05-3.62-.07-5.14-.07-.12,0-.18.84-.18,2.5s0,3.05,0,4.15a14,14,0,0,0,.07,1.69s.11.06.23.06h5q1.56,0,1.56-.39V8.19c0-.2.18-.3.55-.3s.55.09.55.27l-.06,2.39.06,2.55c0,.18-.18.27-.55.27s-.55-.1-.55-.3V11.58c0-.31-.52-.46-1.56-.46H89l-.06,0s0,0,0,0a.06.06,0,0,0,0,.06s0,.06,0,.1,0,1.43.08,4.18a21.48,21.48,0,0,0,.24,4.13l9.17-.08c.1,0,.17,0,.19-.09a2.65,2.65,0,0,0,.07-.5c0-.27.06-1.17.1-2.68,0-.18.18-.27.55-.27s.56.1.56.3l-.09,4.19c0,.29-.2.43-.6.43Z"/><path d="M104.18,14.84,104.06,6c0-1.37,0-2.42-.11-3.14a4,4,0,0,0-.16-1.09h-1.33c-.32,0-.5-.06-.53-.18a1,1,0,0,1-.06-.35c0-.35.13-.52.39-.52l1.32.05c.88,0,1.52,0,1.94,0l7.77-.09c.95,0,1.51,0,1.67,0s.25-.12.26-.3a.56.56,0,0,1,.12-.35.73.73,0,0,1,.39-.07.89.89,0,0,1,.42.08.38.38,0,0,1,.14.34l-.13,4a.29.29,0,0,1-.11.27,1.14,1.14,0,0,1-.45.06q-.54,0-.54-.45l.09-2.34q-1.29-.18-8.31-.18c-.12,0-.17,1.11-.17,3.32s0,3.6,0,4.17a5.43,5.43,0,0,0,.06.88,1,1,0,0,0,.36,0h5.19q1.56,0,1.56-.39V8.16q0-.27.6-.27c.27,0,.43,0,.46.07a.3.3,0,0,1,0,.16l-.06,2.43.06,2.88c0,.16-.18.24-.55.24s-.56-.09-.56-.27V11.58c0-.24-.17-.37-.51-.41s-.69-.05-1-.05h-5.19a.69.69,0,0,0-.35.05,6.25,6.25,0,0,0,0,1c0,.62,0,1.7,0,3.22,0,3,.08,4.51.14,4.51h2.42c.17,0,.29,0,.34.1a.7.7,0,0,1,.08.42.78.78,0,0,1-.08.43c0,.09-.17.13-.34.13l-3.59-.1-3.15.1c-.2,0-.33,0-.38-.12a.94.94,0,0,1-.07-.46c0-.23,0-.38.12-.43a1.11,1.11,0,0,1,.5-.07H104c.11,0,.16-.72.16-2.16Z"/><path d="M137.47,15.92l0,2.67c0,.3-.59.73-1.77,1.28a15.67,15.67,0,0,1-6.56,1.53A11.32,11.32,0,0,1,123,19.79a9,9,0,0,1-3.91-5.09,12.57,12.57,0,0,1-.57-3.85,11.87,11.87,0,0,1,.55-3.75,9.07,9.07,0,0,1,1.56-2.9A9.73,9.73,0,0,1,123,2.11,11.94,11.94,0,0,1,129.47.4a10.41,10.41,0,0,1,6.09,1.79c.23.18.35.17.35,0V1.41A.56.56,0,0,1,136,1a.67.67,0,0,1,.45-.1A1,1,0,0,1,137,1a.45.45,0,0,1,.15.39L137,7c0,.18,0,.31-.12.36a.89.89,0,0,1-.49.09,1.1,1.1,0,0,1-.5-.08.35.35,0,0,1-.12-.31l.12-2.46c0-.24-.43-.7-1.3-1.39a8.21,8.21,0,0,0-5.26-1.79,6.51,6.51,0,0,0-3,.72,7.5,7.5,0,0,0-2.42,2,9.37,9.37,0,0,0-1.6,3,10.72,10.72,0,0,0-.6,3.49,12,12,0,0,0,.39,3.17,9.48,9.48,0,0,0,1.13,2.62A9.78,9.78,0,0,0,125,18.42a7.2,7.2,0,0,0,5,1.91A7.77,7.77,0,0,0,134,19.4c.47-.29.72-.51.73-.67a25.69,25.69,0,0,0,.09-2.61c0-1.23-.07-1.85-.2-1.85H132q-.33,0-.33-.54t.3-.54l4,.09,2.7-.09q.33,0,.33.54t-.33.54h-.93c-.12,0-.21.12-.24.36A9.2,9.2,0,0,0,137.47,15.92Z"/><path d="M145.26,20.86l-3.59.1c-.2,0-.32,0-.36-.11a1.15,1.15,0,0,1-.06-.47.75.75,0,0,1,.08-.44,1,1,0,0,1,.45-.06h1.75a65.55,65.55,0,0,0,.17-7.64V9.18a69.89,69.89,0,0,0-.15-7.47h-1.31a.86.86,0,0,1-.46-.09c-.1-.07-.14-.22-.14-.45s0-.38.13-.45a.88.88,0,0,1,.47-.09L145,.72l3.23-.09c.2,0,.32,0,.37.12a.93.93,0,0,1,.08.47c0,.24,0,.38-.1.42a.91.91,0,0,1-.47.07h-1.65a19.45,19.45,0,0,0-.15,3.93l0,4a.91.91,0,0,0,0,.4s.13.06.31.06h10.94A.6.6,0,0,0,158,10a.81.81,0,0,0,0-.32V6c0-1,0-2-.07-2.92a4.78,4.78,0,0,0-.16-1.4h-1.72a.58.58,0,0,1-.4-.1.63.63,0,0,1-.11-.45.8.8,0,0,1,.08-.44.6.6,0,0,1,.4-.09l3.21.09,2.91-.09c.2,0,.33,0,.37.12a.93.93,0,0,1,.08.47c0,.24,0,.38-.1.42a.94.94,0,0,1-.47.07h-1.32q-.09,0-.09,9.08t.12,9.09h1.59c.17,0,.27,0,.32.09a.91.91,0,0,1,.06.42,1.14,1.14,0,0,1-.06.45c0,.08-.15.12-.32.12l-2.85-.1-3.39.1c-.2,0-.32,0-.37-.12a.94.94,0,0,1-.07-.46c0-.24,0-.38.09-.43a1,1,0,0,1,.48-.07h1.64A29.67,29.67,0,0,0,158,15V11.31a.87.87,0,0,0,0-.31s-.07-.05-.15-.05H146.64c-.13,0-.21,0-.24.05a1.09,1.09,0,0,0,0,.36q0,8.52.27,8.52h2c.16,0,.27,0,.3.09a.62.62,0,0,1,.06.32,2.2,2.2,0,0,1,0,.31s0,.1,0,.16a.17.17,0,0,1-.06.12.43.43,0,0,1-.28.08Z"/><path d="M169,20.86l-3.84.1c-.21,0-.35,0-.41-.12a.76.76,0,0,1-.1-.47q0-.35.12-.42a1.13,1.13,0,0,1,.51-.07h2q.27,0,.27-10.92V6c0-1.41,0-2.48-.1-3.21a6,6,0,0,0-.14-1.11h-2a.7.7,0,0,1-.42-.09q-.12-.09-.12-.45a.63.63,0,0,1,.11-.45.72.72,0,0,1,.43-.09l3.75.09,3.53-.09c.18,0,.29,0,.34.12a1,1,0,0,1,.08.47q0,.36-.09.42c0,.05-.2.07-.45.07h-1.95c-.18,0-.26,1.55-.26,4.65v4.05c0,6.31.08,9.47.26,9.47h2.07a.43.43,0,0,1,.34.1.78.78,0,0,1,.08.42.88.88,0,0,1-.08.43.37.37,0,0,1-.34.13Z"/><path d="M179.12.72l3.12-.09c.2,0,.32,0,.37.12a1,1,0,0,1,.07.47q0,.36-.09.42a.94.94,0,0,1-.47.07h-1.53a79.6,79.6,0,0,0-.15,8v7.2a16.5,16.5,0,0,1-.67,5.1,8.68,8.68,0,0,1-1.94,3.29,7.83,7.83,0,0,1-1.59,1.43,3.5,3.5,0,0,1-1.64.52,3.17,3.17,0,0,1-1.23-.22q-.54-.21-.54-.6a1.26,1.26,0,0,1,.29-.78,2.66,2.66,0,0,1,.66-.64,3,3,0,0,1,1.13-.57,1.61,1.61,0,0,1,.78.31,1.68,1.68,0,0,0,.78.31.84.84,0,0,0,.45-.11.8.8,0,0,0,.3-.38,2.93,2.93,0,0,0,.2-.57,4.66,4.66,0,0,0,.11-.82c0-.55.06-1.29.06-2.23V6q0-4.32-.27-4.32h-2a.91.91,0,0,1-.46-.09.56.56,0,0,1-.14-.45.56.56,0,0,1,.14-.45.84.84,0,0,1,.46-.09Z"/><path d="M188.85,20.86l-3.5.1c-.2,0-.33,0-.38-.12a.94.94,0,0,1-.07-.46c0-.23,0-.38.12-.43a1.13,1.13,0,0,1,.51-.07h1.59c.13,0,.2-1.67.2-5V6.18a21.05,21.05,0,0,0-.17-4.32h-1.39c-.31,0-.49-.06-.53-.18a1.1,1.1,0,0,1-.07-.44.41.41,0,0,1,.14-.36.74.74,0,0,1,.46-.1l3.15.09,3.24-.09c.2,0,.33,0,.38.12a1.08,1.08,0,0,1,.07.46c0,.24,0,.38-.1.43a.94.94,0,0,1-.47.07h-1.65c-.1,0-.18.54-.25,1.63s-.11,2.09-.11,3v3.74a1.17,1.17,0,0,0,0,.43c0,.06.11.08.25.08H191c.33,0,1.94-1.92,4.82-5.78l2-2.66c.24-.31.19-.46-.14-.46h-1.19q-.48,0-.54-.18a1.33,1.33,0,0,1-.06-.44A.4.4,0,0,1,196,.88a.8.8,0,0,1,.47-.1l2.63.09,2.49-.09c.2,0,.32,0,.36.11a1.19,1.19,0,0,1,.06.47.71.71,0,0,1-.08.43.84.84,0,0,1-.45.07H200q-.12,0-3.23,3.74c-2.08,2.5-3.18,3.81-3.3,4a1,1,0,0,0-.18.24s0,.07.11.14l.16.18,8.06,9.29a1.21,1.21,0,0,0,.87.48H203c.17,0,.27,0,.31.09a.64.64,0,0,1,.05.32v.31a1.15,1.15,0,0,1,0,.16.17.17,0,0,1-.06.12A.43.43,0,0,1,203,21l-3.05-.1-3.09.1c-.2,0-.32,0-.36-.11a1.1,1.1,0,0,1-.06-.46c0-.24,0-.38.11-.43a.74.74,0,0,1,.43-.08h1c.25,0,.34-.06.28-.16a1.47,1.47,0,0,0-.18-.23l-6.51-7.71a.47.47,0,0,0-.2-.17,1.49,1.49,0,0,0-.4,0h-.57c-.18,0-.28,0-.31,0s0,.12,0,.29q0,8,.27,8h2.16c.17,0,.29,0,.34.1a.78.78,0,0,1,.08.42.92.92,0,0,1-.07.44c0,.08-.15.12-.32.12Z"/><path d="M208.52,20.86l-3.66.1c-.21,0-.34,0-.4-.12a.94.94,0,0,1-.08-.46.57.57,0,0,1,.11-.42.89.89,0,0,1,.48-.08h1.8q.24,0,.24-8.67V4.29a8.74,8.74,0,0,0-.14-2.58H205.1a.61.61,0,0,1-.42-.1.75.75,0,0,1-.09-.45c0-.23,0-.37.11-.44a.87.87,0,0,1,.49-.09l3.38.09,3.6-.09q.38,0,.45.09a.7.7,0,0,1,.09.43.78.78,0,0,1-.1.45.71.71,0,0,1-.47.11H210q-.24,0-.24,6.35v8.31c0,2.26.06,3.39.19,3.39,1.9,0,3.81,0,5.71-.08l3.2-.11a.44.44,0,0,0,.3-.09,1.2,1.2,0,0,0,.13-.5l.37-2.58c0-.22.14-.31.33-.29l.43.06c.23,0,.34.16.34.32s-.1.72-.29,1.91-.3,1.89-.33,2.09a.47.47,0,0,1-.18.39,1.39,1.39,0,0,1-.57.08Z"/><path d="M224.94,20.86l-2.49.1c-.21,0-.34,0-.4-.12a.87.87,0,0,1-.08-.47q0-.35.12-.42a1.11,1.11,0,0,1,.5-.07h1.23a3.81,3.81,0,0,0,.14-1.29l.12-2.54q.06-1.28.27-7t.22-6.48a2.08,2.08,0,0,0-.08-.84,1.32,1.32,0,0,0-.48-.05h-1.5c-.14,0-.23,0-.26-.09a1.26,1.26,0,0,1,0-.43,1.53,1.53,0,0,1,0-.45c0-.07.12-.11.26-.11l3.32.09,1.89-.09a.62.62,0,0,1,.35.08,1,1,0,0,1,.22.37l6.29,15.71a1.29,1.29,0,0,0,.19.36s.08,0,.11,0a1.84,1.84,0,0,0,.18-.39l5.88-15.29a2.23,2.23,0,0,1,.31-.62.68.68,0,0,1,.47-.13h1.44l3.06-.09c.2,0,.32,0,.37.12a1,1,0,0,1,.07.47c0,.24,0,.38-.1.42a.91.91,0,0,1-.47.07h-1.4A8,8,0,0,0,244.53,4v2.7q0,4.19.15,8.67a22.58,22.58,0,0,0,.31,4.49h1.56a.57.57,0,0,1,.37.09.61.61,0,0,1,.1.42.8.8,0,0,1-.08.44c-.05.09-.16.13-.34.13l-3.2-.1-3.21.1q-.31,0-.39-.12a.81.81,0,0,1-.09-.46c0-.23,0-.38.12-.43a1.13,1.13,0,0,1,.51-.07h1.35q.21,0,.21-4.92t-.15-11.6c0-.41-.05-.61-.09-.62s-.09.1-.17.29-.12.29-.13.33l-5.55,14.18a8.12,8.12,0,0,1-.86,1.58,11.14,11.14,0,0,0-.75,1.21c-.24.5-.45.75-.61.75s-.26-.16-.4-.46l-.07-.14-.13-.3L226,2.94q-.22-.6-.3-.6s-.08.21-.11.63c-.17,4.36-.25,8.26-.25,11.72a33.81,33.81,0,0,0,.15,5.19h2.07a.43.43,0,0,1,.34.1.78.78,0,0,1,.08.42.88.88,0,0,1-.08.43.37.37,0,0,1-.34.13Z"/><path d="M251.9,20.86l-2.51.1c-.2,0-.33,0-.38-.12a.94.94,0,0,1-.07-.46c0-.24,0-.38.09-.43a.94.94,0,0,1,.47-.07h1.39c.13,0,.2-.44.23-1.31s0-1.89.08-3.05q.2-6.46.19-13.81h-1.95c-.17,0-.28,0-.33-.1a.7.7,0,0,1-.08-.42.82.82,0,0,1,.08-.44q.07-.12.33-.12l3.36.09,1.65-.09.19,0,.09,0,.06,0,.06,0a.17.17,0,0,1,.06.06l.06.07L255,1l.08.09,12.17,15c.23.29.37.42.42.37s.09-.24.09-.55V14.57L267.73,3.3a15.83,15.83,0,0,0,0-1.59h-2.79q-.24,0-.3-.09a.64.64,0,0,1-.05-.32V1a1.15,1.15,0,0,1,0-.16c0-.06,0-.1.05-.12a.44.44,0,0,1,.28-.08l3.24.09,2.54-.09c.21,0,.33,0,.37.11a1.19,1.19,0,0,1,.06.47c0,.24,0,.38-.11.43a1,1,0,0,1-.49.07h-1.35A5.64,5.64,0,0,0,269,3.57c0,1.25,0,3.28-.1,6.1s-.13,5.35-.19,7.58-.09,3.37-.09,3.41c0,.5-.13.74-.39.74a.48.48,0,0,1-.38-.23l-.22-.28-14.9-18.1c-.11-.12-.18-.17-.22-.15s-.08,1.37-.08,4l0,10.28a13.9,13.9,0,0,0,.12,3h2.58c.16,0,.27,0,.3.09a.74.74,0,0,1,.06.37,3.36,3.36,0,0,1,0,.38c0,.16-.14.24-.35.24Z"/><path d="M275,16.7a9.36,9.36,0,0,1-1.09-2.48,11.08,11.08,0,0,1-.39-3,12.33,12.33,0,0,1,.38-3.06,10.47,10.47,0,0,1,1.05-2.63,10.3,10.3,0,0,1,1.62-2.14,9.73,9.73,0,0,1,2.09-1.61A10.27,10.27,0,0,1,283.76.45a9.09,9.09,0,0,1,7.12,3.11,10.9,10.9,0,0,1,2.62,7.5,11.16,11.16,0,0,1-.75,4.14,9.14,9.14,0,0,1-5.33,5.26,9.92,9.92,0,0,1-3.6.73,12.69,12.69,0,0,1-2.91-.29,11,11,0,0,1-2.28-.85,8.66,8.66,0,0,1-2-1.41A9.81,9.81,0,0,1,275,16.7Zm1.52-6.14a14.59,14.59,0,0,0,.3,2.94,10.83,10.83,0,0,0,.9,2.68,8.64,8.64,0,0,0,1.41,2.11,5.51,5.51,0,0,0,4.26,1.89,6.3,6.3,0,0,0,5.43-3,11,11,0,0,0,1.79-6.41,12.81,12.81,0,0,0-.78-4.44,8,8,0,0,0-2.35-3.47,5.89,5.89,0,0,0-4-1.41q-3.65,0-5.73,3.84A10.78,10.78,0,0,0,276.48,10.56Z"/><path d="M299.89,20.86l-3.27.1c-.2,0-.32,0-.37-.12a.94.94,0,0,1-.07-.46c0-.23,0-.38.12-.43a1.13,1.13,0,0,1,.51-.07h1.43q.27,0,.27-13.32V5a15.62,15.62,0,0,0-.12-3.15l-2,.06a.6.6,0,0,1-.44-.11.81.81,0,0,1-.09-.47.7.7,0,0,1,.1-.47.7.7,0,0,1,.43-.09L300,.84,303.87.7q4,0,5.91,2.08a5.47,5.47,0,0,1,1.38,3.88,4.75,4.75,0,0,1-2.87,4.69,10.27,10.27,0,0,1-4.39.82l-2.6-.09c-.1,0-.16,0-.18.05a.36.36,0,0,0,0,.19v2a48.76,48.76,0,0,0,.12,5.58h2.12a.44.44,0,0,1,.35.1.78.78,0,0,1,.08.42.88.88,0,0,1-.08.43c-.06.09-.17.13-.35.13ZM301.11,11c0,.2.36.3,1.06.3a10.81,10.81,0,0,0,1.95-.17,6.51,6.51,0,0,0,1.7-.55,4.58,4.58,0,0,0,1.37-1,4.72,4.72,0,0,0,1.21-3.44,3.83,3.83,0,0,0-.82-2.44c-1.11-1.41-2.92-2.12-5.41-2.12q-.66,0-.93,0a3.88,3.88,0,0,0-.13,1.53Z"/><path d="M316.64,22.63l.66,0a6.48,6.48,0,0,0,1.55-.16A22.42,22.42,0,0,0,322.7,21c.14-.07.21-.12.21-.14a2.83,2.83,0,0,0-.75-.14,15.2,15.2,0,0,1-3.86-1.11,10.76,10.76,0,0,1-1.86-1,8.9,8.9,0,0,1-1.56-1.4,8.55,8.55,0,0,1-1.2-1.76,10.31,10.31,0,0,1-1.05-4.79,9.59,9.59,0,0,1,3.17-7.51A10.13,10.13,0,0,1,320.41.75a14.23,14.23,0,0,1,3.12-.3,10.41,10.41,0,0,1,3.75.76,10,10,0,0,1,3.32,2.1,9.6,9.6,0,0,1,2.18,3.22,9.9,9.9,0,0,1,.8,3.87A11.1,11.1,0,0,1,333,14a9.66,9.66,0,0,1-1.52,2.88,10,10,0,0,1-5.3,3.57,26.32,26.32,0,0,0-3.12,1.23l-2,.9-.07,0-.06,0-.05,0s0,0,0,0,0,0,0,0l0,0,.09,0h.13l.64,0,.86.06.79.06a13,13,0,0,1,1.72.25c.47.1,1.1.27,1.88.49a16.11,16.11,0,0,0,3.35.74,6,6,0,0,0,1.42-.15,4.15,4.15,0,0,0,1-.32c.23-.11.43-.22.6-.32a1,1,0,0,1,.35-.14c.06,0,.15.07.29.23a.66.66,0,0,1,.21.38c0,.09-.1.24-.28.43a5.16,5.16,0,0,1-.78.62,10.09,10.09,0,0,1-1.09.63,5.7,5.7,0,0,1-2.58.7,13.91,13.91,0,0,1-2.57-.26,23.62,23.62,0,0,1-2.54-.62c-.78-.24-1.53-.49-2.24-.73a15.42,15.42,0,0,0-3.07-.88,3.86,3.86,0,0,0-1.27.27,4,4,0,0,1-1,.27q-.23,0-.63-.51a1.52,1.52,0,0,1-.42-.83.44.44,0,0,1,.21-.43A1.3,1.3,0,0,1,316.64,22.63Zm-1.23-12.2A10.18,10.18,0,0,0,316.1,14a8.16,8.16,0,0,0,3.08,4.22A13.58,13.58,0,0,0,323.62,20a4.49,4.49,0,0,0,.73.13,1.73,1.73,0,0,0,.47-.1,4.86,4.86,0,0,0,.68-.32c.26-.14.54-.32.84-.52a8.42,8.42,0,0,0,.93-.76,13,13,0,0,0,.94-1,9.23,9.23,0,0,0,.87-1.26,10.86,10.86,0,0,0,.71-1.5,9.23,9.23,0,0,0,.67-3.37,14.42,14.42,0,0,0-.23-2.77,11.5,11.5,0,0,0-.68-2.18,9,9,0,0,0-1.11-1.93A8.2,8.2,0,0,0,327,2.88a6.44,6.44,0,0,0-4.13-1.41,6.84,6.84,0,0,0-6,3.62A9.86,9.86,0,0,0,315.41,10.43Z"/><path d="M338.55,12.11q0-10.24-.3-10.25l-1.74.06a.59.59,0,0,1-.44-.13.68.68,0,0,1-.12-.47c0-.23,0-.38.13-.44a.76.76,0,0,1,.46-.1L340,.84l4.35-.17q5.4,0,6.41,3.54A5.45,5.45,0,0,1,351,5.69,4.55,4.55,0,0,1,350.83,7a4.47,4.47,0,0,1-.42,1,4.85,4.85,0,0,1-.63.84,7.77,7.77,0,0,1-.72.7,7,7,0,0,1-.79.57,11.93,11.93,0,0,1-1.1.63l-.46.23a1.51,1.51,0,0,0,.34.14,8,8,0,0,1,.76.28,8.14,8.14,0,0,1,.93.47,6,6,0,0,1,.94.65,6.17,6.17,0,0,1,.84.9,5.32,5.32,0,0,1,.72,1.19A9,9,0,0,1,352,18a7.64,7.64,0,0,0,.15,1.77.26.26,0,0,0,.18.09h1.38A.38.38,0,0,1,354,20a1.17,1.17,0,0,1,.1.6q0,.33-.48.33l-4.11-.1a.29.29,0,0,1-.33-.33V18.8a13.65,13.65,0,0,0-.49-4.36,4.11,4.11,0,0,0-1.5-2.08,5.68,5.68,0,0,0-3.1-.85l-2.76,0a.21.21,0,0,0-.24.24c0,1.08,0,2.7.11,4.88a19.86,19.86,0,0,0,.22,3.28h1.74a.43.43,0,0,1,.34.1.78.78,0,0,1,.08.42.88.88,0,0,1-.08.43.37.37,0,0,1-.34.13l-3.24-.1L337,21a.53.53,0,0,1-.41-.12.84.84,0,0,1-.1-.47q0-.35.12-.42a1.13,1.13,0,0,1,.51-.07h1.3a23.4,23.4,0,0,0,.11-3.78Zm2.73-10.43q-.15,0-.15,1.53v7.28c0,.11.13.16.39.16l3.84.06a1.21,1.21,0,0,0,.33,0,4.43,4.43,0,0,0,2.58-4.41,4.25,4.25,0,0,0-2.33-3.85,5.58,5.58,0,0,0-2.8-.8A17.8,17.8,0,0,0,341.28,1.68Z"/><path d="M366.6,6.18l.1-1.92c0-.3-.24-.66-.72-1.07a11.36,11.36,0,0,0-1.26-1A5.1,5.1,0,0,0,362,1.41a3.59,3.59,0,0,0-2.58,1.08,3.66,3.66,0,0,0-1.11,2.72,3.22,3.22,0,0,0,1.41,2.69,13.1,13.1,0,0,0,3.1,1.5,30.93,30.93,0,0,1,3.06,1.26,5.73,5.73,0,0,1,2.57,2.42,5,5,0,0,1,.51,2.24,5.76,5.76,0,0,1-.39,2.18,5.15,5.15,0,0,1-1,1.65A7,7,0,0,1,366,20.34a7.74,7.74,0,0,1-3.85,1,14.74,14.74,0,0,1-4.83-.76c-.79-.28-1.18-.52-1.2-.73s0-.69-.1-1.43c-.13-1.69-.19-2.63-.19-2.8v-.31a.38.38,0,0,1,.06-.13c0-.09.17-.14.38-.14h.15a.67.67,0,0,1,.43.11.54.54,0,0,1,.14.39l.18,2.82c0,.25.35.52,1,.8a11.14,11.14,0,0,0,2.18.72,9.85,9.85,0,0,0,2.18.29,4.08,4.08,0,0,0,1.85-.46,3.76,3.76,0,0,0,1.43-1.28,3,3,0,0,0,.53-1.66,3.22,3.22,0,0,0-.94-2.41,4.65,4.65,0,0,0-1.08-.79,16.58,16.58,0,0,0-2.15-1l-1.53-.6-.92-.41a9.73,9.73,0,0,1-.93-.47c-.22-.13-.49-.3-.82-.52a4.57,4.57,0,0,1-.77-.62c-.19-.2-.39-.44-.61-.72a3.36,3.36,0,0,1-.51-.86,5.75,5.75,0,0,1-.41-2,5.53,5.53,0,0,1,.26-1.74,5.24,5.24,0,0,1,.7-1.4A6.44,6.44,0,0,1,357.63,2,6.09,6.09,0,0,1,359,1.12,6.67,6.67,0,0,1,361.81.4a9.58,9.58,0,0,1,2.29.24,5.37,5.37,0,0,1,1.68.75,2.79,2.79,0,0,0,.88.51c.06,0,.09-.15.11-.45a1.24,1.24,0,0,1,.12-.53.9.9,0,0,1,.48-.08,1.1,1.1,0,0,1,.51.08.58.58,0,0,1,.11.43l-.19,4.77a.72.72,0,0,1-.08.41c-.06.07-.22.1-.47.1a.9.9,0,0,1-.52-.1A.45.45,0,0,1,366.6,6.18Z"/><path d="M371.11,4.79c-.05,0-.23.07-.54.07s-.46-.11-.46-.33c0,0,0-.24.09-.67.2-1.44.32-2.4.36-2.86a2,2,0,0,1,.14-.8c.07-.07.24-.1.52-.1s.42.09.42.27v.3a13.6,13.6,0,0,0,3.14.14h10.7c2.12,0,3.18-.09,3.19-.26a.56.56,0,0,1,.11-.36.5.5,0,0,1,.33-.09h.31a.64.64,0,0,1,.17,0q.15.06.15.36l-.12,4.05c0,.14,0,.23-.11.25a1.32,1.32,0,0,1-.44.05.78.78,0,0,1-.44-.09.39.39,0,0,1-.12-.33L388.6,2q0-.21-3.3-.21h-3.45c-.12,0-.19.73-.2,2.19s0,2.28,0,2.46L381.44,18a13.7,13.7,0,0,0,.05,1.86h2.13c.18,0,.29,0,.34.1a.7.7,0,0,1,.08.42.78.78,0,0,1-.08.43c0,.09-.16.13-.34.13l-3.59-.1-3.69.1c-.2,0-.32,0-.37-.12a.91.91,0,0,1-.08-.46c0-.24,0-.38.1-.43a.91.91,0,0,1,.47-.07h1.86q.18,0,.28-5.82t.11-9q0-3.21-.18-3.21h-4.26q-2.77,0-2.82.3l-.24,2.31A.55.55,0,0,1,371.11,4.79Z"/><path d="M393.15,3.54A5,5,0,0,0,393,1.86h-1.15a.73.73,0,0,1-.42-.09.63.63,0,0,1-.11-.45.66.66,0,0,1,.11-.45.68.68,0,0,1,.42-.09l2.85.09,3.48-.09c.2,0,.33,0,.38.12a.94.94,0,0,1,.07.46c0,.24,0,.38-.1.43a.91.91,0,0,1-.47.07h-2a31.57,31.57,0,0,0-.27,5c-.08,3.33-.11,5.7-.11,7.08a5.88,5.88,0,0,0,1.4,4.31,5.93,5.93,0,0,0,4.35,1.41,9.24,9.24,0,0,0,5.27-1.58,2,2,0,0,0,.49-.42,1.92,1.92,0,0,0,.19-.92c0-.49,0-1.61,0-3.37V4.23q0-2.37-.18-2.37h-1.5c-.31,0-.49-.06-.53-.18a1.31,1.31,0,0,1-.07-.44.41.41,0,0,1,.14-.36.74.74,0,0,1,.46-.1l3.09.09,2.34-.09a.53.53,0,0,1,.41.12.76.76,0,0,1,.1.47q0,.35-.12.42a1.3,1.3,0,0,1-.51.07h-.69a18.52,18.52,0,0,0-.23,4c0,2.69-.07,4.55-.1,5.57s-.05,2.23-.09,3.65-.06,2.54-.09,3.38,0,1.35,0,1.53q0,1-.72,1c-.3,0-.63-.37-1-1.1s-.63-1.09-.84-1.09a4.51,4.51,0,0,0-1.44.64,14,14,0,0,1-2.84,1.15,11.09,11.09,0,0,1-3.15.51,12.21,12.21,0,0,1-2.45-.21,7.43,7.43,0,0,1-1.71-.57,4,4,0,0,1-1.19-.92,5.21,5.21,0,0,1-.78-1.13,5.58,5.58,0,0,1-.43-1.36,15.62,15.62,0,0,1-.26-3Z"/><path d="M430.35.87l2.33-.09a.55.55,0,0,1,.42.12.85.85,0,0,1,.09.47q0,.35-.12.42a.83.83,0,0,1-.37.07h-.51a.32.32,0,0,0-.14,0l-.1,0a.15.15,0,0,0-.08.05l-.06.06s0,0-.06.08l-.06.11-.11.27-6.92,16.28a3.41,3.41,0,0,1-.48.82c-.17.21-.3.38-.4.52s-.21.32-.34.55l-.29.52c-.16.29-.34.44-.53.44s-.35-.16-.47-.47-.31-.84-.56-1.59-.44-1.27-.58-1.59-.72-1.8-1.75-4.44q-4.53-11.67-4.68-11.67h-.93c-.31,0-.48-.06-.51-.17a1.47,1.47,0,0,1-.05-.45.47.47,0,0,1,.12-.37.76.76,0,0,1,.44-.09l2.82.09,3.9-.09a.53.53,0,0,1,.41.12.76.76,0,0,1,.1.47q0,.35-.12.42a1.3,1.3,0,0,1-.51.07h-2.1v.06a8.65,8.65,0,0,0,.59,2.21c1.73,4.9,3,8.38,3.79,10.47a18.1,18.1,0,0,0,1.33,3.12c.09,0,.26-.34.52-1l1.18-3c.52-1.32,1-2.51,1.39-3.56s.83-2.17,1.26-3.33a23.34,23.34,0,0,0,1.39-4.32c0-.42-.06-.62-.18-.62h-2.13c-.33,0-.51-.06-.56-.18a1.1,1.1,0,0,1-.07-.44.47.47,0,0,1,.11-.36.63.63,0,0,1,.43-.1Z"/><path d="M460.86.87l2-.09a.53.53,0,0,1,.41.12.66.66,0,0,1,.1.43.55.55,0,0,1-.12.42,1,1,0,0,1-.58.11,1.27,1.27,0,0,0-.6.09.51.51,0,0,0-.21.29,1.57,1.57,0,0,0-.08.2,0,0,0,0,0,0,0s0,0,0,0l-6.63,16.28a3.05,3.05,0,0,1-.5.88,5.68,5.68,0,0,0-.37.46,5.07,5.07,0,0,0-.28.44l-.26.44a3.29,3.29,0,0,1-.23.33c-.43.57-.81.4-1.14-.52-.11-.31-.28-.85-.49-1.6s-.35-1.22-.41-1.41-.15-.5-.26-.9l-.45-1.64c-.19-.69-.39-1.44-.62-2.25-.59-2.14-1-3.66-1.27-4.57a5.48,5.48,0,0,0-.45-1.35s-.14.18-.28.54L443.9,18.77a3.29,3.29,0,0,1-.51.88,5.68,5.68,0,0,0-.37.46,5.07,5.07,0,0,0-.28.44l-.26.44-.22.33c-.44.57-.82.4-1.15-.52-.11-.31-.28-.85-.49-1.6s-.35-1.22-.41-1.41-.26-.84-.59-1.95-.72-2.43-1.18-3.94-.92-3-1.38-4.56q-1.67-5.47-1.77-5.48h-1.08c-.31,0-.49-.06-.53-.18a1.1,1.1,0,0,1-.07-.44.43.43,0,0,1,.13-.36.8.8,0,0,1,.47-.1l2.88.09,3.12-.09a.53.53,0,0,1,.41.12.85.85,0,0,1,.09.47q0,.35-.12.42a1.3,1.3,0,0,1-.51.07h-1.49a.19.19,0,0,0-.21.18,70.85,70.85,0,0,0,2.26,7.73c1.43,4.43,2.16,6.67,2.17,6.73s0,.12.07.19.05.13.06.17L443,17l0,.11a.25.25,0,0,0,0,.07l0,.05h0s0,0,.05,0a.3.3,0,0,0,.05-.1l.07-.15c0-.05.05-.12.08-.21l.11-.26,4.29-10.94a1.22,1.22,0,0,0,.09-.42,1.12,1.12,0,0,0,0-.29,2.91,2.91,0,0,0-.08-.32c0-.14-.1-.38-.2-.73s-.22-.76-.39-1.23-.28-.7-.32-.7h-1.71c-.31,0-.49-.06-.53-.18a1.1,1.1,0,0,1-.07-.44.41.41,0,0,1,.14-.36.74.74,0,0,1,.46-.1l3.33.09,3.6-.09a.53.53,0,0,1,.41.12.84.84,0,0,1,.09.46c0,.23,0,.37-.13.42a1,1,0,0,1-.46.08h-1.9a1.91,1.91,0,0,0,0,.48,12.74,12.74,0,0,0,.44,2.12c.28,1.13.57,2.21.86,3.23s.57,2,.86,3,.54,1.87.76,2.64l.63,2.16a8.33,8.33,0,0,0,.8,2.23c.06,0,.19-.27.4-.8s.6-1.6,1.2-3.18,1.06-2.8,1.38-3.67l1.17-3.21a25.53,25.53,0,0,0,1.34-4.38c0-.42-.06-.62-.18-.62h-2q-.48,0-.54-.18a1.33,1.33,0,0,1-.06-.44.4.4,0,0,1,.13-.36.8.8,0,0,1,.47-.1Z"/><path d="M466.87,20.86l-2.49.1a.66.66,0,0,1-.43-.1c-.09-.07-.13-.21-.13-.45s0-.38.13-.44a.76.76,0,0,1,.43-.09h1.12c.1,0,.36-.32.79-1s.73-1.09.92-1.36l.66-1c.25-.38.6-.86,1.05-1.46s1-1.32,1.7-2.19,1.1-1.39,1.24-1.59a.88.88,0,0,0,.21-.37,6.62,6.62,0,0,0-.49-.88q-.48-.78-2.8-4.52a38.09,38.09,0,0,0-2.44-3.73h-1.17q-.48,0-.54-.18a1.33,1.33,0,0,1-.06-.44.47.47,0,0,1,.12-.37.8.8,0,0,1,.45-.09l3.56.09,3-.09c.2,0,.33,0,.38.12a.94.94,0,0,1,.07.46c0,.24,0,.38-.12.43a1.3,1.3,0,0,1-.51.07h-1.23q-.25,0-.24.06a.43.43,0,0,0,0,.14.79.79,0,0,1,.05.13,36.09,36.09,0,0,0,2.08,4.09l1.49,2.62c.09.14.15.22.17.22s.92-1.28,2.59-3.84c1.26-1.88,1.88-3,1.88-3.38v0h-1.67a1.3,1.3,0,0,1-.51-.07q-.12-.08-.12-.42a.85.85,0,0,1,.09-.47.53.53,0,0,1,.41-.12l2.35.09,2.27-.09a.83.83,0,0,1,.45.1.61.61,0,0,1,.12.45c0,.23,0,.38-.12.44a.84.84,0,0,1-.45.09h-.69a2.39,2.39,0,0,0-.5.54c-.29.36-.68.89-1.16,1.59s-1.29,1.79-2.39,3.26-1.7,2.29-1.82,2.46-.14.31-.06.43q6.15,9.74,6.35,9.74h1a1,1,0,0,1,.53.08c.06.05.1.2.1.45a.69.69,0,0,1-.1.46A.83.83,0,0,1,482,21l-3.11-.1-3.48.1c-.21,0-.35,0-.41-.12a.76.76,0,0,1-.1-.47q0-.35.12-.42a1.13,1.13,0,0,1,.51-.07H477c.23,0,.27-.13.13-.39s-.33-.62-.59-1.08-.58-1-1-1.67l-.95-1.62-1.05-1.75c-.44-.75-.7-1.17-.76-1.27s-.18-.19-.26-.08c-2.14,3-3.54,5.07-4.19,6.13a12.91,12.91,0,0,0-1,1.66s.09.07.21.07h1.64a1.13,1.13,0,0,1,.51.07q.12.07.12.42a.76.76,0,0,1-.1.47c-.06.08-.2.12-.41.12Z"/><path d="M490.22,19.88q.3,0,.3-7.23a.76.76,0,0,0,0-.15l0-.11a.23.23,0,0,0,0-.11l0-.1c0-.06-.23-.46-.63-1.19s-1.38-2.47-2.93-5.19a30.19,30.19,0,0,0-2.5-4.09h-.87a.68.68,0,0,1-.42-.09q-.12-.09-.12-.45a.63.63,0,0,1,.11-.45.7.7,0,0,1,.43-.09l3.18.09,3.53-.09a.37.37,0,0,1,.34.13,1,1,0,0,1,.08.47c0,.23,0,.37-.08.41a.84.84,0,0,1-.45.07h-1.77c-.19,0-.29,0-.31.05s0,.21.15.51.47,1,1,2.05,1.18,2.24,1.87,3.52L492.22,10l.19.36.09.16a.09.09,0,0,0,.08.06A9.35,9.35,0,0,0,493.49,9l1.28-2.48c.31-.59.59-1.13.83-1.61l.68-1.4A9.84,9.84,0,0,0,497,1.89c0-.12,0-.18-.07-.18h-1.55a1.13,1.13,0,0,1-.51-.07q-.12-.07-.12-.42a.78.78,0,0,1,.1-.47c.06-.08.2-.12.41-.12l2.34.09,2.28-.09a.71.71,0,0,1,.44.1.56.56,0,0,1,.13.44.59.59,0,0,1-.13.45.8.8,0,0,1-.44.09h-1c-.05,0-.9,1.45-2.55,4.33s-2.56,4.47-2.75,4.76a1.7,1.7,0,0,0-.28.59q0,8.49.27,8.49h2.07c.17,0,.29,0,.34.1a.78.78,0,0,1,.08.42.88.88,0,0,1-.08.43c-.05.09-.17.13-.34.13l-3.6-.1-3.41.1c-.2,0-.33,0-.38-.12a.91.91,0,0,1-.08-.46c0-.24,0-.38.1-.43a.94.94,0,0,1,.47-.07Z"/><path d="M517.23,21l-15.17-.1c-.13,0-.22,0-.26-.11a.75.75,0,0,1-.07-.36,19.94,19.94,0,0,1,1.85-3.06q1.83-2.82,4.91-7.47c2-3.1,3.39-5.15,4-6.16a13.14,13.14,0,0,0,1-1.6q0-.09-.33-.09H503.8q-.12,0-.15.24c0,.17-.08.45-.14.85-.16.93-.24,1.42-.25,1.46s0,.09,0,.15a.41.41,0,0,1,0,.1c0,.18-.09.28-.15.29l-.14,0q-.87,0-.87-.3l.66-4.35c0-.18.19-.27.56-.27s.54.08.52.24l0,.25c0,.11.56.17,1.67.17H517a.52.52,0,0,1,.39.11.46.46,0,0,1,.1.34,4.7,4.7,0,0,1-.76,1.4c-.5.77-1.18,1.79-2,3s-1.76,2.6-2.71,4q-3.57,5.3-5.86,9.21c-.27.38-.26.58,0,.58h10.19c.08,0,.13,0,.14,0s0-.15,0-.2l.11-3c0-.18.2-.27.61-.27s.62.1.62.3l-.09,4.22C517.74,20.82,517.57,21,517.23,21Z"/><path d="M7.76,65.19c-.6,0-.9-.27-.9-.8a30.68,30.68,0,0,1,1.45-5.61,23.56,23.56,0,0,1-2.93,4.07c-.86.89-1.38,1.41-1.59,1.59a2.72,2.72,0,0,1-1.65.72H2a1.86,1.86,0,0,1-1.5-.62A2.13,2.13,0,0,1,0,63.08a11.39,11.39,0,0,1,.14-1.72,12.15,12.15,0,0,1,.43-1.84,14.71,14.71,0,0,1,.7-1.88,10,10,0,0,1,1-1.74,9.48,9.48,0,0,1,1.25-1.46,4.86,4.86,0,0,1,3.38-1.35,2.28,2.28,0,0,1,.85.26,1.87,1.87,0,0,1,.74.53l.32.47c.18.3.29.44.32.44s.21-.41.42-1.23c.05-.25.52-.38,1.4-.38q.48,0,.48.21a23.11,23.11,0,0,1-.6,2.31,63.24,63.24,0,0,0-1.83,7q0,.69.33.69c.15,0,.49-.28,1-.84a3.87,3.87,0,0,1,.92-.84.36.36,0,0,1,.25.15.51.51,0,0,1,.14.3c0,.1-.14.3-.43.61s-.62.65-1,1a8.79,8.79,0,0,1-1.28,1A2.37,2.37,0,0,1,7.76,65.19ZM3.38,57.27a16.05,16.05,0,0,0-.86,2.44,8.43,8.43,0,0,0-.33,1.89,8.16,8.16,0,0,0,0,.83,2,2,0,0,0,.09.46.59.59,0,0,0,.61.51,2,2,0,0,0,1.15-.54,9.9,9.9,0,0,0,1.43-1.41,30.1,30.1,0,0,0,2.72-3.78,3,3,0,0,0,.33-.86A3.87,3.87,0,0,0,8.66,56a.93.93,0,0,0-.26-.6,1.8,1.8,0,0,0-.66-.52,3.48,3.48,0,0,0-1.58-.44,2.1,2.1,0,0,0-1.49.82A7.76,7.76,0,0,0,3.38,57.27Z"/><path d="M13.36,64.75q-.39,0-.39-.33a1.15,1.15,0,0,1,.42-.76.84.84,0,0,0,.16-.27L14,60.82c.31-1.6.75-4.32,1.32-8.14s.86-5.91.86-6.25,0-.51-.12-.51l-2.57.69c-.17,0-.25-.3-.25-.9a.32.32,0,0,1,.22-.33q4.67-1.14,5-1.14t.36.39c0,.13-.17,1.31-.52,3.54s-.55,3.54-.63,3.93-.54,2.84-1.43,7.31c1.29-2,2.15-3.33,2.59-3.88s.77-1,1-1.19a5.05,5.05,0,0,1,.62-.57,5.41,5.41,0,0,1,.64-.38,4,4,0,0,1,1.8-.34,2.49,2.49,0,0,1,1.85.73,2,2,0,0,1,.44,1.44A9.53,9.53,0,0,1,25,57.3a9.38,9.38,0,0,1-.63,2,11.64,11.64,0,0,1-.93,1.7,10.19,10.19,0,0,1-1.15,1.45A12.21,12.21,0,0,1,21,63.57a8.38,8.38,0,0,1-1.3.84,5,5,0,0,1-2.13.69,4.27,4.27,0,0,1-1.41-.21,6.12,6.12,0,0,1-1-.42,1.93,1.93,0,0,0-.43-.21,4.22,4.22,0,0,0-.61.24A2.16,2.16,0,0,1,13.36,64.75Zm5.36-7.44c-.79,1.1-1.48,2.11-2.07,3a4.72,4.72,0,0,0-.89,2.07,1.63,1.63,0,0,0,.49,1.16,1.74,1.74,0,0,0,1.28.5A2.68,2.68,0,0,0,19,63.66a5.58,5.58,0,0,0,1.23-1.12A12.8,12.8,0,0,0,21.31,61a12.72,12.72,0,0,0,.88-1.72,8.32,8.32,0,0,0,.8-3,1.67,1.67,0,0,0-.62-1.52,1.08,1.08,0,0,0-.59-.15,1.72,1.72,0,0,0-.7.14,2.28,2.28,0,0,0-.66.41A15.58,15.58,0,0,0,18.72,57.31Z"/><path d="M34.46,56l0-.71a1.47,1.47,0,0,0-.33-1A1.34,1.34,0,0,0,33.1,54a2.9,2.9,0,0,0-1.59.55A5.24,5.24,0,0,0,30.05,56a8,8,0,0,0-1,2.16,7.14,7.14,0,0,0-.37,1.9c0,.45,0,.73,0,.85a2.58,2.58,0,0,0,.07.51,2.31,2.31,0,0,0,.51,1.14,2,2,0,0,0,.54.5,3.23,3.23,0,0,0,1.72.46,5.58,5.58,0,0,0,1.7-.24,6.37,6.37,0,0,0,1.31-.59,11.27,11.27,0,0,0,1-.69c.31-.23.55-.42.74-.58s.3-.24.35-.24.12.06.24.19a.5.5,0,0,1,.18.29c0,.07-.09.2-.26.39s-.41.41-.71.67a9.56,9.56,0,0,1-1.07.82c-.42.28-.86.54-1.31.78a5.72,5.72,0,0,1-4.65.6c-1.68-.57-2.52-1.88-2.52-4a8.24,8.24,0,0,1,2.27-5.84,6.9,6.9,0,0,1,2.94-1.89A5.13,5.13,0,0,1,33.27,53a3.34,3.34,0,0,1,2.54.85,2.53,2.53,0,0,1,.78,1.68,2,2,0,0,1-.38,1.28,1.24,1.24,0,0,1-1,.45Q34.46,57.22,34.46,56Z"/><path d="M38.7,63.41a3.21,3.21,0,0,1-.11-.86,7,7,0,0,1,.11-1.12A12.72,12.72,0,0,1,39,60a10.51,10.51,0,0,1,.52-1.52c.21-.52.45-1,.71-1.53a8.26,8.26,0,0,1,.93-1.42,8.78,8.78,0,0,1,1.11-1.16,4.33,4.33,0,0,1,2.85-1.09,4.9,4.9,0,0,1,2.27.52l.33.17c.23.12.37,0,.43-.23.24-1.31.48-2.86.73-4.66s.38-2.74.4-2.82a.3.3,0,0,0,0-.23c0-.07-.09-.1-.15-.08l-1.28.34a11.86,11.86,0,0,1-1.34.31c-.09,0-.13-.09-.13-.28s0-.36,0-.49a.41.41,0,0,1,.31-.4c1-.23,2.05-.47,3.05-.74s1.51-.39,1.57-.39c.27,0,.41.17.41.53,0,.12-.25,1.58-.74,4.39Q48.73,61.94,48.73,63c0,.23.1.35.29.35a1.42,1.42,0,0,0,.76-.34,8.27,8.27,0,0,0,.89-.76l.75-.77c.22-.23.35-.34.4-.34s.12,0,.23.13.16.16.16.21a1.23,1.23,0,0,1-.19.34c-.13.19-.3.42-.52.69a8.48,8.48,0,0,1-.79.85,11,11,0,0,1-1,.84,4,4,0,0,1-2.37.9.81.81,0,0,1-.65-.32,1.7,1.7,0,0,1-.25-1.06,44.67,44.67,0,0,1,1.08-5.4,40.59,40.59,0,0,1-2.31,3.53c-.67.88-1.15,1.47-1.45,1.79A3.83,3.83,0,0,1,41,65,2.12,2.12,0,0,1,38.7,63.41Zm2.87-5.31a11.74,11.74,0,0,0-.61,2,8.1,8.1,0,0,0-.21,1.71,1.79,1.79,0,0,0,.3,1.13,1,1,0,0,0,.82.38,1.71,1.71,0,0,0,1-.35A6.08,6.08,0,0,0,44,62a33.18,33.18,0,0,0,2.39-3.15,6.34,6.34,0,0,0,1.37-3.17c0-.14-.12-.33-.36-.56a3.53,3.53,0,0,0-1-.64,3,3,0,0,0-1.29-.3,2.17,2.17,0,0,0-1.37.58,5.31,5.31,0,0,0-1.22,1.45A13,13,0,0,0,41.57,58.1Z"/><path d="M55.08,59.77q-.15,0-.15,1.29c0,1.72.93,2.57,2.79,2.57a6,6,0,0,0,3.45-1.3A7.06,7.06,0,0,0,62,61.7c.5-.45.79-.67.9-.67a.41.41,0,0,1,.3.18.55.55,0,0,1,.14.28.66.66,0,0,1-.17.32,6.13,6.13,0,0,1-.52.53c-.23.21-.49.43-.79.67a9.54,9.54,0,0,1-1.05.72,11.89,11.89,0,0,1-1.23.64,7,7,0,0,1-2.9.65,4,4,0,0,1-3.1-1.17,3,3,0,0,1-.76-2.09A9.77,9.77,0,0,1,53,59.41a10.29,10.29,0,0,1,.76-2.06A9.5,9.5,0,0,1,55,55.59a8,8,0,0,1,1.51-1.4A6.28,6.28,0,0,1,60.2,53c1.4,0,2.3.41,2.7,1.22a2.21,2.21,0,0,1,.18,1,2.72,2.72,0,0,1-.31,1.22,3.78,3.78,0,0,1-.85,1.14,8.32,8.32,0,0,1-2.8,1.64A11.57,11.57,0,0,1,55.08,59.77Zm.72-2.31a5,5,0,0,0-.43,1.36s.21.08.63.08a6.24,6.24,0,0,0,1.6-.27,6.35,6.35,0,0,0,1.71-.76A3.29,3.29,0,0,0,61,55a1,1,0,0,0-.39-.83,1.57,1.57,0,0,0-1-.32C58,53.86,56.71,55.06,55.8,57.46Z"/><path d="M64.91,54.46c-.1,0-.15-.06-.15-.19,0-.49.08-.73.24-.73h2.24c.16,0,.25-.13.28-.39s.07-.61.15-1.06A11.6,11.6,0,0,1,69.76,47a6.59,6.59,0,0,1,2.07-1.85,5.59,5.59,0,0,1,2.79-.84,3.09,3.09,0,0,1,1.91.63.82.82,0,0,1,.37.63c0,.24-.21.5-.61.79a1.88,1.88,0,0,1-1,.44,1.65,1.65,0,0,1-.63-.11,3.24,3.24,0,0,1-.47-.28L73.78,46a1.77,1.77,0,0,0-1-.39c-1.45,0-2.52,2.55-3.19,7.64,0,.08,0,.14,0,.18s0,.07.15.07h2.61c.06,0,.09,0,.09.13a2,2,0,0,1-.09.47c0,.22-.1.32-.15.32H69.7c-.15,0-.25.11-.28.31l-.37,2.67c-.77,5.6-1.23,8.67-1.36,9.21s-.28,1-.44,1.48a13.83,13.83,0,0,1-.54,1.31,6.39,6.39,0,0,1-1.84,2.41,5.09,5.09,0,0,1-.7.51,5.24,5.24,0,0,1-.71.43l-.41.17a2.67,2.67,0,0,1-1,.18,2.76,2.76,0,0,1-1.34-.39c-.46-.26-.7-.53-.7-.81a1.18,1.18,0,0,1,.54-.85,1.63,1.63,0,0,1,1-.44,2,2,0,0,1,.82.18,5.48,5.48,0,0,0,1.54.54,1,1,0,0,0,.52-.11,1.05,1.05,0,0,0,.32-.34,4.67,4.67,0,0,0,.27-.49,3.27,3.27,0,0,0,.22-.63q.1-.37.18-.69c.05-.2.1-.45.15-.74l.12-.72c0-.18.06-.41.1-.68s.11-.76.22-1.46.3-2,.57-3.93c.59-4.29.88-6.54.88-6.77s-.11-.35-.33-.35Z"/><path d="M83.42,52.09c.49,0,.73.14.73.4a2.29,2.29,0,0,1-.33,1,10.73,10.73,0,0,1-.69,1.12,3.15,3.15,0,0,0-.36.6,1.62,1.62,0,0,0,.15.46A4.18,4.18,0,0,1,83.06,57a4.48,4.48,0,0,1-.44,1.85,5,5,0,0,1-1.2,1.69,5.77,5.77,0,0,1-1.55,1,16.64,16.64,0,0,1-2.23.73c-1.82.51-2.73.94-2.73,1.32s.21.43.62.57.79.24,1.15.32c.59.12,1.23.24,1.92.35l1.48.22c.3,0,.6.1.9.16a9.71,9.71,0,0,1,1,.26,3.48,3.48,0,0,1,.82.37,3.44,3.44,0,0,1,.62.51,2,2,0,0,1,.57,1.49,4.18,4.18,0,0,1-.27,1.58,3.2,3.2,0,0,1-.77,1.14,5.08,5.08,0,0,1-1.16.84,6.24,6.24,0,0,1-1.49.57,11.55,11.55,0,0,1-2.87.43c-.84,0-1.42,0-1.75,0s-.67-.07-1-.13a8.31,8.31,0,0,1-1-.23,5.07,5.07,0,0,1-.86-.37,3,3,0,0,1-.7-.52,2,2,0,0,1-.62-1.4,2.92,2.92,0,0,1,.74-2.1,5.05,5.05,0,0,1,.71-.67,6.29,6.29,0,0,1,1.34-.81c.2-.07.19-.16,0-.28a2.34,2.34,0,0,1-.64-.47.9.9,0,0,1-.3-.62,2.94,2.94,0,0,1,.54-1.17c.37-.58.65-.91.86-1l1.63-.6c.09,0,.14-.07.14-.08l-.08,0-.09,0-.2-.07-.5-.24a4.56,4.56,0,0,1-.73-.5,3.76,3.76,0,0,1-.7-.74,4,4,0,0,1-.7-2.41,4.93,4.93,0,0,1,.72-2.61,5.18,5.18,0,0,1,2-1.87,5.71,5.71,0,0,1,2.81-.69,3.79,3.79,0,0,1,2.76,1.2c.09.09.16.07.23-.05s.18-.38.34-.76.27-.63.32-.72S82.94,52.09,83.42,52.09Zm-10,15.65a2.24,2.24,0,0,0-.52,1.36,1.46,1.46,0,0,0,.36,1.06,2.49,2.49,0,0,0,.9.6,7.09,7.09,0,0,0,1.24.35,13.05,13.05,0,0,0,2.42.23,7.45,7.45,0,0,0,2.13-.27,3.09,3.09,0,0,0,1.45-.86,2,2,0,0,0,.55-1.45,1.21,1.21,0,0,0-.32-.94,3.54,3.54,0,0,0-.57-.43,3.4,3.4,0,0,0-.62-.26c-.43-.12-1.27-.29-2.53-.52s-2-.33-2.1-.33a1.39,1.39,0,0,0-.32,0l-.22.07L75,66.5l-.23.1A4,4,0,0,0,73.4,67.74ZM76,55.67a6.66,6.66,0,0,0-.42,1.15A5.36,5.36,0,0,0,75.48,58a5.22,5.22,0,0,0,.16,1.25,3.29,3.29,0,0,0,.4,1,2.51,2.51,0,0,0,.54.58,1.64,1.64,0,0,0,1,.4A2.11,2.11,0,0,0,78.5,61a3.38,3.38,0,0,0,.91-.66,6.34,6.34,0,0,0,.82-1,5.44,5.44,0,0,0,.8-2.94A2.91,2.91,0,0,0,80,54a1.81,1.81,0,0,0-1.15-.43,2.53,2.53,0,0,0-1.17.29,3.36,3.36,0,0,0-.92.75A5.29,5.29,0,0,0,76,55.67Z"/><path d="M94.6,62.77c0,.38.18.56.54.56S96,62.9,96.78,62A12.39,12.39,0,0,1,98,60.73a.45.45,0,0,1,.28.14c.11.09.17.17.17.24a1.61,1.61,0,0,1-.26.49,8.43,8.43,0,0,1-.74.94,10.69,10.69,0,0,1-1.06,1.07,4,4,0,0,1-2.67,1.25,1.33,1.33,0,0,1-.94-.34,1,1,0,0,1-.39-.82,9.54,9.54,0,0,1,.55-2.19,43.44,43.44,0,0,0,1.64-5.76q0-1.26-.93-1.26-1.53,0-4.14,4.38c0,.08-.15.26-.32.54l-.34.58-.29.52a5.15,5.15,0,0,0-.29.56,6.22,6.22,0,0,0-.37,1l-.63,2.51q-.11.33-1.8.33a.29.29,0,0,1-.33-.33s.07-.38.2-1,.32-1.5.55-2.63.46-2.4.71-3.81q.91-5,1.48-10.92.06-.45-.12-.45a5.7,5.7,0,0,0-1.4.39c-.72.26-1.09.39-1.12.39s-.18-.16-.18-.48.09-.53.27-.6A24,24,0,0,1,88,44.8a13,13,0,0,1,2.16-.35c.18,0,.27.18.27.55q-.17,3.22-2.63,15.34,3-6.17,5.71-7a4.65,4.65,0,0,1,1.29-.16,2,2,0,0,1,1.25.38,1.26,1.26,0,0,1,.53,1.1,9.19,9.19,0,0,1-.31,2c-.21.86-.44,1.69-.69,2.48A25.19,25.19,0,0,0,94.6,62.77Z"/><path d="M100.93,61.12c.49-1.58.84-2.81,1.06-3.7a9.5,9.5,0,0,0,.34-1.86c0-.35-.1-.52-.3-.52a1.59,1.59,0,0,0-.84.44c-.37.29-.71.59-1,.88s-.51.44-.6.44a.38.38,0,0,1-.27-.16.43.43,0,0,1-.15-.29c0-.1.19-.31.57-.64s.81-.68,1.3-1.06a6.19,6.19,0,0,1,2.69-1.44.66.66,0,0,1,.75.74,27.17,27.17,0,0,1-1,4.56c-.65,2.47-1,3.78-1,4a2.57,2.57,0,0,0,0,.34.24.24,0,0,0,.27.22q.24,0,.78-.48c.37-.32.71-.63,1-.95s.52-.48.59-.48a.44.44,0,0,1,.27.16.56.56,0,0,1,.16.36c0,.12-.32.46-.94,1a18.23,18.23,0,0,1-2.08,1.62,3.82,3.82,0,0,1-1.6.76q-.81,0-.81-.63A13.17,13.17,0,0,1,100.93,61.12Zm2.68-11.27a1.23,1.23,0,0,1-1-.49,1.71,1.71,0,0,1-.38-1.08,1.5,1.5,0,0,1,.35-1,1.2,1.2,0,0,1,1-.42,1.23,1.23,0,0,1,1,.49,1.68,1.68,0,0,1,.39,1.07,1.47,1.47,0,0,1-.38,1A1.21,1.21,0,0,1,103.61,49.85Z"/><path d="M109.38,66.92c.26-1.27.64-3.39,1.12-6.37s.72-4.64.72-5S111.14,55,111,55a1.33,1.33,0,0,0-.73.41,11.51,11.51,0,0,0-.93.92A7.79,7.79,0,0,1,108,57.7a.51.51,0,0,1-.29-.14c-.12-.09-.17-.17-.17-.25s.12-.26.36-.56.56-.63.95-1,.82-.78,1.26-1.16a4.53,4.53,0,0,1,2.55-1.36.76.76,0,0,1,.5.2.8.8,0,0,1,.22.61,14.92,14.92,0,0,1-.15,1.56c-.1.77-.23,1.66-.39,2.65s-.31,1.93-.46,2.81-.28,1.72-.42,2.52-.23,1.31-.26,1.54-.08.48-.13.77-.13.66-.24,1.1A9,9,0,0,1,111,68.2c-.14.36-.31.75-.5,1.14a5.56,5.56,0,0,1-1.64,2,4.86,4.86,0,0,1-2.5,1.17,2.45,2.45,0,0,1-1.41-.34,1,1,0,0,1-.49-.8,1.17,1.17,0,0,1,.32-.81,1,1,0,0,1,.76-.33,2.39,2.39,0,0,1,.76.11,2.2,2.2,0,0,1,.49.26,1.48,1.48,0,0,0,.86.38,1,1,0,0,0,.52-.1,1.16,1.16,0,0,0,.28-.35,3.54,3.54,0,0,0,.23-.48,4.33,4.33,0,0,0,.21-.66C108.94,69,109.12,68.19,109.38,66.92Zm3.19-18a1.22,1.22,0,0,1-1-.49,1.67,1.67,0,0,1-.39-1.08,1.51,1.51,0,0,1,.36-1,1.2,1.2,0,0,1,1-.42,1.24,1.24,0,0,1,1,.49,1.67,1.67,0,0,1,.38,1.07,1.47,1.47,0,0,1-.37,1A1.22,1.22,0,0,1,112.57,49Z"/><path d="M117.58,64.86l-1.5.19c-.16,0-.25-.07-.25-.22s.14-.85.41-2.14.57-2.77.92-4.44a114.06,114.06,0,0,0,1.91-12.15.16.16,0,0,0-.18-.18l-2.34.6c-.12,0-.17-.1-.17-.3q0-.69.27-.75l2.16-.54c1.52-.4,2.34-.59,2.45-.59a.37.37,0,0,1,.42.41c0,.35-.45,2.69-1.34,7s-1.38,6.7-1.45,7.05a20.1,20.1,0,0,1,2.81-4.08,4.52,4.52,0,0,1,1.92-1.25,6.18,6.18,0,0,1,1.69-.25,2.8,2.8,0,0,1,1.32.29,1,1,0,0,1,.53.9,3.2,3.2,0,0,1-.2,1.15,3.61,3.61,0,0,1-.53,1,5.5,5.5,0,0,1-.78.83,6.25,6.25,0,0,1-.91.67,8.76,8.76,0,0,1-.95.52,6.21,6.21,0,0,1-1.3.51l-.75.14a2.92,2.92,0,0,1,.63.45,24.62,24.62,0,0,1,2,2c.38.46.63.77.76.91s.29.29.48.46a2,2,0,0,0,1.36.45c.55,0,.82-.24.82-.72l-.06-.6c0-.3.11-.46.31-.46a.6.6,0,0,1,.52.36,1.57,1.57,0,0,1,.22.88,1.13,1.13,0,0,1-.37.87,2.68,2.68,0,0,1-.9.55,5.54,5.54,0,0,1-2,.46,2.11,2.11,0,0,1-1.49-.63,10.61,10.61,0,0,1-1.28-1.49c-.52-.69-.86-1.15-1-1.38s-.41-.51-.69-.83a6.63,6.63,0,0,1-.82-1,.32.32,0,0,1,0-.16.42.42,0,0,1,.09-.14.79.79,0,0,1,.12-.15l.12-.13.11-.1a.94.94,0,0,0,.1-.1.93.93,0,0,1,.41-.05,2.16,2.16,0,0,0,.88-.23,5.79,5.79,0,0,0,1.22-.81,6.34,6.34,0,0,0,1.2-1.33A2.54,2.54,0,0,0,125,55q0-.54-.84-.54c-.92,0-2,.89-3.21,2.68-.16.23-.43.64-.82,1.24l-.94,1.45a6.88,6.88,0,0,0-.68,1.94c-.22.92-.37,1.63-.45,2.12a5.84,5.84,0,0,1-.18.88A.24.24,0,0,1,117.58,64.86Z"/><path d="M135.26,44.34q.3,0,.3.33c0,.22-.5,3.25-1.5,9.11s-1.5,8.85-1.5,8.95c0,.36.1.55.3.55a1.56,1.56,0,0,0,.81-.4,8.87,8.87,0,0,0,1-.86l.84-.87a2.17,2.17,0,0,1,.42-.39,1.21,1.21,0,0,1,.3.2c.16.13.25.23.25.27a1.3,1.3,0,0,1-.25.39c-.17.21-.39.46-.65.75a12.37,12.37,0,0,1-1,.92c-.37.33-.74.63-1.12.91a4.12,4.12,0,0,1-2.3,1,.89.89,0,0,1-.69-.3,1.08,1.08,0,0,1-.27-.72c0-.27.18-1.41.55-3.41q1.77-9.75,2.3-14.3a.44.44,0,0,0,0-.34c0-.07-.16-.09-.33,0s-.45.11-.86.23q-1.26.33-1.35.33h-.13c-.06,0-.09-.11-.09-.28s0-.32,0-.45a.5.5,0,0,1,.37-.43c.89-.2,1.86-.43,2.91-.7S135.19,44.34,135.26,44.34Z"/><path d="M146.71,61.24c.21-.76.41-1.65.59-2.66a15.09,15.09,0,0,0,.27-2.6c0-.73-.18-1.1-.53-1.1a1.52,1.52,0,0,0-1.07.72c-.39.47-.71.88-1,1.23a19.79,19.79,0,0,0-1.91,3.09,28,28,0,0,0-1.58,4.32.79.79,0,0,1-.35.54,5.79,5.79,0,0,1-1.36.41c-.29,0-.42-.14-.38-.41.25-1,.54-2.55.86-4.55a29.91,29.91,0,0,0,.49-4.32c0-.29-.11-.43-.33-.43s-.84.38-1.57,1.12a8,8,0,0,1-1.21,1.13.42.42,0,0,1-.2,0c-.19-.07-.29-.26-.29-.55,0-.1.21-.35.61-.74s.87-.8,1.41-1.23A13.56,13.56,0,0,1,140.91,54a3.3,3.3,0,0,1,1.45-.51.55.55,0,0,1,.63.62,12.19,12.19,0,0,1-.1,1.47q-.09.85-.21,1.5c-.07.43-.18,1-.32,1.8l-.3,1.68q3.3-7.26,6.54-7.26a1,1,0,0,1,1,.81,3.68,3.68,0,0,1,.11,1.11,13.65,13.65,0,0,1-.44,2.66c-.3,1.25-.62,2.42-1,3.52a38.7,38.7,0,0,1,2.2-3.88c.51-.74,1-1.36,1.38-1.87a8.79,8.79,0,0,1,1.17-1.23,3.9,3.9,0,0,1,2.44-1.12c1.08,0,1.62.37,1.62,1.12a11.35,11.35,0,0,1-.76,3.24,30.32,30.32,0,0,0-1.43,4.87c0,.45.15.67.45.67s.95-.63,2.15-1.87a3.56,3.56,0,0,1,.67-.62c.06,0,.14.06.26.18s.19.21.19.28a3.1,3.1,0,0,1-.55.69,17.94,17.94,0,0,1-1.31,1.3,10.92,10.92,0,0,1-1.66,1.25,3,3,0,0,1-1.43.56,1.28,1.28,0,0,1-.87-.28.88.88,0,0,1-.33-.69,7.12,7.12,0,0,1,.37-1.63c.24-.81.51-1.64.8-2.49a17.88,17.88,0,0,0,1.17-4.54.64.64,0,0,0-.14-.39.49.49,0,0,0-.4-.18c-.37,0-.89.38-1.56,1.15a22.31,22.31,0,0,0-2.08,2.78A28.68,28.68,0,0,0,149,61.57a15.24,15.24,0,0,0-1,2.79c-.08.25-.31.39-.68.44a9.32,9.32,0,0,1-1,.06c-.29,0-.43-.08-.43-.26a6.61,6.61,0,0,1,.27-1.23Q146.38,62.4,146.71,61.24Z"/><path d="M170.41,62.68q0,.51.48.51a1.65,1.65,0,0,0,1.05-.57c.4-.38.7-.68.91-.9l.52-.57c.13-.16.22-.24.25-.24s.1.06.23.19a.52.52,0,0,1,.18.28,1.34,1.34,0,0,1-.28.47,8.2,8.2,0,0,1-.8.87,13.2,13.2,0,0,1-1.1,1,4.44,4.44,0,0,1-2.7,1.13.92.92,0,0,1-.77-.37,1.53,1.53,0,0,1-.28-.95,6.23,6.23,0,0,1,.38-1.77c.25-.79.52-1.56.82-2.31a14.07,14.07,0,0,0,1.2-4.09.93.93,0,0,0-.16-.56.53.53,0,0,0-.47-.23q-.31,0-1,.63a14.08,14.08,0,0,0-1.45,1.6q-1.55,2-2.49,3.48a14,14,0,0,0-1.65,4c-.11.45-.27.68-.5.69l-1.42.13c-.21,0-.29-.14-.25-.42a59.53,59.53,0,0,0,1.8-9.32c0-.31-.1-.46-.3-.46a2,2,0,0,0-1,.48c-.44.32-.85.64-1.22,1a2.55,2.55,0,0,1-.64.48.57.57,0,0,1-.29-.18.46.46,0,0,1-.2-.33c0-.1.12-.26.36-.47s.56-.48,1-.78.83-.59,1.28-.87a5.36,5.36,0,0,1,2.64-1,.84.84,0,0,1,.5.17.68.68,0,0,1,.22.56,7.05,7.05,0,0,1-.07.94q-.08.54-.15,1c-.05.29-.14.7-.27,1.22s-.22.9-.28,1.14-.18.68-.35,1.3l-.31,1.17a25.86,25.86,0,0,1,4.42-6.14,4.37,4.37,0,0,1,2.83-1.35c1.08,0,1.62.47,1.62,1.4a19.32,19.32,0,0,1-1.16,4.42A34.34,34.34,0,0,0,170.41,62.68Z"/><path d="M175.73,63.21a4.51,4.51,0,0,1-.51-1.22,7.68,7.68,0,0,1-.17-1.81,8.5,8.5,0,0,1,2-5.12,6.71,6.71,0,0,1,2.23-1.66,5.89,5.89,0,0,1,2.52-.61,5.05,5.05,0,0,1,2,.32A3.57,3.57,0,0,1,185,54a4.75,4.75,0,0,1,.77,1.17,5.79,5.79,0,0,1,.56,2.54,7.09,7.09,0,0,1-.55,2.71,8.4,8.4,0,0,1-1.48,2.4A7.43,7.43,0,0,1,182,64.46a5.51,5.51,0,0,1-2.42.64,5.8,5.8,0,0,1-1.83-.24,3.81,3.81,0,0,1-1.21-.66A4.74,4.74,0,0,1,175.73,63.21Zm2.05-5.72a9.77,9.77,0,0,0-.5,1.5,5.27,5.27,0,0,0-.19,1.27c0,.33,0,.59,0,.76s0,.41.05.69a5.28,5.28,0,0,0,.14.73,4.28,4.28,0,0,0,.26.66,1.83,1.83,0,0,0,.41.58,1.88,1.88,0,0,0,1.34.52,2.77,2.77,0,0,0,1.44-.38,4.4,4.4,0,0,0,1.18-1,9.32,9.32,0,0,0,1-1.45,11,11,0,0,0,.74-1.69,10.15,10.15,0,0,0,.61-3.21,2.5,2.5,0,0,0-1.42-2.59,2.64,2.64,0,0,0-1-.2,2.45,2.45,0,0,0-1.16.32,4.35,4.35,0,0,0-1.09.85,7.71,7.71,0,0,0-1,1.23A10.51,10.51,0,0,0,177.78,57.49Z"/><path d="M191.27,55.66q0-.45-.27-.45a1.2,1.2,0,0,0-.67.35,6.58,6.58,0,0,0-.82.84c-.27.32-.54.65-.79,1a7,7,0,0,1-1,1.19c-.06,0-.16-.06-.32-.19s-.23-.22-.23-.27a1.33,1.33,0,0,1,.17-.35q.16-.28.48-.75c.21-.31.46-.65.73-1s.59-.73.94-1.1a12.83,12.83,0,0,1,1.08-1,3.85,3.85,0,0,1,2.41-1c.4,0,.6.29.6.86a48.39,48.39,0,0,1-.83,6.36A31.08,31.08,0,0,1,195.43,55a3.82,3.82,0,0,1,1.31-1.28,3.13,3.13,0,0,1,1.57-.46,3.79,3.79,0,0,1,1.19.15,1.93,1.93,0,0,1,.68.39,1.86,1.86,0,0,1,.41.63,4.39,4.39,0,0,1,.27,1.69,8.62,8.62,0,0,1-.3,2.2,9.58,9.58,0,0,1-.8,2.12,11.16,11.16,0,0,1-1.18,1.85,9.63,9.63,0,0,1-1.43,1.48A5,5,0,0,1,194,65.08l-1.69-.22h-.21l0,0,0,0a.39.39,0,0,0,0,.11l-1,6.29c-.07.37,0,.57.28.59l.9.09.8.08c.44.05.67.18.67.41,0,.54-.14.81-.4.81a10.32,10.32,0,0,1-1.06-.11,25.33,25.33,0,0,0-3.47-.34h-1.29c-.21,0-.31-.2-.28-.5s.06-.47.13-.53.23-.1.52-.1l.51,0c.29,0,.47-.2.53-.6,1-5.44,1.58-9.15,1.89-11.13A32.71,32.71,0,0,0,191.27,55.66Zm1.2,7.59q0,.87,1.83.87a2.38,2.38,0,0,0,1.53-.76,7.79,7.79,0,0,0,1.47-1.9,12.1,12.1,0,0,0,1.09-2.5,8.65,8.65,0,0,0,.43-2.52q0-1.83-1.23-1.83a1.41,1.41,0,0,0-1.07.46c-.29.31-.51.57-.68.79a6,6,0,0,0-.51.79c-.18.31-.33.58-.44.81l-.42.81-.36.69A12.07,12.07,0,0,0,192.47,63.25Z"/><path d="M207.39,73.5c-.35,0-.51-.15-.49-.46a.81.81,0,0,1,.16-.52,1.24,1.24,0,0,1,.69-.22,1.42,1.42,0,0,0,.55-.11.62.62,0,0,0,.12-.27,1.77,1.77,0,0,0,0-.21c0-.11.19-.8.49-2.07q.69-3,2.21-11.28a28.12,28.12,0,0,1-2,3.24c-.43.57-.76,1-1,1.24s-.48.54-.78.84a6,6,0,0,1-.85.74,3.21,3.21,0,0,1-1.82.66,2.79,2.79,0,0,1-1.83-.64,2.26,2.26,0,0,1-.78-1.88,10.77,10.77,0,0,1,1.46-4.82,10.34,10.34,0,0,1,2.51-3.12,5.49,5.49,0,0,1,3.58-1.36,6.14,6.14,0,0,1,2.83.7.52.52,0,0,0,.23.09,3.21,3.21,0,0,0,.59-.3,1.9,1.9,0,0,1,.83-.3c.2,0,.29.13.29.38a3.34,3.34,0,0,1-.35.91c-.24.49-.39.81-.46,1a12.81,12.81,0,0,0-.38,1.75c-.17,1-.5,2.82-1,5.44s-.84,4.74-1.13,6.37-.43,2.48-.43,2.58a.25.25,0,0,0,.06.2,1.33,1.33,0,0,0,.4,0l1.51.06c.24,0,.36.18.36.48s-.06.62-.18.67a.85.85,0,0,1-.39.08L210,73.29Zm-2.28-14.68a12.52,12.52,0,0,0-.61,1.65,5.37,5.37,0,0,0-.23,1.45,1.61,1.61,0,0,0,.4,1.11,1.13,1.13,0,0,0,.83.46,1.71,1.71,0,0,0,1-.38,7.87,7.87,0,0,0,1.09-1,25.74,25.74,0,0,0,2-2.55q2.15-3.17,2.15-4.28a.84.84,0,0,0-.35-.59,2.16,2.16,0,0,0-1.45-.6,2.69,2.69,0,0,0-1.45.42,5.43,5.43,0,0,0-1.27,1.1A14,14,0,0,0,206,57.11,13,13,0,0,0,205.11,58.82Z"/><path d="M216.1,56.51s-.1-.06-.19-.16a.49.49,0,0,1-.14-.28,1.16,1.16,0,0,1,.28-.44,7.09,7.09,0,0,1,.73-.74,11.39,11.39,0,0,1,1-.83,3.59,3.59,0,0,1,1.95-.94q.72,0,.72.63c0,.43-.25,2.11-.75,5.06a35.67,35.67,0,0,1,1.61-4c.69-1.28,1.48-1.91,2.38-1.91a1.78,1.78,0,0,1,1,.31.89.89,0,0,1,.47.73,2.5,2.5,0,0,1-.07.67,1.07,1.07,0,0,1-.24.46.6.6,0,0,1-.46.2,1.41,1.41,0,0,1-.58-.14l-.56-.27a1,1,0,0,0-.48-.13.81.81,0,0,0-.67.47,12.76,12.76,0,0,0-1.24,2.51c-.37,1-.57,1.49-.61,1.61a3.52,3.52,0,0,0-.11.44c0,.16-.11.43-.2.81s-.25,1.08-.46,2.09-.35,1.65-.41,1.92-.24.23-.65.3a7.71,7.71,0,0,1-1,.1c-.25,0-.38-.07-.38-.21s.12-.7.36-1.94a57.28,57.28,0,0,0,1.08-6.74c0-.77-.09-1.15-.27-1.15a1.13,1.13,0,0,0-.62.24,4.25,4.25,0,0,0-.64.54l-.53.53C216.24,56.42,216.14,56.51,216.1,56.51Z"/><path d="M227.38,64.71a4.58,4.58,0,0,1-1.51-.79,1.29,1.29,0,0,1-.6-.91.85.85,0,0,1,.28-.67.8.8,0,0,1,.47-.24l.3,0,.2,0a.77.77,0,0,1,.19.08l.15.09.15.12.14.12.14.15.19.19c.06.05.17.17.33.34s.28.29.35.35a2.36,2.36,0,0,0,.27.24,1.63,1.63,0,0,0,.93.22,1.76,1.76,0,0,0,1.23-.58,2,2,0,0,0,.59-1.52,2.09,2.09,0,0,0-.86-1.44c-.25-.23-.53-.46-.84-.71s-.61-.49-.92-.76a9.23,9.23,0,0,1-.84-.8,2.88,2.88,0,0,1-.86-1.92,3.16,3.16,0,0,1,.55-1.81,3.83,3.83,0,0,1,1.48-1.31,3.87,3.87,0,0,1,1.84-.49,5.13,5.13,0,0,1,1.49.18,2.67,2.67,0,0,1,.88.42,2.31,2.31,0,0,1,.49.55,1.66,1.66,0,0,1,.28.81.61.61,0,0,1-.18.49.64.64,0,0,1-.45.17,1.79,1.79,0,0,1-1.53-1.12c-.24-.41-.41-.63-.53-.68a1.37,1.37,0,0,0-.44-.06,2.67,2.67,0,0,0-.58.08,2.9,2.9,0,0,0-.63.28,1.57,1.57,0,0,0-.66,1.44,2.5,2.5,0,0,0,.86,1.86c.25.23.54.47.84.7s.62.46.93.71a7,7,0,0,1,.85.77,3.21,3.21,0,0,1,.86,2.25A3.11,3.11,0,0,1,232,64a4.17,4.17,0,0,1-2.83,1A5.57,5.57,0,0,1,227.38,64.71Z"/><path d="M236.12,54.61c-.22,0-.33-.07-.33-.2l0-.58a.34.34,0,0,1,.08-.19.3.3,0,0,1,.25-.1h2l0,0v0s.08-.35.2-1,.21-1.22.27-1.7a2.31,2.31,0,0,1,.21-.84,1.86,1.86,0,0,1,1.1-.2h.22c.47,0,.71.08.71.24s0,.29-.16.77a25.5,25.5,0,0,0-.55,2.73s.09.07.21.07h2.27q.33,0,.27.36c0,.47-.18.71-.38.71h-2.35q-.19,0-.24.24c-.23,1.23-.49,2.73-.78,4.51s-.45,2.74-.45,2.87c0,.36.16.54.49.54s.91-.46,1.85-1.38c.36-.34.68-.66,1-1a3.18,3.18,0,0,1,.48-.43.86.86,0,0,1,.26.2c.15.13.22.22.22.26s-.09.18-.28.41-.42.5-.72.84-.65.68-1,1.05-.8.72-1.19,1a4,4,0,0,1-2.25,1.11,1,1,0,0,1-1.14-1.1c0-.21.26-1.75.79-4.61s.8-4.31.8-4.36v-.13c0-.07-.06-.11-.19-.11Z"/><path d="M246.23,61.61c.3-1.11.61-2.3.91-3.55a12.82,12.82,0,0,0,.46-2.69c0-.55-.17-.82-.51-.82s-.89.5-1.66,1.49-1.17,1.48-1.19,1.48a.66.66,0,0,1-.32-.15c-.15-.1-.22-.18-.22-.23a1.14,1.14,0,0,1,.21-.41A16.13,16.13,0,0,1,245,55.2l.72-.83q.19-.21.51-.51a4.41,4.41,0,0,1,.62-.47,2.69,2.69,0,0,1,1.33-.43,3.73,3.73,0,0,1,1,.11,1.6,1.6,0,0,1,.65.39.94.94,0,0,1,.28.66,12.83,12.83,0,0,1-.49,2.19,50.27,50.27,0,0,0-1.43,6.16c0,.4.21.6.64.6a1.8,1.8,0,0,0,1.26-.59,11.82,11.82,0,0,0,1.5-1.83,18.28,18.28,0,0,0,3.28-7.44.32.32,0,0,1,.26-.23,7.11,7.11,0,0,1,1.51-.16.24.24,0,0,1,.27.26c0,.18-.28,1.67-.83,4.48s-.82,4.32-.82,4.54c0,.45.16.67.48.67s.79-.45,1.47-1.36c.24-.34.47-.66.68-.94s.32-.43.36-.43a.68.68,0,0,1,.21.11c.11.07.16.13.16.18a2.45,2.45,0,0,1-.27.56,11.07,11.07,0,0,1-.72,1.14,15.62,15.62,0,0,1-1,1.3,3.43,3.43,0,0,1-2.35,1.53,1.2,1.2,0,0,1-.76-.25.85.85,0,0,1-.32-.7,10.52,10.52,0,0,1,.26-1.69l.62-2.83c.24-1.06.41-1.86.5-2.41a26.62,26.62,0,0,1-1.8,3.27Q249.65,65,247.51,65c-1.16,0-1.74-.45-1.74-1.36A11.76,11.76,0,0,1,246.23,61.61Z"/><path d="M267.53,54q-.27,0-.27-.57,0-.23,1.17-.51a8.88,8.88,0,0,1,1.82-.28,1.53,1.53,0,0,1,1,.27,1,1,0,0,1,.34.88,6.55,6.55,0,0,1-.09,1.13c-.07.34-.14.66-.23,1a8.07,8.07,0,0,1-.4,1c-.18.38-.34.7-.49,1a9.32,9.32,0,0,1-.61,1c-.26.4-.48.72-.65,1s-.41.59-.73,1c-.48.64-.91,1.19-1.27,1.64-.62.79-1,1.35-1.24,1.69a3.41,3.41,0,0,1-.47.65.79.79,0,0,1-.54.15,1.8,1.8,0,0,1-1-.47q-.58-.47-.78-.66a2.71,2.71,0,0,1-.35-.48,1.89,1.89,0,0,1-.24-.64,5.71,5.71,0,0,1-.06-.9c0-.36.1-1.38.3-3.08s.3-2.77.3-3.19a2.83,2.83,0,0,0-.05-.76.46.46,0,0,0-.2-.22,1.36,1.36,0,0,0-.7-.24,1.32,1.32,0,0,0-.72.3,3.82,3.82,0,0,0-.72.66,6.43,6.43,0,0,1-.9.95.64.64,0,0,1-.39-.16.45.45,0,0,1-.21-.32c0-.11.13-.31.39-.62a10.31,10.31,0,0,1,.93-1,3.81,3.81,0,0,1,2.19-1.28,2.8,2.8,0,0,1,1.39.36,3.82,3.82,0,0,1,.88.62,1.67,1.67,0,0,1,.24,1.08,33.94,33.94,0,0,1-.37,3.58c-.25,1.84-.37,2.88-.37,3.12a1,1,0,0,0,.39.72,1.15,1.15,0,0,0,.66.35.54.54,0,0,0,.44-.21c.12-.14.37-.48.77-1l.81-1.09.57-.82c.24-.37.44-.67.58-.92s.31-.55.5-.91a8.3,8.3,0,0,0,.42-1A6.2,6.2,0,0,0,270,55a1.92,1.92,0,0,0-.17-1,.55.55,0,0,0-.48-.22,4.16,4.16,0,0,0-.74.07c-.28,0-.51.09-.71.13Z"/><path d="M287.37,54.38q-.27,0-.27-.63c0-.14.55-.32,1.66-.54a14.73,14.73,0,0,1,2.12-.33c.73,0,1.1.4,1.1,1.21a7.06,7.06,0,0,1-.72,2.83,21.09,21.09,0,0,1-4.25,6c-.34.33-.65.64-.91.93l-.48.52-.13.13a2.25,2.25,0,0,0-.17.17l-.05,0,0,0-.05,0H285a2.47,2.47,0,0,1-1.81-.72,2.29,2.29,0,0,1-.74-1.68,14.76,14.76,0,0,1,.37-2.15c.24-1.16.38-1.82.41-2q-2.33,3.6-3,4.41c-.43.55-.74,1-.93,1.24s-.33.49-.44.64a.86.86,0,0,1-.68.39,1.87,1.87,0,0,1-1-.52,7.78,7.78,0,0,1-.87-.76,1.72,1.72,0,0,1-.41-1.17,10.53,10.53,0,0,1,.16-1.7,31.32,31.32,0,0,0,.5-4.9,1.33,1.33,0,0,0-.45-.81,1.21,1.21,0,0,0-.78-.48,1.49,1.49,0,0,0-.76.27,4.44,4.44,0,0,0-.75.59l-.58.59c-.18.18-.31.26-.39.26s-.18-.06-.28-.2a.63.63,0,0,1-.15-.37c0-.12.24-.39.71-.81a11.28,11.28,0,0,1,1.65-1.19,3.23,3.23,0,0,1,1.32-.57,2.26,2.26,0,0,1,.85.2,4.27,4.27,0,0,1,.75.39,3.83,3.83,0,0,1,.48.38,1.27,1.27,0,0,1,.28.38,2.29,2.29,0,0,1,.13.92q0,.63-.18,2.28c-.13,1.1-.25,2.08-.38,2.95s-.18,1.35-.18,1.47.11.31.35.58.4.4.48.4a.48.48,0,0,0,.22,0,1.61,1.61,0,0,0,.46-.45c.16-.22.63-.9,1.41-2s1.3-1.86,1.53-2.16A4.41,4.41,0,0,0,283,57a4.84,4.84,0,0,0,.32-1.28,1,1,0,0,0-.37-.74,4.51,4.51,0,0,0-.6-.53c-.29-.22-.44-.36-.44-.44a1.14,1.14,0,0,1,.45-.74,1.23,1.23,0,0,1,.79-.43,1.73,1.73,0,0,1,.87.34,4.32,4.32,0,0,1,.94.81,1.34,1.34,0,0,1,.4.85q0,.39-.45,3.45c-.3,2-.45,3.23-.45,3.56a1.27,1.27,0,0,0,.37.89c.25.25.45.38.6.38a.6.6,0,0,0,.41-.17c.12-.12.53-.58,1.23-1.4a26.08,26.08,0,0,0,1.83-2.34,8.13,8.13,0,0,0,1.07-2.09,6.86,6.86,0,0,0,.33-2c0-.71-.17-1.07-.53-1.07a6.94,6.94,0,0,0-1.57.18Z"/><path d="M305,55.81l0-1q0-.66-.42-.66-.9,0-3.57,4c-.08.11-.07.32,0,.64s.24.71.41,1.16.39.93.63,1.45c.55,1.17,1,1.76,1.45,1.76s.74-.33,1.14-1a3.93,3.93,0,0,1,.69-1,1.09,1.09,0,0,1,.34.1c.18.07.26.13.26.2a2.43,2.43,0,0,1-.56,1.23,12.93,12.93,0,0,1-1,1.22A2.79,2.79,0,0,1,302.56,65c-.74,0-1.34-.48-1.82-1.45a16.13,16.13,0,0,1-.77-1.93l-.43-1.29c0-.11-.08-.17-.12-.17s-.11.06-.21.17-.29.35-.56.71l-.78,1c-.24.32-.52.67-.85,1a12.38,12.38,0,0,1-.94,1,3,3,0,0,1-2,.93,1.44,1.44,0,0,1-.79-.22.76.76,0,0,1-.32-.65,7.3,7.3,0,0,1,.78-2.76c.07-.14.15-.21.25-.21a.9.9,0,0,1,.24,0c.23,0,.35.15.35.31s-.05.19-.15.52a2.94,2.94,0,0,0-.15.86q0,.57.54.57c.45,0,1.31-.73,2.6-2.18a21.58,21.58,0,0,0,1.41-1.7l.16-.28a.08.08,0,0,0,0,0v0a.43.43,0,0,0,0,0v0a.2.2,0,0,1,0,0l0-.06,0-.06s-.06-.18-.15-.43-.2-.55-.36-.94-.33-.77-.52-1.17a8,8,0,0,0-.59-1c-.44-.61-.87-.91-1.31-.91a2.12,2.12,0,0,0-1.4.87c-.2.21-.37.41-.53.59s-.28.27-.34.27-.15-.06-.25-.18a.54.54,0,0,1-.15-.33c0-.16.18-.44.53-.82a10.24,10.24,0,0,1,1-.94,3.35,3.35,0,0,1,2.16-.85,2.27,2.27,0,0,1,1.48.44A6.09,6.09,0,0,1,300,56l.27.71.21.57c0,.09.06.14.08.15h0a1.49,1.49,0,0,0,.15-.21l.36-.58q.27-.41.45-.72l.48-.72c.19-.28.37-.52.53-.72a7.65,7.65,0,0,1,.56-.62,4.35,4.35,0,0,1,.61-.52,2.14,2.14,0,0,1,1.2-.47q1,0,1,1.29c0,.13-.08.71-.24,1.73,0,.08-.11.12-.34.12S305,55.91,305,55.81Z"/><path d="M306.48,73.53a.48.48,0,0,1-.44-.3,1.28,1.28,0,0,1-.16-.63A1.25,1.25,0,0,1,306,72a1.08,1.08,0,0,1,.42-.43,4.8,4.8,0,0,1,.52-.25,6.67,6.67,0,0,1,.65-.2l.7-.22a2.55,2.55,0,0,0,.72-.52,4.66,4.66,0,0,0,.86-1.17c.28-.51.54-1,.79-1.58a10.05,10.05,0,0,0,.53-1.43,7,7,0,0,0,.27-1.95c0-.64,0-1.27,0-1.91s-.05-1.32-.1-2.07-.13-1.44-.23-2.07-.22-1.21-.35-1.74q-.43-1.71-1.26-1.71a1.55,1.55,0,0,0-1.11.47c-.33.31-.56.56-.72.74l-.39.46c-.1.13-.17.19-.21.19a1.19,1.19,0,0,1-.29-.12q-.24-.12-.24-.21a1.13,1.13,0,0,1,.19-.41,7.45,7.45,0,0,1,.57-.76,8.55,8.55,0,0,1,.84-.87,3.44,3.44,0,0,1,2.36-1,2,2,0,0,1,1.84,1.38,14,14,0,0,1,.8,4.37c0,.48.1,1.87.19,4.17.15-.28.41-.78.81-1.5s.71-1.31.94-1.76A15.63,15.63,0,0,0,317,54.5c0-.21,0-.48.08-.8,0-.55.19-.82.44-.82a1.17,1.17,0,0,1,.85.29c.21.19.31.35.31.48,0,1.64-1.79,5.43-5.36,11.4l-.3.57q-2.08,4-2.65,5a6.46,6.46,0,0,1-.86,1.28,4,4,0,0,1-.57.44l-.55.33L308,73l-.38.21c-.16.09-.3.15-.4.2A2.21,2.21,0,0,1,306.48,73.53Z"/><path d="M330.22,61.77l.24,2.65a.37.37,0,0,1-.26.41,2.93,2.93,0,0,1-.76.09h-.36c-.47,0-1.72-.08-3.77-.24s-3.5-.23-4.36-.23c0,0-.09.06-.17.18-.24.35-.44.53-.61.53-.34,0-.5-.15-.5-.44a1,1,0,0,1,.23-.67c.18-.21.42-.47.72-.77l7.05-7.86.05-.06s0,0,0,0,0,0-.13,0a2.15,2.15,0,0,1-.44,0,5.7,5.7,0,0,1-1.2-.25l-1.67-.48a4.92,4.92,0,0,0-1.17-.23,1.31,1.31,0,0,0-.74.23,2.47,2.47,0,0,0-.59.5l-.42.5c-.13.15-.22.23-.27.23a.58.58,0,0,1-.28-.13c-.14-.1-.21-.16-.21-.21a1.19,1.19,0,0,1,.17-.35,5.86,5.86,0,0,1,.46-.67,8,8,0,0,1,.68-.77,4,4,0,0,1,.86-.63,2.1,2.1,0,0,1,.95-.26,4.88,4.88,0,0,1,1.19.2,14.2,14.2,0,0,1,1.35.46,7.73,7.73,0,0,0,2.44.66c.14,0,.31-.13.49-.39.35-.48.68-.73,1-.73a.53.53,0,0,1,.38.17.61.61,0,0,1,.16.44.83.83,0,0,1-.23.53,1.85,1.85,0,0,1-.52.41,7,7,0,0,0-1.05.64l-6.59,7.32c-.13.13-.07.19.16.2h.08l6.5.43c.16,0,.26,0,.3-.08a.76.76,0,0,0,.06-.38l0-.9c0-.09,0-.15.08-.17a1.15,1.15,0,0,1,.34,0H330C330.15,61.6,330.22,61.66,330.22,61.77Z"/><path d="M6.86,108.86l-2.75.06c-.17,0-.27,0-.31-.1a1.07,1.07,0,0,1,0-.38.63.63,0,0,1,.08-.39.44.44,0,0,1,.37-.12H5.55q.21,0,.21-.27c0-.58,0-1.46,0-2.63v-2.67c0-1.75,0-2.89,0-3.4s0-.81,0-.88,0-.1-.06-.1H4.16c-.22,0-.33-.16-.33-.49s.11-.5.33-.5L7,97.05,9.77,97c.19,0,.3.08.31.22a1.61,1.61,0,0,1,0,.26,1.36,1.36,0,0,1,0,.24.56.56,0,0,1,0,.15c0,.08-.16.12-.37.12H8.24s0,0,0,.07,0,.42-.06,1-.05,2-.05,4.33,0,3.6,0,3.93a1.62,1.62,0,0,0,.05.54s.1,0,.23,0h1.2c.28,0,.42.17.42.5s-.14.49-.42.49Z"/><path d="M16.7,108.86c-.38,0-.57-.14-.57-.41a.76.76,0,0,1,.34-.53c.23-.2.49-.41.8-.63s.63-.45.95-.67.67-.46,1-.73.74-.55,1.08-.82a10.72,10.72,0,0,0,1-.93,7.65,7.65,0,0,0,.83-1,4.27,4.27,0,0,0,.77-2.44,2.8,2.8,0,0,0-.67-2A2.28,2.28,0,0,0,20.5,98a6.06,6.06,0,0,0-3.64,1.67.74.74,0,0,1-.29.19q-.08,0-.3-.27A.72.72,0,0,1,16,99.1c0-.12.17-.32.5-.6a11,11,0,0,1,1.24-.86,6.74,6.74,0,0,1,3.5-1.12A3.79,3.79,0,0,1,24,97.63a3.72,3.72,0,0,1,1.11,2.75q0,2.85-5.76,6.35-.24.13-.24.18a1.43,1.43,0,0,0,.51,0h6.27a4.75,4.75,0,0,0,.58-1,7.41,7.41,0,0,1,.56-1,1.76,1.76,0,0,1,.39.08c.18.05.27.1.27.16s-.28,1.31-.84,3.48c-.05.16-.19.23-.42.23Z"/><path d="M37.47,104.66h.09q4.5.38,4.5,4.92a5.21,5.21,0,0,1-.53,2.3,5.62,5.62,0,0,1-1.38,1.8A6.25,6.25,0,0,1,36,115.25a9,9,0,0,1-2.32-.3c-1.37-.37-2.06-.79-2.06-1.26,0-.19.13-.35.38-.48a1.62,1.62,0,0,1,.8-.21,2,2,0,0,1,1,.27c.3.18.54.33.72.46l.45.3a2.72,2.72,0,0,0,1.34.29,2.88,2.88,0,0,0,1.7-.61A4.67,4.67,0,0,0,40,110a3.69,3.69,0,0,0-1-3,5.18,5.18,0,0,0-3.38-.9l-1.59.1c-.23,0-.38-.15-.47-.45l-.06-.22a.51.51,0,0,1,0-.2c0-.06,0-.12,0-.16a.24.24,0,0,1,.05-.1l0-.09a.36.36,0,0,1,.09-.08l.23-.11.17-.06.66-.19A12.47,12.47,0,0,0,36,104a5.78,5.78,0,0,0,1.38-.85,2.93,2.93,0,0,0,1.13-2.32,3.31,3.31,0,0,0-.69-2.2,2.18,2.18,0,0,0-1.77-.83,4.46,4.46,0,0,0-3.19,1.36c-.11.11-.18.16-.23.16s-.16-.08-.34-.24-.26-.29-.26-.37.13-.25.38-.49a6.85,6.85,0,0,1,.95-.75,5.57,5.57,0,0,1,3.19-1,4,4,0,0,1,2.85,1,3.57,3.57,0,0,1,1.12,2.74q0,2.53-2.79,3.75a3.45,3.45,0,0,0-1.05.52C36.72,104.62,37,104.66,37.47,104.66Z"/><path d="M53.77,115.28q-.42,0-.42-.48v-5.58a.46.46,0,0,0-.06-.29c0-.05-.15-.07-.32-.07H46c-.42,0-.63-.1-.63-.31a2,2,0,0,1,.29-.85,9.4,9.4,0,0,1,.73-1.16c.52-.72,1-1.37,1.53-2l4-4.8.27-.3.5-.58.61-.67.64-.67c.47-.45.78-.68.92-.68q.48,0,.48.87v8.87a.88.88,0,0,0,0,.39s.13.06.32.06h1.73c.17,0,.26,0,.28.09a1.23,1.23,0,0,1,0,.2v1.2c0,.15,0,.24,0,.27a.9.9,0,0,1-.32,0H55.75c-.2,0-.3,0-.31.11s0,1,.11,2.9.14,2.85.14,2.94-.19.32-.56.35Zm-6.11-9-.21.25a.69.69,0,0,0-.19.36c0,.1.19.16.58.17h5c.24,0,.38,0,.42-.07a.9.9,0,0,0,.06-.44v-6.48c0-.31,0-.47-.07-.48s-.13.05-.23.17a2.35,2.35,0,0,1-.18.22Z"/><path d="M63.91,97H64l1.26.07c2.51.14,4.07.21,4.7.21a3.5,3.5,0,0,0,1-.06.78.78,0,0,0,.13-.25q.2-.57.3-.57h.12c.32,0,.48.1.48.27-.07,1.07-.11,1.76-.12,2.08s-.4.6-1.14.6-1.41,0-2,0l-2.07-.13c-.76,0-1.32-.09-1.68-.1a1.78,1.78,0,0,0-.61,0,8.38,8.38,0,0,0-.38,1.6c-.21,1-.31,1.59-.31,1.68v.15l0,0h.11l.68.07a12.65,12.65,0,0,1,1.6.28,8.93,8.93,0,0,1,1.88.66,5.25,5.25,0,0,1,1.51,1,4.94,4.94,0,0,1,1.32,3.63,5.89,5.89,0,0,1-1.85,4.22,11.23,11.23,0,0,1-4.77,2.76,6,6,0,0,1-1.33.3c-.23,0-.36,0-.41-.13a1.23,1.23,0,0,1-.06-.46,1,1,0,0,1,.06-.43c0-.06.16-.11.37-.15a7.66,7.66,0,0,0,.82-.21,8.27,8.27,0,0,0,1.06-.42,9.06,9.06,0,0,0,1.11-.59,6.58,6.58,0,0,0,1-.78,6.49,6.49,0,0,0,.86-1,4.07,4.07,0,0,0,.81-2.35,5,5,0,0,0-.3-1.9,3.31,3.31,0,0,0-.83-1.19,4.49,4.49,0,0,0-1.25-.81,8.38,8.38,0,0,0-3.34-.6c-.37,0-.55-.15-.55-.45s.21-1.17.62-3,.65-3,.71-3.33.1-.53.11-.55a.15.15,0,0,1,0-.06.12.12,0,0,1,0,0l.05,0A.3.3,0,0,1,63.91,97Z"/><path d="M76.07,104.94a9.22,9.22,0,0,1-.45-2.9,11.74,11.74,0,0,1,.31-2.81,10.56,10.56,0,0,1,.82-2.34,14,14,0,0,1,1.2-2,13.5,13.5,0,0,1,1.43-1.76c.51-.51,1-1,1.54-1.43a14.91,14.91,0,0,1,1.5-1.14c.48-.31.92-.58,1.33-.81a4.84,4.84,0,0,1,1.46-.66.51.51,0,0,1,.44.26.91.91,0,0,1,.17.44c0,.12-.2.26-.6.43a8.85,8.85,0,0,0-1.39.77A10.46,10.46,0,0,0,82.45,92a13.19,13.19,0,0,0-1.16,1.2c-.37.43-.68.84-1,1.22s-.51.79-.74,1.2a14.87,14.87,0,0,0-.85,1.74,4.6,4.6,0,0,0-.28.8c0,.07,0,.1.09.1s.38,0,1-.16A11.85,11.85,0,0,1,81.7,98a7.07,7.07,0,0,1,2.38.38,5.7,5.7,0,0,1,1.82,1,4.68,4.68,0,0,1,1.69,3.74,5.59,5.59,0,0,1-1.78,4.36A6.09,6.09,0,0,1,81.59,109a5.44,5.44,0,0,1-4.28-1.83A6,6,0,0,1,76.07,104.94ZM78,100.5a10,10,0,0,0-.14,1.84,9.45,9.45,0,0,0,.15,1.87,5.49,5.49,0,0,0,.49,1.39,5,5,0,0,0,.82,1.19A3.59,3.59,0,0,0,82,107.9a2.88,2.88,0,0,0,2.42-1.31,4.33,4.33,0,0,0,.94-2.6,7.34,7.34,0,0,0-.28-2.21,4.65,4.65,0,0,0-.84-1.57,4.26,4.26,0,0,0-3.47-1.42,8.22,8.22,0,0,0-1.73.14,3.78,3.78,0,0,0-.64.16l-.08,0a.15.15,0,0,0-.07.07.29.29,0,0,1,0,.08.53.53,0,0,0,0,.11.5.5,0,0,1,0,.12C78.12,99.71,78.05,100,78,100.5Z"/><path d="M91.69,100.47s0-.52.15-1.47.16-1.62.2-2a1.77,1.77,0,0,1,.14-.71c.06-.07.2-.1.42-.1a.38.38,0,0,1,.5.47v.16a36.57,36.57,0,0,0,4.83.12h5c.4,0,.6.12.6.35a13,13,0,0,1-.77,1.53c-.51,1-1.58,3-3.19,6.18q-5.34,10.4-5.54,10.4a1.38,1.38,0,0,1-.73-.3.8.8,0,0,1-.44-.63q0-.18,4.08-7.21t4.35-7.5l.32-.54.07-.12a.46.46,0,0,0,.06-.18s0-.07-.15-.07H95.34c-1.66,0-2.51.1-2.54.3l-.18,1.44q0,.24-.48.24T91.69,100.47Z"/><path d="M106.73,106.14a4.16,4.16,0,0,1-.44-1.78,6.78,6.78,0,0,1,.14-1.47,5.38,5.38,0,0,1,.35-1,3.57,3.57,0,0,1,.54-.85,7,7,0,0,1,.6-.66,6.27,6.27,0,0,1,.68-.52,6.36,6.36,0,0,1,1.2-.71L110,99s0,0-.05-.06c-2.29-1.46-3.43-3.15-3.43-5a4.66,4.66,0,0,1,1.51-3.52A5.11,5.11,0,0,1,111.74,89a4.88,4.88,0,0,1,3.4,1.25,4.26,4.26,0,0,1,1.43,3.33,5.32,5.32,0,0,1-2.4,4.4l-.61.44c-.17.12-.26.19-.26.21s0,.05.11.1.23.15.48.29l.58.34c.14.09.34.23.6.43a4.24,4.24,0,0,1,.65.56,6.51,6.51,0,0,1,.57.68,4.53,4.53,0,0,1,.5.87,6,6,0,0,1,.44,2.29,4.49,4.49,0,0,1-1.53,3.53,5.85,5.85,0,0,1-4,1.36,5.62,5.62,0,0,1-3.78-1.36A4.56,4.56,0,0,1,106.73,106.14Zm1.33-2.28a4.36,4.36,0,0,0,1,3A3.48,3.48,0,0,0,111.8,108a2.9,2.9,0,0,0,1.75-.56,4.24,4.24,0,0,0,.73-5.78,10,10,0,0,0-2.68-1.94,2.24,2.24,0,0,0-.73-.34,1.62,1.62,0,0,0-.73.38,7.31,7.31,0,0,0-.7.58,4.94,4.94,0,0,0-.48.55,5.24,5.24,0,0,0-.45.76A5.06,5.06,0,0,0,108.06,103.86Zm2.45-6.81A8.21,8.21,0,0,0,112,98l.53.25.09,0a5.61,5.61,0,0,0,.57-.48,6.9,6.9,0,0,0,1.21-1.71,4.76,4.76,0,0,0,.68-2.3,4.27,4.27,0,0,0-.93-2.94,3.09,3.09,0,0,0-2.42-1,2.91,2.91,0,0,0-1.72.52,3.55,3.55,0,0,0-1.49,3.1A4.55,4.55,0,0,0,110.51,97.05Z"/><path d="M123.34,107.23a4.49,4.49,0,0,1-1.78-1.86,5.34,5.34,0,0,1-.62-2.49,7.5,7.5,0,0,1,.3-2.26,5.2,5.2,0,0,1,2.1-2.85,6,6,0,0,1,3.48-1,5.71,5.71,0,0,1,4.32,1.81,7.52,7.52,0,0,1,1.77,5.35,9.75,9.75,0,0,1-.61,3.43,9.4,9.4,0,0,1-1.58,2.75,14.8,14.8,0,0,1-2.18,2.07,14.6,14.6,0,0,1-2.39,1.52,21.88,21.88,0,0,1-2.24,1,9.57,9.57,0,0,1-2.54.73c-.09,0-.16-.11-.23-.33a2,2,0,0,1-.1-.54s.13-.1.39-.19l1-.38c.43-.16.93-.36,1.47-.59a12.44,12.44,0,0,0,1.72-.94,14.21,14.21,0,0,0,1.73-1.3,9.5,9.5,0,0,0,2.76-4.06c.07-.2.08-.31,0-.31a2.14,2.14,0,0,0-.53.28,6.1,6.1,0,0,1-1.47.58,8.58,8.58,0,0,1-2.34.28A4.94,4.94,0,0,1,123.34,107.23Zm0-6.64a5.68,5.68,0,0,0-.24,1.62,5.88,5.88,0,0,0,.16,1.46,4.37,4.37,0,0,0,.48,1.21,4.19,4.19,0,0,0,.76,1,3.35,3.35,0,0,0,2.4.92,6,6,0,0,0,2.39-.42,2.64,2.64,0,0,0,1.31-1.08,3.9,3.9,0,0,0,.18-1.46,11.8,11.8,0,0,0-.14-1.9,7,7,0,0,0-.44-1.56,5.32,5.32,0,0,0-.74-1.31,3.05,3.05,0,0,0-2.52-1.24A3.45,3.45,0,0,0,123.31,100.59Z"/><path d="M137.53,107.25a6.08,6.08,0,0,1-1.66-4.17,5.72,5.72,0,0,1,5.88-5.79,5.5,5.5,0,0,1,4.3,1.74,5.91,5.91,0,0,1,1.51,4.11,5.57,5.57,0,0,1-1.74,4.23,5.92,5.92,0,0,1-4.25,1.65,5.17,5.17,0,0,1-2.22-.49A5.69,5.69,0,0,1,137.53,107.25Zm.89-7.27a4.39,4.39,0,0,0-1,1.42,4.5,4.5,0,0,0-.38,1.9,3.87,3.87,0,0,0,.62,2.07,4.24,4.24,0,0,0,3.87,2,4.38,4.38,0,0,0,4-1.93,4.62,4.62,0,0,0,.72-2.52,3.89,3.89,0,0,0-.66-2.31,4.34,4.34,0,0,0-1.72-1.45,5,5,0,0,0-4-.16A4.72,4.72,0,0,0,138.42,100Z"/></svg>