<svg xmlns="http://www.w3.org/2000/svg" width="497.8" height="109.7" viewBox="0 0 497.8 109.7"><title>ubuntu</title><g id="Layer_2" data-name="Layer 2"><g id="Layer_1-2" data-name="Layer 1"><path d="M16.2,21.3l-.9-2.7-1-2.7H4.9L3,21.3H0c.8-2.2,1.5-4.3,2.2-6.1L4.3,9.8C5,8.2,5.6,6.5,6.3,5S7.6,2,8.4.5H11c.8,1.5,1.4,3,2.1,4.5s1.3,3.2,2,4.8,1.3,3.5,2,5.4l2.3,6.1Zm-2.7-7.8c-.7-1.7-1.3-3.4-1.9-5s-1.3-3.2-2-4.7c-.7,1.5-1.3,3.1-2,4.7l-1.8,5Z"/><path d="M27.8,21.4H23.5l-1.3-.3V.8L23.5.5h4.3l3.4.2a7.9,7.9,0,0,1,2.7,1,4,4,0,0,1,1.8,1.6,5.3,5.3,0,0,1,.7,2.6,4.1,4.1,0,0,1-.9,2.8,4.4,4.4,0,0,1-2.1,1.7,5.6,5.6,0,0,1,2.9,1.7,4.5,4.5,0,0,1,1.1,3.3,5.6,5.6,0,0,1-2.3,4.7C33.6,20.9,31.1,21.4,27.8,21.4ZM25.1,9.2h5.1a3.8,3.8,0,0,0,1.6-.6,2.9,2.9,0,0,0,1.2-1,3.4,3.4,0,0,0,.4-1.6,2.5,2.5,0,0,0-.5-1.5,2.7,2.7,0,0,0-1.1-1l-1.7-.5L28,2.7H25.1Zm0,2.4v7.3H28l2.4-.2,2.1-.5a5.3,5.3,0,0,0,1.4-1.2,3.6,3.6,0,0,0,.5-1.9,3.9,3.9,0,0,0-.4-1.7,3.2,3.2,0,0,0-1.1-1.2l-1.8-.6h-6Z"/><path d="M50.4,21.7a10.5,10.5,0,0,1-4-.7,9.5,9.5,0,0,1-3.1-2.1,11.3,11.3,0,0,1-2-3.4,16.6,16.6,0,0,1-.7-4.7,13.4,13.4,0,0,1,.8-4.6,11.7,11.7,0,0,1,2.2-3.4A9.5,9.5,0,0,1,46.7.7,10,10,0,0,1,50.6,0l2.3.2,1.8.4,1.2.5.7.3-.8,2.4L55,3.4,53.8,3l-1.4-.3-1.5-.2a7.3,7.3,0,0,0-3,.6,6.3,6.3,0,0,0-2.3,1.7,9.2,9.2,0,0,0-1.4,2.6,12.1,12.1,0,0,0-.5,3.4,11.6,11.6,0,0,0,.5,3.4,7.5,7.5,0,0,0,1.3,2.7,5.8,5.8,0,0,0,2.1,1.7,7.5,7.5,0,0,0,3.1.6,10.4,10.4,0,0,0,3.3-.5,8.8,8.8,0,0,0,2-.7l.7,2.4-.7.4-1.4.4-1.8.4Z"/><path d="M77.1,10.8a13.2,13.2,0,0,1-.8,4.7,8.3,8.3,0,0,1-2.4,3.3,9.1,9.1,0,0,1-3.6,2,17.8,17.8,0,0,1-4.7.6H62.8a11,11,0,0,1-2.7-.4V.8A11,11,0,0,1,62.8.4h2.8a17.8,17.8,0,0,1,4.7.6,9.1,9.1,0,0,1,3.6,2,8.3,8.3,0,0,1,2.4,3.3A13,13,0,0,1,77.1,10.8ZM65.8,18.9c2.8,0,4.8-.7,6.2-2.1s2-3.4,2-6a8,8,0,0,0-2-5.9c-1.4-1.4-3.4-2.1-6.2-2.1H63V18.8h2.8Z"/><path d="M81.4,21.3V.5H94.1V3H84.3V9.1H93v2.5H84.3v7.2H94.9v2.5Z"/><path d="M98.6,21.3V.5h12.5V3h-9.6V9.2H110v2.5h-8.5v9.6Z"/><path d="M126.9,11h2.9v9.7l-1,.3-1.5.3-2,.3h-2.1a12.4,12.4,0,0,1-4-.7,9.5,9.5,0,0,1-3.1-2.1,12.7,12.7,0,0,1-2-3.4,16.6,16.6,0,0,1-.7-4.7,13.4,13.4,0,0,1,.8-4.6,10,10,0,0,1,2.2-3.4A9.5,9.5,0,0,1,119.5.7a10,10,0,0,1,3.9-.7l2.5.2,1.9.4,1.3.5.6.3-.9,2.5a9.9,9.9,0,0,0-2.3-1,14.5,14.5,0,0,0-2.9-.4,6.5,6.5,0,0,0-2.9.6,6.3,6.3,0,0,0-2.3,1.7A9.2,9.2,0,0,0,117,7.4a12.1,12.1,0,0,0-.5,3.4,16.7,16.7,0,0,0,.4,3.4,7.7,7.7,0,0,0,1.4,2.7,6.2,6.2,0,0,0,2.2,1.7,6.7,6.7,0,0,0,3,.6l2.2-.2,1.2-.2Z"/><path d="M147.5.5h2.9V21.3h-2.9V11.7H137.3v9.6h-2.9V.5h2.9V9.1h10.2Z"/><path d="M155.5.5h2.9V21.3h-2.9Z"/><path d="M173.6,14.6a12.7,12.7,0,0,1-.3,2.8,5.7,5.7,0,0,1-1.1,2.2,4.8,4.8,0,0,1-2.2,1.5,8.1,8.1,0,0,1-3.3.6l-1.9-.2-1.5-.4-1.2-.5a2.8,2.8,0,0,1-.8-.6l1.1-2.3,1.6,1a6.2,6.2,0,0,0,2.5.5,4.3,4.3,0,0,0,3.2-1.1,6.2,6.2,0,0,0,1-3.8V.5h2.9Z"/><path d="M194,.5l-2.1,2.2-2.5,2.6-2.5,2.6-2.4,2.3a17.4,17.4,0,0,1,2.7,2.2l2.9,2.8,2.6,3.1a26.1,26.1,0,0,1,2,3h-3.4a26.4,26.4,0,0,0-2.1-2.9l-2.5-2.7a19.5,19.5,0,0,0-2.6-2.4,18.8,18.8,0,0,0-2.6-1.9v9.9h-2.9V.5h2.9V9.7l2.3-2.3,2.5-2.5,2.3-2.4,1.9-2Z"/><path d="M209.9,18.7v2.6H197.4V.5h2.9V18.7Z"/><path d="M222.3,18.4a20.5,20.5,0,0,0-.8-1.9c-.3-.7-.7-1.5-1-2.4l-1.3-2.6L218,8.9l-1-2.2-.8-1.4c-.2,2.3-.4,4.9-.6,7.6l-.3,8.4h-2.9l.3-5.5.3-5.4c.2-1.8.3-3.5.5-5.2s.3-3.2.5-4.7h2.5c.5.9,1.1,1.9,1.7,3.1a33.6,33.6,0,0,1,1.9,3.8l1.8,3.9,1.6,3.6,1.6-3.6,1.8-3.9c.6-1.4,1.2-2.6,1.8-3.8A28.4,28.4,0,0,1,230.5.5H233c.7,6.7,1.2,13.6,1.5,20.8h-2.8c-.1-2.8-.2-5.6-.4-8.4s-.3-5.3-.5-7.6L230,6.7l-1.1,2.2a19.6,19.6,0,0,1-1.2,2.6l-1.2,2.6c-.4.9-.7,1.7-1.1,2.4l-.7,1.9Z"/><path d="M253.3,21.3a23.6,23.6,0,0,0-1.5-2.5c-.5-1-1.2-1.9-1.8-2.9l-2.1-3-2.1-3-2-2.6L241.9,5V21.3h-2.8V.5h2.3a38.3,38.3,0,0,1,3,3.5c1.1,1.3,2.1,2.7,3.2,4.1l3,4.1c.9,1.4,1.7,2.6,2.3,3.7V.5h2.9V21.3Z"/><path d="M260.1,10.8a11.9,11.9,0,0,1,.8-4.7A10.8,10.8,0,0,1,263,2.7a8.3,8.3,0,0,1,3.2-2,10,10,0,0,1,3.9-.7,9.9,9.9,0,0,1,3.8.7,8.7,8.7,0,0,1,3.1,2,10.8,10.8,0,0,1,2.1,3.4,11.9,11.9,0,0,1,.8,4.7,12.1,12.1,0,0,1-.8,4.8A10.8,10.8,0,0,1,277,19a8.7,8.7,0,0,1-3.1,2,9.9,9.9,0,0,1-3.8.7,10,10,0,0,1-3.9-.7,8.3,8.3,0,0,1-3.2-2,10.8,10.8,0,0,1-2.1-3.4A12.1,12.1,0,0,1,260.1,10.8Zm3,0a12.3,12.3,0,0,0,.5,3.5,7.2,7.2,0,0,0,1.4,2.6,6.8,6.8,0,0,0,2.1,1.7,7.3,7.3,0,0,0,5.8,0,6.8,6.8,0,0,0,2.1-1.7,9.2,9.2,0,0,0,1.4-2.6,12.5,12.5,0,0,0,.4-3.5,12.2,12.2,0,0,0-.4-3.4A9.2,9.2,0,0,0,275,4.8a6.8,6.8,0,0,0-2.1-1.7,7.3,7.3,0,0,0-5.8,0A6.8,6.8,0,0,0,265,4.8a7.2,7.2,0,0,0-1.4,2.6A12.1,12.1,0,0,0,263.1,10.8Z"/><path d="M289.8.3c2.9,0,5.1.5,6.7,1.6a5.6,5.6,0,0,1,2.3,5,7.5,7.5,0,0,1-.6,3.1,5.2,5.2,0,0,1-1.9,2,8.4,8.4,0,0,1-2.9,1.2,23.8,23.8,0,0,1-3.9.3h-2.4v7.8h-2.9V.8A12.6,12.6,0,0,1,287,.4Zm.2,2.5h-2.9v8.2h2.2l2.7-.2,2.1-.7a3,3,0,0,0,1.2-1.3,3.9,3.9,0,0,0,.5-2,3.9,3.9,0,0,0-.5-2,4.9,4.9,0,0,0-1.2-1.3,6,6,0,0,0-1.9-.6Z"/><path d="M301.6,10.8a14,14,0,0,1,.8-4.7,11.1,11.1,0,0,1,2.2-3.4,7.6,7.6,0,0,1,3.2-2,9.5,9.5,0,0,1,3.8-.7,9.9,9.9,0,0,1,3.8.7,7.9,7.9,0,0,1,3.1,2,13.3,13.3,0,0,1,2.2,3.4,14,14,0,0,1,.8,4.7,13.3,13.3,0,0,1-.6,4.2,10.9,10.9,0,0,1-1.7,3.2,7.2,7.2,0,0,1-2.5,2.1,7.9,7.9,0,0,1-3,1.2,1.7,1.7,0,0,0,.6,1.2l1.5.9,2,.6,2.2.3-.7,2.3a15.9,15.9,0,0,1-3-.6,9.2,9.2,0,0,1-2.5-.9,6,6,0,0,1-2-1.4,4.4,4.4,0,0,1-1-2.2,10.6,10.6,0,0,1-3.6-.9,8.6,8.6,0,0,1-2.9-2.1,12.7,12.7,0,0,1-2-3.4A15.2,15.2,0,0,1,301.6,10.8Zm3.1,0a9.6,9.6,0,0,0,.5,3.5,7.1,7.1,0,0,0,1.3,2.6,6.2,6.2,0,0,0,2.2,1.7,6.4,6.4,0,0,0,2.8.6,6.5,6.5,0,0,0,2.9-.6,6.8,6.8,0,0,0,2.1-1.7,7.2,7.2,0,0,0,1.4-2.6,12.3,12.3,0,0,0,.5-3.5,12.1,12.1,0,0,0-.5-3.4,7.2,7.2,0,0,0-1.4-2.6,6.8,6.8,0,0,0-2.1-1.7,6.5,6.5,0,0,0-2.9-.6,6.4,6.4,0,0,0-2.8.6,6.2,6.2,0,0,0-2.2,1.7,7.1,7.1,0,0,0-1.3,2.6A9.3,9.3,0,0,0,304.7,10.8Z"/><path d="M335.9,12.6l1.3,1.5c.4.7,1,1.4,1.5,2.2l1.5,2.5a14.9,14.9,0,0,1,1.3,2.5h-3.2c-.4-.8-.8-1.6-1.3-2.4l-1.4-2.2c-.5-.7-.9-1.4-1.4-2l-1.3-1.6h-4.2v8.2h-2.9V.8a11,11,0,0,1,2.7-.4h2.8c2.9,0,5.1.5,6.7,1.6a5.8,5.8,0,0,1,2.3,4.9,6.1,6.1,0,0,1-1.1,3.6A7.4,7.4,0,0,1,335.9,12.6Zm-4.4-9.8h-2.8v7.8h4.8a5.9,5.9,0,0,0,2-.6,3.7,3.7,0,0,0,1.3-1.2,4,4,0,0,0,.4-2,3.6,3.6,0,0,0-.4-1.9,2.7,2.7,0,0,0-1.3-1.3,4.8,4.8,0,0,0-1.8-.6Z"/><path d="M349.5,19.2c3,0,4.5-1.1,4.5-3.1a3.1,3.1,0,0,0-.4-1.7,3.8,3.8,0,0,0-1.1-1.1,4.2,4.2,0,0,0-1.6-.9l-1.8-.7-2.2-.9a5.7,5.7,0,0,1-1.8-1.2A3.8,3.8,0,0,1,344,8a4.8,4.8,0,0,1-.5-2.2,5.1,5.1,0,0,1,1.9-4.3A7.8,7.8,0,0,1,350.5,0a11.8,11.8,0,0,1,3.4.4,9.1,9.1,0,0,1,2.3.9l-.9,2.4a5.7,5.7,0,0,0-1.9-.8,8.5,8.5,0,0,0-2.9-.4l-1.5.2-1.3.5a4.3,4.3,0,0,0-.9,1,2.5,2.5,0,0,0-.3,1.3,2.3,2.3,0,0,0,.4,1.4,4.1,4.1,0,0,0,.9,1l1.4.8,1.7.7,2.5,1.1a6.7,6.7,0,0,1,2,1.2,5.7,5.7,0,0,1,1.2,1.8,6.6,6.6,0,0,1,.5,2.5,4.8,4.8,0,0,1-2,4.2,9.1,9.1,0,0,1-5.6,1.5l-2.3-.2-1.8-.4-1.4-.4-.9-.5.8-2.4,2.1.9A11.8,11.8,0,0,0,349.5,19.2Z"/><path d="M374.5.5V3h-6.6V21.3H365V3h-6.5V.5Z"/><path d="M385.3,21.7a9.7,9.7,0,0,1-3.6-.6,5.5,5.5,0,0,1-2.4-1.8,5.8,5.8,0,0,1-1.5-2.5,11.5,11.5,0,0,1-.4-3.3V.5h2.9V13.2c0,2.1.4,3.6,1.4,4.5a4.5,4.5,0,0,0,3.6,1.4,6.4,6.4,0,0,0,2-.3,5.7,5.7,0,0,0,1.6-1.1,7.7,7.7,0,0,0,1-1.8,11.2,11.2,0,0,0,.3-2.7V.5h2.9v13a11.5,11.5,0,0,1-.4,3.3,5.8,5.8,0,0,1-1.5,2.5,5.5,5.5,0,0,1-2.4,1.8A9.5,9.5,0,0,1,385.3,21.7Z"/><path d="M414.9.5c-.7,2.2-1.5,4.2-2.1,6.1l-2.1,5.3c-.6,1.7-1.3,3.3-1.9,4.8s-1.3,3.1-2,4.6H404l-1.9-4.6c-.7-1.5-1.4-3.1-2-4.8L398,6.6c-.7-1.9-1.4-3.9-2.1-6.1h3.2c1,3.1,2.1,6.2,3.1,9.1s2.2,5.6,3.3,8.2c1.1-2.5,2.1-5.3,3.2-8.2s2-6,3.1-9.1Z"/><path d="M429.8,7.2c-.8,2.6-1.7,5.1-2.6,7.4s-1.7,4.5-2.5,6.7h-2.9a91.5,91.5,0,0,1-2.8-9.7c-.9-3.4-1.6-7.1-2.3-11.1h3.1c.2,1.5.5,3.1.8,4.7s.6,3,1,4.5.6,2.9.9,4.2.7,2.6,1,3.7c.8-2.1,1.6-4.4,2.5-6.9s1.8-5.1,2.6-7.8h2.5c.8,2.7,1.6,5.3,2.5,7.8s1.8,4.8,2.6,6.9l1-3.7.9-4.2.9-4.5.9-4.7h3c-.8,4-1.5,7.7-2.3,11.1s-1.8,6.6-2.8,9.7h-2.9c-.9-2.2-1.7-4.4-2.6-6.7S430.6,9.8,429.8,7.2Z"/><path d="M459,21.3l-1-2L456.6,17c-.5-.8-1-1.6-1.6-2.4l-1.5-2.2-1.6,2.2L450.4,17c-.5.8-1,1.5-1.4,2.3l-1.1,2h-3.2a49.7,49.7,0,0,1,3.1-5.4l3.8-5.6L445,.5h3.3l5.1,7.7L458.5.5h3.3l-6.5,9.7c1.4,1.9,2.6,3.8,3.8,5.6s2.3,3.7,3.2,5.5Z"/><path d="M471,21.3V12.9q-2.1-3.2-3.9-6.3c-1.2-2.1-2.4-4.1-3.4-6.1h3.4c.7,1.6,1.6,3.3,2.5,5s1.9,3.3,2.9,4.8a55.5,55.5,0,0,0,2.9-4.8c1-1.7,1.8-3.4,2.6-5h3.2l-3.4,6.1-3.9,6.3v8.4Z"/><path d="M497.5,2.8l-1.6,1.9A25.1,25.1,0,0,0,494,7.1l-2.1,2.8a27.3,27.3,0,0,0-2.1,3c-.7,1-1.4,2-2,3l-1.7,2.9h11.7v2.5H482.7v-2a24.3,24.3,0,0,1,1.5-2.6l1.8-3,2.1-3,2-2.9,2.1-2.7L493.9,3H483.3V.5h14.2Z"/><path d="M7.5,49.1a10.6,10.6,0,0,1,3.3.4,4.4,4.4,0,0,1,2.1,1.3,5.1,5.1,0,0,1,1.2,2,11.2,11.2,0,0,1,.3,2.7v9.3l-2.7.5a23.7,23.7,0,0,1-4.1.3,12,12,0,0,1-2.8-.3,6.7,6.7,0,0,1-2.1-.9,3.6,3.6,0,0,1-1.4-1.6,5.4,5.4,0,0,1-.5-2.4,4.1,4.1,0,0,1,.6-2.3,3.6,3.6,0,0,1,1.4-1.6A8.3,8.3,0,0,1,5,55.7a10.1,10.1,0,0,1,2.5-.3H9l1.1.2v-.4a2.1,2.1,0,0,0-.7-1.8A3,3,0,0,0,7,52.8H4.8l-2,.5-.5-3.6,1-.2,1.2-.3L6,49.1Zm.4,13h2.2V58.6h-3l-1,.3a1.2,1.2,0,0,0-.6.6,1.2,1.2,0,0,0-.3.9,1.5,1.5,0,0,0,.7,1.4A4,4,0,0,0,7.9,62.1Z"/><path d="M33.1,57.4a9.3,9.3,0,0,1-.6,3.4,6.3,6.3,0,0,1-1.6,2.6,7.4,7.4,0,0,1-2.5,1.7,12.9,12.9,0,0,1-3.5.5H23.2l-1.8-.2-1.6-.3-1.4-.4v-22l4.5-.7v7.8l1.6-.5h1.7a7.3,7.3,0,0,1,3,.5,6.8,6.8,0,0,1,2.1,1.7A7.1,7.1,0,0,1,32.6,54,11.6,11.6,0,0,1,33.1,57.4Zm-4.6-.2c0-2.8-1-4.3-3.1-4.3l-1.4.2a2.8,2.8,0,0,0-1.1.5v8.1h1.9a3.2,3.2,0,0,0,2.8-1.2A5.9,5.9,0,0,0,28.5,57.2Z"/><path d="M35.8,57.4a12,12,0,0,1,.5-3.3,8.7,8.7,0,0,1,1.6-2.6,10,10,0,0,1,2.6-1.8,9,9,0,0,1,3.4-.6,8.2,8.2,0,0,1,2.3.2,16.6,16.6,0,0,1,2.1.6l-1,3.6-1.4-.4-1.6-.2a3.8,3.8,0,0,0-3,1.2,5.6,5.6,0,0,0-1,3.3,4.8,4.8,0,0,0,1,3.3,4,4,0,0,0,3.2,1.1h1.7l1.7-.5.6,3.7a7.4,7.4,0,0,1-1.9.5,10.9,10.9,0,0,1-2.6.3,8.4,8.4,0,0,1-3.7-.7,6.9,6.9,0,0,1-2.6-1.7,8.2,8.2,0,0,1-1.4-2.6A9.5,9.5,0,0,1,35.8,57.4Z"/><path d="M64.7,64.7l-1.4.4-1.6.3-1.8.2H58.2a9,9,0,0,1-3.4-.5,6.9,6.9,0,0,1-2.6-1.7,7.2,7.2,0,0,1-1.6-2.5,9.3,9.3,0,0,1-.6-3.4,12.3,12.3,0,0,1,.5-3.5,7.2,7.2,0,0,1,1.4-2.6,6.2,6.2,0,0,1,2.2-1.7,7.3,7.3,0,0,1,3-.5h1.6l1.5.5V42.7l4.5-.7ZM54.6,57.2a5.9,5.9,0,0,0,.9,3.4,3.2,3.2,0,0,0,2.8,1.2h1.9V53.6a2.8,2.8,0,0,0-1.1-.5l-1.3-.2C55.6,52.9,54.6,54.4,54.6,57.2Z"/><path d="M68.1,57.5a8.7,8.7,0,0,1,.7-3.7,7.5,7.5,0,0,1,4.1-4.2,6.6,6.6,0,0,1,2.8-.5,7.2,7.2,0,0,1,5.3,2c1.3,1.4,1.9,3.4,1.9,6.1V58a1.9,1.9,0,0,1-.1.8H72.7A2.7,2.7,0,0,0,74,61a4.9,4.9,0,0,0,3.1.8,9.7,9.7,0,0,0,2.4-.2,7.4,7.4,0,0,0,1.9-.5l.6,3.6L81,65l-1.3.4-1.6.2H76.5a8.2,8.2,0,0,1-3.7-.7,6.2,6.2,0,0,1-2.6-1.7,7.6,7.6,0,0,1-1.6-2.6A11.3,11.3,0,0,1,68.1,57.5Zm10.5-1.7a3.6,3.6,0,0,0-.2-1.1,3.1,3.1,0,0,0-.5-1A2.2,2.2,0,0,0,77,53a2.4,2.4,0,0,0-1.3-.2,2.4,2.4,0,0,0-2.1.9,2.1,2.1,0,0,0-.6,1l-.3,1.1Z"/><path d="M93.2,42l2.3.2,1.6.5-.8,3.6L95,45.9H93.7a3,3,0,0,0-1.4.2,1.5,1.5,0,0,0-.9.6,3.6,3.6,0,0,0-.4.9,4.9,4.9,0,0,0-.1,1.2v.8h5.5v3.7H90.9V65.3H86.4V48.6a6.9,6.9,0,0,1,1.7-4.8A6.9,6.9,0,0,1,93.2,42Z"/><path d="M112.4,63.3c0,2.6-.7,4.5-2,5.7s-3.3,1.9-6,1.9a14.3,14.3,0,0,1-2.9-.3,18.1,18.1,0,0,1-2.7-.6l.8-3.8,2.2.7,2.6.2a3.8,3.8,0,0,0,2.7-.8,2.9,2.9,0,0,0,.8-2.2v-.6a3.4,3.4,0,0,1-1.4.5l-1.7.2a6.2,6.2,0,0,1-5-1.9A7.7,7.7,0,0,1,98,56.9a7.9,7.9,0,0,1,.6-3.2,5.1,5.1,0,0,1,1.6-2.4,5.4,5.4,0,0,1,2.5-1.6,9,9,0,0,1,3.4-.6h1.6l1.7.2,1.6.3,1.4.3Zm-9.8-6.4c0,2.5,1,3.7,3,3.7l1.3-.2a2.3,2.3,0,0,0,1-.4V52.9h-1.8a2.9,2.9,0,0,0-2.6,1.2A4.9,4.9,0,0,0,102.6,56.9Z"/><path d="M116.6,65.3V42.7l4.5-.7v7.5l1.1-.2,1.4-.2a9.8,9.8,0,0,1,3.2.5,5.3,5.3,0,0,1,3.1,3.8,13.6,13.6,0,0,1,.3,2.9v9h-4.5V56.9a6,6,0,0,0-.5-3.1,2.3,2.3,0,0,0-2.1-.9H122l-.9.3v12Z"/><path d="M139.1,44.9a2.4,2.4,0,0,1-.8,2,2.9,2.9,0,0,1-1.8.7,3.2,3.2,0,0,1-1.9-.7,2.8,2.8,0,0,1-.8-2,2.6,2.6,0,0,1,.8-1.9,2.6,2.6,0,0,1,1.9-.7,2.4,2.4,0,0,1,1.8.7A2.2,2.2,0,0,1,139.1,44.9Zm-.4,20.4h-4.4V49.5h4.4Z"/><path d="M141.4,70.8h-1.2l-1.5-.3.6-3.6.8.2h.9a1.8,1.8,0,0,0,1.5-.6,3,3,0,0,0,.4-1.8V49.5h4.5V64.7a6.2,6.2,0,0,1-1.5,4.6A6.3,6.3,0,0,1,141.4,70.8Zm6.4-25.9a2.8,2.8,0,0,1-.8,2,2.9,2.9,0,0,1-1.9.7,2.9,2.9,0,0,1-1.8-.7,2.4,2.4,0,0,1-.8-2,2.2,2.2,0,0,1,.8-1.9,2.4,2.4,0,0,1,1.8-.7,2.5,2.5,0,0,1,1.9.7A2.6,2.6,0,0,1,147.8,44.9Z"/><path d="M156,55.1a18.5,18.5,0,0,0,1.4-1.4l1.4-1.6,1.2-1.4,1-1.2h5.3L163.2,53l-3.3,3.4,1.9,1.9,1.8,2.4,1.7,2.4a16.4,16.4,0,0,1,1.2,2.2h-5.1c-.3-.6-.7-1.1-1.1-1.8L159,61.6l-1.4-1.8L156,58.3v7h-4.4V42.7L156,42Z"/><path d="M175.2,65.6a11.8,11.8,0,0,1-3.1-.5,4.3,4.3,0,0,1-2-1.1,3.9,3.9,0,0,1-.9-1.7,7.3,7.3,0,0,1-.3-2.2V42.7l4.5-.7V59.2a3.1,3.1,0,0,0,.1,1,2.4,2.4,0,0,0,.3.9,1.6,1.6,0,0,0,.8.5l1.3.3Z"/><path d="M187.1,56.9a5.8,5.8,0,0,0-.6-3.1,2.1,2.1,0,0,0-1.9-.9h-1.7V65.3h-4.5V50l1.3-.3,1.7-.3,1.7-.2h1.8a6.8,6.8,0,0,1,2.7.5,4.5,4.5,0,0,1,1.8,1,7.6,7.6,0,0,1,2.2-1.1,10.1,10.1,0,0,1,2.3-.4,8.7,8.7,0,0,1,3.1.5,4.9,4.9,0,0,1,1.9,1.5,6,6,0,0,1,1,2.3,13.6,13.6,0,0,1,.3,2.9v9h-4.5V56.9a7.3,7.3,0,0,0-.5-3.1,2.1,2.1,0,0,0-1.9-.9l-1,.2a2.8,2.8,0,0,0-1.1.5l.3,1.4V65.3h-4.4Z"/><path d="M204.2,50l3-.6a22.5,22.5,0,0,1,3.8-.3,10.4,10.4,0,0,1,3.3.5,5.7,5.7,0,0,1,2.1,1.5,6.1,6.1,0,0,1,1.1,2.3,13.6,13.6,0,0,1,.3,2.9v9h-4.4V56.9a5.8,5.8,0,0,0-.6-3.1,2.3,2.3,0,0,0-2.1-.9h-2V65.3h-4.5Z"/><path d="M236.6,57.3a9,9,0,0,1-.5,3.4,8.1,8.1,0,0,1-1.6,2.7,7,7,0,0,1-2.4,1.7,7.9,7.9,0,0,1-3.2.6,8.3,8.3,0,0,1-3.2-.6,7.3,7.3,0,0,1-4-4.4,9,9,0,0,1-.6-3.4,8.8,8.8,0,0,1,.6-3.3,10.1,10.1,0,0,1,1.6-2.7,8.1,8.1,0,0,1,5.6-2.2,7.8,7.8,0,0,1,3.1.6,7.2,7.2,0,0,1,2.5,1.6,8.1,8.1,0,0,1,1.6,2.7A8.8,8.8,0,0,1,236.6,57.3Zm-4.5,0a6.1,6.1,0,0,0-.8-3.2,3,3,0,0,0-4.8,0,6.1,6.1,0,0,0-.8,3.2,6.2,6.2,0,0,0,.8,3.3,3,3,0,0,0,4.8,0A6.2,6.2,0,0,0,232.1,57.3Z"/><path d="M254.7,57.4a11.5,11.5,0,0,1-.4,3.3,7.1,7.1,0,0,1-1.3,2.6,6.2,6.2,0,0,1-2.2,1.7,6.5,6.5,0,0,1-2.9.6l-1.8-.2-1.5-.5v5.9h-4.5V50l1.4-.3,1.6-.3,1.7-.2h1.7a9.5,9.5,0,0,1,3.5.6,6.5,6.5,0,0,1,2.6,1.7,6.8,6.8,0,0,1,1.6,2.6A9,9,0,0,1,254.7,57.4Zm-4.5.1a5.4,5.4,0,0,0-.9-3.3,3.3,3.3,0,0,0-2.8-1.3h-1.9v8a2.3,2.3,0,0,0,1,.5l1.4.2C249.1,61.8,250.2,60.3,250.2,57.5Z"/><path d="M257.4,57.4A9,9,0,0,1,258,54a7.6,7.6,0,0,1,1.6-2.6,7.8,7.8,0,0,1,2.6-1.7,9.5,9.5,0,0,1,3.5-.6h1.6l1.8.2,1.6.3,1.4.3V70.8h-4.5V64.9l-1.5.5-1.8.2a6.2,6.2,0,0,1-5.1-2.3A8.9,8.9,0,0,1,257.4,57.4Zm4.6.1c0,2.8,1.1,4.3,3.2,4.3l1.3-.2a2.3,2.3,0,0,0,1.1-.5v-8h-1.9a3.2,3.2,0,0,0-2.8,1.3A5.4,5.4,0,0,0,262,57.5Z"/><path d="M285.8,53.4l-1.4-.3h-2.8l-.8.2V65.3h-4.5v-15l2.8-.8a20.5,20.5,0,0,1,3.7-.3h1.9l1,.2.8.3Z"/><path d="M293.5,62a3.7,3.7,0,0,0,1.7-.2,1.1,1.1,0,0,0,.5-.9,1.2,1.2,0,0,0-.6-1l-2-.9-2-.8a7.1,7.1,0,0,1-1.4-1,4.2,4.2,0,0,1-.9-1.4,3.8,3.8,0,0,1-.4-1.9,4.1,4.1,0,0,1,1.7-3.5,6.9,6.9,0,0,1,4.5-1.3l2.8.2,2.1.6-.8,3.5-1.7-.5a6.8,6.8,0,0,0-2.1-.2c-1.4,0-2.1.4-2.1,1.1a4.3,4.3,0,0,0,.1.5l.4.4.7.4a3.3,3.3,0,0,0,1.2.5l2.4,1.1a7.4,7.4,0,0,1,1.6,1.1,4.6,4.6,0,0,1,.7,1.4,4.7,4.7,0,0,1,.3,1.7,4,4,0,0,1-1.8,3.6,8.8,8.8,0,0,1-5,1.2,12,12,0,0,1-3.5-.4l-1.9-.6.8-3.6,2.3.7A9.7,9.7,0,0,0,293.5,62Z"/><path d="M303.3,45.6l4.5-.8v4.7h5.4v3.7h-5.4v5.5a4.9,4.9,0,0,0,.5,2.3c.3.6,1,.8,2,.8h1.5l1.4-.4.6,3.5-1.8.6-2.4.2a8.7,8.7,0,0,1-3.1-.5,4.5,4.5,0,0,1-1.9-1.4,5.1,5.1,0,0,1-1-2.1,12,12,0,0,1-.3-2.8Z"/><path d="M330.2,64.7l-2.9.6a22.5,22.5,0,0,1-3.8.3,10.4,10.4,0,0,1-3.3-.5,5.7,5.7,0,0,1-2.1-1.5,6.6,6.6,0,0,1-1.1-2.4,9.2,9.2,0,0,1-.4-2.9V49.5h4.5v8.2a5.8,5.8,0,0,0,.6,3.1,2.2,2.2,0,0,0,2.1,1h2V49.5h4.4Z"/><path d="M338.3,65.3a71.2,71.2,0,0,1-3.1-7.1,80.2,80.2,0,0,1-3-8.7h4.7c.2.8.4,1.6.7,2.5l.9,2.8a27.6,27.6,0,0,0,.8,2.7q.4,1.3.9,2.4c.2-.7.5-1.5.8-2.4l.9-2.7.9-2.8c.2-.9.5-1.7.7-2.5h4.6c-1,3.1-2,6.1-3,8.7s-2.1,5.1-3.1,7.1Z"/><path d="M360.7,56.2c-.4,1.5-.9,3-1.3,4.5s-.9,3-1.4,4.6h-3.5q-.6-1.3-1.2-3c-.4-1.2-.8-2.5-1.3-3.8s-.9-2.9-1.4-4.4-.9-3.1-1.3-4.6H354c.1.7.3,1.5.5,2.3l.6,2.7a26.8,26.8,0,0,0,.7,2.7,19.7,19.7,0,0,0,.7,2.6c.2-.9.5-1.8.7-2.7a26.8,26.8,0,0,0,.7-2.7c.3-.9.5-1.8.7-2.6l.6-2.3h3.2c.2.7.3,1.5.5,2.3s.4,1.7.7,2.6a26.8,26.8,0,0,0,.7,2.7,26.8,26.8,0,0,0,.7,2.7c.2-.8.5-1.7.7-2.6a26.8,26.8,0,0,0,.7-2.7l.6-2.7c.2-.8.4-1.6.5-2.3h4.7c-.5,1.5-.9,3.1-1.4,4.6s-.9,3-1.4,4.4-.9,2.6-1.3,3.8-.8,2.1-1.2,3h-3.5c-.5-1.6-.9-3.1-1.4-4.6S361.1,57.7,360.7,56.2Z"/><path d="M381.4,53.9l3.1-4.4h4.6l-5.4,7.7q1.8,2.1,3.3,4.2a37.9,37.9,0,0,1,2.4,3.9h-4.8a6.7,6.7,0,0,1-.6-1.2c-.3-.4-.5-.9-.8-1.4a6.3,6.3,0,0,0-1-1.2l-.9-1-1,.9a6.2,6.2,0,0,0-.9,1.2l-.8,1.4a8.3,8.3,0,0,0-.7,1.3h-4.5a15,15,0,0,1,.9-1.8l1.4-2.1a17.7,17.7,0,0,1,1.6-2.2l1.7-1.9-2.8-4c-1-1.3-1.8-2.6-2.7-3.8h4.8Z"/><path d="M406.5,49.5c-.9,3-1.8,5.9-2.8,8.5s-2.1,5.3-3.2,7.8l-1.3,2.3a6.7,6.7,0,0,1-1.4,1.5,4.6,4.6,0,0,1-1.7.9,6.9,6.9,0,0,1-2.2.3l-1.9-.2-1.5-.4.8-3.6,1.2.3h1.2a2.4,2.4,0,0,0,1.8-.6,6.1,6.1,0,0,0,1.1-1.8c-1-2-2-4.3-3-6.7a68.3,68.3,0,0,1-2.9-8.4h4.7c.2.8.4,1.6.7,2.5l.9,2.8.9,2.7q.5,1.3.9,2.4c.2-.7.5-1.5.8-2.4a27.6,27.6,0,0,0,.8-2.7c.3-1,.6-1.9.8-2.8s.5-1.7.7-2.5Z"/><path d="M421.1,52.5l-1.5,1.6-1.9,2.2-2.1,2.6c-.8.9-1.4,1.8-2,2.6h7.6v3.8h-13V62.6a22.2,22.2,0,0,1,1.5-2.3c.6-.8,1.2-1.7,1.9-2.5s1.3-1.7,1.9-2.5,1.2-1.5,1.8-2.1h-6.7V49.5h12.5Z"/><path d="M2.5,92.8a21.6,21.6,0,0,0,3.4-1.7,14.2,14.2,0,0,0,2.9-2.6h2v20.8H8v-17a2.2,2.2,0,0,1-.9.7,4.1,4.1,0,0,1-1.1.7l-1.3.7-1.3.5Z"/><path d="M30.7,93.8a5.4,5.4,0,0,1-.5,2.1,9.3,9.3,0,0,1-1.1,1.9l-1.6,2-1.8,1.8-1.2,1.2-1.3,1.4-1,1.5a1.9,1.9,0,0,0-.4,1.2h9.6v2.4H18.8a.8.8,0,0,1-.1-.4v-.3a7.6,7.6,0,0,1,.5-2.7,12.7,12.7,0,0,1,1.2-2.3,16.3,16.3,0,0,1,1.7-2l1.8-1.9,1.4-1.4a5.3,5.3,0,0,0,1.2-1.4,5.5,5.5,0,0,0,.9-1.4,4.5,4.5,0,0,0,.3-1.6,4.1,4.1,0,0,0-.3-1.6,2.5,2.5,0,0,0-.8-1,2,2,0,0,0-1.1-.6l-1.3-.2-1.6.2-1.3.6-1,.6-.6.6-1.4-2a3.5,3.5,0,0,1,.9-.7l1.2-.9a8.5,8.5,0,0,1,1.7-.6,6.4,6.4,0,0,1,2-.3A7,7,0,0,1,29,89.5,5.5,5.5,0,0,1,30.7,93.8Z"/><path d="M40.3,107.2a5.9,5.9,0,0,0,3.9-1,4,4,0,0,0,1.1-2.9,3,3,0,0,0-.5-1.9,3.4,3.4,0,0,0-1.2-1.2,7.5,7.5,0,0,0-1.8-.7l-2.1-.2h-.8V97.1h1l1.6-.2,1.4-.5A3.8,3.8,0,0,0,44,95.3a3.1,3.1,0,0,0,.4-1.7,2.9,2.9,0,0,0-.3-1.4,2,2,0,0,0-.8-1,2.4,2.4,0,0,0-1.1-.6H40.8a6.1,6.1,0,0,0-2.4.4,9.1,9.1,0,0,0-1.7.8l-1.1-2.1.9-.5,1.3-.5,1.5-.4,1.6-.2a8.5,8.5,0,0,1,2.9.4,6.8,6.8,0,0,1,1.9,1.1,4.4,4.4,0,0,1,1.2,1.8,5.4,5.4,0,0,1,.4,2.2,4.2,4.2,0,0,1-.9,2.7A5.8,5.8,0,0,1,44.1,98a4.6,4.6,0,0,1,1.6.7A4.5,4.5,0,0,1,47,99.8a5.1,5.1,0,0,1,.9,1.6,6.4,6.4,0,0,1,.3,2,6.9,6.9,0,0,1-.4,2.5,4.8,4.8,0,0,1-1.5,2,5.5,5.5,0,0,1-2.4,1.3,12.3,12.3,0,0,1-3.5.5H38.8l-1.5-.3-1.3-.4-.8-.3.6-2.4,1.7.6A7.5,7.5,0,0,0,40.3,107.2Z"/><path d="M51.7,102.1,53.2,99a36.1,36.1,0,0,1,2.3-3.6c.8-1.3,1.7-2.5,2.6-3.7A30.9,30.9,0,0,1,61,88.5h2.7v13.2h2.4v2.2H63.7v5.4H61v-5.4H51.7ZM61,91.8a19.6,19.6,0,0,0-1.8,2.1,14.4,14.4,0,0,0-1.8,2.5c-.6.9-1.2,1.7-1.7,2.6s-.9,1.8-1.3,2.7H61Z"/><path d="M73.3,96.5c3.1.1,5.3.8,6.7,2a6,6,0,0,1,2.1,4.8,7.1,7.1,0,0,1-.5,2.6,4.6,4.6,0,0,1-1.4,2,5.5,5.5,0,0,1-2.4,1.3,11.1,11.1,0,0,1-3.4.5H72.8l-1.5-.3-1.2-.4-.8-.3.6-2.4,1.6.6a8.1,8.1,0,0,0,2.9.4,6.9,6.9,0,0,0,2.2-.3,5.3,5.3,0,0,0,1.5-.8,2,2,0,0,0,.8-1.2,3.2,3.2,0,0,0,.3-1.4,4.2,4.2,0,0,0-.4-2,3.3,3.3,0,0,0-1.4-1.5,7.1,7.1,0,0,0-2.6-.9,24.2,24.2,0,0,0-4.2-.3l.3-2.8c.1-.9.1-1.7.2-2.5a20.1,20.1,0,0,0,.1-2.5c.1-.8.1-1.6.2-2.5h10v2.3H73.8c0,.3-.1.8-.1,1.3s-.1,1-.1,1.5a9.7,9.7,0,0,0-.1,1.7C73.4,95.8,73.4,96.2,73.3,96.5Z"/><path d="M86.2,100.9a16.9,16.9,0,0,1,.8-5.3,10.8,10.8,0,0,1,2.4-3.9,10.5,10.5,0,0,1,3.7-2.5,15.9,15.9,0,0,1,5-.8l.2,2.3a15.5,15.5,0,0,0-3.2.4,7.7,7.7,0,0,0-2.6,1.2,6.1,6.1,0,0,0-1.9,2,10,10,0,0,0-1.2,3.1,4.8,4.8,0,0,1,1.8-.6,6.4,6.4,0,0,1,2-.3,6.7,6.7,0,0,1,3,.6,4.8,4.8,0,0,1,2,1.4,4.9,4.9,0,0,1,1.1,2,7.4,7.4,0,0,1,0,4.8,9.4,9.4,0,0,1-1.2,2.2,6.4,6.4,0,0,1-2,1.6,6.8,6.8,0,0,1-2.9.6,6.1,6.1,0,0,1-5.2-2.3A10.5,10.5,0,0,1,86.2,100.9Zm6.7-2.1-2,.2a6.4,6.4,0,0,0-1.8.6v1.3a10.1,10.1,0,0,0,.2,2.5,6.5,6.5,0,0,0,.6,2.1,4.3,4.3,0,0,0,1.3,1.4,3.6,3.6,0,0,0,1.9.5,3.1,3.1,0,0,0,1.7-.4,3.8,3.8,0,0,0,1.1-1.1,3.7,3.7,0,0,0,.7-1.4,7.7,7.7,0,0,0,.2-1.5,4.1,4.1,0,0,0-1-3.1A3.4,3.4,0,0,0,92.9,98.8Z"/><path d="M106.1,109.3a33.5,33.5,0,0,1,.8-5.1,45.1,45.1,0,0,1,1.7-5.2,49.1,49.1,0,0,1,2.2-4.6,21.2,21.2,0,0,1,2.3-3.5H103V88.5h13.2v2.3a18,18,0,0,0-2.2,3.1,31.5,31.5,0,0,0-2.2,4.5,27.6,27.6,0,0,0-1.9,5.3,26.2,26.2,0,0,0-.9,5.6Z"/><path d="M133.4,103.9a5.9,5.9,0,0,1-.5,2.3,4.6,4.6,0,0,1-1.3,1.8,5,5,0,0,1-2.1,1.3,9.5,9.5,0,0,1-3,.4,7.3,7.3,0,0,1-3.2-.6,5.4,5.4,0,0,1-2.1-1.3,5.2,5.2,0,0,1-1.1-1.9,7.2,7.2,0,0,1-.4-1.9,5.1,5.1,0,0,1,.3-1.7,6.4,6.4,0,0,1,.8-1.4,4.5,4.5,0,0,1,1.1-1.3l1.3-1a5.3,5.3,0,0,1-3-4.9,5.4,5.4,0,0,1,.5-2.2,5.7,5.7,0,0,1,1.2-1.8,8.2,8.2,0,0,1,2-1.2,7.5,7.5,0,0,1,2.6-.5,7.9,7.9,0,0,1,2.9.5,5.8,5.8,0,0,1,2,1.3,4.2,4.2,0,0,1,1.1,1.8,5.7,5.7,0,0,1,.3,1.8,5,5,0,0,1-.2,1.7,9.1,9.1,0,0,1-.7,1.4l-1,1.2-1.1.8A6,6,0,0,1,133.4,103.9Zm-10.8.1a2.5,2.5,0,0,0,.2,1.2,2.7,2.7,0,0,0,.6,1,6,6,0,0,0,1.3.9,5.6,5.6,0,0,0,3.6,0,4.1,4.1,0,0,0,1.3-.8,3.6,3.6,0,0,0,.7-1,2.7,2.7,0,0,0,.2-1.3,3.8,3.8,0,0,0-.3-1.6,4.5,4.5,0,0,0-1.1-1.3,3.5,3.5,0,0,0-1.6-.9l-2.1-.7a6.5,6.5,0,0,0-2.1,1.9A4.4,4.4,0,0,0,122.6,104Zm7.5-10.6a4.4,4.4,0,0,0-.2-1,3.6,3.6,0,0,0-.7-1,2.7,2.7,0,0,0-1-.8,4.3,4.3,0,0,0-1.7-.3,4.1,4.1,0,0,0-1.6.3l-1.1.8a2.1,2.1,0,0,0-.6,1,4.3,4.3,0,0,0-.2,1.1,3.1,3.1,0,0,0,.3,1.3A2.9,2.9,0,0,0,124,96a4.7,4.7,0,0,0,1.3,1.1l2,.7a7,7,0,0,0,2-1.8A4.2,4.2,0,0,0,130.1,93.4Z"/><path d="M150,96.8c0,4.1-1,7.2-3.1,9.3s-5,3.2-9.1,3.2V107a11.8,11.8,0,0,0,3.4-.4,8.1,8.1,0,0,0,2.7-1.1,9.5,9.5,0,0,0,1.9-2.1,8.7,8.7,0,0,0,1.1-3.1,4.8,4.8,0,0,1-1.8.6,6.5,6.5,0,0,1-2,.2,6.7,6.7,0,0,1-3-.5,4.8,4.8,0,0,1-2-1.4,5.6,5.6,0,0,1-1.1-2,6.9,6.9,0,0,1-.4-2.5,10.1,10.1,0,0,1,.4-2.3,9.4,9.4,0,0,1,1.2-2.2,6.4,6.4,0,0,1,2-1.6A6.5,6.5,0,0,1,143,88a6.7,6.7,0,0,1,3,.6,6.2,6.2,0,0,1,2.2,1.7,8.2,8.2,0,0,1,1.4,2.8A14,14,0,0,1,150,96.8Zm-6.7,2h2l1.8-.6V96.8a10.1,10.1,0,0,0-.2-2.5,6.5,6.5,0,0,0-.6-2.1,4.3,4.3,0,0,0-1.3-1.4,3.6,3.6,0,0,0-1.9-.5,2.9,2.9,0,0,0-1.7.4,4.3,4.3,0,0,0-1.2,1.1,3.5,3.5,0,0,0-.6,1.4,7.7,7.7,0,0,0-.2,1.5,4.3,4.3,0,0,0,1,3.1A3.7,3.7,0,0,0,143.3,98.8Z"/><path d="M153.4,98.8c0-3.4.6-6.1,1.8-8a6.1,6.1,0,0,1,10.3,0c1.2,1.9,1.8,4.6,1.8,8s-.6,6.2-1.8,8.1a6.1,6.1,0,0,1-10.3,0Q153.4,104.1,153.4,98.8Zm11,0c0-1.1-.1-2.2-.2-3.2a10.7,10.7,0,0,0-.7-2.7,5.7,5.7,0,0,0-1.2-1.8,3.1,3.1,0,0,0-1.9-.6,3.4,3.4,0,0,0-2,.6,5.7,5.7,0,0,0-1.2,1.8,17.6,17.6,0,0,0-.7,2.7c-.1,1-.2,2.1-.2,3.2a32.5,32.5,0,0,0,.2,3.3,17.6,17.6,0,0,0,.7,2.7,5.7,5.7,0,0,0,1.2,1.8,3.4,3.4,0,0,0,2,.6,3.1,3.1,0,0,0,1.9-.6,5.7,5.7,0,0,0,1.2-1.8,10.7,10.7,0,0,0,.7-2.7A32.5,32.5,0,0,0,164.4,98.8Z"/></g></g></svg>