<svg xmlns="http://www.w3.org/2000/svg" width="1182.6" height="452" viewBox="0 0 1182.6 452"><title>hub-og</title><g id="Layer_2" data-name="Layer 2"><g id="Layer_1-2" data-name="Layer 1"><path d="M410.6,75.5l31-30,42,42.5,48,57s8-3,13.5-4.5,15.5-3,15.5-3l-.5-117,5-16.5,7-3h11l4,2.5h11V0h9.5l-5.5,141.5a104.5,104.5,0,0,1,16,7c7,4,14.5,9.5,14.5,9.5l92-82.5,4.5,3,1,7.5s12.5-1,15,1.5,6,8.5,6,8.5l-93,96s6,14.5,6.5,17,1.5,13,1.5,13l121-1.5,6,5,1,5.5-6,3.5,1.5,8.5,7,6.5v12l-133.5,2s1.5-.5-4,9a100.6,100.6,0,0,1-7,10l86.5,86s2.5,5.5,1.5,7-4,5-4,5l-10,4-6.5,6.5-3,10.5-7-2-85-89.5s-9,7-11.5,8.5-14,4.5-14,4.5l1.5,127-7,2-8-3.5-7.5-2.5-5-1-7,4-4.5,1-4-5V324.5a103.9,103.9,0,0,1-14.5-3.5c-5.5-2-13.5-6-13.5-6l-85,84-9.5-1-6-3-8.5-.5-7.5-4.5s-5.5-6-6.5-8.5-1.5-8.5-1.5-8.5l90.5-85a96.8,96.8,0,0,0-6.5-10c-2.5-3-4.5-9-4.5-9l-127.5,4.5-7.5-4s-4-1-3-6.5,1.5-16.5,1-19.5-3.5-2.5-4-6-2-7,1-10.5,8-3,8-3h125s2.2-17,6-27a90.1,90.1,0,0,1,15.5-25.5Z"/><path d="M510.6,237.5s14.5-35.5,25-45,27-22,45.5-25.5,41.5,11.5,44,11,7-6.5-1-12.5-13.5-12.5-18.5-12-8,4-16.5,6-18.5-2.5-22.5-4.5-10.5-3-15.5-3-6-1.5-11,1.5-6,2-6.5,8.5,2,10.5-3,16-10,10.5-14,9.5-8-3-12.5-3-9,7.5-6.5,9.5,4,8,6.5,8,6.5-6.5,10-3.5,3,7-.5,7-12.5-1.5-12.5,4,1.5,8,4,9.5,2,2.5-1,5.5-5,10-2.5,12S510.6,237.5,510.6,237.5Z" fill="#fff"/><ellipse cx="492.3" cy="222.8" rx="4.3" ry="5.3" fill="#fff"/><ellipse cx="492.3" cy="255.8" rx="3.3" ry="6.7" fill="#fff"/><circle cx="553.8" cy="206.8" r="3.8" fill="#fff"/><ellipse cx="560.3" cy="194.8" rx="2.8" ry="4.3" fill="#fff"/><ellipse cx="584.8" cy="191.3" rx="3.3" ry="6.3" fill="#fff"/><path d="M421.6,74.5,444.1,54l76.5,87.5s3.5,2.5,3,6.5,0,9.5-2,10-6.5,6-8,1.5-24.5-34-27.5-35-7.5,4.5-9,4-9.5-10-11.5-12.5-3-11-7-12-9.5-.5-12-2.5-4-5-2-6.5,7-6.5,2-9.5-5-7-10.5-8S423.1,78.5,421.6,74.5Z" fill="#fff"/><path d="M578.6,5c5.3-1.8,5,4,10,5.5s9.5,2.5,11,2.5-1.5,136.5-1.5,136.5l-5.5,1s1,5-2.5,4.5-7.5,1.5-7.5-4.5-1-6-4-8.5-4-9.5-3.5-12.5-5-5-3.5-9.5,3-5.5,2.5-9.5-2-9.5-2-12.5,4.5-6,3-9-3-8-3-9.5,2.5-5.5,3-10-1.5-2.5-2-7.5-3-11,2.5-13.5,4-3,4-8.5.5-3-.5-12-4,9-7,8-3-10.5-3-14,3-4.5,3-8S575.6,6,578.6,5Z" fill="#fff"/><path d="M726.6,94c2.4-.5,17.5.5,17.5.5s2.5,1,0,4.5-89.5,93-92,93.5-4,.5-5.5-3.5,0-6,5-12-2-5.5,2.5-7,5-3,7.5-4.5,8-4.5,5-7-4-9.5,2.5-6,8.5,1,8-3-3-11,0-9.5,6.5,7.5,11,0,1.5-10.5,5-10.5,12,.5,11.5-3.5,4-4.5,5.5-8,.5-4.5,4.5-10,7-5.5,7.5-7S724.1,94.5,726.6,94Z" fill="#fff"/><path d="M678.6,240c4.9-.8,3.5-.5,5,4s2.5,11.5,4.5,4.5,0-12.5,5-12.5,4,4,7,4,6.5-4,10-7.5,6.5-3.5,10-5,4-2,8-2.5,46,0,46,0a19.4,19.4,0,0,0,5,1.5c3,.5,8,.5,6.5,3.5s-5,1-4.5,6.5-2.5,3.5,2.5,7,6,2.5,6,7-.5,6.5-5.5,6.5-100.5,2.5-103.5,1.5-2.5-1-4-5.5S675.6,240.5,678.6,240Z" fill="#fff"/><ellipse cx="674.8" cy="230.8" rx="3.3" ry="2.8" fill="#fff"/><ellipse cx="686.6" cy="230.5" rx="3.5" ry="2" fill="#fff"/><ellipse cx="643.1" cy="270.5" rx="6" ry="5" fill="#fff"/><path d="M646.1,231c6.1-.8,9-.5,11.5,3s.5,6.5-3.5,9.5-6.5,7.5-9,10.5-2,5-5.5,6.5-8.5,1.5-11.5-1.5-4-8.5-3.5-12.5,6.5-12,10-13A77.7,77.7,0,0,1,646.1,231Z" fill="#fff"/><path d="M598.1,208c12,0,17.5,5,22.5,6s14.5,3,16.5,5,7-2-.5,4-10,5-16.5,11.5-9,10.5-8,16.5,1,10,3.5,12,5,10.5,3,13-9.5,2-12.5,1.5-6.5-4-3.5-5,6,0,6.5-3-4-7.5-4-10.5-1.5-10-1-13.5.5-5-2-4.5-4,1.5-2.5,10.5,0,11.5,2,14.5,0,6.5-3,8.5-6,3.5-6,1,1.5-4,2.5-5.5-2.5-11-2-12.5,1.5-10.5-1.5-11.5-6,.5-8,0-4.5-7-7.5-7.5-.5,2.5-1.5,5.5-4,4-1,7.5,3,.5,5.5,4.5,4,.5,4.5,7,2.5,9,.5,11-3,8-5,1-2.5-4.5-4.5-10,2.5-3.5-4.5-9-7-11.5-6-17,4-15.5,13-23A34.8,34.8,0,0,1,598.1,208Z" fill="#fff"/><path d="M648.1,287c4.8,2.2,78,80.5,80.5,82.5s1,5-2.5,6.5-7,3.5-8.5,5-5.5,6.5-7,1-2-7-2.5-13-1.5-9.5-4.5-8-1,5.5-2,8.5-2,4.5-4,4.5-5,1-3-6,3.5-15,1-18.5-1.5-3.5-4-4-3-2-4,1-.5,5-4.5,5-1-2-2.5-3.5-1.5-1.5-2-8-1-10.5-3-9.5-1,9.5-2.5,10-5,2-5-1,1.5-11-.5-12.5-2,5.5-2,7.5-2.5,5-3.5,2.5-1-8-1-10,2-1.5,1-6-2.5-9-5.5-10-2,2-5.5-2-2.5-6-5.5-9-5-1-6.5-8.5S643.6,285,648.1,287Z" fill="#fff"/><circle cx="636.3" cy="305.8" r="4.3" fill="#fff"/><path d="M467.6,232l-117-.5s-2.5,3.5,0,5a76.8,76.8,0,0,0,9.5,4.5c1.5.5.5.5,4,2.5s6-.5,4,6.5-.5,5-5,8-9.5,4-7,6.5,6,3.5,8,2,4-4,6.5-6,1-9.5,3-9.5,1.5-2,2,1.5-.5,8.5,3,9.5,3,1,5-1,1.5-4.5,4.5-5.5,0,5,3.5,5,1-8,4.5-7.5,5.5,0,9,1.5-3.5,2,.5,3.5,15.5,3,17.5,2-1.5,1.5,2-3.5,2-6.5,5.5-7,15-3,17-2,2,4,5,7,1.5,5,6,4.5,2.5-3,6-4.5,5-5.5,6.5-6S470.1,231.5,467.6,232Z" fill="#fff"/><ellipse cx="475.3" cy="257.3" rx="4.3" ry="3.2" fill="#fff"/><ellipse cx="511.6" cy="243.3" rx="3" ry="3.8" fill="#fff"/><circle cx="511.3" cy="257.8" r="3.7" fill="#fff"/><path d="M499.1,298c-1.5,1.5-4.5,5-8,6.5a67,67,0,0,0-13.5,8.5c-3.5,3-54,54-56,55.5s-3,5,0,6,8,0,8.5,4-3,9.5,1.5,9.5,6-2,6-5,1-8,3.5-8,5.5,0,7.5-4.5,4-7,5-3,.5-6.5,3.5-7,5.5-10.5,7.5-10.5,1,5,8,3,3.5-9,7.5-13.5,8.5-10.5,11.5-11.5,9-4,11-10-3.5-4.5-2.5-8.5,5-4,3-7A19.6,19.6,0,0,0,499.1,298Z" fill="#fff"/><path d="M569.1,347c.5,2-.5,50,1.5,51s3-1,4.5,3.5,4,7.5,3.5,14-7.5,7.5-4,10,4.5-1.5,7,2.5-1,5,2,7.5,3,1,5,3.5a4.9,4.9,0,0,0,4.5,2l-.5-72a10.5,10.5,0,0,1-8-3c-3.5-3.5-1.5-7.5-3.5-12s-2.5-6-5-6.5A47.5,47.5,0,0,0,569.1,347Z" fill="#fff"/><circle cx="568.1" cy="420" r="2.5" fill="#fff"/><ellipse cx="569.3" cy="435.3" rx="2.3" ry="2.8" fill="#fff"/><ellipse cx="676.8" cy="140" rx="2.3" ry="2.5" fill="#fff"/><ellipse cx="701.1" cy="103.8" rx="3" ry="3.8" fill="#fff"/><ellipse cx="514.1" cy="172.8" rx="3" ry="5.3" fill="#fff"/><path d="M556.1,296c4.7,0,3,9.5,0,10.5s-5.5,5-8,1.5,2-8.5-4.5-5.5-7.5,8.5-10-.5-1.5-13-6-15-7.5-6.5-4-9.5,4-4.5,8-1,5,9,9.5,12,1.5,8,6.5,8.5A20.6,20.6,0,0,0,556.1,296Z" fill="#fff"/><path d="M516.1,276.5c2,0,3,8,1,8s-4.5,1.5-6.5-1a37.9,37.9,0,0,1-4-7.5S513.1,276.5,516.1,276.5Z" fill="#fff"/><ellipse cx="459.1" cy="373.5" rx="3.5" ry="3" fill="#fff"/><path d="M0,187.8v-14H78.4v14H46.5V317H31.9V187.8Z"/><path d="M98.9,173.8h14.3v60.1h72.9V173.8h14.3V317H186.1V247.9H113.2V317H98.9Z"/><path d="M235.3,173.8h82.1v14H249.6v44.9h67.2v14H249.6V303h67.2v14H235.3Z"/><path d="M829.6,172.3h14.3v60.1h72.9V172.3h14.3V315.5H916.8V246.4H843.9v69.1H829.6Z"/><path d="M966.5,172.3h14.3v86.5c0,10.2.2,16.6.6,19.1a31.5,31.5,0,0,0,4.9,14.2c2.6,3.8,6.6,7,12,9.5a37.1,37.1,0,0,0,16.2,3.9,31.8,31.8,0,0,0,24.6-11.4,35.2,35.2,0,0,0,6.4-13c1-3.6,1.5-11.1,1.5-22.3V172.3h14.3v86.5c0,12.7-1.3,23.1-3.8,31s-7.5,14.7-15,20.5-16.5,8.8-27.2,8.8-21.4-2.8-29.7-8.3a39.9,39.9,0,0,1-16.5-21.9c-1.8-5.6-2.6-15.6-2.6-30.1Z"/><path d="M1096.9,172.3h28.2c11.4,0,20.1,1.4,26.2,4.1a31.6,31.6,0,0,1,14.4,12.4,35.1,35.1,0,0,1,.7,35.9,33.8,33.8,0,0,1-13.7,12.7c7.5,2.6,13.2,5.5,17.2,8.9a36.1,36.1,0,0,1,12.7,28.1,38.8,38.8,0,0,1-12.6,29.2c-8.4,7.9-19.7,11.9-33.8,11.9h-39.3Zm14,14v45.9h8.2c9.9,0,17.3-.9,21.9-2.8a23.8,23.8,0,0,0,11.2-8.8,22.9,22.9,0,0,0,4.1-13.2c0-6.6-2.3-11.7-6.9-15.5s-11.9-5.6-21.9-5.6Zm0,60.3v54.9h17.7c10.5,0,18.2-1,23.1-3.1a26,26,0,0,0,11.7-9.6,25.1,25.1,0,0,0-1.8-30.7c-4.2-4.8-9.9-8-17.2-9.8-4.8-1.1-13.3-1.7-25.4-1.7Z"/></g></g></svg>