<svg xmlns="http://www.w3.org/2000/svg" width="1001.1" height="542" viewBox="0 0 1001.1 542"><path fill="#8f132d" d="M306.9 75.1h-26.8c-8 0-12.4-4-12.4-11.5v-.9c0-7.4 4.4-11.2 12.4-11.2h80.2c8.2 0 12.4 3.8 12.4 11.2v.9c0 7.5-4.2 11.5-12.4 11.5H334v83.4c0 8.1-4.4 12.3-12.1 12.3h-3.8c-7.3 0-11.2-4.2-11.2-12.3zm79.2 83.4V63c0-8.2 4-12.3 11.4-12.3h3.8c7.9 0 11.9 4.1 11.9 12.3v36.1h51.2V63c0-8.2 3.8-12.3 11.2-12.3h4c7.7 0 11.7 4.1 11.7 12.3v95.5c0 8.1-4 12.3-11.7 12.3h-4c-7.4 0-11.2-4.2-11.2-12.3v-36.4h-51.2v36.4c0 8.1-4 12.3-11.9 12.3h-3.8c-7.4 0-11.4-4.2-11.4-12.3zm126.5-3.3V66.5c0-9.5 5.3-15 14.1-15h66c8.4 0 12.5 3.6 12.5 10.8v.9c0 7.3-4.1 10.8-12.5 10.8h-53.2v25.1h38.9c8.8 0 12.5 3.3 12.5 10.1v.6c0 7.1-3.9 10.4-12.5 10.4h-38.9v27.7h54.1c8.4 0 12.3 3.1 12.3 10.1v.9c0 7.5-3.9 11.2-12.3 11.2h-66.9c-8.8 0-14.1-5.3-14.1-14.9zm140.4 3.3V63c0-8.2 4-12.3 11.4-12.3h3.8c7.9 0 11.9 4.1 11.9 12.3v36.1h51.2V63c0-8.2 3.8-12.3 11.2-12.3h4c7.7 0 11.7 4.1 11.7 12.3v95.5c0 8.1-4 12.3-11.7 12.3h-4c-7.4 0-11.2-4.2-11.2-12.3v-36.4h-51.2v36.4c0 8.1-4 12.3-11.9 12.3h-3.8c-7.4 0-11.4-4.2-11.4-12.3zM778.6 63c0-8.2 4.4-12.3 11.7-12.3h3.5c7.7 0 11.7 4.1 11.7 12.3v57c0 18.9 8.1 28.6 24 28.6s24.1-9.3 24.1-28.7V63c0-8.2 4.2-12.3 11.7-12.3h3.6c7.7 0 11.6 4.1 11.6 12.3v57c0 34.1-17.6 52.1-51.1 52.1s-50.8-17.6-50.8-51.9zm122.2 92.1V66.5c0-9.5 5.4-15 14.2-15h40.3c26.8 0 41.2 10.6 41.2 30.4 0 13.2-7.3 21.3-21 25.1 17.6 4.1 25.6 15.2 25.6 29.4 0 22.9-14.6 33.7-48 33.7H915c-8.8 0-14.2-5.5-14.2-15zm48.6-53c12.5 0 19.6-6.1 19.6-16s-6.6-15-19.6-15h-22v31zm1.5 48.4c16.1 0 22.7-4.8 22.7-16.7s-7.1-16-22.7-16h-23.5v32.7zM211 98.1c-3.4-3.7-8.9-5.1-15.9-4.4l-53.2 2.9a40.8 40.8 0 0 0-2.6-6.4L178 55.4c2.1-1.5 8.9-7 9.3-14.2a12.1 12.1 0 0 0-4.2-9.7 12.4 12.4 0 0 0-8.9-4.1c-5-.2-9.9 2.7-14.4 8.2l-35.5 39.6a40.6 40.6 0 0 0-6.5-2.7l2.7-52c.4-2.6 1.4-11.2-3.4-16.6a12.4 12.4 0 0 0-9.9-3.9 12.4 12.4 0 0 0-9.1 3.4c-3.7 3.5-5.1 8.9-4.4 16l2.9 53.1a37.1 37.1 0 0 0-6.5 2.7L55.4 36.6c-1.5-2.1-7-9-14.2-9.3a12.1 12.1 0 0 0-9.7 4.2 12.1 12.1 0 0 0-4.1 8.8c-.1 5.1 2.7 10 8.2 14.4l39.5 35.6a40.8 40.8 0 0 0-2.6 6.4l-52-2.8c-2.6-.4-11.2-1.4-16.6 3.5a12 12 0 0 0-3.9 9.8 12.5 12.5 0 0 0 3.4 9.2c2.9 3 7.1 4.5 12.5 4.5l3.5-.2 53.1-2.8a31.1 31.1 0 0 0 2.8 6.5l-38.7 34.8c-2.1 1.5-9 7-9.3 14.2a12.2 12.2 0 0 0 4.2 9.7 12.1 12.1 0 0 0 8.8 4.1h.3c4.9 0 9.7-2.9 14.1-8.3l35.6-39.6a29.6 29.6 0 0 0 6.4 2.6l-2.8 52c-.4 2.6-1.4 11.3 3.5 16.6a12 12 0 0 0 9.8 3.9h.7a12.3 12.3 0 0 0 8.5-3.4c3.6-3.4 5-8.9 4.3-15.9l-2.8-53.2a36.1 36.1 0 0 0 6.4-2.7l34.9 38.8c1.5 2.1 7 8.9 14.2 9.3h.6a14.3 14.3 0 0 0 13.2-13.1c.1-5-2.8-9.9-8.3-14.4l-39.6-35.6a29.6 29.6 0 0 0 2.6-6.4l52 2.7a23.8 23.8 0 0 0 4.7.4c3.7 0 8.5-.7 11.9-3.8a12.4 12.4 0 0 0 3.9-9.9 11.9 11.9 0 0 0-3.4-9.1z"/><path fill="#211c1d" d="M.1 522V414.6c0-11.4 6.4-18 17-18h41.8c36.9 0 55.9 15.4 55.9 44.4 0 20.5-10.4 34.8-30.2 40.3a39.4 39.4 0 0 1-7 1.3l37.4 45.3c1.3 1.6-4.9 11.9-18.7 11.9-9.5 0-14.5-4-21.4-13.2l-31.2-38.9H32.5v37.4c0 9.2-4.9 14.7-14.3 14.7h-4.4C5 539.8.1 533.4.1 522zm56.6-57.4c17.4 0 25.7-8.2 25.7-21.4s-8.8-21.3-26.4-21.3H32v42.7zm78.8 56.5V414.6c0-11.4 6.3-18 16.9-18h79.2c10.1 0 15 4.4 15 12.9v1.1c0 8.8-4.9 13-15 13h-63.8v30.2h46.6c10.6 0 15 3.9 15 12.1v.6c0 8.6-4.6 12.6-15 12.6h-46.6v33.2h64.9c10.1 0 14.8 3.7 14.8 12.1v1.1c0 9-4.7 13.4-14.8 13.4h-80.3c-10.6 0-16.9-6.4-16.9-17.8zm131.1-.2V414.6c0-11.4 6.4-18 16.9-18H332c32.1 0 49.5 12.7 49.5 36.5 0 15.8-8.8 25.5-25.3 30.1 21.1 4.9 30.8 18.3 30.8 35.2 0 27.5-17.6 40.5-57.7 40.5h-45.8c-10.5 0-16.9-6.6-16.9-18zm58.3-63.6c15 0 23.6-7.3 23.6-19.1s-8-18.1-23.6-18.1h-26.4v37.2zm1.8 58.1c19.3 0 27.3-5.7 27.3-20s-8.6-19.2-27.3-19.2h-28.2v39.2zm74.8-47.5c0-43.4 30.8-74.4 73.5-74.4s73 30.6 73 74.1-30.3 74.4-73.2 74.4-73.3-30.6-73.3-74.1zm114.4 0c0-26.9-16.9-45.6-41.1-45.6s-41 18-41 45.3 16.8 45.6 41.2 45.6 40.9-18.3 40.9-45.3zm203.9 57.2V411.7c0-10.3 5-16 14.1-16h3.9c8.4 0 11.5 2.9 16.5 9.2l61.4 84.7v-79.2c0-9.7 4.4-14.7 13.9-14.7h3.1c8.8 0 13.4 5 13.4 14.7v113.3c0 10.6-5.3 16.1-13.9 16.1h-2.6c-8.4 0-10.8-2.2-15.4-8.1l-63.8-87.8v81.2c0 9.6-4.9 14.7-14.1 14.7h-3.1c-9 0-13.4-5.1-13.4-14.7zm151.8-110.5c0-11.4 7.3-18 16.9-18h36.1c47.6 0 76.4 26.6 76.4 70.6s-29.5 71.7-77.5 71.7h-33.8a17.9 17.9 0 0 1-18.1-17.8zm97 52.8c0-27.5-16.9-43.1-44.8-43.1h-20.1v86.9h19.6c28.2 0 45.3-15.8 45.3-43.8z"/><path fill="#83c51b" d="M701.2 411.2l-25.9-25.9a1.7 1.7 0 0 0-2.4.1l-25.7 25.7a1.5 1.5 0 0 0 .1 2.2H658v65.9s-.2 19.5-10.4 26.2c0 0-5.2 5.3-17.6 5.3 0 0-12.9.9-19.3-5.5 0 0-10.3-7.1-10.3-26.7V407s.3-13.1-12.3-13.7h-8.2s-12 .2-12 14.2v71.6s0 24.6 10.5 38.1c0 0 8.9 14.4 29.2 19.3 0 0 20.7 5.5 42.6 0 0 0 20-3.9 30.2-20.6 0 0 9.7-12.3 9.7-37.2v-65.5h11a1.4 1.4 0 0 0 .1-2z"/><path fill="#211c1d" d="M567.9 408v70.5s-1.1 21 8.6 36c0 0 10.1 19.9 36.8 23.2a93.7 93.7 0 0 0 42-2.7s-35-9.6-50.5-37.1c0 0-4.6-6.8-4.6-21.8V408s.7-12.5-10-14.4c0 0-8.9-.7-11.9 0 .2 0-10.4.8-10.4 14.4zM15.3 349.5H5a2.5 2.5 0 0 1-2.8-2.6v-.3c0-1.6 1-2.5 2.8-2.5h26.7c1.8 0 2.7.9 2.7 2.5v.3a2.4 2.4 0 0 1-2.7 2.6H21.4v29.8a2.5 2.5 0 0 1-2.7 2.8h-.8c-1.7 0-2.6-1-2.6-2.8zm24.3 29.8v-32.7c0-1.8.9-2.8 2.5-2.8h.9c1.7 0 2.6 1 2.6 2.8v13.7h19.9v-13.7c0-1.8.9-2.8 2.5-2.8h.9c1.8 0 2.6 1 2.6 2.8v32.7c0 1.8-.8 2.8-2.6 2.8H68c-1.6 0-2.5-1-2.5-2.8v-13.7H45.6v13.7c0 1.8-.9 2.8-2.6 2.8h-.9c-1.6 0-2.5-1-2.5-2.8zm40-.8v-31c0-2.1 1.2-3.4 3.2-3.4h21.9c1.8 0 2.8.9 2.8 2.5v.3c0 1.7-1 2.6-2.8 2.6H85.6V360h14.7c2 0 2.8.8 2.8 2.4v.2c0 1.6-.9 2.5-2.8 2.5H85.6v11.4H105c1.9 0 2.7.8 2.7 2.4v.3c0 1.7-.8 2.6-2.7 2.6H82.8a3 3 0 0 1-3.2-3.3zm44.1.8v-32.7c0-1.8.9-2.8 2.5-2.8h.9c1.7 0 2.6 1 2.6 2.8v13.7h19.9v-13.7c0-1.8.9-2.8 2.5-2.8h.9c1.8 0 2.6 1 2.6 2.8v32.7c0 1.8-.8 2.8-2.6 2.8h-.9c-1.6 0-2.5-1-2.5-2.8v-13.7h-19.9v13.7c0 1.8-.9 2.8-2.6 2.8h-.9c-1.6 0-2.5-1-2.5-2.8zm39.5-32.7c0-1.8.9-2.8 2.6-2.8h.8c1.7 0 2.6 1 2.6 2.8v19.7c0 7.2 3.2 10.9 9.4 10.9s9.4-3.6 9.4-10.9v-19.7c0-1.9.9-2.8 2.6-2.8h.9c1.7 0 2.5.9 2.5 2.8v19.8c0 10.5-5.4 16.1-15.4 16.1s-15.4-5.5-15.4-16zm38.4 31.9v-31a3.1 3.1 0 0 1 3.2-3.4h12.4c8.3 0 12.7 3.4 12.7 9.8 0 4.1-2.3 6.8-6.6 8.1 5.6 1.3 8.2 4.8 8.2 9.3 0 7-4.5 10.5-14.4 10.5h-12.3a3.1 3.1 0 0 1-3.2-3.3zm14.9-18c4.4 0 7.2-2.3 7.2-5.9s-2.4-5.7-7.4-5.7h-8.8v11.6zm.2 16.5c6.1 0 8.6-1.8 8.6-6.2s-2.8-5.9-8.4-5.9h-9.4V377zm18.3-21l3.1-9.9c.6-1.9 1-2.8 3-2.8h.6c1.4 0 2.4 1 2.4 2.8v.2a6.6 6.6 0 0 1-1.3 3.6l-4.9 7.4c-.8 1-3.4.4-2.9-1.3zm13.1 19.1c0-2 2.5-3.5 2.7-3.2a13.9 13.9 0 0 0 11.4 5.7c5.2 0 8.2-2.1 8.2-5.9s-4.4-5.2-9.4-6.4-11.9-3.4-11.9-11 5.5-11 13.6-11c4.9 0 8.5 1.4 10.6 3.1s2.3 2.5 2.3 3.6-2.7 3.5-2.8 3.4a12.3 12.3 0 0 0-10.1-5.1c-4.7 0-7.8 2.3-7.8 5.8s3.7 4.7 8.9 6 12.6 3.9 12.6 11.2-5.3 11.3-14.2 11.3c-5.8 0-9.9-1.8-12.2-3.9a5.1 5.1 0 0 1-1.9-3.6z"/></svg>