<svg xmlns="http://www.w3.org/2000/svg" width="1001.1" height="542" viewBox="0 0 1001.1 542"><title>new-logos</title><g id="Layer_2" data-name="Layer 2"><g id="Layer_1-2" data-name="Layer 1"><path d="M306.9,75.1H280.1c-8,0-12.4-4-12.4-11.5v-.9c0-7.4,4.4-11.2,12.4-11.2h80.2c8.2,0,12.4,3.8,12.4,11.2v.9c0,7.5-4.2,11.5-12.4,11.5H334v83.4c0,8.1-4.4,12.3-12.1,12.3h-3.8c-7.3,0-11.2-4.2-11.2-12.3Z" fill="#8f132d"/><path d="M386.1,158.5V63c0-8.2,4-12.3,11.4-12.3h3.8c7.9,0,11.9,4.1,11.9,12.3V99.1h51.2V63c0-8.2,3.8-12.3,11.2-12.3h4c7.7,0,11.7,4.1,11.7,12.3v95.5c0,8.1-4,12.3-11.7,12.3h-4c-7.4,0-11.2-4.2-11.2-12.3V122.1H413.2v36.4c0,8.1-4,12.3-11.9,12.3h-3.8C390.1,170.8,386.1,166.6,386.1,158.5Z" fill="#8f132d"/><path d="M512.6,155.2V66.5c0-9.5,5.3-15,14.1-15h66c8.4,0,12.5,3.6,12.5,10.8v.9c0,7.3-4.1,10.8-12.5,10.8H539.5V99.1h38.9c8.8,0,12.5,3.3,12.5,10.1v.6c0,7.1-3.9,10.4-12.5,10.4H539.5v27.7h54.1c8.4,0,12.3,3.1,12.3,10.1v.9c0,7.5-3.9,11.2-12.3,11.2H526.7C517.9,170.1,512.6,164.8,512.6,155.2Z" fill="#8f132d"/><path d="M653,158.5V63c0-8.2,4-12.3,11.4-12.3h3.8c7.9,0,11.9,4.1,11.9,12.3V99.1h51.2V63c0-8.2,3.8-12.3,11.2-12.3h4c7.7,0,11.7,4.1,11.7,12.3v95.5c0,8.1-4,12.3-11.7,12.3h-4c-7.4,0-11.2-4.2-11.2-12.3V122.1H680.1v36.4c0,8.1-4,12.3-11.9,12.3h-3.8C657,170.8,653,166.6,653,158.5Z" fill="#8f132d"/><path d="M778.6,63c0-8.2,4.4-12.3,11.7-12.3h3.5c7.7,0,11.7,4.1,11.7,12.3v57c0,18.9,8.1,28.6,24,28.6s24.1-9.3,24.1-28.7V63c0-8.2,4.2-12.3,11.7-12.3h3.6c7.7,0,11.6,4.1,11.6,12.3v57c0,34.1-17.6,52.1-51.1,52.1s-50.8-17.6-50.8-51.9Z" fill="#8f132d"/><path d="M900.8,155.1V66.5c0-9.5,5.4-15,14.2-15h40.3c26.8,0,41.2,10.6,41.2,30.4,0,13.2-7.3,21.3-21,25.1,17.6,4.1,25.6,15.2,25.6,29.4,0,22.9-14.6,33.7-48,33.7H915C906.2,170.1,900.8,164.6,900.8,155.1Zm48.6-53c12.5,0,19.6-6.1,19.6-16s-6.6-15-19.6-15h-22v31Zm1.5,48.4c16.1,0,22.7-4.8,22.7-16.7s-7.1-16-22.7-16H927.4v32.7Z" fill="#8f132d"/><path d="M211,98.1c-3.4-3.7-8.9-5.1-15.9-4.4l-53.2,2.9a40.8,40.8,0,0,0-2.6-6.4L178,55.4c2.1-1.5,8.9-7,9.3-14.2a12.1,12.1,0,0,0-4.2-9.7,12.4,12.4,0,0,0-8.9-4.1c-5-.2-9.9,2.7-14.4,8.2L124.3,75.2a40.6,40.6,0,0,0-6.5-2.7l2.7-52c.4-2.6,1.4-11.2-3.4-16.6A12.4,12.4,0,0,0,107.2,0a12.4,12.4,0,0,0-9.1,3.4c-3.7,3.5-5.1,8.9-4.4,16l2.9,53.1a37.1,37.1,0,0,0-6.5,2.7L55.4,36.6c-1.5-2.1-7-9-14.2-9.3a12.1,12.1,0,0,0-9.7,4.2,12.1,12.1,0,0,0-4.1,8.8c-.1,5.1,2.7,10,8.2,14.4L75.1,90.3a40.8,40.8,0,0,0-2.6,6.4l-52-2.8c-2.6-.4-11.2-1.4-16.6,3.5A12,12,0,0,0,0,107.2a12.5,12.5,0,0,0,3.4,9.2c2.9,3,7.1,4.5,12.5,4.5l3.5-.2,53.1-2.8a31.1,31.1,0,0,0,2.8,6.5L36.6,159.2c-2.1,1.5-9,7-9.3,14.2a12.2,12.2,0,0,0,4.2,9.7,12.1,12.1,0,0,0,8.8,4.1h.3c4.9,0,9.7-2.9,14.1-8.3l35.6-39.6a29.6,29.6,0,0,0,6.4,2.6l-2.8,52c-.4,2.6-1.4,11.3,3.5,16.6a12,12,0,0,0,9.8,3.9h.7a12.3,12.3,0,0,0,8.5-3.4c3.6-3.4,5-8.9,4.3-15.9l-2.8-53.2a36.1,36.1,0,0,0,6.4-2.7L159.2,178c1.5,2.1,7,8.9,14.2,9.3h.6a14.3,14.3,0,0,0,13.2-13.1c.1-5-2.8-9.9-8.3-14.4l-39.6-35.6a29.6,29.6,0,0,0,2.6-6.4l52,2.7a23.8,23.8,0,0,0,4.7.4c3.7,0,8.5-.7,11.9-3.8a12.4,12.4,0,0,0,3.9-9.9A11.9,11.9,0,0,0,211,98.1Z" fill="#8f132d"/><path d="M.1,522V414.6c0-11.4,6.4-18,17-18H58.9c36.9,0,55.9,15.4,55.9,44.4,0,20.5-10.4,34.8-30.2,40.3a39.4,39.4,0,0,1-7,1.3L115,527.9c1.3,1.6-4.9,11.9-18.7,11.9-9.5,0-14.5-4-21.4-13.2L43.7,487.7H32.5v37.4c0,9.2-4.9,14.7-14.3,14.7H13.8C5,539.8.1,533.4.1,522Zm56.6-57.4c17.4,0,25.7-8.2,25.7-21.4S73.6,421.9,56,421.9H32v42.7Z" fill="#211c1d"/><path d="M135.5,521.1V414.6c0-11.4,6.3-18,16.9-18h79.2c10.1,0,15,4.4,15,12.9v1.1c0,8.8-4.9,13-15,13H167.8v30.2h46.6c10.6,0,15,3.9,15,12.1v.6c0,8.6-4.6,12.6-15,12.6H167.8v33.2h64.9c10.1,0,14.8,3.7,14.8,12.1v1.1c0,9-4.7,13.4-14.8,13.4H152.4C141.8,538.9,135.5,532.5,135.5,521.1Z" fill="#211c1d"/><path d="M266.6,520.9V414.6c0-11.4,6.4-18,16.9-18H332c32.1,0,49.5,12.7,49.5,36.5,0,15.8-8.8,25.5-25.3,30.1,21.1,4.9,30.8,18.3,30.8,35.2,0,27.5-17.6,40.5-57.7,40.5H283.5C273,538.9,266.6,532.3,266.6,520.9Zm58.3-63.6c15,0,23.6-7.3,23.6-19.1s-8-18.1-23.6-18.1H298.5v37.2Zm1.8,58.1c19.3,0,27.3-5.7,27.3-20s-8.6-19.2-27.3-19.2H298.5v39.2Z" fill="#211c1d"/><path d="M401.5,467.9c0-43.4,30.8-74.4,73.5-74.4s73,30.6,73,74.1S517.7,542,474.8,542,401.5,511.4,401.5,467.9Zm114.4,0c0-26.9-16.9-45.6-41.1-45.6s-41,18-41,45.3,16.8,45.6,41.2,45.6S515.9,494.9,515.9,467.9Z" fill="#211c1d"/><path d="M719.8,525.1V411.7c0-10.3,5-16,14.1-16h3.9c8.4,0,11.5,2.9,16.5,9.2l61.4,84.7V410.4c0-9.7,4.4-14.7,13.9-14.7h3.1c8.8,0,13.4,5,13.4,14.7V523.7c0,10.6-5.3,16.1-13.9,16.1h-2.6c-8.4,0-10.8-2.2-15.4-8.1l-63.8-87.8v81.2c0,9.6-4.9,14.7-14.1,14.7h-3.1C724.2,539.8,719.8,534.7,719.8,525.1Z" fill="#211c1d"/><path d="M871.6,414.6c0-11.4,7.3-18,16.9-18h36.1c47.6,0,76.4,26.6,76.4,70.6s-29.5,71.7-77.5,71.7H889.7a17.9,17.9,0,0,1-18.1-17.8Zm97,52.8c0-27.5-16.9-43.1-44.8-43.1H903.7v86.9h19.6C951.5,511.2,968.6,495.4,968.6,467.4Z" fill="#211c1d"/><path d="M701.2,411.2l-25.9-25.9a1.7,1.7,0,0,0-2.4.1l-25.7,25.7a1.5,1.5,0,0,0,.1,2.2H658v65.9s-.2,19.5-10.4,26.2c0,0-5.2,5.3-17.6,5.3,0,0-12.9.9-19.3-5.5,0,0-10.3-7.1-10.3-26.7V407s.3-13.1-12.3-13.7h-8.2s-12,.2-12,14.2v71.6s0,24.6,10.5,38.1c0,0,8.9,14.4,29.2,19.3,0,0,20.7,5.5,42.6,0,0,0,20-3.9,30.2-20.6,0,0,9.7-12.3,9.7-37.2V413.2h11A1.4,1.4,0,0,0,701.2,411.2Z" fill="#83c51b"/><path d="M567.9,408v70.5s-1.1,21,8.6,36c0,0,10.1,19.9,36.8,23.2a93.7,93.7,0,0,0,42-2.7s-35-9.6-50.5-37.1c0,0-4.6-6.8-4.6-21.8V408s.7-12.5-10-14.4c0,0-8.9-.7-11.9,0C578.5,393.6,567.9,394.4,567.9,408Z" fill="#211c1d"/><path d="M15.3,349.5H5a2.5,2.5,0,0,1-2.8-2.6v-.3c0-1.6,1-2.5,2.8-2.5H31.7c1.8,0,2.7.9,2.7,2.5v.3a2.4,2.4,0,0,1-2.7,2.6H21.4v29.8a2.5,2.5,0,0,1-2.7,2.8h-.8c-1.7,0-2.6-1-2.6-2.8Z" fill="#211c1d"/><path d="M39.6,379.3V346.6c0-1.8.9-2.8,2.5-2.8H43c1.7,0,2.6,1,2.6,2.8v13.7H65.5V346.6c0-1.8.9-2.8,2.5-2.8h.9c1.8,0,2.6,1,2.6,2.8v32.7c0,1.8-.8,2.8-2.6,2.8H68c-1.6,0-2.5-1-2.5-2.8V365.6H45.6v13.7c0,1.8-.9,2.8-2.6,2.8h-.9C40.5,382.1,39.6,381.1,39.6,379.3Z" fill="#211c1d"/><path d="M79.6,378.5v-31c0-2.1,1.2-3.4,3.2-3.4h21.9c1.8,0,2.8.9,2.8,2.5v.3c0,1.7-1,2.6-2.8,2.6H85.6V360h14.7c2,0,2.8.8,2.8,2.4v.2c0,1.6-.9,2.5-2.8,2.5H85.6v11.4H105c1.9,0,2.7.8,2.7,2.4v.3c0,1.7-.8,2.6-2.7,2.6H82.8A3,3,0,0,1,79.6,378.5Z" fill="#211c1d"/><path d="M123.7,379.3V346.6c0-1.8.9-2.8,2.5-2.8h.9c1.7,0,2.6,1,2.6,2.8v13.7h19.9V346.6c0-1.8.9-2.8,2.5-2.8h.9c1.8,0,2.6,1,2.6,2.8v32.7c0,1.8-.8,2.8-2.6,2.8h-.9c-1.6,0-2.5-1-2.5-2.8V365.6H129.7v13.7c0,1.8-.9,2.8-2.6,2.8h-.9C124.6,382.1,123.7,381.1,123.7,379.3Z" fill="#211c1d"/><path d="M163.2,346.6c0-1.8.9-2.8,2.6-2.8h.8c1.7,0,2.6,1,2.6,2.8v19.7c0,7.2,3.2,10.9,9.4,10.9s9.4-3.6,9.4-10.9V346.6c0-1.9.9-2.8,2.6-2.8h.9c1.7,0,2.5.9,2.5,2.8v19.8c0,10.5-5.4,16.1-15.4,16.1s-15.4-5.5-15.4-16Z" fill="#211c1d"/><path d="M201.6,378.5v-31a3.1,3.1,0,0,1,3.2-3.4h12.4c8.3,0,12.7,3.4,12.7,9.8,0,4.1-2.3,6.8-6.6,8.1,5.6,1.3,8.2,4.8,8.2,9.3,0,7-4.5,10.5-14.4,10.5H204.8A3.1,3.1,0,0,1,201.6,378.5Zm14.9-18c4.4,0,7.2-2.3,7.2-5.9s-2.4-5.7-7.4-5.7h-8.8v11.6Zm.2,16.5c6.1,0,8.6-1.8,8.6-6.2s-2.8-5.9-8.4-5.9h-9.4V377Z" fill="#211c1d"/><path d="M235,356l3.1-9.9c.6-1.9,1-2.8,3-2.8h.6c1.4,0,2.4,1,2.4,2.8v.2a6.6,6.6,0,0,1-1.3,3.6l-4.9,7.4C237.1,358.3,234.5,357.7,235,356Z" fill="#211c1d"/><path d="M248.1,375.1c0-2,2.5-3.5,2.7-3.2a13.9,13.9,0,0,0,11.4,5.7c5.2,0,8.2-2.1,8.2-5.9s-4.4-5.2-9.4-6.4-11.9-3.4-11.9-11,5.5-11,13.6-11c4.9,0,8.5,1.4,10.6,3.1s2.3,2.5,2.3,3.6-2.7,3.5-2.8,3.4a12.3,12.3,0,0,0-10.1-5.1c-4.7,0-7.8,2.3-7.8,5.8s3.7,4.7,8.9,6,12.6,3.9,12.6,11.2-5.3,11.3-14.2,11.3c-5.8,0-9.9-1.8-12.2-3.9A5.1,5.1,0,0,1,248.1,375.1Z" fill="#211c1d"/></g></g></svg>