<svg xmlns="http://www.w3.org/2000/svg" width="463" height="108" viewBox="0 0 463 108"><title>omnes</title><g id="Layer_2" data-name="Layer 2"><g id="Layer_1-2" data-name="Layer 1"><path d="M0,19.1,7,.9C7.1.4,7.5.2,8.6.2s1.4.2,1.6.7l7,18.2a1.2,1.2,0,0,1-1.2.7c-.6.1-1.1-.2-1.4-1l-2-5.3H4.5l-2,5.3c-.3.9-.9,1.1-1.4,1S-.1,19.3,0,19.1Zm12-7.5L8.5,2.5,5.1,11.6Z"/><path d="M19.8,18.4V1.6A1.2,1.2,0,0,1,21,.3h6.1c4.1,0,6.3,1.8,6.3,5s-1.2,3.6-3.5,4.3c2.9.6,4.3,2.3,4.3,4.8s-2.3,5.3-7,5.3H21C20.2,19.7,19.8,19.2,19.8,18.4ZM26.9,9c2.6,0,4.2-1.4,4.2-3.5s-1.4-3.3-4.2-3.3H22V9Zm.2,8.9c3.3,0,4.8-1.1,4.8-3.7s-1.6-3.5-4.8-3.5H22v7.2Z"/><path d="M46.3,0a8.7,8.7,0,0,1,5.8,2,3.1,3.1,0,0,1,1.3,2.1A1.3,1.3,0,0,1,52,5.4,6.4,6.4,0,0,0,46.3,2c-4.3,0-7.2,3.2-7.2,8s3,8.1,7.2,8.1a6,6,0,0,0,5.9-3.9c0-.1,1.5.1,1.5,1.3A4,4,0,0,1,52.2,18a8.7,8.7,0,0,1-6,2c-5.6,0-9.4-4.1-9.4-9.9S40.6,0,46.3,0Z"/><path d="M56.8,1.6A1.3,1.3,0,0,1,58.1.3h4.5C69.1.3,73,4,73,10s-4,9.7-10.5,9.7H58.1a1.3,1.3,0,0,1-1.3-1.3ZM70.6,10c0-4.9-2.9-7.7-8-7.7H59.1V17.8h3.5C67.7,17.8,70.6,15,70.6,10Z"/><path d="M76.5,18.4V1.6A1.2,1.2,0,0,1,77.7.3H88.9a.9.9,0,0,1,1,1h0c0,.6-.3.9-1,.9H78.7V8.8h7.8c.7,0,1.1.3,1.1.9h0c0,.7-.4,1-1.1,1H78.7v6.9H89.1c.7,0,1.1.3,1.1.9v.2c0,.6-.4.9-1.1.9H77.7A1.2,1.2,0,0,1,76.5,18.4Z"/><path d="M93.3,1.6A1.3,1.3,0,0,1,94.6.3h10.5a.9.9,0,0,1,1,.9v.2c0,.6-.3.9-1,.9H95.6V9.5h7c.7,0,1.1.3,1.1.9h0c0,.7-.4.9-1.1.9h-7v7.4a.9.9,0,0,1-1,1h-.3a1,1,0,0,1-1-1.1Z"/><path d="M125.7,11.3v8.3c0,.1-.3.2-.8.2s-1.1-.3-1.2-1.8V16.3c-1,2.3-3.4,3.7-6.7,3.7-5.4,0-8.9-4.2-8.9-9.9S112,0,117.7,0a8.6,8.6,0,0,1,5.7,1.9A3.6,3.6,0,0,1,124.8,4a1.2,1.2,0,0,1-1.4,1.2,6.4,6.4,0,0,0-5.8-3.3c-4.2,0-7.1,3.3-7.1,8.2s2.6,8.1,7,8.1a5.9,5.9,0,0,0,6.2-5.1V11.8h-5.2c-.7,0-1.1-.3-1.1-.9h0c0-.6.4-.9,1.1-.9h5.9A1.2,1.2,0,0,1,125.7,11.3Z"/><path d="M129.6,18.8V1.3c0-.7.3-1.1.9-1.1h.3c.7,0,1,.4,1,1.1V9h11.1V1.3c0-.7.3-1.1.9-1.1h.3c.7,0,1,.4,1,1.1V18.8a.9.9,0,0,1-1,1h-.3c-.6,0-.9-.4-.9-1V11H131.8v7.8a.9.9,0,0,1-1,1h-.3C129.9,19.8,129.6,19.4,129.6,18.8Z"/><path d="M149.8,1.3c0-.7.3-1.1.9-1.1h.4a1,1,0,0,1,1,1.1V18.8a.9.9,0,0,1-1,1h-.4c-.6,0-.9-.4-.9-1Z"/><path d="M156.3,15.7a4,4,0,0,0,3.7,2.4c2.5,0,3.6-1.4,3.6-4.7V1.3c0-.7.3-1.1,1-1.1h.3c.6,0,.9.4.9,1.1V13.4c0,4.5-1.8,6.6-5.7,6.6s-4.9-1.8-4.9-3S156.2,15.6,156.3,15.7Z"/><path d="M170,1.3c0-.7.3-1.1.9-1.1h.3c.7,0,1,.4,1,1.1V9.5L180.5.9A1.4,1.4,0,0,1,182,.3a1.1,1.1,0,0,1,1,1l-8.4,8.5,8.6,9c.1.3-.3.9-1.1,1a1.4,1.4,0,0,1-1.4-.6l-8.5-9v8.6a.9.9,0,0,1-1,1h-.3c-.6,0-.9-.4-.9-1Z"/><path d="M186.3,18.4V1.3c0-.8.3-1.1.9-1.1h.3c.7,0,1,.3,1,1.1V17.7h8.7c.7,0,1.1.3,1.1.9h0c0,.7-.4,1-1.1,1h-9.7A1.2,1.2,0,0,1,186.3,18.4Z"/><path d="M201.3,1.5A1.2,1.2,0,0,1,202.7.2h.6c.9,0,1.2.4,1.5,1.3l5.3,11,5.2-11c.4-.9.7-1.3,1.6-1.3h.5a1.2,1.2,0,0,1,1.4,1.3V18.8c0,.6-.3,1-.9,1h-.3c-.6,0-.9-.4-.9-1V3l-5.1,10.7c-.3.7-.6,1.1-1.5,1.1a1.4,1.4,0,0,1-1.6-1.1L203.4,3V18.8c0,.6-.2,1-.9,1h-.3c-.7,0-.9-.4-.9-1Z"/><path d="M223.2,18.8V1.6c0-.8.4-1.4,1.1-1.4h.4a1.8,1.8,0,0,1,1.5,1l10.5,15V1.3c0-.7.2-1.1.9-1.1h.3c.6,0,.9.4.9,1.1V18.5c0,.8-.4,1.3-1.1,1.3h-.2a1.1,1.1,0,0,1-1.2-.7l-11-15.6V18.8c0,.6-.3,1-.9,1h-.3C223.5,19.8,223.2,19.4,223.2,18.8Z"/><path d="M242.3,10.1c0-5.9,3.9-10.1,9.5-10.1s9.5,4.1,9.5,10-3.9,10-9.5,10S242.3,16,242.3,10.1Zm16.6-.1c0-4.7-2.9-8.1-7.1-8.1s-7.2,3.3-7.2,8.1,3,8.1,7.2,8.1S258.9,14.8,258.9,10Z"/><path d="M264.8,18.8V1.6A1.2,1.2,0,0,1,266,.3h4.9c4.6,0,7.2,2.2,7.2,6s-2.5,6.1-7.3,6.1H267v6.4a.9.9,0,0,1-1,1h-.3C265.1,19.8,264.8,19.4,264.8,18.8Zm11-12.4c0-2.7-1.7-4.2-4.9-4.2H267v8.3h3.9C274.1,10.5,275.8,9.1,275.8,6.4Z"/><path d="M299.3,19.1a1.5,1.5,0,0,1-1.3.9,1.7,1.7,0,0,1-1.2-.6l-1.3-1.3a8.5,8.5,0,0,1-5.7,1.9c-5.6,0-9.4-4-9.4-9.9S284.2,0,289.9,0s9.4,4.1,9.4,10a10.4,10.4,0,0,1-2.4,6.8Zm-9.5-1a6.6,6.6,0,0,0,4.4-1.4l-3.7-3.8c-.4-.4-.5-1.1-.1-1.4h.1a.9.9,0,0,1,1.4.2l3.6,3.6A8.6,8.6,0,0,0,297,10c0-4.7-2.9-8.1-7.2-8.1s-7.1,3.3-7.1,8.1S285.6,18.1,289.8,18.1Z"/><path d="M302.8,18.7V1.6A1.3,1.3,0,0,1,304.1.3h5.2c4.6,0,7,2,7,5.7s-2.1,5.3-5.7,5.5h-.8l6.5,7.3c.1.1-.4.9-1.4.9a1.5,1.5,0,0,1-1.3-.8l-6.4-7.3H305v7.1c0,.6-.3,1-.9,1h-.3A1,1,0,0,1,302.8,18.7Zm6.5-8.7c3.2,0,4.7-1.5,4.7-3.9s-1.6-3.9-4.8-3.9H305V10Z"/><path d="M318.7,16.2c0-.8.9-1.4,1-1.3a6.3,6.3,0,0,0,5.8,3.3c2.9,0,4.7-1.4,4.7-3.6s-2.4-3.1-5.2-3.7-5.9-1.8-5.9-5.5S321.9,0,325.7,0A7.9,7.9,0,0,1,331,1.7a2.8,2.8,0,0,1,1,1.7,1.5,1.5,0,0,1-1.1,1.3,5.9,5.9,0,0,0-5.2-2.8c-2.6,0-4.4,1.3-4.4,3.4s2.1,2.9,4.8,3.6,6.3,1.9,6.3,5.6-2.7,5.5-6.8,5.5a8.4,8.4,0,0,1-6-2A2.8,2.8,0,0,1,318.7,16.2Z"/><path d="M340.7,2.4H335a1,1,0,0,1-1.1-1h0a1,1,0,0,1,1.1-1h13.6a1,1,0,0,1,1.1,1h0a1,1,0,0,1-1.1,1h-5.7V18.8a.9.9,0,0,1-1,1h-.3c-.6,0-.9-.4-.9-1Z"/><path d="M352.2,1.3a1,1,0,0,1,1-1.1h.3a1,1,0,0,1,1,1.1V12c0,4,1.7,6,5.2,6s5.2-2,5.2-6V1.3c0-.8.4-1.1,1-1.1h.4c.6,0,.9.3.9,1.1V12c0,5.3-2.6,8-7.5,8s-7.5-2.7-7.5-7.9Z"/><path d="M376.5,19.1,369.5.9c0-.2.6-.6,1.2-.7a1.5,1.5,0,0,1,1.5,1.1L378,17.4l5.9-16.1A1.4,1.4,0,0,1,385.3.2c.6.1,1.2.5,1.2.7l-7,18.2c-.2.5-.6.8-1.5.8A1.4,1.4,0,0,1,376.5,19.1Z"/><path d="M392.8,19,388.3.8a1.5,1.5,0,0,1,1.3-.6c.5,0,1.1.3,1.3,1.4l3.6,15.8,4.1-13.2a1.3,1.3,0,0,1,1.5-1.1c1,0,1.4.3,1.6,1.1l4.1,13.2,3.6-15.8c.2-1.1.8-1.4,1.3-1.4a1.4,1.4,0,0,1,1.2.6L407.4,19c-.1.7-.5.9-1.6.9s-1.3-.3-1.5-.9L400.1,5.6,395.8,19c-.1.6-.5.9-1.4.9S392.9,19.7,392.8,19Z"/><path d="M420.5,9.9l-6.3-8.7c-.1-.2.4-1,1.3-1a1.4,1.4,0,0,1,1.2.8L422,8.5,427.4,1a1.2,1.2,0,0,1,1.1-.8c.8,0,1.3.8,1.2.9l-6.4,8.8,6.5,8.9c.1.2-.5,1-1.3,1a1.4,1.4,0,0,1-1.2-.8l-5.4-7.7L416.3,19a1.2,1.2,0,0,1-1.1.8c-.8,0-1.3-.7-1.2-.9Z"/><path d="M437.5,18.8V11.6L430.7,1.1c-.1-.2.4-.9,1.3-.9a1.2,1.2,0,0,1,1.2.8l5.4,8.6L444.1,1a1.3,1.3,0,0,1,1.2-.8c.8,0,1.3.8,1.2.9l-6.8,10.5v7.2c0,.7-.3,1-.9,1h-.3A.9.9,0,0,1,437.5,18.8Z"/><path d="M448.1,18.4c0-.7.2-1.1,1-2.1L460,2.3H449.2c-.6,0-1-.3-1-.9h0a.9.9,0,0,1,1-1h11.9c1.1,0,1.5.5,1.5,1.1v.2a3.7,3.7,0,0,1-1,2.1l-10.9,14H462c.6,0,1,.3,1,.9v.2c0,.6-.4.9-1,.9H449.6c-1,0-1.5-.5-1.5-1.1Z"/><path d="M9.2,54.9h.7a4.3,4.3,0,0,0-.1-.5c-.1-1.2-.9-1.8-2.2-1.8s-2.7.9-3,1.8-3.8.5-3.8-2a2.8,2.8,0,0,1,.8-2.1c1-1.1,3-1.7,6.3-1.7,5.3,0,7.7,2.1,7.7,6.4v8.3c0,.4-1.2.7-2.3.7a3.1,3.1,0,0,1-2.8-1.5,3,3,0,0,1-.4-1,5.5,5.5,0,0,1-5,2.5c-3,0-4.9-1.7-4.9-4.2S3.5,54.9,9.2,54.9Zm.7,2.4H9.1c-2.3,0-3.6.5-3.6,1.8s.7,1.4,1.7,1.4a2.4,2.4,0,0,0,2.7-2.3Z"/><path d="M23.5,62.4a2.2,2.2,0,0,1-2.3,1.5h-.6c-1.6,0-2.6-.7-2.6-2.8V43.3c0-.2,1-.7,2.2-.7s3.5.9,3.5,4.4v3.7A4.9,4.9,0,0,1,28,48.6c4.1,0,6.8,2.9,6.8,7.7s-2.7,7.8-6.8,7.8a4.5,4.5,0,0,1-4.3-2.6ZM26.4,53a3,3,0,0,0-2.7,1.7v2.4a2.5,2.5,0,0,0,2.7,2.6c1.7,0,2.9-1.3,2.9-3.4S28.2,53,26.4,53Z"/><path d="M44,48.6A7.7,7.7,0,0,1,48.9,50a3.4,3.4,0,0,1,1.4,2.5c0,2.3-3,2.7-3.1,2.5a2.9,2.9,0,0,0-2.9-1.9,3.3,3.3,0,0,0,0,6.5,2.9,2.9,0,0,0,2.9-1.9c.1-.2,3.1.1,3.1,2.5a3.6,3.6,0,0,1-1.5,2.5A7.4,7.4,0,0,1,44,64.1c-4.7,0-7.9-3.1-7.9-7.8A7.5,7.5,0,0,1,44,48.6Z"/><path d="M51.4,56.3c0-4.7,2.7-7.7,6.8-7.7a5.2,5.2,0,0,1,4.3,2V43.3c0-.2,1-.7,2.2-.7s3.6.9,3.6,4.4V61.1c0,2-1.1,2.8-2.6,2.8h-.6a2.1,2.1,0,0,1-2.4-1.6,2.8,2.8,0,0,1-.1-.9,4.7,4.7,0,0,1-4.4,2.7C54.1,64.1,51.4,60.9,51.4,56.3Zm11.1-1.6A2.9,2.9,0,0,0,59.9,53a3,3,0,0,0-3,3.3c0,2,1.2,3.4,2.9,3.4a2.5,2.5,0,0,0,2.7-2.6Z"/><path d="M78.1,48.6c4.6,0,7.7,3.1,7.7,7.4v.2c0,.9-.3,1.4-1.2,1.4H75.2c0,.2,0,.3.1.4a3.2,3.2,0,0,0,3.4,2.2,3.8,3.8,0,0,0,3.6-1.8s2.7.1,2.7,2.3a2.8,2.8,0,0,1-1.7,2.4,9,9,0,0,1-4.8,1c-5.1,0-8.2-2.8-8.2-7.6A7.6,7.6,0,0,1,78.1,48.6Zm0,3.6a2.9,2.9,0,0,0-2.9,2.7h5.5A2.5,2.5,0,0,0,78.1,52.2Z"/><path d="M89.4,53.2h-.6c-1.5,0-2.3-.7-2.3-2.1v-.3c0-1.3.8-1.9,2.3-1.9h.6v-.5c0-4.5,2.4-5.9,5.7-5.9a5.2,5.2,0,0,1,3.5,1,2.3,2.3,0,0,1,.7,1.7,2.6,2.6,0,0,1-1.1,2.2,3.3,3.3,0,0,0-1.8-.7c-1,0-1.4.5-1.4,1.7v.5h1.2c1.5,0,2.3.7,2.3,2v.4c0,1.2-.8,1.9-2.3,1.9h-1v7.9c0,2.1-1,2.8-2.6,2.8H92c-1.5,0-2.6-.8-2.6-2.8Z"/><path d="M98.5,66c0-2.1,1.9-3.4,4.5-3.8a1.9,1.9,0,0,1-.5-1.3,1.9,1.9,0,0,1,1.3-1.8c-2.8-.7-4.3-2.5-4.3-4.9s3-5.6,7.2-5.6a7.7,7.7,0,0,1,2.7.4l.5-1c.7-1.4,1.5-1.9,2.6-1.9a2.9,2.9,0,0,1,2.7,2.4l-2.6,2.4a4.5,4.5,0,0,1,1.4,3.3c0,3-2.4,5-6.4,5.2h-.7c.1.2.3.3.7.5a10.8,10.8,0,0,0,3,.9c2.1.6,4.3,1.8,4.3,4.4s-3,4.8-8.3,4.8S98.5,68.7,98.5,66Zm11.1,0c0-.8-.7-1.1-1.8-1.4l-1.2-.3c-1.8.2-2.9.8-2.9,1.8s1,1.4,3,1.4S109.6,66.9,109.6,66Zm-.7-11.9a2.1,2.1,0,0,0-2.2-2.2,2.2,2.2,0,0,0-2.2,2.2,2.2,2.2,0,0,0,2.2,2.3A2.1,2.1,0,0,0,108.9,54.1Z"/><path d="M131.9,54.6v6.5c0,2-1.1,2.8-2.5,2.8h-.6c-1.6,0-2.7-.7-2.7-2.8V55.5c0-1.4-.7-2.3-1.8-2.3a2.1,2.1,0,0,0-2.3,2.4v5.5c0,2.1-1.1,2.8-2.5,2.8h-.6c-1.5,0-2.6-.7-2.6-2.8V43.3c0-.2,1-.7,2.2-.7s3.5.9,3.5,4.4v4.3a5,5,0,0,1,4.6-2.7C130.5,48.6,131.9,51.4,131.9,54.6Z"/><path d="M137.3,41.8c1.8,0,3,1,3,2.7s-1.1,2.7-3,2.7-3.1-1-3.1-2.7S135.4,41.8,137.3,41.8Zm-2.9,9.7c0-2.1,1.1-2.8,2.6-2.8h.6c1.5,0,2.5.6,2.5,2.8v9.6c0,2-1,2.8-2.5,2.8H137c-1.5,0-2.6-.7-2.6-2.8Z"/><path d="M140,66.8a2.8,2.8,0,0,1,1.1-2.2,1.7,1.7,0,0,0,1.3.7,1.2,1.2,0,0,0,1.3-1.4V51.5c0-2.1,1-2.8,2.5-2.8h.6c1.6,0,2.6.6,2.6,2.8V64.2c0,3.5-1.9,5.5-5.4,5.5-1.8,0-3-.4-3.7-1.4A3.3,3.3,0,0,1,140,66.8Zm6.5-25c1.9,0,3.1,1,3.1,2.7s-1.1,2.7-3,2.7-3.1-1-3.1-2.7S144.6,41.8,146.5,41.8Z"/><path d="M152.1,43.3c0-.2,1-.7,2.2-.7s3.5.9,3.5,4.4v7.7l3-4.3a3.5,3.5,0,0,1,3-1.8c1.7,0,3.2,1.5,3.1,1.8l-4.1,5.7,4.5,6.1c.1.3-1.5,1.8-3.2,1.8a3.6,3.6,0,0,1-3.1-1.8l-3.2-4.4v3.3c0,2-1,2.8-2.5,2.8h-.6c-1.6,0-2.6-.7-2.6-2.8Z"/><path d="M168.9,61.1V43.3c0-.2,1-.7,2.2-.7s3.6.9,3.6,4.4V61.1c0,2-1.1,2.8-2.6,2.8h-.6C170,63.9,168.9,63.2,168.9,61.1Z"/><path d="M202,54.2v6.9c0,2-1.1,2.8-2.6,2.8h-.6c-1.5,0-2.6-.7-2.6-2.8V55.3c0-1.4-.6-2.1-1.7-2.1a2.6,2.6,0,0,0-2,1.1v6.8c0,2.1-1,2.8-2.5,2.8h-.6c-1.6,0-2.6-.7-2.6-2.8V55.3q0-2.1-1.8-2.1a2.4,2.4,0,0,0-1.9,1.1v6.8c0,2.1-1.1,2.8-2.6,2.8h-.6c-1.5,0-2.6-.7-2.6-2.8V49.4c0-.2,1-.7,2.2-.7a3.1,3.1,0,0,1,3.3,2.6,5.1,5.1,0,0,1,4.7-2.7,4.5,4.5,0,0,1,4.6,2.9,5.1,5.1,0,0,1,4.8-2.9C200.7,48.6,202,51.1,202,54.2Z"/><path d="M220.1,54.4v6.7c0,2-1.1,2.8-2.6,2.8h-.6c-1.5,0-2.6-.7-2.6-2.8V55.4c0-1.3-.7-2.2-1.9-2.2a2.5,2.5,0,0,0-2.2,1.2v6.7c0,2.1-1.1,2.8-2.5,2.8h-.6c-1.6,0-2.6-.7-2.6-2.8V49.4c0-.2,1-.7,2.2-.7a3.1,3.1,0,0,1,3.2,2.6,5.6,5.6,0,0,1,4.9-2.7C218.7,48.6,220.1,51.3,220.1,54.4Z"/><path d="M230,48.6c4.9,0,8.1,3.1,8.1,7.7s-3.2,7.8-8.1,7.8-8.1-3-8.1-7.8S225.2,48.6,230,48.6Zm0,4.3a3.2,3.2,0,0,0-3.2,3.4,3.1,3.1,0,0,0,3.2,3.4,3.2,3.2,0,0,0,3.2-3.4A3.2,3.2,0,0,0,230,52.9Z"/><path d="M256.9,56.3c0,4.6-2.7,7.8-6.7,7.8a4.7,4.7,0,0,1-4.4-2.5v5.1c0,2.1-1,2.8-2.5,2.8h-.6c-1.5,0-2.6-.6-2.6-2.8V49.4c0-.2,1-.7,2.2-.7a3.2,3.2,0,0,1,3.3,2.5v.4a4.8,4.8,0,0,1,4.6-3C254.2,48.6,256.9,51.5,256.9,56.3Zm-5.4,0c0-2-1.2-3.3-2.9-3.3a3.2,3.2,0,0,0-2.8,1.7v2.5a2.6,2.6,0,0,0,2.7,2.5C250.3,59.7,251.5,58.4,251.5,56.3Z"/><path d="M275,49.4V66.7c0,2.2-1,2.8-2.6,2.8h-.6c-1.5,0-2.5-.7-2.5-2.8V61.6a4.8,4.8,0,0,1-4.3,2.5c-4.1,0-6.8-3.2-6.8-7.8s2.7-7.7,6.8-7.7a4.8,4.8,0,0,1,4.6,2.6h0a3.1,3.1,0,0,1,3.2-2.4C274,48.7,275,49.2,275,49.4Zm-5.7,5.3a2.9,2.9,0,0,0-2.7-1.7c-1.7,0-2.9,1.3-2.9,3.3s1.2,3.4,2.9,3.4a2.6,2.6,0,0,0,2.7-2.7Z"/><path d="M289.9,51.6a3.2,3.2,0,0,1-1.9,3.1,2.8,2.8,0,0,0-2-.8c-1.8,0-2.6,1.2-2.6,3.6v3.6c0,2.1-1,2.8-2.5,2.8h-.6c-1.6,0-2.6-.7-2.6-2.8V49.4c0-.2,1-.7,2.2-.7a2.9,2.9,0,0,1,2.9,1.8,1.9,1.9,0,0,1,.4.9,3.5,3.5,0,0,1,3.6-2.8A2.9,2.9,0,0,1,289.9,51.6Z"/><path d="M290.5,60.7c0-1.3,1.3-2.3,1.4-2.1a7.5,7.5,0,0,0,4.8,1.7q1.8,0,1.8-.9c0-.7-.9-.9-2.4-1.3s-5.2-1-5.2-4.6,2.4-4.9,6.5-4.9,5.2.7,5.9,2a2.3,2.3,0,0,1,.4,1.4,2.6,2.6,0,0,1-1.5,2.2,7,7,0,0,0-4.3-1.9c-1.2,0-1.8.4-1.8,1s1,.8,2.6,1.2,5.4,1.1,5.4,4.6-2.4,4.9-7,4.9a11.1,11.1,0,0,1-5.1-.9A2.7,2.7,0,0,1,290.5,60.7Z"/><path d="M307.5,58.8V53.2h-.4c-1.5,0-2.3-.7-2.3-1.9v-.4c0-1.3.8-2,2.3-2h.4V47.4c0-1.8.9-2.7,2.6-2.7h.5c1.5,0,2.5.6,2.5,2.7v1.5h1.7c1.5,0,2.3.6,2.3,1.9v.3c0,1.4-.8,2.1-2.3,2.1H313v5c0,1,.4,1.5,1.3,1.5a1.9,1.9,0,0,0,1.6-1,2.4,2.4,0,0,1,1.3,2.2,2.7,2.7,0,0,1-.9,2,4.7,4.7,0,0,1-3.6,1.2C309.2,64.1,307.5,62.4,307.5,58.8Z"/><path d="M334.2,51.5V63.2c0,.2-1,.7-2.2.7a3.4,3.4,0,0,1-3.1-1.9c0-.2-.1-.4-.1-.7a5.6,5.6,0,0,1-4.9,2.8c-3.9,0-5.3-2.7-5.3-5.8V51.5c0-2.1,1.1-2.8,2.5-2.8h.6c1.6,0,2.7.6,2.7,2.8v5.8a1.8,1.8,0,0,0,1.9,2.1,2.5,2.5,0,0,0,2.2-1.1V51.5c0-2.1,1-2.8,2.5-2.8h.6C333.2,48.7,334.2,49.3,334.2,51.5Z"/><path d="M335.8,50.3c-.1-.3,1.5-1.7,3.2-1.7s2.4.6,3,2.7l2.1,6.7,2.2-6.7c.6-2.1,1.8-2.7,2.9-2.7s3.3,1.4,3.2,1.7l-5.2,12.3c-.5,1.1-2.1,1.3-3.1,1.3s-2.6-.2-3.1-1.3Z"/><path d="M356.9,62.4l-4-12.1c-.1-.3,1.9-1.7,3.5-1.7a2.5,2.5,0,0,1,2.6,2.2l1.3,7.1,1.8-6.2a2.7,2.7,0,0,1,2.8-1.8,2.6,2.6,0,0,1,2.8,1.8l1.6,5.9,1.3-6.8a2.3,2.3,0,0,1,2.4-2.2c1.7,0,3.6,1.4,3.5,1.7l-3.9,12.1c-.4,1.3-1.9,1.5-2.8,1.5s-2.7-.3-3.2-1.9l-1.9-5.7L362.9,62c-.5,1.6-1.4,1.9-3.2,1.9S357.3,63.7,356.9,62.4Z"/><path d="M381.3,56.3l-4-5.9c-.3-.3,1.4-1.8,3.2-1.8a2.9,2.9,0,0,1,2.9,1.9l1.7,2.8,1.6-2.8a3.2,3.2,0,0,1,2.9-1.9c1.8,0,3.5,1.5,3.3,1.8l-4.1,5.9,4.1,5.8c.2.3-1.4,1.8-3.4,1.8a3,3,0,0,1-2.8-1.8L385,59.3,383.4,62a3,3,0,0,1-2.9,1.9c-1.8,0-3.5-1.5-3.3-1.8Z"/><path d="M397.4,67.8l2.4-5.2a1.5,1.5,0,0,1-1.4-1l-5-11.3c-.1-.3,1.6-1.6,3.3-1.7s2.3.6,2.9,2.7l2.3,6.5,2-6.5c.6-2,1.8-2.7,3-2.7s3.3,1.4,3.1,1.7l-6.5,16.5c-.7,1.9-1.8,2.6-3,2.6S397.2,68.1,397.4,67.8Z"/><path d="M410.8,61.6a2.9,2.9,0,0,1,1-2.5l5.3-5.9h-4c-1.4,0-2.2-.7-2.2-2v-.3c0-1.3.8-2,2.2-2h9.1a1.8,1.8,0,0,1,2.1,1.9V51a2.7,2.7,0,0,1-1,2.4l-5.5,6h4.7c1.4,0,2.1.6,2.1,2v.3a1.8,1.8,0,0,1-2.1,2h-9.7a1.9,1.9,0,0,1-2-1.9Z"/><path d="M4.6,106.8V91.6a2.7,2.7,0,0,1-2.2,1.1,2.4,2.4,0,0,1-1.7-.6A1.6,1.6,0,0,1,.2,91a1.5,1.5,0,0,1,.6-1.2A2.5,2.5,0,0,0,5,88.2h.8a1,1,0,0,1,1,1.1v17.5a.9.9,0,0,1-1,1H5.5C4.9,107.8,4.6,107.5,4.6,106.8Z"/><path d="M11.1,106.4v-.7c0-4.1,3-5.9,6-7.4s4.8-2.4,4.8-4.8-1.5-3.6-4.2-3.6a4.9,4.9,0,0,0-5,4c0,.2-1.5.1-1.5-1.1a4.3,4.3,0,0,1,1.5-2.9A7,7,0,0,1,17.8,88c4,0,6.4,2.2,6.4,5.5s-2.6,4.7-5.6,6.2-5.1,2.7-5.3,5.4v.6H23.4c.8,0,1.1.3,1.1.9v.2c0,.6-.3.9-1.1.9H12.6C11.6,107.7,11.1,107.4,11.1,106.4Z"/><path d="M27.2,106.2a3.6,3.6,0,0,1-1.4-2.4,1.2,1.2,0,0,1,1.3-1.2,5.4,5.4,0,0,0,5.5,3.6c3,0,4.9-1.5,4.9-3.9s-1.7-3.9-4.9-3.9H31c-.8,0-1.1-.3-1.1-.8v-.2c0-.6.4-.8,1-.8h2c2.6,0,4.1-1.3,4.1-3.4s-1.7-3.4-4.4-3.4a5.2,5.2,0,0,0-4.9,3.1,1.3,1.3,0,0,1-1.3-1.2,2.9,2.9,0,0,1,1.1-1.9A7.7,7.7,0,0,1,32.7,88c4.1,0,6.5,1.9,6.5,5.1a4.3,4.3,0,0,1-3.4,4.3,5,5,0,0,1,3.9,5c0,3.5-2.7,5.6-7.1,5.6A8.1,8.1,0,0,1,27.2,106.2Z"/><path d="M51.8,106.8v-4.6H43.5c-.9,0-1.5-.4-1.5-1.1v-.5a3.5,3.5,0,0,1,.7-1.6l7.6-9.7c.6-.9.9-1.1,1.9-1.1s1.8.4,1.8,1.4v10.7h2.4c.7,0,1,.3,1,.9h0c0,.6-.3.9-1,.9H54v4.6c0,.7-.3,1-1,1h-.3A.9.9,0,0,1,51.8,106.8Zm.1-6.5V90.1L44,100.3Z"/><path d="M60.2,106.3a2.7,2.7,0,0,1-1.2-2c0-.9,1-1.3,1.1-1.2a6,6,0,0,0,5.5,3c3,0,4.9-1.6,4.9-4.3s-1.8-4.2-4.7-4.2A7.3,7.3,0,0,0,61.1,99a1.4,1.4,0,0,1-1.4-1.5V89.6A1.3,1.3,0,0,1,61,88.3h9.7c.7,0,1.1.3,1.1,1h0c0,.6-.4.9-1.1.9H61.8v6.5a8.9,8.9,0,0,1,4.3-1.1c3.9,0,6.6,2.3,6.6,6s-2.8,6.3-7.1,6.3A8.5,8.5,0,0,1,60.2,106.3Z"/><path d="M75.3,99.2V97.1c0-5.7,2.9-9.1,7.7-9.1a7.6,7.6,0,0,1,4.8,1.5,2.6,2.6,0,0,1,1,1.8c0,.8-1,1.2-1.1,1.2A5.3,5.3,0,0,0,83,89.9c-3.1,0-5.2,2.1-5.5,6v2.4a7.4,7.4,0,0,1,5.7-2.6c3.8,0,6.4,2.2,6.4,5.8h0c0,3.7-2.8,6.4-6.8,6.4S75.3,104.7,75.3,99.2Zm12.1,2.6v-.2c0-2.7-1.7-4.2-4.6-4.2a6.3,6.3,0,0,0-5.3,2.8,4.3,4.3,0,0,1,.1.5c.3,3.6,2.2,5.5,5.1,5.5S87.4,104.5,87.4,101.8Z"/><path d="M94.1,107l8.7-16.6H92.5c-.7,0-1-.3-1-.9v-.2a.9.9,0,0,1,1-1h11.3c1.2,0,1.4.5,1.4,1.1v.2a4.6,4.6,0,0,1-.6,1.6L96.5,107a1.1,1.1,0,0,1-1.2.8C94.6,107.8,94,107.1,94.1,107Z"/><path d="M107,102.6c0-2.3,1.5-4.2,4.3-4.9-2.5-.7-3.7-2.3-3.7-4.4s2.7-5.3,6.8-5.3,6.6,2.1,6.6,5.2a4.5,4.5,0,0,1-3.6,4.5c2.8.7,4.2,2.6,4.2,4.9s-2.9,5.4-7.3,5.4S107,105.9,107,102.6Zm12.4-.2c0-2.3-1.9-3.9-5.1-3.9s-5,1.6-5,3.9,1.8,3.9,5.1,3.9S119.4,104.8,119.4,102.4Zm-.6-9c0-2.2-1.6-3.6-4.5-3.6s-4.5,1.4-4.5,3.6,1.7,3.5,4.6,3.5S118.8,95.6,118.8,93.4Z"/><path d="M125.7,106.5a2.4,2.4,0,0,1-1.1-1.8,1.4,1.4,0,0,1,1-1.2,5.5,5.5,0,0,0,4.9,2.7c3.3,0,5.2-1.9,5.6-5.9V98a7.4,7.4,0,0,1-5.7,2.6c-3.9,0-6.4-2.2-6.4-5.8h0a6.5,6.5,0,0,1,6.8-6.7c4.5,0,7.5,3.1,7.5,8.8v2.1c0,6-2.8,9.1-7.8,9.1A6.9,6.9,0,0,1,125.7,106.5ZM136,96.1v-.5c-.3-3.7-2.2-5.8-5.1-5.8a4.5,4.5,0,0,0-4.7,4.7v.2c0,2.7,1.7,4.2,4.6,4.2A6.2,6.2,0,0,0,136,96.1Z"/><path d="M141.5,99V97.1c0-5.6,2.9-9.1,7.7-9.1s7.7,3.5,7.7,9v2c0,5.5-3,9-7.8,9S141.5,104.6,141.5,99Zm13.1.1V97c0-4.4-2.1-7.1-5.4-7.1s-5.4,2.6-5.4,7.1v2c0,4.5,2,7.1,5.4,7.1S154.6,103.5,154.6,99.1Z"/></g></g></svg>