<svg xmlns="http://www.w3.org/2000/svg" width="463" height="108" viewBox="0 0 463 108"><path d="M0 19.1L7 .9c.1-.5.5-.7 1.6-.7s1.4.2 1.6.7l7 18.2a1.2 1.2 0 0 1-1.2.7c-.6.1-1.1-.2-1.4-1l-2-5.3H4.5l-2 5.3c-.3.9-.9 1.1-1.4 1s-1.2-.5-1.1-.7zm12-7.5L8.5 2.5l-3.4 9.1zm7.8 6.8V1.6A1.2 1.2 0 0 1 21 .3h6.1c4.1 0 6.3 1.8 6.3 5s-1.2 3.6-3.5 4.3c2.9.6 4.3 2.3 4.3 4.8s-2.3 5.3-7 5.3H21c-.8 0-1.2-.5-1.2-1.3zM26.9 9c2.6 0 4.2-1.4 4.2-3.5s-1.4-3.3-4.2-3.3H22V9zm.2 8.9c3.3 0 4.8-1.1 4.8-3.7s-1.6-3.5-4.8-3.5H22v7.2zM46.3 0a8.7 8.7 0 0 1 5.8 2 3.1 3.1 0 0 1 1.3 2.1A1.3 1.3 0 0 1 52 5.4 6.4 6.4 0 0 0 46.3 2c-4.3 0-7.2 3.2-7.2 8s3 8.1 7.2 8.1a6 6 0 0 0 5.9-3.9c0-.1 1.5.1 1.5 1.3a4 4 0 0 1-1.5 2.5 8.7 8.7 0 0 1-6 2c-5.6 0-9.4-4.1-9.4-9.9S40.6 0 46.3 0zm10.5 1.6A1.3 1.3 0 0 1 58.1.3h4.5C69.1.3 73 4 73 10s-4 9.7-10.5 9.7h-4.4a1.3 1.3 0 0 1-1.3-1.3zM70.6 10c0-4.9-2.9-7.7-8-7.7h-3.5v15.5h3.5c5.1 0 8-2.8 8-7.8zm5.9 8.4V1.6A1.2 1.2 0 0 1 77.7.3h11.2a.9.9 0 0 1 1 1c0 .6-.3.9-1 .9H78.7v6.6h7.8c.7 0 1.1.3 1.1.9 0 .7-.4 1-1.1 1h-7.8v6.9h10.4c.7 0 1.1.3 1.1.9v.2c0 .6-.4.9-1.1.9H77.7a1.2 1.2 0 0 1-1.2-1.2zM93.3 1.6A1.3 1.3 0 0 1 94.6.3h10.5a.9.9 0 0 1 1 .9v.2c0 .6-.3.9-1 .9h-9.5v7.2h7c.7 0 1.1.3 1.1.9 0 .7-.4.9-1.1.9h-7v7.4a.9.9 0 0 1-1 1h-.3a1 1 0 0 1-1-1.1zm32.4 9.7v8.3c0 .1-.3.2-.8.2s-1.1-.3-1.2-1.8v-1.7c-1 2.3-3.4 3.7-6.7 3.7-5.4 0-8.9-4.2-8.9-9.9S112 0 117.7 0a8.6 8.6 0 0 1 5.7 1.9 3.6 3.6 0 0 1 1.4 2.1 1.2 1.2 0 0 1-1.4 1.2 6.4 6.4 0 0 0-5.8-3.3c-4.2 0-7.1 3.3-7.1 8.2s2.6 8.1 7 8.1a5.9 5.9 0 0 0 6.2-5.1v-1.3h-5.2c-.7 0-1.1-.3-1.1-.9 0-.6.4-.9 1.1-.9h5.9a1.2 1.2 0 0 1 1.3 1.3zm3.9 7.5V1.3c0-.7.3-1.1.9-1.1h.3c.7 0 1 .4 1 1.1V9h11.1V1.3c0-.7.3-1.1.9-1.1h.3c.7 0 1 .4 1 1.1v17.5a.9.9 0 0 1-1 1h-.3c-.6 0-.9-.4-.9-1V11h-11.1v7.8a.9.9 0 0 1-1 1h-.3c-.6 0-.9-.4-.9-1zm20.2-17.5c0-.7.3-1.1.9-1.1h.4a1 1 0 0 1 1 1.1v17.5a.9.9 0 0 1-1 1h-.4c-.6 0-.9-.4-.9-1zm6.5 14.4a4 4 0 0 0 3.7 2.4c2.5 0 3.6-1.4 3.6-4.7V1.3c0-.7.3-1.1 1-1.1h.3c.6 0 .9.4.9 1.1v12.1c0 4.5-1.8 6.6-5.7 6.6s-4.9-1.8-4.9-3 1-1.4 1.1-1.3zM170 1.3c0-.7.3-1.1.9-1.1h.3c.7 0 1 .4 1 1.1v8.2l8.3-8.6a1.4 1.4 0 0 1 1.5-.6 1.1 1.1 0 0 1 1 1l-8.4 8.5 8.6 9c.1.3-.3.9-1.1 1a1.4 1.4 0 0 1-1.4-.6l-8.5-9v8.6a.9.9 0 0 1-1 1h-.3c-.6 0-.9-.4-.9-1zm16.3 17.1V1.3c0-.8.3-1.1.9-1.1h.3c.7 0 1 .3 1 1.1v16.4h8.7c.7 0 1.1.3 1.1.9 0 .7-.4 1-1.1 1h-9.7a1.2 1.2 0 0 1-1.2-1.2zm15-16.9a1.2 1.2 0 0 1 1.4-1.3h.6c.9 0 1.2.4 1.5 1.3l5.3 11 5.2-11c.4-.9.7-1.3 1.6-1.3h.5a1.2 1.2 0 0 1 1.4 1.3v17.3c0 .6-.3 1-.9 1h-.3c-.6 0-.9-.4-.9-1V3l-5.1 10.7c-.3.7-.6 1.1-1.5 1.1a1.4 1.4 0 0 1-1.6-1.1L203.4 3v15.8c0 .6-.2 1-.9 1h-.3c-.7 0-.9-.4-.9-1zm21.9 17.3V1.6c0-.8.4-1.4 1.1-1.4h.4a1.8 1.8 0 0 1 1.5 1l10.5 15V1.3c0-.7.2-1.1.9-1.1h.3c.6 0 .9.4.9 1.1v17.2c0 .8-.4 1.3-1.1 1.3h-.2a1.1 1.1 0 0 1-1.2-.7l-11-15.6v15.3c0 .6-.3 1-.9 1h-.3c-.6 0-.9-.4-.9-1zm19.1-8.7c0-5.9 3.9-10.1 9.5-10.1s9.5 4.1 9.5 10-3.9 10-9.5 10-9.5-4-9.5-9.9zm16.6-.1c0-4.7-2.9-8.1-7.1-8.1s-7.2 3.3-7.2 8.1 3 8.1 7.2 8.1 7.1-3.3 7.1-8.1zm5.9 8.8V1.6A1.2 1.2 0 0 1 266 .3h4.9c4.6 0 7.2 2.2 7.2 6s-2.5 6.1-7.3 6.1H267v6.4a.9.9 0 0 1-1 1h-.3c-.6 0-.9-.4-.9-1zm11-12.4c0-2.7-1.7-4.2-4.9-4.2H267v8.3h3.9c3.2 0 4.9-1.4 4.9-4.1zm23.5 12.7a1.5 1.5 0 0 1-1.3.9 1.7 1.7 0 0 1-1.2-.6l-1.3-1.3a8.5 8.5 0 0 1-5.7 1.9c-5.6 0-9.4-4-9.4-9.9S284.2 0 289.9 0s9.4 4.1 9.4 10a10.4 10.4 0 0 1-2.4 6.8zm-9.5-1a6.6 6.6 0 0 0 4.4-1.4l-3.7-3.8c-.4-.4-.5-1.1-.1-1.4h.1a.9.9 0 0 1 1.4.2l3.6 3.6A8.6 8.6 0 0 0 297 10c0-4.7-2.9-8.1-7.2-8.1s-7.1 3.3-7.1 8.1 2.9 8.1 7.1 8.1zm13 .6V1.6a1.3 1.3 0 0 1 1.3-1.3h5.2c4.6 0 7 2 7 5.7s-2.1 5.3-5.7 5.5h-.8l6.5 7.3c.1.1-.4.9-1.4.9a1.5 1.5 0 0 1-1.3-.8l-6.4-7.3H305v7.1c0 .6-.3 1-.9 1h-.3a1 1 0 0 1-1-1zm6.5-8.7c3.2 0 4.7-1.5 4.7-3.9s-1.6-3.9-4.8-3.9H305V10zm9.4 6.2c0-.8.9-1.4 1-1.3a6.3 6.3 0 0 0 5.8 3.3c2.9 0 4.7-1.4 4.7-3.6s-2.4-3.1-5.2-3.7-5.9-1.8-5.9-5.5 2.8-5.4 6.6-5.4a7.9 7.9 0 0 1 5.3 1.7 2.8 2.8 0 0 1 1 1.7 1.5 1.5 0 0 1-1.1 1.3 5.9 5.9 0 0 0-5.2-2.8c-2.6 0-4.4 1.3-4.4 3.4s2.1 2.9 4.8 3.6 6.3 1.9 6.3 5.6-2.7 5.5-6.8 5.5a8.4 8.4 0 0 1-6-2 2.8 2.8 0 0 1-.9-1.8zm22-13.8H335a1 1 0 0 1-1.1-1 1 1 0 0 1 1.1-1h13.6a1 1 0 0 1 1.1 1 1 1 0 0 1-1.1 1h-5.7v16.4a.9.9 0 0 1-1 1h-.3c-.6 0-.9-.4-.9-1zm11.5-1.1a1 1 0 0 1 1-1.1h.3a1 1 0 0 1 1 1.1V12c0 4 1.7 6 5.2 6s5.2-2 5.2-6V1.3c0-.8.4-1.1 1-1.1h.4c.6 0 .9.3.9 1.1V12c0 5.3-2.6 8-7.5 8s-7.5-2.7-7.5-7.9zm24.3 17.8l-7-18.2c0-.2.6-.6 1.2-.7a1.5 1.5 0 0 1 1.5 1.1l5.8 16.1 5.9-16.1a1.4 1.4 0 0 1 1.4-1.1c.6.1 1.2.5 1.2.7l-7 18.2c-.2.5-.6.8-1.5.8a1.4 1.4 0 0 1-1.5-.8zm16.3-.1L388.3.8a1.5 1.5 0 0 1 1.3-.6c.5 0 1.1.3 1.3 1.4l3.6 15.8 4.1-13.2a1.3 1.3 0 0 1 1.5-1.1c1 0 1.4.3 1.6 1.1l4.1 13.2 3.6-15.8c.2-1.1.8-1.4 1.3-1.4a1.4 1.4 0 0 1 1.2.6L407.4 19c-.1.7-.5.9-1.6.9s-1.3-.3-1.5-.9l-4.2-13.4-4.3 13.4c-.1.6-.5.9-1.4.9s-1.5-.2-1.6-.9zm27.7-9.1l-6.3-8.7c-.1-.2.4-1 1.3-1a1.4 1.4 0 0 1 1.2.8l5.3 7.5 5.4-7.5a1.2 1.2 0 0 1 1.1-.8c.8 0 1.3.8 1.2.9l-6.4 8.8 6.5 8.9c.1.2-.5 1-1.3 1a1.4 1.4 0 0 1-1.2-.8l-5.4-7.7-5.6 7.7a1.2 1.2 0 0 1-1.1.8c-.8 0-1.3-.7-1.2-.9zm17 8.9v-7.2l-6.8-10.5c-.1-.2.4-.9 1.3-.9a1.2 1.2 0 0 1 1.2.8l5.4 8.6 5.5-8.6a1.3 1.3 0 0 1 1.2-.8c.8 0 1.3.8 1.2.9l-6.8 10.5v7.2c0 .7-.3 1-.9 1h-.3a.9.9 0 0 1-1-1zm10.6-.4c0-.7.2-1.1 1-2.1l10.9-14h-10.8c-.6 0-1-.3-1-.9a.9.9 0 0 1 1-1h11.9c1.1 0 1.5.5 1.5 1.1v.2a3.7 3.7 0 0 1-1 2.1l-10.9 14H462c.6 0 1 .3 1 .9v.2c0 .6-.4.9-1 .9h-12.4c-1 0-1.5-.5-1.5-1.1zM9.2 54.9h.7a4.3 4.3 0 0 0-.1-.5c-.1-1.2-.9-1.8-2.2-1.8s-2.7.9-3 1.8-3.8.5-3.8-2a2.8 2.8 0 0 1 .8-2.1c1-1.1 3-1.7 6.3-1.7 5.3 0 7.7 2.1 7.7 6.4v8.3c0 .4-1.2.7-2.3.7a3.1 3.1 0 0 1-2.8-1.5 3 3 0 0 1-.4-1 5.5 5.5 0 0 1-5 2.5c-3 0-4.9-1.7-4.9-4.2s3.3-4.9 9-4.9zm.7 2.4h-.8c-2.3 0-3.6.5-3.6 1.8s.7 1.4 1.7 1.4a2.4 2.4 0 0 0 2.7-2.3zm13.6 5.1a2.2 2.2 0 0 1-2.3 1.5h-.6c-1.6 0-2.6-.7-2.6-2.8V43.3c0-.2 1-.7 2.2-.7s3.5.9 3.5 4.4v3.7a4.9 4.9 0 0 1 4.3-2.1c4.1 0 6.8 2.9 6.8 7.7s-2.7 7.8-6.8 7.8a4.5 4.5 0 0 1-4.3-2.6zm2.9-9.4a3 3 0 0 0-2.7 1.7v2.4a2.5 2.5 0 0 0 2.7 2.6c1.7 0 2.9-1.3 2.9-3.4S28.2 53 26.4 53zM44 48.6a7.7 7.7 0 0 1 4.9 1.4 3.4 3.4 0 0 1 1.4 2.5c0 2.3-3 2.7-3.1 2.5a2.9 2.9 0 0 0-2.9-1.9 3.3 3.3 0 0 0 0 6.5 2.9 2.9 0 0 0 2.9-1.9c.1-.2 3.1.1 3.1 2.5a3.6 3.6 0 0 1-1.5 2.5 7.4 7.4 0 0 1-4.8 1.4c-4.7 0-7.9-3.1-7.9-7.8a7.5 7.5 0 0 1 7.9-7.7zm7.4 7.7c0-4.7 2.7-7.7 6.8-7.7a5.2 5.2 0 0 1 4.3 2v-7.3c0-.2 1-.7 2.2-.7s3.6.9 3.6 4.4v14.1c0 2-1.1 2.8-2.6 2.8h-.6a2.1 2.1 0 0 1-2.4-1.6 2.8 2.8 0 0 1-.1-.9 4.7 4.7 0 0 1-4.4 2.7c-4.1 0-6.8-3.2-6.8-7.8zm11.1-1.6a2.9 2.9 0 0 0-2.6-1.7 3 3 0 0 0-3 3.3c0 2 1.2 3.4 2.9 3.4a2.5 2.5 0 0 0 2.7-2.6zm15.6-6.1c4.6 0 7.7 3.1 7.7 7.4v.2c0 .9-.3 1.4-1.2 1.4h-9.4c0 .2 0 .3.1.4a3.2 3.2 0 0 0 3.4 2.2 3.8 3.8 0 0 0 3.6-1.8s2.7.1 2.7 2.3a2.8 2.8 0 0 1-1.7 2.4 9 9 0 0 1-4.8 1c-5.1 0-8.2-2.8-8.2-7.6a7.6 7.6 0 0 1 7.8-7.9zm0 3.6a2.9 2.9 0 0 0-2.9 2.7h5.5a2.5 2.5 0 0 0-2.6-2.7zm11.3 1h-.6c-1.5 0-2.3-.7-2.3-2.1v-.3c0-1.3.8-1.9 2.3-1.9h.6v-.5c0-4.5 2.4-5.9 5.7-5.9a5.2 5.2 0 0 1 3.5 1 2.3 2.3 0 0 1 .7 1.7 2.6 2.6 0 0 1-1.1 2.2 3.3 3.3 0 0 0-1.8-.7c-1 0-1.4.5-1.4 1.7v.5h1.2c1.5 0 2.3.7 2.3 2v.4c0 1.2-.8 1.9-2.3 1.9h-1v7.9c0 2.1-1 2.8-2.6 2.8H92c-1.5 0-2.6-.8-2.6-2.8zM98.5 66c0-2.1 1.9-3.4 4.5-3.8a1.9 1.9 0 0 1-.5-1.3 1.9 1.9 0 0 1 1.3-1.8c-2.8-.7-4.3-2.5-4.3-4.9s3-5.6 7.2-5.6a7.7 7.7 0 0 1 2.7.4l.5-1c.7-1.4 1.5-1.9 2.6-1.9a2.9 2.9 0 0 1 2.7 2.4l-2.6 2.4a4.5 4.5 0 0 1 1.4 3.3c0 3-2.4 5-6.4 5.2h-.7c.1.2.3.3.7.5a10.8 10.8 0 0 0 3 .9c2.1.6 4.3 1.8 4.3 4.4s-3 4.8-8.3 4.8-8.1-1.3-8.1-4zm11.1 0c0-.8-.7-1.1-1.8-1.4l-1.2-.3c-1.8.2-2.9.8-2.9 1.8s1 1.4 3 1.4 2.9-.6 2.9-1.5zm-.7-11.9a2.1 2.1 0 0 0-2.2-2.2 2.2 2.2 0 0 0-2.2 2.2 2.2 2.2 0 0 0 2.2 2.3 2.1 2.1 0 0 0 2.2-2.3zm23 .5v6.5c0 2-1.1 2.8-2.5 2.8h-.6c-1.6 0-2.7-.7-2.7-2.8v-5.6c0-1.4-.7-2.3-1.8-2.3a2.1 2.1 0 0 0-2.3 2.4v5.5c0 2.1-1.1 2.8-2.5 2.8h-.6c-1.5 0-2.6-.7-2.6-2.8V43.3c0-.2 1-.7 2.2-.7s3.5.9 3.5 4.4v4.3a5 5 0 0 1 4.6-2.7c3.9 0 5.3 2.8 5.3 6zm5.4-12.8c1.8 0 3 1 3 2.7s-1.1 2.7-3 2.7-3.1-1-3.1-2.7 1.2-2.7 3.1-2.7zm-2.9 9.7c0-2.1 1.1-2.8 2.6-2.8h.6c1.5 0 2.5.6 2.5 2.8v9.6c0 2-1 2.8-2.5 2.8h-.6c-1.5 0-2.6-.7-2.6-2.8zm5.6 15.3a2.8 2.8 0 0 1 1.1-2.2 1.7 1.7 0 0 0 1.3.7 1.2 1.2 0 0 0 1.3-1.4V51.5c0-2.1 1-2.8 2.5-2.8h.6c1.6 0 2.6.6 2.6 2.8v12.7c0 3.5-1.9 5.5-5.4 5.5-1.8 0-3-.4-3.7-1.4a3.3 3.3 0 0 1-.3-1.5zm6.5-25c1.9 0 3.1 1 3.1 2.7s-1.1 2.7-3 2.7-3.1-1-3.1-2.7 1.1-2.7 3-2.7zm5.6 1.5c0-.2 1-.7 2.2-.7s3.5.9 3.5 4.4v7.7l3-4.3a3.5 3.5 0 0 1 3-1.8c1.7 0 3.2 1.5 3.1 1.8l-4.1 5.7 4.5 6.1c.1.3-1.5 1.8-3.2 1.8a3.6 3.6 0 0 1-3.1-1.8l-3.2-4.4v3.3c0 2-1 2.8-2.5 2.8h-.6c-1.6 0-2.6-.7-2.6-2.8zm16.8 17.8V43.3c0-.2 1-.7 2.2-.7s3.6.9 3.6 4.4v14.1c0 2-1.1 2.8-2.6 2.8h-.6c-1.5 0-2.6-.7-2.6-2.8zm33.1-6.9v6.9c0 2-1.1 2.8-2.6 2.8h-.6c-1.5 0-2.6-.7-2.6-2.8v-5.8c0-1.4-.6-2.1-1.7-2.1a2.6 2.6 0 0 0-2 1.1v6.8c0 2.1-1 2.8-2.5 2.8h-.6c-1.6 0-2.6-.7-2.6-2.8v-5.8q0-2.1-1.8-2.1a2.4 2.4 0 0 0-1.9 1.1v6.8c0 2.1-1.1 2.8-2.6 2.8h-.6c-1.5 0-2.6-.7-2.6-2.8V49.4c0-.2 1-.7 2.2-.7a3.1 3.1 0 0 1 3.3 2.6 5.1 5.1 0 0 1 4.7-2.7 4.5 4.5 0 0 1 4.6 2.9 5.1 5.1 0 0 1 4.8-2.9c3.8 0 5.1 2.5 5.1 5.6zm18.1.2v6.7c0 2-1.1 2.8-2.6 2.8h-.6c-1.5 0-2.6-.7-2.6-2.8v-5.7c0-1.3-.7-2.2-1.9-2.2a2.5 2.5 0 0 0-2.2 1.2v6.7c0 2.1-1.1 2.8-2.5 2.8h-.6c-1.6 0-2.6-.7-2.6-2.8V49.4c0-.2 1-.7 2.2-.7a3.1 3.1 0 0 1 3.2 2.6 5.6 5.6 0 0 1 4.9-2.7c3.9 0 5.3 2.7 5.3 5.8zm9.9-5.8c4.9 0 8.1 3.1 8.1 7.7s-3.2 7.8-8.1 7.8-8.1-3-8.1-7.8 3.3-7.7 8.1-7.7zm0 4.3a3.2 3.2 0 0 0-3.2 3.4 3.1 3.1 0 0 0 3.2 3.4 3.2 3.2 0 0 0 3.2-3.4 3.2 3.2 0 0 0-3.2-3.4zm26.9 3.4c0 4.6-2.7 7.8-6.7 7.8a4.7 4.7 0 0 1-4.4-2.5v5.1c0 2.1-1 2.8-2.5 2.8h-.6c-1.5 0-2.6-.6-2.6-2.8V49.4c0-.2 1-.7 2.2-.7a3.2 3.2 0 0 1 3.3 2.5v.4a4.8 4.8 0 0 1 4.6-3c4 0 6.7 2.9 6.7 7.7zm-5.4 0c0-2-1.2-3.3-2.9-3.3a3.2 3.2 0 0 0-2.8 1.7v2.5a2.6 2.6 0 0 0 2.7 2.5c1.8 0 3-1.3 3-3.4zm23.5-6.9v17.3c0 2.2-1 2.8-2.6 2.8h-.6c-1.5 0-2.5-.7-2.5-2.8v-5.1a4.8 4.8 0 0 1-4.3 2.5c-4.1 0-6.8-3.2-6.8-7.8s2.7-7.7 6.8-7.7a4.8 4.8 0 0 1 4.6 2.6 3.1 3.1 0 0 1 3.2-2.4c1.2-.1 2.2.4 2.2.6zm-5.7 5.3a2.9 2.9 0 0 0-2.7-1.7c-1.7 0-2.9 1.3-2.9 3.3s1.2 3.4 2.9 3.4a2.6 2.6 0 0 0 2.7-2.7zm20.6-3.1a3.2 3.2 0 0 1-1.9 3.1 2.8 2.8 0 0 0-2-.8c-1.8 0-2.6 1.2-2.6 3.6v3.6c0 2.1-1 2.8-2.5 2.8h-.6c-1.6 0-2.6-.7-2.6-2.8V49.4c0-.2 1-.7 2.2-.7a2.9 2.9 0 0 1 2.9 1.8 1.9 1.9 0 0 1 .4.9 3.5 3.5 0 0 1 3.6-2.8 2.9 2.9 0 0 1 3.1 3zm.6 9.1c0-1.3 1.3-2.3 1.4-2.1a7.5 7.5 0 0 0 4.8 1.7q1.8 0 1.8-.9c0-.7-.9-.9-2.4-1.3s-5.2-1-5.2-4.6 2.4-4.9 6.5-4.9 5.2.7 5.9 2a2.3 2.3 0 0 1 .4 1.4 2.6 2.6 0 0 1-1.5 2.2 7 7 0 0 0-4.3-1.9c-1.2 0-1.8.4-1.8 1s1 .8 2.6 1.2 5.4 1.1 5.4 4.6-2.4 4.9-7 4.9a11.1 11.1 0 0 1-5.1-.9 2.7 2.7 0 0 1-1.5-2.4zm17-1.9v-5.6h-.4c-1.5 0-2.3-.7-2.3-1.9v-.4c0-1.3.8-2 2.3-2h.4v-1.5c0-1.8.9-2.7 2.6-2.7h.5c1.5 0 2.5.6 2.5 2.7v1.5h1.7c1.5 0 2.3.6 2.3 1.9v.3c0 1.4-.8 2.1-2.3 2.1H313v5c0 1 .4 1.5 1.3 1.5a1.9 1.9 0 0 0 1.6-1 2.4 2.4 0 0 1 1.3 2.2 2.7 2.7 0 0 1-.9 2 4.7 4.7 0 0 1-3.6 1.2c-3.5 0-5.2-1.7-5.2-5.3zm26.7-7.3v11.7c0 .2-1 .7-2.2.7a3.4 3.4 0 0 1-3.1-1.9c0-.2-.1-.4-.1-.7a5.6 5.6 0 0 1-4.9 2.8c-3.9 0-5.3-2.7-5.3-5.8v-6.8c0-2.1 1.1-2.8 2.5-2.8h.6c1.6 0 2.7.6 2.7 2.8v5.8a1.8 1.8 0 0 0 1.9 2.1 2.5 2.5 0 0 0 2.2-1.1v-6.8c0-2.1 1-2.8 2.5-2.8h.6c1.6 0 2.6.6 2.6 2.8zm1.6-1.2c-.1-.3 1.5-1.7 3.2-1.7s2.4.6 3 2.7l2.1 6.7 2.2-6.7c.6-2.1 1.8-2.7 2.9-2.7s3.3 1.4 3.2 1.7l-5.2 12.3c-.5 1.1-2.1 1.3-3.1 1.3s-2.6-.2-3.1-1.3zm21.1 12.1l-4-12.1c-.1-.3 1.9-1.7 3.5-1.7a2.5 2.5 0 0 1 2.6 2.2l1.3 7.1 1.8-6.2a2.7 2.7 0 0 1 2.8-1.8 2.6 2.6 0 0 1 2.8 1.8l1.6 5.9 1.3-6.8a2.3 2.3 0 0 1 2.4-2.2c1.7 0 3.6 1.4 3.5 1.7l-3.9 12.1c-.4 1.3-1.9 1.5-2.8 1.5s-2.7-.3-3.2-1.9l-1.9-5.7-1.8 5.7c-.5 1.6-1.4 1.9-3.2 1.9s-2.4-.2-2.8-1.5zm24.4-6.1l-4-5.9c-.3-.3 1.4-1.8 3.2-1.8a2.9 2.9 0 0 1 2.9 1.9l1.7 2.8 1.6-2.8a3.2 3.2 0 0 1 2.9-1.9c1.8 0 3.5 1.5 3.3 1.8l-4.1 5.9 4.1 5.8c.2.3-1.4 1.8-3.4 1.8a3 3 0 0 1-2.8-1.8l-1.7-2.8-1.6 2.7a3 3 0 0 1-2.9 1.9c-1.8 0-3.5-1.5-3.3-1.8zm16.1 11.5l2.4-5.2a1.5 1.5 0 0 1-1.4-1l-5-11.3c-.1-.3 1.6-1.6 3.3-1.7s2.3.6 2.9 2.7l2.3 6.5 2-6.5c.6-2 1.8-2.7 3-2.7s3.3 1.4 3.1 1.7l-6.5 16.5c-.7 1.9-1.8 2.6-3 2.6s-3.3-1.3-3.1-1.6zm13.4-6.2a2.9 2.9 0 0 1 1-2.5l5.3-5.9h-4c-1.4 0-2.2-.7-2.2-2v-.3c0-1.3.8-2 2.2-2h9.1a1.8 1.8 0 0 1 2.1 1.9v.2a2.7 2.7 0 0 1-1 2.4l-5.5 6h4.7c1.4 0 2.1.6 2.1 2v.3a1.8 1.8 0 0 1-2.1 2h-9.7a1.9 1.9 0 0 1-2-1.9zM4.6 106.8V91.6a2.7 2.7 0 0 1-2.2 1.1 2.4 2.4 0 0 1-1.7-.6A1.6 1.6 0 0 1 .2 91a1.5 1.5 0 0 1 .6-1.2A2.5 2.5 0 0 0 5 88.2h.8a1 1 0 0 1 1 1.1v17.5a.9.9 0 0 1-1 1h-.3c-.6 0-.9-.3-.9-1zm6.5-.4v-.7c0-4.1 3-5.9 6-7.4s4.8-2.4 4.8-4.8-1.5-3.6-4.2-3.6a4.9 4.9 0 0 0-5 4c0 .2-1.5.1-1.5-1.1a4.3 4.3 0 0 1 1.5-2.9 7 7 0 0 1 5.1-1.9c4 0 6.4 2.2 6.4 5.5s-2.6 4.7-5.6 6.2-5.1 2.7-5.3 5.4v.6h10.1c.8 0 1.1.3 1.1.9v.2c0 .6-.3.9-1.1.9H12.6c-1 0-1.5-.3-1.5-1.3zm16.1-.2a3.6 3.6 0 0 1-1.4-2.4 1.2 1.2 0 0 1 1.3-1.2 5.4 5.4 0 0 0 5.5 3.6c3 0 4.9-1.5 4.9-3.9s-1.7-3.9-4.9-3.9H31c-.8 0-1.1-.3-1.1-.8v-.2c0-.6.4-.8 1-.8h2c2.6 0 4.1-1.3 4.1-3.4s-1.7-3.4-4.4-3.4a5.2 5.2 0 0 0-4.9 3.1 1.3 1.3 0 0 1-1.3-1.2 2.9 2.9 0 0 1 1.1-1.9 7.7 7.7 0 0 1 5.2-1.8c4.1 0 6.5 1.9 6.5 5.1a4.3 4.3 0 0 1-3.4 4.3 5 5 0 0 1 3.9 5c0 3.5-2.7 5.6-7.1 5.6a8.1 8.1 0 0 1-5.4-1.8zm24.6.6v-4.6h-8.3c-.9 0-1.5-.4-1.5-1.1v-.5a3.5 3.5 0 0 1 .7-1.6l7.6-9.7c.6-.9.9-1.1 1.9-1.1s1.8.4 1.8 1.4v10.7h2.4c.7 0 1 .3 1 .9 0 .6-.3.9-1 .9H54v4.6c0 .7-.3 1-1 1h-.3a.9.9 0 0 1-.9-.9zm.1-6.5V90.1L44 100.3zm8.3 6a2.7 2.7 0 0 1-1.2-2c0-.9 1-1.3 1.1-1.2a6 6 0 0 0 5.5 3c3 0 4.9-1.6 4.9-4.3s-1.8-4.2-4.7-4.2a7.3 7.3 0 0 0-4.7 1.4 1.4 1.4 0 0 1-1.4-1.5v-7.9a1.3 1.3 0 0 1 1.3-1.3h9.7c.7 0 1.1.3 1.1 1 0 .6-.4.9-1.1.9h-8.9v6.5a8.9 8.9 0 0 1 4.3-1.1c3.9 0 6.6 2.3 6.6 6s-2.8 6.3-7.1 6.3a8.5 8.5 0 0 1-5.4-1.6zm15.1-7.1v-2.1c0-5.7 2.9-9.1 7.7-9.1a7.6 7.6 0 0 1 4.8 1.5 2.6 2.6 0 0 1 1 1.8c0 .8-1 1.2-1.1 1.2a5.3 5.3 0 0 0-4.7-2.6c-3.1 0-5.2 2.1-5.5 6v2.4a7.4 7.4 0 0 1 5.7-2.6c3.8 0 6.4 2.2 6.4 5.8 0 3.7-2.8 6.4-6.8 6.4s-7.5-3.2-7.5-8.7zm12.1 2.6v-.2c0-2.7-1.7-4.2-4.6-4.2a6.3 6.3 0 0 0-5.3 2.8 4.3 4.3 0 0 1 .1.5c.3 3.6 2.2 5.5 5.1 5.5s4.7-1.7 4.7-4.4zm6.7 5.2l8.7-16.6H92.5c-.7 0-1-.3-1-.9v-.2a.9.9 0 0 1 1-1h11.3c1.2 0 1.4.5 1.4 1.1v.2a4.6 4.6 0 0 1-.6 1.6L96.5 107a1.1 1.1 0 0 1-1.2.8c-.7 0-1.3-.7-1.2-.8zm12.9-4.4c0-2.3 1.5-4.2 4.3-4.9-2.5-.7-3.7-2.3-3.7-4.4s2.7-5.3 6.8-5.3 6.6 2.1 6.6 5.2a4.5 4.5 0 0 1-3.6 4.5c2.8.7 4.2 2.6 4.2 4.9s-2.9 5.4-7.3 5.4-7.3-2.1-7.3-5.4zm12.4-.2c0-2.3-1.9-3.9-5.1-3.9s-5 1.6-5 3.9 1.8 3.9 5.1 3.9 5-1.5 5-3.9zm-.6-9c0-2.2-1.6-3.6-4.5-3.6s-4.5 1.4-4.5 3.6 1.7 3.5 4.6 3.5 4.4-1.3 4.4-3.5zm6.9 13.1a2.4 2.4 0 0 1-1.1-1.8 1.4 1.4 0 0 1 1-1.2 5.5 5.5 0 0 0 4.9 2.7c3.3 0 5.2-1.9 5.6-5.9V98a7.4 7.4 0 0 1-5.7 2.6c-3.9 0-6.4-2.2-6.4-5.8a6.5 6.5 0 0 1 6.8-6.7c4.5 0 7.5 3.1 7.5 8.8V99c0 6-2.8 9.1-7.8 9.1a6.9 6.9 0 0 1-4.8-1.6zM136 96.1v-.5c-.3-3.7-2.2-5.8-5.1-5.8a4.5 4.5 0 0 0-4.7 4.7v.2c0 2.7 1.7 4.2 4.6 4.2a6.2 6.2 0 0 0 5.2-2.8zm5.5 2.9v-1.9c0-5.6 2.9-9.1 7.7-9.1s7.7 3.5 7.7 9v2c0 5.5-3 9-7.8 9s-7.6-3.4-7.6-9zm13.1.1V97c0-4.4-2.1-7.1-5.4-7.1s-5.4 2.6-5.4 7.1v2c0 4.5 2 7.1 5.4 7.1s5.4-2.6 5.4-7z"/></svg>